<svg xmlns="http://www.w3.org/2000/svg" width="2192.696" height="483.699" viewBox="0 0 2192.696 483.699" fill="none">
  <path d="M 2192.68 0.011 L 2192.68 3.011 L 2193.632 3.011 L 2194.41 2.463 L 2192.68 0.011 Z M 966.239 21.917 L 966.668 24.886 L 966.668 24.886 L 966.239 21.917 Z M 679.627 84.747 L 680.485 87.622 L 680.485 87.622 L 679.627 84.747 Z M 420.261 184.163 L 421.553 186.871 L 421.553 186.871 L 420.261 184.163 Z M 7.843 475.411 L 5.676 473.337 L 5.673 473.339 L 7.843 475.411 Z M 0 483.699 L -2.187 481.645 L -6.933 486.699 L 0 486.699 L 0 483.699 Z M 987.186 483.699 L 987.186 486.699 L 988.488 486.699 L 989.377 485.749 L 987.186 483.699 Z M 995.625 474.774 L 997.793 476.848 L 997.793 476.848 L 995.625 474.774 Z M 1182.27 315.022 L 1184 317.473 L 1184 317.473 L 1182.27 315.022 Z M 1408.485 183.214 L 1407.193 180.507 L 1407.193 180.507 L 1408.485 183.214 Z M 1668.125 83.691 L 1668.983 86.565 L 1668.983 86.565 L 1668.125 83.691 Z M 1766.04 57.235 L 1765.34 54.318 L 1765.333 54.319 L 1766.04 57.235 Z M 1768.534 56.633 L 1767.83 53.716 L 1767.823 53.718 L 1767.815 53.72 L 1768.534 56.633 Z M 1955.042 20.792 L 1954.613 17.823 L 1954.613 17.823 L 1955.042 20.792 Z M 2192.696 0 L 2194.426 2.451 L 2202.606 -3.32 L 2192.6 -2.998 L 2192.696 0 Z M 2192.68 0.011 L 2192.68 -2.989 L 1273.959 -2.989 L 1273.959 0.011 L 1273.959 3.011 L 2192.68 3.011 L 2192.68 0.011 Z M 1273.959 0.011 L 1273.959 -2.989 C 1170.224 -2.989 1066.541 4.389 965.81 18.948 L 966.239 21.917 L 966.668 24.886 C 1067.11 10.37 1170.505 3.011 1273.959 3.011 L 1273.959 0.011 Z M 966.239 21.917 L 965.81 18.948 C 867.632 33.136 771.061 54.306 678.768 81.873 L 679.627 84.747 L 680.485 87.622 C 772.489 60.141 868.772 39.034 966.668 24.886 L 966.239 21.917 Z M 679.627 84.747 L 678.768 81.873 C 588.151 108.939 500.741 142.443 418.969 181.455 L 420.261 184.163 L 421.553 186.871 C 503.033 147.998 590.153 114.604 680.485 87.622 L 679.627 84.747 Z M 420.261 184.163 L 418.969 181.455 C 337.971 220.097 261.796 264.482 192.557 313.378 L 194.287 315.829 L 196.018 318.279 C 264.964 269.59 340.843 225.375 421.553 186.871 L 420.261 184.163 Z M 194.287 315.829 L 192.557 313.378 C 123.317 362.275 60.439 416.095 5.676 473.337 L 7.843 475.411 L 10.011 477.484 C 64.49 420.54 127.071 366.969 196.018 318.279 L 194.287 315.829 Z M 7.843 475.411 L 5.673 473.339 C 3.036 476.101 0.416 478.874 -2.187 481.645 L 0 483.699 L 2.187 485.753 C 4.781 482.991 7.39 480.23 10.013 477.482 L 7.843 475.411 Z M 0 483.699 L 0 486.699 L 987.186 486.699 L 987.186 483.699 L 987.186 480.699 L 0 480.699 L 0 483.699 Z M 987.186 483.699 L 989.377 485.749 C 992.162 482.773 994.97 479.798 997.793 476.848 L 995.625 474.774 L 993.457 472.7 C 990.616 475.67 987.793 478.66 984.996 481.649 L 987.186 483.699 Z M 995.625 474.774 L 997.793 476.848 C 1052.328 419.841 1114.974 366.213 1184 317.473 L 1182.27 315.022 L 1180.539 312.572 C 1111.219 361.519 1048.277 415.396 993.457 472.701 L 995.625 474.774 Z M 1182.27 315.022 L 1184 317.473 C 1253.019 268.732 1328.987 224.466 1409.777 185.922 L 1408.485 183.214 L 1407.193 180.507 C 1326.115 219.188 1249.851 263.624 1180.539 312.572 L 1182.27 315.022 Z M 1408.485 183.214 L 1409.777 185.922 C 1491.345 147.009 1578.554 113.575 1668.983 86.565 L 1668.125 83.691 L 1667.266 80.816 C 1576.552 107.911 1489.053 141.455 1407.193 180.507 L 1408.485 183.214 Z M 1668.125 83.691 L 1668.983 86.565 C 1701.085 76.974 1733.711 68.165 1766.748 60.15 L 1766.04 57.235 L 1765.333 54.319 C 1732.197 62.359 1699.47 71.195 1667.266 80.816 L 1668.125 83.691 Z M 1766.04 57.235 L 1766.74 60.152 C 1767.56 59.955 1768.412 59.753 1769.253 59.545 L 1768.534 56.633 L 1767.815 53.72 C 1766.999 53.922 1766.177 54.117 1765.34 54.318 L 1766.04 57.235 Z M 1768.534 56.633 L 1769.237 59.549 C 1830.178 44.846 1892.495 32.866 1955.471 23.761 L 1955.042 20.792 L 1954.613 17.823 C 1891.454 26.954 1828.954 38.969 1767.83 53.716 L 1768.534 56.633 Z M 1955.042 20.792 L 1955.471 23.761 C 2033.26 12.518 2112.812 5.568 2192.793 2.998 L 2192.696 0 L 2192.6 -2.998 C 2112.401 -0.422 2032.627 6.547 1954.613 17.823 L 1955.042 20.792 Z M 2192.696 0 L 2190.967 -2.451 L 2190.951 -2.44 L 2192.68 0.011 L 2194.41 2.463 L 2194.426 2.451 L 2192.696 0 Z" fill="currentColor" fill-rule="nonzero"></path>
</svg>