<svg xmlns="http://www.w3.org/2000/svg" width="791.840" height="165.370" viewBox="0 0 791.840 165.370" fill="none">
  <path d="M 597.38 13.28 C 567.81 4.65 536.56 0 504.24 0 L 287.61 0 C 255.29 0 224.04 4.65 194.47 13.28 L 411.1 13.28 C 405.99 14.77 400.93 16.38 395.93 18.1 C 389.18 20.43 382.53 22.96 375.98 25.71 C 313.8 51.76 261.15 96.16 224.82 152.09 L 24.16 152.09 C 81.86 68.32 178.42 13.28 287.61 13.28 L 194.47 13.28 C 117.03 35.88 51.19 85.9 8.19 152.09 C 5.36 156.45 2.63 160.87 0 165.37 L 232.12 165.37 C 234.9 160.87 237.79 156.44 240.79 152.09 C 278.41 97.47 332.54 55.08 395.92 32.18 C 459.31 55.08 513.44 97.47 551.05 152.09 C 554.05 156.44 556.94 160.87 559.72 165.37 L 791.84 165.37 C 789.21 160.88 786.48 156.45 783.65 152.09 C 740.66 85.9 674.81 35.88 597.37 13.28 L 597.38 13.28 Z M 567.03 152.09 C 530.7 96.16 478.05 51.76 415.87 25.71 C 443.95 17.62 473.59 13.28 504.24 13.28 C 613.43 13.28 709.99 68.32 767.69 152.09 L 567.03 152.09 Z" fill="currentColor" fill-rule="nonzero"></path>
</svg>