<svg xmlns="http://www.w3.org/2000/svg" width="1743.490" height="380.771" viewBox="0 0 1743.490 380.771" fill="none">
  <path d="M 680.68 322.63 C 680.68 328.19 681.26 333.55 682.42 338.72 C 683.58 343.89 685.52 348.48 688.23 352.48 C 690.94 356.48 694.56 359.68 699.08 362.07 C 703.61 364.47 709.3 365.66 716.14 365.66 C 722.98 365.66 728.67 364.46 733.19 362.07 C 737.71 359.68 741.33 356.49 744.04 352.48 C 746.75 348.48 748.69 343.89 749.85 338.72 C 751.01 333.55 751.59 328.19 751.59 322.63 L 751.62 322.63 L 751.62 240.07 L 767.9 240.07 L 767.9 324.96 C 767.9 332.46 766.96 339.56 765.09 346.28 C 763.21 353 760.24 358.91 756.17 364.01 C 752.1 369.12 746.77 373.19 740.18 376.22 C 733.59 379.25 725.58 380.77 716.15 380.771 C 706.72 380.771 698.71 379.25 692.12 376.22 C 685.53 373.18 680.2 369.12 676.13 364.01 C 672.06 358.91 669.08 353 667.21 346.28 C 665.34 339.56 664.4 332.45 664.4 324.96 L 664.4 240.07 L 680.68 240.07 L 680.68 322.63 Z M 264.93 240.07 C 271.52 240.07 278.07 240.451 284.6 241.23 C 291.12 242.01 296.97 243.691 302.14 246.271 C 307.31 248.861 311.51 252.64 314.74 257.61 C 317.97 262.58 319.59 269.33 319.59 277.86 C 319.59 287.94 316.55 296.08 310.48 302.28 L 310.46 302.29 C 304.39 308.49 295.99 312.43 285.27 314.11 L 324.23 377.29 L 304.27 377.29 L 267.06 315.66 L 246.13 315.66 L 246.13 377.29 L 229.85 377.29 L 229.85 240.07 L 264.93 240.07 Z M 997.13 377.29 L 978.14 377.29 L 964.19 343.57 L 895.58 343.57 L 881.43 377.29 L 863.021 377.29 L 923.49 240.07 L 938.79 240.07 L 997.13 377.29 Z M 1526.23 377.29 L 1509.95 377.29 L 1509.95 240.07 L 1526.23 240.07 L 1526.23 377.29 Z M 134.11 377.28 L 115.12 377.28 L 101.17 343.561 L 32.56 343.561 L 18.41 377.28 L 0 377.28 L 60.47 240.07 L 60.46 240.061 L 75.77 240.061 L 134.11 377.28 Z M 488.4 236.561 C 498.48 236.561 507.82 238.37 516.41 241.99 C 525 245.61 532.43 250.55 538.7 256.82 C 544.97 263.09 549.91 270.52 553.53 279.11 C 557.15 287.7 558.96 296.97 558.96 306.92 C 558.96 312.74 558.18 318.521 556.63 324.271 C 555.08 330.02 552.85 335.39 549.94 340.36 C 547.03 345.33 543.54 349.79 539.47 353.73 C 535.4 357.68 530.78 360.74 525.61 362.94 L 525.62 362.94 L 525.62 363.33 L 568.06 363.33 L 568.06 377.28 L 488.4 377.28 C 478.32 377.28 468.98 375.471 460.39 371.851 C 451.79 368.231 444.37 363.29 438.1 357.021 C 431.83 350.751 426.89 343.32 423.27 334.73 C 419.65 326.14 417.84 316.87 417.84 306.92 C 417.84 296.97 419.65 287.7 423.27 279.11 C 426.889 270.52 431.83 263.09 438.1 256.82 C 444.37 250.55 451.8 245.61 460.39 241.99 C 468.99 238.37 478.32 236.561 488.4 236.561 Z M 1192.89 354.03 L 1193.27 354.03 L 1193.27 240.07 L 1209.55 240.07 L 1209.55 377.28 L 1189.01 377.28 L 1109.55 263.32 L 1109.16 263.32 L 1109.16 377.28 L 1092.88 377.28 L 1092.88 240.07 L 1113.42 240.07 L 1192.89 354.03 Z M 1413.25 255.181 L 1367.89 255.181 L 1367.89 377.28 L 1351.61 377.28 L 1351.61 255.181 L 1306.26 255.181 L 1306.26 240.07 L 1413.25 240.07 L 1413.25 255.181 Z M 1682.05 293.75 L 1718.68 240.07 L 1739.03 240.07 L 1692.91 304.99 L 1743.49 377.28 L 1721.98 377.28 L 1681.28 316.431 L 1640.39 377.28 L 1620.23 377.28 L 1670.23 304.99 L 1624.11 240.07 L 1645.04 240.07 L 1682.05 293.75 Z M 488.4 251.69 C 480.65 251.69 473.54 253.14 467.08 256.05 C 460.62 258.95 455.03 262.9 450.32 267.87 C 445.6 272.85 441.92 278.69 439.27 285.41 C 436.62 292.13 435.3 299.16 435.3 306.92 C 435.3 314.68 436.66 321.91 439.37 328.63 C 442.08 335.35 445.79 341.2 450.51 346.17 C 455.22 351.15 460.81 355.06 467.27 357.9 C 473.719 360.74 480.9 362.16 488.39 362.16 C 495.88 362.16 502.89 360.74 509.42 357.9 L 509.43 357.9 C 515.95 355.06 521.57 351.15 526.29 346.17 C 531 341.2 534.72 335.35 537.43 328.63 C 540.14 321.91 541.5 314.54 541.5 306.92 C 541.5 299.3 540.18 292.13 537.53 285.41 C 534.88 278.69 531.19 272.84 526.48 267.87 C 521.77 262.9 516.18 258.96 509.72 256.05 C 503.26 253.14 496.15 251.69 488.4 251.69 Z M 38.96 328.44 L 94.97 328.44 L 67.84 260.99 L 67.45 260.99 L 38.96 328.44 Z M 901.98 328.44 L 957.99 328.44 L 930.86 260.99 L 930.47 260.99 L 901.98 328.44 Z M 246.13 300.54 L 260.67 300.54 L 260.68 300.55 C 265.2 300.55 269.88 300.42 274.73 300.16 C 279.57 299.9 284.03 299.06 288.1 297.641 C 292.17 296.221 295.53 293.99 298.18 290.95 C 300.82 287.92 302.15 283.56 302.15 277.87 C 302.15 272.96 301.18 269.02 299.24 266.05 C 297.3 263.08 294.74 260.79 291.58 259.17 C 288.41 257.55 284.86 256.49 280.92 255.97 C 276.98 255.45 273 255.19 269 255.19 L 246.13 255.19 L 246.13 300.54 Z M 980.06 0 C 1012.38 0 1043.63 4.65 1073.2 13.28 L 1073.19 13.28 C 1150.63 35.88 1216.48 85.9 1259.47 152.09 C 1262.3 156.45 1265.03 160.88 1267.66 165.37 L 1035.54 165.37 C 1032.76 160.87 1029.87 156.44 1026.87 152.09 C 989.26 97.47 935.13 55.08 871.74 32.18 C 808.36 55.08 754.23 97.47 716.61 152.09 C 713.61 156.44 710.72 160.87 707.94 165.37 L 475.82 165.37 C 478.45 160.87 481.18 156.45 484.01 152.09 C 526.674 86.417 591.823 36.662 668.478 13.814 L 670.29 13.28 C 699.86 4.65 731.11 0 763.43 0 L 980.06 0 Z M 760.873 13.29 C 652.734 14.142 557.23 68.975 499.98 152.09 L 700.64 152.09 C 736.97 96.16 789.62 51.76 851.8 25.71 C 858.35 22.96 865 20.431 871.75 18.101 C 876.75 16.381 881.81 14.77 886.92 13.28 L 763.43 13.28 L 760.873 13.29 Z M 980.06 13.28 C 949.41 13.28 919.77 17.62 891.69 25.71 C 953.87 51.76 1006.52 96.16 1042.85 152.09 L 1243.51 152.09 C 1185.81 68.32 1089.249 13.28 980.06 13.28 Z" fill="currentColor" fill-rule="nonzero"></path>
</svg>