<?xml version="1.0" encoding="UTF-8"?><svg id="Calque_1" xmlns="http://www.w3.org/2000/svg" viewBox="0 0 1000 443.3"><defs></defs><polygon class="cls-1" points="825.94 365.66 784.29 441.06 798.3 441.06 831.76 379.6 865.32 441.16 879.52 441.16 837.87 365.66 825.94 365.66"></polygon><polygon class="cls-1" points="154.06 365.66 112.41 441.06 126.41 441.06 159.87 379.6 193.43 441.16 207.64 441.16 165.99 365.66 154.06 365.66"></polygon><polygon class="cls-1" points="987.68 365.66 987.68 421.92 931.76 365.66 919.66 365.66 919.66 441.16 931.98 441.16 931.98 383.25 989.64 441.16 1000 441.16 1000 365.66 987.68 365.66"></polygon><rect class="cls-1" x="731.63" y="365.66" width="12.53" height="75.5"></rect><polygon class="cls-1" points="634.42 365.66 621.9 365.66 621.9 441.16 689.5 441.16 689.5 429.29 634.42 429.29 634.42 365.66"></polygon><polygon class="cls-1" points="515.33 408.72 566.09 408.72 566.09 396.86 515.33 396.86 515.33 377.52 575.24 377.52 575.24 365.66 502.81 365.66 502.81 441.16 576.27 441.16 576.27 429.29 515.33 429.29 515.33 408.72"></polygon><path class="cls-1" d="M447.48,417.47l-.71,1.23c-4.81,8.33-14.07,12.74-26.78,12.74-20.77,0-32.68-10.22-32.68-28.03s11.91-28.03,32.68-28.03c12.57,0,21.84,4.41,27,13.11l.73,1.19,10.24-5.1,1.26-1.15-.9-1.42c-7.6-11.93-21.18-18.5-38.22-18.5-28.07,0-45.51,15.29-45.51,39.9s17.32,39.9,45.2,39.9c17.32,0,31.01-6.57,38.78-18.9l.9-1.42-10.51-5.23-1.47-.29Z"></path><polygon class="cls-1" points="315.91 421.92 260 365.66 247.89 365.66 247.89 441.16 260.21 441.16 260.21 383.25 317.87 441.16 328.23 441.16 328.23 365.66 315.91 365.66 315.91 421.92"></polygon><polygon class="cls-1" points="46.19 425.77 14.17 365.66 0 365.66 40.19 441.16 51.98 441.16 92.16 365.66 78.21 365.66 46.19 425.77"></polygon><polygon class="cls-1" points="474.22 109.62 373.38 40.49 373.38 81.04 443.9 125.74 373.38 170.44 373.38 211.97 474.22 142.84 474.22 109.62"></polygon><polygon class="cls-1" points="625.84 40.49 525.08 109.62 525.08 142.84 625.84 211.97 625.84 170.44 555.38 125.74 625.84 81.04 625.84 40.49"></polygon><polygon class="cls-1" points="482.96 151.5 413.64 252.46 454.3 252.46 499.12 181.86 543.94 252.46 585.58 252.46 516.26 151.5 482.96 151.5"></polygon><polygon class="cls-1" points="516.27 100.94 585.58 0 543.94 0 499.12 70.59 454.3 0 413.65 0 482.96 100.94 516.27 100.94"></polygon></svg>