<svg width="20" height="20" viewBox="0 0 20 20" fill="none" xmlns="http://www.w3.org/2000/svg">
<path fill-rule="evenodd" clip-rule="evenodd" d="M18.3332 10.3634C18.3332 9.76045 18.2791 9.18067 18.1786 8.62408H10.1699V11.9134H14.7463C14.5492 12.9763 13.9501 13.8769 13.0495 14.4798V16.6134H15.7976C17.4056 15.1331 18.3332 12.9531 18.3332 10.3634Z" fill="#4285F4"></path>
<path fill-rule="evenodd" clip-rule="evenodd" d="M10.1693 18.6733C12.4652 18.6733 14.3901 17.9118 15.797 16.6131L13.0488 14.4796C12.2874 14.9898 11.3134 15.2912 10.1693 15.2912C7.95452 15.2912 6.0799 13.7954 5.41122 11.7855H2.57031V13.9887C3.96951 16.7677 6.84521 18.6733 10.1693 18.6733Z" fill="#34A853"></path>
<path fill-rule="evenodd" clip-rule="evenodd" d="M5.41138 11.7856C5.24131 11.2754 5.14468 10.7305 5.14468 10.17C5.14468 9.60955 5.24131 9.06456 5.41138 8.55435V6.3512H2.57047C1.99456 7.49916 1.66602 8.79786 1.66602 10.17C1.66602 11.5421 1.99456 12.8408 2.57047 13.9888L5.41138 11.7856Z" fill="#FBBC05"></path>
<path fill-rule="evenodd" clip-rule="evenodd" d="M10.1693 5.04873C11.4177 5.04873 12.5386 5.47776 13.4199 6.32037L15.8588 3.88144C14.3862 2.5093 12.4613 1.66669 10.1693 1.66669C6.84521 1.66669 3.96951 3.57222 2.57031 6.35129L5.41122 8.55445C6.0799 6.54455 7.95452 5.04873 10.1693 5.04873Z" fill="#EA4335"></path>
</svg>