<?xml version="1.0"?><svg id="Calque_1" xmlns="http://www.w3.org/2000/svg" viewBox="0 0 1000.74 1000.74"><defs></defs><polygon class="cls-1" points="399.74 434.53 0 160.52 0 321.25 279.53 498.43 0 675.63 0 840.22 399.74 566.21 399.74 434.53"></polygon><polygon class="cls-1" points="1000.74 160.52 601.33 434.53 601.33 566.21 1000.74 840.22 1000.74 675.63 721.43 498.43 1000.74 321.25 1000.74 160.52"></polygon><polygon class="cls-1" points="434.35 600.56 159.61 1000.74 320.77 1000.74 498.43 720.89 676.1 1000.74 841.13 1000.74 566.39 600.56 434.35 600.56"></polygon><polygon class="cls-1" points="566.39 400.14 841.13 0 676.1 0 498.43 279.81 320.77 0 159.62 0 434.36 400.14 566.39 400.14"></polygon></svg>