<?xml version="1.0"?><svg id="Calque_1" xmlns="http://www.w3.org/2000/svg" viewBox="0 0 1000.74 118.07"><defs></defs><polygon class="cls-1" points="855.3 31.52 820.51 94.53 832.21 94.53 860.17 43.17 888.2 94.61 900.07 94.61 865.28 31.52 855.3 31.52"></polygon><polygon class="cls-1" points="293.9 31.52 259.1 94.53 270.8 94.53 298.76 43.17 326.8 94.61 338.67 94.61 303.87 31.52 293.9 31.52"></polygon><polygon class="cls-1" points="990.45 31.52 990.45 78.53 943.72 31.52 933.61 31.52 933.61 94.61 943.9 94.61 943.9 46.23 992.09 94.61 1000.74 94.61 1000.74 31.52 990.45 31.52"></polygon><rect class="cls-1" x="776.5" y="31.52" width="10.47" height="63.09"></rect><polygon class="cls-1" points="695.28 31.52 684.81 31.52 684.81 94.61 741.29 94.61 741.29 84.69 695.28 84.69 695.28 31.52"></polygon><polygon class="cls-1" points="595.77 67.51 638.18 67.51 638.18 57.6 595.77 57.6 595.77 41.44 645.82 41.44 645.82 31.52 585.3 31.52 585.3 94.61 646.68 94.61 646.68 84.69 595.77 84.69 595.77 67.51"></polygon><path class="cls-1" d="M539.08,74.82l-.59,1.03c-4.02,6.96-11.76,10.64-22.38,10.64-17.36,0-27.31-8.54-27.31-23.42s9.95-23.42,27.31-23.42c10.5,0,18.25,3.69,22.56,10.96l.61.99,8.55-4.26,1.05-.96-.75-1.19c-6.35-9.97-17.7-15.46-31.94-15.46-23.46,0-38.03,12.78-38.03,33.34s14.47,33.34,37.77,33.34c14.47,0,25.91-5.49,32.41-15.79l.75-1.19-8.78-4.37-1.23-.24h0Z"></path><polygon class="cls-1" points="429.14 78.53 382.42 31.52 372.3 31.52 372.3 94.61 382.6 94.61 382.6 46.23 430.77 94.61 439.43 94.61 439.43 31.52 429.14 31.52 429.14 78.53"></polygon><polygon class="cls-1" points="203.76 81.75 177.01 31.52 165.17 31.52 198.75 94.61 208.61 94.61 242.18 31.52 230.52 31.52 203.76 81.75"></polygon><polygon class="cls-1" points="47.16 51.27 0 18.94 0 37.9 32.98 58.8 0 79.71 0 99.13 47.16 66.8 47.16 51.27"></polygon><polygon class="cls-1" points="70.94 66.8 118.07 99.13 118.07 79.71 85.11 58.8 118.07 37.9 118.07 18.94 70.94 51.27 70.94 66.8"></polygon><polygon class="cls-1" points="51.24 70.85 18.83 118.07 37.84 118.07 58.8 85.05 79.77 118.07 99.24 118.07 66.82 70.85 51.24 70.85"></polygon><polygon class="cls-1" points="66.82 47.21 99.24 0 79.77 0 58.8 33.01 37.84 0 18.83 0 51.25 47.21 66.82 47.21"></polygon></svg>