<?xml version="1.0" encoding="UTF-8"?>
<svg xmlns="http://www.w3.org/2000/svg" viewBox="0 0 1200 720">
  <rect width="1200" height="720" fill="#0D1B2A"/>
  <g fill="#1A2A3A" opacity="0.22">
    <circle cx="40" cy="90" r="2"/>
    <circle cx="110" cy="40" r="1.5"/>
    <circle cx="190" cy="130" r="2.2"/>
    <circle cx="260" cy="70" r="1.7"/>
    <circle cx="340" cy="160" r="2.1"/>
    <circle cx="420" cy="55" r="1.6"/>
    <circle cx="500" cy="145" r="2"/>
    <circle cx="585" cy="85" r="1.4"/>
    <circle cx="660" cy="170" r="2.3"/>
    <circle cx="745" cy="65" r="1.8"/>
    <circle cx="820" cy="150" r="2"/>
    <circle cx="900" cy="95" r="1.5"/>
    <circle cx="980" cy="175" r="2.2"/>
    <circle cx="1060" cy="60" r="1.6"/>
    <circle cx="1140" cy="140" r="2"/>
    <circle cx="70" cy="270" r="1.9"/>
    <circle cx="150" cy="210" r="1.5"/>
    <circle cx="230" cy="295" r="2.1"/>
    <circle cx="315" cy="240" r="1.7"/>
    <circle cx="390" cy="320" r="2.2"/>
    <circle cx="470" cy="225" r="1.6"/>
    <circle cx="555" cy="310" r="2"/>
    <circle cx="630" cy="245" r="1.4"/>
    <circle cx="715" cy="330" r="2.3"/>
    <circle cx="790" cy="215" r="1.8"/>
    <circle cx="875" cy="300" r="2.1"/>
    <circle cx="950" cy="255" r="1.5"/>
    <circle cx="1030" cy="340" r="2.2"/>
    <circle cx="1115" cy="225" r="1.6"/>
    <circle cx="1185" cy="305" r="2"/>
    <circle cx="35" cy="450" r="1.9"/>
    <circle cx="120" cy="395" r="1.5"/>
    <circle cx="200" cy="480" r="2.1"/>
    <circle cx="280" cy="420" r="1.7"/>
    <circle cx="360" cy="505" r="2.2"/>
    <circle cx="445" cy="390" r="1.6"/>
    <circle cx="520" cy="475" r="2"/>
    <circle cx="610" cy="430" r="1.4"/>
    <circle cx="690" cy="510" r="2.3"/>
    <circle cx="770" cy="400" r="1.8"/>
    <circle cx="850" cy="490" r="2.1"/>
    <circle cx="935" cy="440" r="1.5"/>
    <circle cx="1015" cy="525" r="2.2"/>
    <circle cx="1095" cy="410" r="1.6"/>
    <circle cx="1170" cy="500" r="2"/>
    <circle cx="80" cy="645" r="1.9"/>
    <circle cx="165" cy="585" r="1.5"/>
    <circle cx="245" cy="675" r="2.1"/>
    <circle cx="325" cy="610" r="1.7"/>
    <circle cx="405" cy="695" r="2.2"/>
    <circle cx="490" cy="575" r="1.6"/>
    <circle cx="570" cy="660" r="2"/>
    <circle cx="650" cy="605" r="1.4"/>
    <circle cx="730" cy="700" r="2.3"/>
    <circle cx="810" cy="580" r="1.8"/>
    <circle cx="890" cy="665" r="2.1"/>
    <circle cx="970" cy="620" r="1.5"/>
    <circle cx="1050" cy="705" r="2.2"/>
    <circle cx="1130" cy="590" r="1.6"/>
  </g>
</svg>
