<svg xmlns="http://www.w3.org/2000/svg" width="658" height="78" viewBox="0 0 658 78" fill="none"><path fill="currentColor" d="m561.95 20.825-22.87 41.39h7.69l18.37-33.74 18.42 33.8h7.8l-22.86-41.45h-6.55ZM193.09 20.825l-22.86 41.39h7.69l18.37-33.74 18.42 33.8h7.8l-22.86-41.45h-6.56ZM650.74 20.825v30.89l-30.7-30.89h-6.64v41.45h6.76v-31.79l31.66 31.79h5.68v-41.45h-6.76ZM517.05 20.825h-6.88v41.45h6.88v-41.45ZM456.81 20.825h-6.88v41.45h37.11v-6.51h-30.23v-34.94ZM391.43 44.475h27.87v-6.52h-27.87v-10.61h32.88v-6.52h-39.76v41.45h40.33v-6.51h-33.45v-11.29ZM354.18 49.275l-.39.68c-2.64 4.57-7.73 6.99-14.7 6.99-11.4 0-17.94-5.61-17.94-15.39 0-9.78 6.54-15.39 17.94-15.39 6.9 0 11.99 2.42 14.83 7.2l.4.65 5.62-2.8.69-.63-.5-.78c-4.17-6.55-11.63-10.16-20.98-10.16-15.41 0-24.98 8.39-24.98 21.9 0 13.51 9.51 21.9 24.81 21.9 9.51 0 17.02-3.61 21.29-10.37l.5-.78-5.77-2.87-.81-.16-.01.01ZM281.95 51.715l-30.7-30.89h-6.64v41.45h6.76v-31.79l31.65 31.79h5.69v-41.45h-6.76v30.89ZM133.88 53.825l-17.58-33h-7.78l22.06 41.45h6.48l22.06-41.45h-7.66l-17.58 33ZM30.99 33.795 0 12.555v12.46l21.67 13.74L0 52.485v12.76l30.99-21.24v-10.21ZM46.61 44.005l30.96 21.24v-12.76l-21.65-13.73 21.65-13.74v-12.46l-30.96 21.24v10.21ZM33.67 46.665l-21.3 31.02h12.49l13.78-21.69 13.77 21.69H65.2l-21.3-31.02H33.67ZM43.9 31.135 65.2.115H52.41l-13.77 21.69L24.86.115H12.37l21.3 31.02H43.9Z"/></svg>
