<svg width="44" height="44" viewBox="0 0 44 44" fill="none" xmlns="http://www.w3.org/2000/svg">
<path d="M6.03125 16.0193C5.30648 16.0193 4.94409 15.645 4.94409 14.8965V10.3162C4.94409 8.59334 5.38371 7.29826 6.26294 6.43091C7.14217 5.56356 8.44914 5.12988 10.1838 5.12988H14.7642C15.5127 5.12988 15.887 5.49227 15.887 6.21704C15.887 6.95369 15.5127 7.32202 14.7642 7.32202H10.2373C9.22738 7.32202 8.45508 7.58341 7.92041 8.1062C7.39762 8.62899 7.13623 9.40723 7.13623 10.4409V14.8965C7.13623 15.645 6.7679 16.0193 6.03125 16.0193ZM37.9331 16.0193C37.2083 16.0193 36.8459 15.645 36.8459 14.8965V10.4409C36.8459 9.40723 36.5727 8.62899 36.0261 8.1062C35.4796 7.58341 34.7132 7.32202 33.7271 7.32202H29.218C28.4695 7.32202 28.0952 6.95369 28.0952 6.21704C28.0952 5.49227 28.4695 5.12988 29.218 5.12988H33.7805C35.5271 5.12988 36.84 5.5695 37.7192 6.44873C38.5985 7.31608 39.0381 8.60522 39.0381 10.3162V14.8965C39.0381 15.645 38.6698 16.0193 37.9331 16.0193ZM10.1838 39.2061C8.44914 39.2061 7.14217 38.7664 6.26294 37.8872C5.38371 37.0199 4.94409 35.7248 4.94409 34.002V29.4395C4.94409 28.6909 5.30648 28.3167 6.03125 28.3167C6.7679 28.3167 7.13623 28.6909 7.13623 29.4395V33.895C7.13623 34.9287 7.39762 35.7069 7.92041 36.2297C8.45508 36.7525 9.22738 37.0139 10.2373 37.0139H14.7642C15.5127 37.0139 15.887 37.3822 15.887 38.1189C15.887 38.8437 15.5127 39.2061 14.7642 39.2061H10.1838ZM29.218 39.2061C28.4695 39.2061 28.0952 38.8437 28.0952 38.1189C28.0952 37.3822 28.4695 37.0139 29.218 37.0139H33.7271C34.7132 37.0139 35.4796 36.7525 36.0261 36.2297C36.5727 35.7069 36.8459 34.9287 36.8459 33.895V29.4395C36.8459 28.6909 37.2083 28.3167 37.9331 28.3167C38.6698 28.3167 39.0381 28.6909 39.0381 29.4395V34.002C39.0381 35.7248 38.5985 37.0199 37.7192 37.8872C36.84 38.7664 35.5271 39.2061 33.7805 39.2061H29.218ZM15.3701 20.7422C15.0256 20.7422 14.7404 20.6353 14.5146 20.4214C14.3008 20.2075 14.1938 19.9164 14.1938 19.5481V17.1421C14.1938 16.7856 14.3008 16.5005 14.5146 16.2866C14.7404 16.0609 15.0256 15.948 15.3701 15.948C15.7147 15.948 15.9998 16.0609 16.2256 16.2866C16.4513 16.5005 16.5642 16.7856 16.5642 17.1421V19.5481C16.5642 19.9164 16.4513 20.2075 16.2256 20.4214C15.9998 20.6353 15.7147 20.7422 15.3701 20.7422ZM20.5386 24.9126C20.1702 24.9126 19.8851 24.8294 19.6831 24.6631C19.4811 24.4849 19.3801 24.2472 19.3801 23.9502C19.3801 23.6888 19.4633 23.4749 19.6296 23.3086C19.8079 23.1304 20.0277 23.0413 20.2891 23.0413H20.895C21.0257 23.0413 21.1386 22.9997 21.2336 22.9165C21.3406 22.8333 21.394 22.7086 21.394 22.5422V16.8391C21.394 16.554 21.4772 16.3341 21.6436 16.1797C21.8099 16.0133 22.0297 15.9302 22.303 15.9302C22.5881 15.9302 22.8139 16.0133 22.9802 16.1797C23.1466 16.3341 23.2297 16.554 23.2297 16.8391V22.3818C23.2297 23.2135 23.0159 23.8433 22.5881 24.271C22.1604 24.6987 21.5307 24.9126 20.699 24.9126C20.6752 24.9126 20.6455 24.9126 20.6099 24.9126C20.5861 24.9126 20.5623 24.9126 20.5386 24.9126ZM28.5051 20.7422C28.1487 20.7422 27.8635 20.6353 27.6497 20.4214C27.4358 20.2075 27.3289 19.9164 27.3289 19.5481V17.1421C27.3289 16.7856 27.4358 16.5005 27.6497 16.2866C27.8635 16.0609 28.1487 15.948 28.5051 15.948C28.8497 15.948 29.1289 16.0609 29.3428 16.2866C29.5685 16.5005 29.6814 16.7856 29.6814 17.1421V19.5481C29.6814 19.9164 29.5685 20.2075 29.3428 20.4214C29.1289 20.6353 28.8497 20.7422 28.5051 20.7422ZM21.8574 30.6692C20.8237 30.6692 19.8019 30.4672 18.792 30.0632C17.7821 29.6474 16.9266 29.0474 16.2256 28.2632C16.1305 28.1681 16.0533 28.0671 15.9939 27.9602C15.9464 27.8414 15.9226 27.7166 15.9226 27.5859C15.9226 27.3127 16.0117 27.0929 16.1899 26.9265C16.3682 26.7602 16.588 26.677 16.8494 26.677C17.0157 26.677 17.1523 26.7126 17.2593 26.7839C17.3781 26.8552 17.5028 26.9503 17.6335 27.0691C18.1563 27.6038 18.7979 28.0315 19.5583 28.3523C20.3188 28.6731 21.0851 28.8335 21.8574 28.8335C22.6772 28.8335 23.4614 28.6731 24.21 28.3523C24.9704 28.0196 25.606 27.5919 26.1169 27.0691C26.3665 26.8077 26.6219 26.677 26.8833 26.677C27.1328 26.677 27.3467 26.7602 27.5249 26.9265C27.7031 27.0929 27.7922 27.3127 27.7922 27.5859C27.7922 27.7404 27.7685 27.877 27.7209 27.9958C27.6734 28.1028 27.6081 28.1978 27.5249 28.281C26.7645 29.0295 25.8853 29.6177 24.8872 30.0454C23.901 30.4613 22.8911 30.6692 21.8574 30.6692Z" fill="black"/>
</svg>
