<svg width="32" height="25" viewBox="0 0 32 25" fill="none" xmlns="http://www.w3.org/2000/svg">
<path d="M26.4337 0C29.1952 0 31.4337 2.23858 31.4337 5V19.5C31.4337 22.2614 29.1952 24.5 26.4337 24.5H14.1808C11.3048 24.4999 8.54297 23.3738 6.48744 21.3623L1.20229 16.1895C-0.275221 14.7432 -0.407594 12.4092 0.897599 10.8057L6.39272 4.05566C8.48163 1.48958 11.6151 0 14.924 0H26.4337ZM25.8673 6.61035C25.3945 6.13784 24.6272 6.13774 24.1544 6.61035L19.966 10.7988L15.7775 6.61035C15.3047 6.13784 14.5373 6.13774 14.0646 6.61035C13.5924 7.08307 13.5924 7.84958 14.0646 8.32227L18.2531 12.5107L14.1671 16.5977C13.6946 17.0704 13.6946 17.8378 14.1671 18.3105C14.6399 18.783 15.4063 18.783 15.879 18.3105L19.966 14.2236L24.0529 18.3105C24.5255 18.7832 25.2919 18.7828 25.7648 18.3105C26.2375 17.8377 26.2376 17.0704 25.7648 16.5977L21.6779 12.5107L25.8673 8.32227C26.3398 7.84953 26.3397 7.0831 25.8673 6.61035Z" fill="black"/>
</svg>
