<?xml version="1.0" encoding="UTF-8"?><svg id="Calque_1" xmlns="http://www.w3.org/2000/svg" viewBox="0 0 1419.79 355.01"><path d="M49.24,240.43L0,352.17h14.99l11.52-27.46h55.87l11.36,27.46h15.47l-47.51-111.74h-12.47ZM31.72,312.4l23.2-54.92h.32l22.1,54.92H31.72Z"/><path d="M252.84,291.1c4.94-5.05,7.42-11.68,7.42-19.89,0-6.94-1.32-12.44-3.95-16.49-2.63-4.05-6.05-7.13-10.26-9.23-4.21-2.1-8.97-3.47-14.28-4.1-5.31-.63-10.65-.95-16.02-.95h-28.57v111.74h13.26v-50.19h17.04l30.3,50.19h16.26l-31.72-51.45c8.73-1.37,15.57-4.58,20.52-9.63ZM212.27,289.67h-11.84v-36.93h18.62c3.26,0,6.5.21,9.71.63,3.21.42,6.1,1.29,8.68,2.6,2.58,1.32,4.66,3.18,6.23,5.6,1.58,2.42,2.37,5.63,2.37,9.63,0,4.63-1.08,8.18-3.24,10.65-2.16,2.47-4.89,4.29-8.21,5.44-3.31,1.16-6.94,1.84-10.89,2.05-3.95.21-7.76.32-11.44.32Z"/><path d="M428.02,340.49c4.21-1.79,7.97-4.29,11.28-7.5,3.31-3.21,6.15-6.84,8.52-10.89,2.37-4.05,4.18-8.42,5.44-13.1,1.26-4.68,1.89-9.39,1.89-14.13,0-8.1-1.47-15.65-4.42-22.65-2.95-7-6.97-13.05-12.07-18.15-5.1-5.1-11.15-9.13-18.15-12.07-7-2.94-14.6-4.42-22.81-4.42s-15.81,1.47-22.81,4.42c-7,2.95-13.05,6.97-18.15,12.07-5.1,5.1-9.13,11.15-12.07,18.15-2.95,7-4.42,14.55-4.42,22.65s1.47,15.65,4.42,22.65c2.94,7,6.97,13.05,12.07,18.15,5.1,5.1,11.15,9.13,18.15,12.07,7,2.95,14.6,4.42,22.81,4.42h64.87v-11.36h-34.56v-.32ZM414.84,336.39c-5.31,2.32-11.02,3.47-17.12,3.47s-11.94-1.16-17.2-3.47c-5.26-2.31-9.81-5.5-13.65-9.55-3.84-4.05-6.87-8.81-9.07-14.28-2.21-5.47-3.31-11.36-3.31-17.68s1.08-12.05,3.24-17.52c2.16-5.47,5.15-10.23,9-14.28,3.84-4.05,8.39-7.26,13.65-9.63,5.26-2.37,11.05-3.55,17.36-3.55s12.1,1.18,17.36,3.55c5.26,2.37,9.81,5.58,13.65,9.63,3.84,4.05,6.84,8.81,9,14.28,2.16,5.47,3.24,11.31,3.24,17.52s-1.1,12.21-3.31,17.68c-2.21,5.47-5.24,10.23-9.08,14.28-3.84,4.05-8.42,7.24-13.73,9.55Z"/><path d="M612.05,307.67c0,4.53-.47,8.89-1.42,13.1-.95,4.21-2.52,7.95-4.73,11.21-2.21,3.26-5.16,5.87-8.84,7.81-3.68,1.95-8.31,2.92-13.89,2.92s-10.21-.97-13.89-2.92c-3.68-1.95-6.63-4.55-8.84-7.81-2.21-3.26-3.79-7-4.73-11.21-.95-4.21-1.42-8.57-1.42-13.1v-67.23h-13.26v69.13c0,6.1.76,11.89,2.29,17.36,1.52,5.47,3.95,10.29,7.26,14.44,3.31,4.16,7.65,7.47,13.02,9.94,5.37,2.47,11.89,3.71,19.57,3.71s14.2-1.24,19.57-3.71c5.37-2.47,9.71-5.79,13.02-9.94,3.31-4.16,5.73-8.97,7.26-14.44,1.52-5.47,2.29-11.26,2.29-17.36v-69.13h-13.26v67.23Z"/><path d="M752.04,240.43l-49.24,111.74h14.99l11.52-27.46h55.87l11.36,27.46h15.47l-47.51-111.74h-12.47ZM734.52,312.4l23.2-54.92h.32l22.1,54.92h-45.61Z"/><polygon points="971.73 333.23 971.41 333.23 906.71 240.43 889.98 240.43 889.98 352.17 903.23 352.17 903.23 259.37 903.55 259.37 968.26 352.17 984.99 352.17 984.99 240.43 971.73 240.43 971.73 333.23"/><polygon points="1063.74 252.74 1100.67 252.74 1100.67 352.17 1113.93 352.17 1113.93 252.74 1150.86 252.74 1150.86 240.43 1063.74 240.43 1063.74 252.74"/><rect x="1229.62" y="240.43" width="13.26" height="111.74"/><polygon points="1378.6 293.3 1416.16 240.43 1399.59 240.43 1369.76 284.15 1339.62 240.43 1322.57 240.43 1360.14 293.3 1319.42 352.17 1335.83 352.17 1369.13 302.62 1402.28 352.17 1419.79 352.17 1378.6 293.3"/><path d="M1105.82,165.36c-2.63-4.49-5.36-8.92-8.19-13.28-42.99-66.19-108.84-116.21-186.28-138.81-29.57-8.63-60.82-13.28-93.14-13.28h-216.63c-32.32,0-63.57,4.65-93.14,13.28h216.63c-5.11,1.49-10.17,3.1-15.17,4.82-6.75,2.33-13.4,4.86-19.95,7.61-62.18,26.05-114.83,70.45-151.16,126.38h-200.66C395.83,68.31,492.4,13.28,601.58,13.28h-93.14c-77.44,22.6-143.28,72.62-186.28,138.81-2.83,4.36-5.56,8.78-8.19,13.28h232.12c2.78-4.5,5.67-8.93,8.67-13.28,37.62-54.62,91.75-97.01,155.13-119.91,63.39,22.9,117.52,65.29,155.13,119.91,3,4.35,5.89,8.78,8.67,13.28h232.12ZM881,152.09c-36.33-55.93-88.98-100.33-151.16-126.38,28.08-8.09,57.72-12.43,88.37-12.43,109.19,0,205.75,55.04,263.45,138.81h-200.66Z"/></svg>