<svg width="64" height="64" viewBox="0 0 64 64" fill="none" xmlns="http://www.w3.org/2000/svg">
<rect width="64" height="64" fill="#E6007A"></rect>
<g clip-path="url(#clip0_91_689)">
<path d="M32 19.5214C36.2818 19.5214 39.7529 17.5019 39.7529 15.0107C39.7529 12.5195 36.2818 10.5 32 10.5C27.7182 10.5 24.2471 12.5195 24.2471 15.0107C24.2471 17.5019 27.7182 19.5214 32 19.5214Z" fill="white"></path>
<path d="M32 53.5C36.2818 53.5 39.7529 51.4805 39.7529 48.9893C39.7529 46.4981 36.2818 44.4786 32 44.4786C27.7182 44.4786 24.2471 46.4981 24.2471 48.9893C24.2471 51.4805 27.7182 53.5 32 53.5Z" fill="white"></path>
<path d="M21.1961 25.7606C23.337 22.0525 23.3236 18.0368 21.1662 16.7912C19.0089 15.5456 15.5244 17.5418 13.3835 21.2499C11.2426 24.9579 11.256 28.9736 13.4133 30.2192C15.5707 31.4648 19.0552 29.4686 21.1961 25.7606Z" fill="white"></path>
<path d="M50.6154 42.7512C52.7563 39.0432 52.7429 35.0275 50.5856 33.7819C48.4282 32.5363 44.9437 34.5325 42.8028 38.2405C40.6619 41.9486 40.6753 45.9643 42.8327 47.2099C44.99 48.4555 48.4745 46.4593 50.6154 42.7512Z" fill="white"></path>
<path d="M21.1649 47.205C23.3223 45.9594 23.3356 41.9437 21.1947 38.2357C19.0538 34.5276 15.5694 32.5314 13.412 33.777C11.2546 35.0226 11.2413 39.0383 13.3822 42.7464C15.5231 46.4544 19.0075 48.4506 21.1649 47.205Z" fill="white"></path>
<path d="M50.5868 30.2219C52.7442 28.9763 52.7576 24.9606 50.6167 21.2526C48.4758 17.5445 44.9913 15.5483 42.8339 16.7939C40.6766 18.0395 40.6632 22.0552 42.8041 25.7633C44.945 29.4713 48.4295 31.4675 50.5868 30.2219Z" fill="white"></path>
</g>
<defs>
<clipPath id="clip0_91_689">
<rect width="43" height="43" fill="white" transform="translate(10.5 10.5)"></rect>
</clipPath>
</defs>
</svg>