<svg width="64" height="64" viewBox="0 0 64 64" fill="none" xmlns="http://www.w3.org/2000/svg">
<rect width="64" height="64" fill="#8D35D6"></rect>
<path d="M52.7898 43.3077C52.7482 43.5005 52.7217 43.6981 52.6623 43.8852C52.4588 44.5259 52.0702 45.0278 51.4867 45.3675C49.8097 46.3439 48.1316 47.3182 46.4524 48.2905C45.2245 49.0031 43.9963 49.7153 42.7677 50.427C42.4765 50.5951 42.1705 50.7108 41.8199 50.6889C41.5218 50.6695 41.2228 50.6697 40.9247 50.6896C40.6056 50.7121 40.3313 50.6095 40.0664 50.4558C38.532 49.5659 36.9977 48.6758 35.4634 47.7855C34.0943 46.9911 32.7194 46.2064 31.358 45.399C30.4851 44.8812 30.0078 44.105 29.9987 43.0767C29.9883 41.9277 29.9975 40.7785 29.994 39.6294C29.9909 39.5889 30.0004 39.5484 30.0213 39.5136C30.0421 39.4788 30.0733 39.4513 30.1105 39.4349C31.4035 38.6892 32.6955 37.9417 33.9865 37.1923C34.0245 37.1704 34.0644 37.1519 34.1273 37.1196V37.2708C34.1273 38.3401 34.1316 39.4094 34.126 40.4786C34.1221 41.2242 34.3536 41.8747 34.8656 42.422C35.0944 42.6665 35.3757 42.8362 35.6617 43.002C37.106 43.8397 38.5499 44.6782 39.9933 45.5175C40.3801 45.74 40.8136 45.8687 41.2591 45.8934C41.8288 45.9301 42.3473 45.7888 42.8363 45.4952C44.2946 44.6197 45.7623 43.7597 47.2184 42.8805C47.9649 42.4298 48.4138 41.7658 48.5299 40.8921C48.5418 40.7747 48.5459 40.6566 48.5423 40.5386C48.5431 38.7611 48.546 36.9835 48.5416 35.206C48.5391 34.1759 48.0906 33.3885 47.2031 32.8673C45.6795 31.9725 44.1603 31.0693 42.6176 30.2085C41.7744 29.7381 40.8737 29.6944 40.0069 30.1747C39.072 30.6929 38.1559 31.2451 37.2312 31.7818C35.2078 32.9565 33.1844 34.131 31.1608 35.3053C29.2697 36.4037 27.3791 37.5028 25.4888 38.6026C24.9936 38.8904 24.5071 39.1946 24.0014 39.4626C23.079 39.9516 22.1467 39.9907 21.2222 39.4545C18.6248 37.9475 16.0278 36.44 13.4312 34.9321C13.0414 34.7056 12.6384 34.4935 12.2794 34.224C11.5886 33.7058 11.229 32.9953 11.2279 32.1256C11.2239 28.7269 11.2244 25.3281 11.2294 21.9293C11.2318 20.9614 11.6663 20.2364 12.5197 19.7535C13.4834 19.2082 14.4332 18.6383 15.3888 18.0789C17.3869 16.9093 19.3856 15.7405 21.385 14.5724C21.5573 14.472 21.7527 14.4113 21.9373 14.3322H23.5623C23.7474 14.4188 23.9407 14.4913 24.1164 14.594C26.5156 15.9996 28.9132 17.4077 31.3093 18.8185C31.8179 19.1176 32.3389 19.399 32.8277 19.7279C33.606 20.2518 34.0117 21.0011 34.0192 21.9442C34.0287 23.128 34.0208 24.3119 34.0231 25.4957C34.0272 25.5329 34.0197 25.5705 34.0016 25.6033C33.9835 25.6361 33.9557 25.6626 33.922 25.679C32.6169 26.4316 31.3128 27.1859 30.0096 27.9418C29.9781 27.9601 29.9442 27.9741 29.8899 28.0006V27.8475C29.8899 27.1046 29.8918 26.3616 29.8892 25.6187C29.8876 25.1503 29.8957 24.681 29.8699 24.2137C29.8364 23.6068 29.5895 23.0828 29.1848 22.6299C28.9324 22.3473 28.6106 22.1624 28.2927 21.9703C27.1104 21.2555 25.9279 20.5409 24.7452 19.8264C24.4274 19.6348 24.118 19.4212 23.781 19.2709C22.9176 18.8857 22.06 18.8973 21.2262 19.3842C19.7334 20.256 18.2348 21.1178 16.7444 21.9935C15.8408 22.5244 15.3615 23.3179 15.3584 24.3745C15.3532 26.1486 15.3568 27.9226 15.3577 29.6967C15.3578 29.7938 15.3633 29.8907 15.3741 29.9872C15.4727 30.8737 15.8987 31.5536 16.6634 32.0168C18.0054 32.8298 19.3481 33.6418 20.6914 34.4526C21.0502 34.6689 21.3954 34.9103 21.8069 35.0288C22.5551 35.2443 23.2793 35.2134 23.9588 34.8108C25.1504 34.1047 26.3324 33.3825 27.5239 32.6761C28.6584 32.0034 29.7943 31.3324 30.9397 30.6787C31.9647 30.0939 33.0139 29.5511 34.0345 28.9587C35.944 27.8505 37.8414 26.7215 39.7415 25.5971C40.0905 25.3907 40.447 25.211 40.8486 25.1318C41.5255 24.9985 42.1654 25.0827 42.767 25.4339C43.8222 26.0499 44.8789 26.6635 45.9371 27.2746C47.7685 28.3374 49.5995 29.401 51.4301 30.4652C52.1305 30.8748 52.5757 31.4818 52.7422 32.283C52.7612 32.3744 52.7739 32.4671 52.7895 32.5591L52.7898 43.3077Z" fill="white"></path>
</svg>