<svg width="64" height="64" viewBox="0 0 64 64" fill="none" xmlns="http://www.w3.org/2000/svg">
<rect width="64" height="64" fill="#0077D1"></rect>
<path d="M33.5034 43.1494V40.9959C34.6005 40.9959 36.6727 40.0208 37.6885 38.7612C39.842 35.8763 38.5011 32.26 35.4131 31.2442C29.684 29.7408 29.1151 29.7002 28.912 28.9282C28.6276 26.8153 29.5215 25.7589 32.0407 25.7589C33.2596 25.7589 34.5598 26.2058 34.9661 27.6686C35.1693 28.0749 35.4131 28.3187 35.7788 28.3187H37.2415C37.8917 28.3187 38.0948 27.9124 37.8917 27.2216C37.6885 26.0027 36.8759 24.9869 35.5756 24.0523C34.4379 23.3616 33.5034 23.6054 33.5034 22.8334V21.1675C33.5034 20.558 33.2596 20.3955 32.6501 20.3955H31.8375C30.6998 20.3955 30.5779 20.558 30.5779 21.33V23.2803C29.4402 23.2803 27.8962 24.2149 27.0429 24.9869C25.0925 26.7747 25.2551 31.5287 28.7088 32.6663C34.1941 34.0478 34.8849 33.6822 35.4131 35.3481C35.5756 36.6889 34.9662 37.9079 33.7472 38.3142C31.4312 39.0862 28.5056 38.233 28.5056 36.0795C28.5056 35.47 28.0181 35.3481 27.6524 35.3481H26.149C25.4176 35.3481 25.0925 35.9982 25.3364 36.8515C26.0677 39.4113 28.1806 40.9959 30.5779 40.9959V43.1494C30.5779 43.7183 30.6998 44.1652 31.4312 44.1652H32.4063C33.2596 44.1652 33.5034 43.9621 33.5034 43.1494H33.5034ZM14 32.26C14.2844 39.1268 17.7788 45.7092 25.9865 49.0004C26.8397 49.3255 27.4899 49.488 27.4899 48.7973C27.4899 48.1472 27.4492 47.7815 27.4492 46.7657C27.4492 46.1968 26.7585 46.0749 26.149 45.8718C20.5011 43.3932 16.2348 37.0952 17.2912 30.1472C18.1039 24.7024 21.3544 20.9643 26.3928 18.6483C27.2054 18.2826 27.6524 18.3232 27.6524 17.1855C27.6524 15.1946 27.693 14.8289 25.9865 15.3164C18.8352 17.8357 14.2032 24.7025 14 32.26ZM36.4695 47.9846C36.4695 49.2036 36.8759 49.4068 38.0948 49.0004C45.2461 46.4812 50 39.777 50 32.26C50 24.3774 44.8804 17.7544 37.4447 15.1133C36.8759 14.7882 36.4695 15.1946 36.4695 15.9259V17.1855C36.4695 18.0794 37.2415 18.242 38.0948 18.6483C43.3364 20.9643 47.5215 26.6122 46.8713 33.7228C46.14 40.0208 43.0925 43.1494 37.2415 46.0749C36.3883 46.4 36.4695 46.9688 36.4695 47.9846Z" fill="white"></path>
</svg>