<?xml version="1.0" encoding="UTF-8"?>
<svg xmlns="http://www.w3.org/2000/svg" viewBox="0 0 178 85.7715" preserveAspectRatio="xMidYMid meet" role="img" aria-label="Arquantix">
  <path fill="#0a0a0a" d="M76.0684 51.8359C76.0684 52.2121 76.1081 52.575 76.1865 52.9248C76.265 53.2747 76.3967 53.5857 76.5801 53.8564C76.7635 54.1271 77.0086 54.3441 77.3145 54.5059C77.621 54.6681 78.0061 54.748 78.4688 54.748C78.9316 54.748 79.3172 54.6676 79.623 54.5059C79.9288 54.3442 80.1731 54.1277 80.3564 53.8564C80.5399 53.5857 80.6715 53.2747 80.75 52.9248C80.8285 52.575 80.8682 52.2121 80.8682 51.8359H80.8701V46.248H81.9717V51.9941C81.9717 52.5016 81.9078 52.9818 81.7812 53.4365C81.654 53.8913 81.4532 54.2915 81.1777 54.6367C80.9023 54.9825 80.5416 55.2578 80.0957 55.4629C79.6498 55.6679 79.1078 55.7714 78.4697 55.7715C77.8315 55.7715 77.2888 55.668 76.8428 55.4629C76.3969 55.2572 76.0362 54.9825 75.7607 54.6367C75.4853 54.2916 75.2838 53.8913 75.1572 53.4365C75.0307 52.9819 74.9668 52.5009 74.9668 51.9941V46.248H76.0684V51.8359ZM39.0762 55.5352H37.791L36.8477 53.2529H32.2041L31.2461 55.5352H30L34.0928 46.248H35.1279L39.0762 55.5352ZM47.9307 46.248C48.3766 46.2481 48.8198 46.2744 49.2617 46.3271C49.703 46.3799 50.0993 46.4934 50.4492 46.668C50.799 46.8433 51.0832 47.0993 51.3018 47.4355C51.5203 47.7718 51.6298 48.2286 51.6299 48.8057C51.6299 49.4878 51.4244 50.0394 51.0137 50.459L51.0117 50.46C50.6009 50.8794 50.032 51.1461 49.3066 51.2598L51.9443 55.5352H50.5928L48.0742 51.3643H46.6582V55.5352H45.5566V46.248H47.9307ZM63.0547 46.0107C63.7369 46.0107 64.3698 46.1329 64.9512 46.3779C65.5323 46.6229 66.0347 46.9577 66.459 47.3818C66.8833 47.8062 67.2179 48.3093 67.4629 48.8906C67.7078 49.4719 67.831 50.0992 67.8311 50.7725C67.8311 51.1664 67.7778 51.5581 67.6729 51.9473C67.5679 52.3364 67.4167 52.6998 67.2197 53.0361C67.0228 53.3724 66.7871 53.6748 66.5117 53.9414C66.2364 54.2085 65.9238 54.4156 65.5742 54.5645V54.5908H68.4463V55.5352H63.0547C62.3726 55.5351 61.7404 55.4119 61.1592 55.167C60.5773 54.922 60.0747 54.5883 59.6504 54.1641C59.2261 53.7398 58.8925 53.2365 58.6475 52.6553C58.4025 52.0739 58.2793 51.4459 58.2793 50.7725C58.2793 50.0992 58.4025 49.4719 58.6475 48.8906C58.8924 48.3094 59.2261 47.8061 59.6504 47.3818C60.0747 46.9575 60.5778 46.6229 61.1592 46.3779C61.7411 46.133 62.3726 46.0108 63.0547 46.0107ZM97.4863 55.5352H96.2012L95.2568 53.2529H90.6133L89.6553 55.5352H88.4092L92.502 46.248H93.5381L97.4863 55.5352ZM110.735 53.9609H110.761V46.248H111.862V55.5352H110.473L105.095 47.8223H105.068V55.5352H103.967V46.248H105.356L110.735 53.9609ZM125.649 47.2715H122.579V55.5352H121.478V47.2715H118.408V46.248H125.649V47.2715ZM133.296 55.5352H132.194V46.248H133.296V55.5352ZM143.842 49.8818L146.321 46.248H147.698L144.577 50.6426L148 55.5352H146.544L143.79 51.417L141.022 55.5352H139.658L143.042 50.6426L139.92 46.248H141.337L143.842 49.8818ZM63.0547 47.0352C62.5304 47.0352 62.0494 47.1332 61.6123 47.3301C61.1751 47.5264 60.7963 47.7935 60.4775 48.1299C60.1581 48.4669 59.9088 48.8626 59.7295 49.3174C59.5503 49.7719 59.461 50.2476 59.4609 50.7725C59.4609 51.2976 59.553 51.7874 59.7363 52.2422C59.9197 52.697 60.1708 53.0933 60.4902 53.4297C60.809 53.7667 61.1878 54.0314 61.625 54.2236C62.0615 54.4158 62.5478 54.5117 63.0547 54.5117C63.5615 54.5117 64.0366 54.4158 64.4785 54.2236C64.9196 54.0315 65.2998 53.7666 65.6191 53.4297C65.9379 53.0933 66.1896 52.697 66.373 52.2422C66.5565 51.7874 66.6494 51.2882 66.6494 50.7725C66.6494 50.2569 66.5592 49.772 66.3799 49.3174C66.2006 48.8626 65.9515 48.4662 65.6328 48.1299C65.314 47.7935 64.9353 47.527 64.498 47.3301C64.0608 47.1331 63.5792 47.0352 63.0547 47.0352ZM32.6367 52.2295H36.4277L34.5918 47.6641H34.5654L32.6367 52.2295ZM91.0459 52.2295H94.8369L93.001 47.6641H92.9746L91.0459 52.2295ZM46.6582 50.3408H47.6426V50.3418C47.9485 50.3418 48.2655 50.333 48.5938 50.3154C48.9213 50.2978 49.2236 50.2406 49.499 50.1445C49.7741 50.0485 50.0015 49.8979 50.1807 49.6924C50.3593 49.4873 50.4492 49.1917 50.4492 48.8066C50.4492 48.4745 50.3841 48.2078 50.2529 48.0068C50.1217 47.8059 49.9482 47.6507 49.7344 47.541C49.5198 47.4314 49.2794 47.3594 49.0127 47.3242C48.7461 47.289 48.4767 47.2715 48.2061 47.2715H46.6582V50.3408ZM96.3311 30C98.5184 30 100.634 30.3154 102.635 30.8994H102.634C107.875 32.429 112.332 35.8142 115.241 40.2939C115.433 40.589 115.618 40.8885 115.796 41.1924H100.086C99.8978 40.8879 99.702 40.5883 99.499 40.2939C96.9537 36.5974 93.29 33.7286 89 32.1787C84.7104 33.7286 81.0461 36.5972 78.5 40.2939C78.297 40.5883 78.1012 40.8879 77.9131 41.1924H62.2031C62.3811 40.8879 62.5663 40.589 62.7578 40.2939C65.5771 35.9542 69.847 32.6413 74.876 31.0479L75.3652 30.8994C77.3665 30.3153 79.4816 30 81.6689 30H96.3311ZM80.9785 30.9102C73.873 31.1341 67.6219 34.8016 63.8389 40.2939H77.4199C79.8787 36.5087 83.4421 33.5033 87.6504 31.7402C88.0935 31.5542 88.5434 31.3832 89 31.2256C89.3384 31.1092 89.6815 31.0003 90.0273 30.8994H81.6689L80.9785 30.9102ZM96.3311 30.8994C94.2567 30.8994 92.2501 31.1927 90.3496 31.7402C94.5579 33.5033 98.1213 36.5086 100.58 40.2939H114.161C110.256 34.6245 103.721 30.8995 96.3311 30.8994Z"/>
</svg>
