<svg width="30" height="26" viewBox="0 0 30 26" fill="none" xmlns="http://www.w3.org/2000/svg">
  <path d="M2.6489 0.0298988C2.6609 0.0478381 2.7269 0.128565 2.7899 0.206302C3.24888 0.75046 3.59387 1.63546 3.77986 2.75069C3.90285 3.48321 3.90885 3.71343 3.90885 6.50598V9.10718H2.6549C1.50894 9.10718 1.37695 9.1012 1.15196 9.05635C0.79797 8.9816 0.431984 8.78128 0.185993 8.52415C-0.00899967 8.31785 -0.00299989 8.30589 0.00899966 8.93077C0.0239991 9.44802 0.0299989 9.50483 0.104996 9.78588C0.224992 10.2314 0.389985 10.5632 0.638976 10.8592C0.977963 11.2659 1.32295 11.4931 1.81493 11.6456C1.91993 11.6755 2.14192 11.6874 2.92789 11.6934L3.90885 11.7084V13.003V14.3006L2.52591 14.2916L1.13696 14.2827L0.896966 14.187C0.611977 14.0734 0.482982 13.9897 0.203992 13.7415L0 13.5591L0.0119996 14.1302C0.026999 14.6594 0.0299989 14.7192 0.104996 14.9883C0.365986 15.9391 0.995963 16.6178 1.82693 16.839C2.03392 16.8958 2.11492 16.8988 2.98189 16.9108L3.90885 16.9227V19.6017C3.90885 21.2192 3.89985 22.4121 3.88485 22.6155C3.86986 22.8008 3.82186 23.1477 3.77986 23.3898C3.58487 24.5051 3.23388 25.3452 2.7299 25.8894L2.6279 26H7.70071C10.7336 26 13.0015 25.988 13.3345 25.9731C13.9195 25.9432 15.2244 25.8146 15.5184 25.7518C15.6114 25.7339 15.7854 25.707 15.8994 25.6891C16.1424 25.6532 16.5444 25.5695 17.1234 25.423C17.9393 25.2196 18.6833 24.9655 19.4123 24.6426C19.6403 24.5409 20.2942 24.2091 20.4682 24.1044C20.5612 24.0506 20.6722 23.9848 20.7142 23.9639C20.8312 23.9011 21.0262 23.7755 21.3112 23.5722C21.4522 23.4706 21.5932 23.3719 21.6232 23.351C21.7492 23.2673 22.1842 22.9055 22.3822 22.7231C23.1351 22.0324 23.7651 21.264 24.2541 20.4418C24.3231 20.3222 24.4131 20.1727 24.4521 20.1099C24.5511 19.9425 24.9591 19.1053 24.9981 18.9798C25.0161 18.923 25.0401 18.8632 25.0521 18.8512C25.1301 18.7495 25.58 17.3383 25.634 17.0304C25.652 16.9317 25.661 16.9167 25.736 16.9018C25.784 16.8928 26.483 16.8928 27.29 16.8988C28.9039 16.9108 28.9039 16.9108 29.2609 17.0752C29.4619 17.1679 29.5219 17.2098 29.7439 17.4101C30.0349 17.6702 30.0079 17.7121 29.9899 17.0603C29.9779 16.6776 29.9629 16.4414 29.9359 16.3457C29.8339 15.9779 29.8099 15.9002 29.7199 15.7148C29.4259 15.075 28.9339 14.6175 28.3039 14.3993L28.058 14.3096L27.056 14.2976L26.057 14.2827L26.069 13.9328C26.081 13.4724 26.081 12.5605 26.066 12.0911L26.054 11.7144L27.392 11.7084C28.5379 11.7024 28.7509 11.7084 28.8769 11.7413C29.2549 11.8459 29.5099 11.9894 29.8219 12.2735L29.9959 12.4349V11.9924C29.9959 11.4662 29.9689 11.233 29.8609 10.8862C29.6479 10.1835 29.2279 9.6603 28.6279 9.3374C28.2379 9.1281 28.2139 9.12213 26.873 9.11316C26.087 9.10718 25.676 9.09522 25.655 9.07728C25.637 9.05934 25.622 9.02944 25.622 9.00552C25.622 8.9816 25.577 8.79324 25.517 8.58993C24.8151 6.1173 23.5041 4.15294 21.5872 2.69687C21.3262 2.49655 20.6872 2.07498 20.4292 1.93146C20.3302 1.87466 20.2222 1.81486 20.1952 1.79692C20.0693 1.72815 19.3463 1.37535 19.1663 1.3006C19.0583 1.25276 18.9173 1.19296 18.8543 1.16904C17.7953 0.711592 16.0194 0.278059 14.6635 0.143514C14.4415 0.122585 14.1475 0.0896964 14.0125 0.0777369C13.4005 0.00896964 12.5515 0 7.73071 0C3.65686 0 2.6339 0.00896964 2.6489 0.0298988ZM12.5695 1.32452C13.5835 1.38431 14.2075 1.46205 14.9364 1.63845C17.1624 2.16467 18.7283 3.27691 19.8653 5.13661C19.9703 5.31003 20.4142 6.21297 20.4802 6.39535C20.7952 7.24149 20.9482 7.74379 21.0832 8.40754C21.1162 8.569 21.1612 8.78427 21.1822 8.88593C21.2032 8.98459 21.2122 9.07728 21.2032 9.08625C21.1882 9.09821 18.1763 9.10419 14.5045 9.1012L7.82971 9.09522L7.82071 5.25322C7.81771 3.14236 7.82071 1.3873 7.82971 1.35442L7.84171 1.29761H9.97463C11.1446 1.29761 12.3145 1.30957 12.5695 1.32452ZM21.4942 11.7981C21.5152 11.9266 21.5152 14.1092 21.4942 14.2169L21.4762 14.2976L14.6515 14.2916L7.82971 14.2827L7.82371 13.0149C7.81771 12.3183 7.82371 11.7383 7.82971 11.7263C7.83871 11.7114 10.7456 11.7024 14.6605 11.7024H21.4762L21.4942 11.7981ZM21.1882 16.9317C21.2032 16.9765 21.1312 17.3443 20.9842 17.9423C20.8162 18.615 20.5882 19.2937 20.3572 19.796C20.2432 20.0531 19.9583 20.6092 19.8893 20.7139C19.8563 20.7617 19.7603 20.9142 19.6763 21.0488C19.1363 21.8919 18.3653 22.6603 17.4863 23.2284C17.1654 23.4317 16.5054 23.7785 16.3284 23.8323C16.2924 23.8413 16.2534 23.8592 16.2384 23.8712C16.2174 23.8891 15.9444 23.9908 15.6264 24.1044C15.0414 24.3107 13.9285 24.535 13.0345 24.6276C12.4555 24.6845 12.3625 24.6874 10.1336 24.6874H7.82671V20.8096V16.9287L14.4535 16.9167C18.0983 16.9108 21.1012 16.9018 21.1252 16.8958C21.1522 16.8928 21.1792 16.9108 21.1882 16.9317Z" fill="white"/>
</svg>
