<svg width="27" height="29" viewBox="0 0 26.8022 28.1227" fill="none" xmlns="http://www.w3.org/2000/svg">
  <defs>
    <filter id="dropShadow" x="0" y="0" width="26.8022" height="28.1227" filterUnits="userSpaceOnUse" color-interpolation-filters="sRGB">
      <feFlood flood-opacity="0" result="BackgroundImageFix"/>
      <feColorMatrix in="SourceAlpha" result="hardAlpha" type="matrix" values="0 0 0 0 0 0 0 0 0 0 0 0 0 0 0 0 0 0 127 0"/>
      <feOffset dy="1.2308"/>
      <feGaussianBlur stdDeviation="0.615402"/>
      <feComposite in2="hardAlpha" operator="out"/>
      <feColorMatrix type="matrix" values="0 0 0 0 0 0 0 0 0 0 0 0 0 0 0 0 0 0 0.15 0"/>
      <feBlend in2="BackgroundImageFix" mode="normal" result="effect1_dropShadow"/>
      <feBlend in="SourceGraphic" in2="effect1_dropShadow" mode="normal" result="shape"/>
    </filter>
  </defs>
  <g filter="url(#dropShadow)">
    <path d="M18.1122 25.6611C16.2325 25.6611 14.448 25.3637 12.7587 24.7689C11.0931 24.174 9.61795 23.3175 8.33311 22.1992C7.07207 21.0571 6.08464 19.7009 5.37084 18.1305C4.68084 16.5364 4.33583 14.7519 4.33583 12.777C4.33583 10.9211 4.68084 9.21992 5.37084 7.67335C6.06085 6.12678 7.02448 4.78246 8.26173 3.64038C9.52278 2.47451 10.9861 1.58226 12.6516 0.96363C14.3409 0.32121 16.1611 0 18.1122 0C19.0163 0 19.8967 0.0713805 20.7532 0.214141C21.6336 0.333108 22.4783 0.523454 23.2872 0.785181C24.0962 1.04691 24.8576 1.36812 25.5714 1.74881L23.43 5.67471C22.5972 5.24643 21.7288 4.93712 20.8246 4.74677C19.9205 4.53263 18.9687 4.42556 17.9694 4.42556C16.6846 4.42556 15.4949 4.6278 14.4004 5.03229C13.3297 5.43678 12.3899 6.00782 11.5809 6.74541C10.7719 7.483 10.1533 8.36336 9.72502 9.38647C9.29674 10.4096 9.0826 11.5398 9.0826 12.777C9.0826 14.1332 9.30864 15.3348 9.76071 16.3817C10.2128 17.4048 10.8314 18.2852 11.6166 19.0228C12.4256 19.7366 13.3654 20.2957 14.4361 20.7002C15.5306 21.0809 16.7084 21.2712 17.9694 21.2712C18.6356 21.2712 19.278 21.2237 19.8967 21.1285C20.5153 21.0333 21.122 20.8905 21.7169 20.7002C22.3117 20.5099 22.8827 20.2719 23.43 19.9864L25.5714 23.948C24.8338 24.3049 24.0605 24.6142 23.2515 24.8759C22.4426 25.1139 21.5979 25.3042 20.7175 25.447C19.861 25.5897 18.9925 25.6611 18.1122 25.6611ZM1.2308 17.0241V13.9191L18.0408 13.9905V17.0598L1.2308 17.0241ZM1.2308 12.0632V8.99388L18.0408 9.02957V12.0989L1.2308 12.0632Z" fill="white"/>
  </g>
</svg>
