<svg width="64" height="64" viewBox="0 0 64 64" fill="none" xmlns="http://www.w3.org/2000/svg">
<rect width="64" height="64" fill="#0033AD"/>
<path d="M22.9657 32.3474C22.8804 33.83 24.0217 35.0993 25.5043 35.1846C25.5576 35.1846 25.611 35.1846 25.6643 35.1846C27.1576 35.1846 28.3628 33.9793 28.3522 32.4861C28.3522 30.9928 27.1469 29.7875 25.6536 29.7982C24.2244 29.7982 23.0404 30.9181 22.9657 32.3474Z" fill="white"/>
<path d="M12.9182 31.6541C12.4382 31.6221 12.0222 31.9955 12.0009 32.4754C11.9796 32.9554 12.3422 33.3714 12.8222 33.3927C13.3022 33.4247 13.7075 33.0514 13.7395 32.5714C13.7715 32.0914 13.3982 31.6861 12.9182 31.6541Z" fill="white"/>
<path d="M22.7951 16.7108C23.2217 16.4975 23.3924 15.9641 23.1791 15.5375C22.9657 15.1108 22.4324 14.9402 22.0058 15.1535C21.5791 15.3668 21.4085 15.8895 21.6218 16.3161C21.8351 16.7534 22.3578 16.9348 22.7951 16.7108Z" fill="white"/>
<path d="M25.5256 21.4786C26.1869 21.1479 26.4536 20.3373 26.1229 19.676C25.7923 19.0147 24.9816 18.748 24.3203 19.0787C23.659 19.4093 23.3924 20.22 23.723 20.8813C24.0537 21.5426 24.8643 21.8092 25.5256 21.4786Z" fill="white"/>
<path d="M16.3314 24.7531C16.8433 25.0837 17.526 24.9451 17.8673 24.4331C18.198 23.9211 18.0593 23.2385 17.5473 22.8972C17.0353 22.5665 16.3527 22.7052 16.0114 23.2172C15.6701 23.7291 15.8194 24.4224 16.3314 24.7531Z" fill="white"/>
<path d="M17.9633 31.1741C17.2167 31.1315 16.5874 31.6968 16.5447 32.4434C16.502 33.19 17.0673 33.8194 17.814 33.862C18.5606 33.9047 19.1899 33.3394 19.2326 32.5927C19.2752 31.8568 18.7099 31.2168 17.9633 31.1741Z" fill="white"/>
<path d="M16.4807 40.2084C15.9367 40.4857 15.7127 41.147 15.9901 41.7017C16.2674 42.2456 16.9287 42.4696 17.4833 42.1923C18.0273 41.915 18.2513 41.2537 17.974 40.699C17.6966 40.1551 17.0247 39.9311 16.4807 40.2084Z" fill="white"/>
<path d="M21.7071 28.3903C22.4431 28.8702 23.4244 28.6676 23.8937 27.9316C24.3737 27.1957 24.171 26.2144 23.435 25.7451C22.6991 25.2651 21.7178 25.4677 21.2485 26.2037C20.7685 26.929 20.9712 27.9103 21.7071 28.3903Z" fill="white"/>
<path d="M38.2931 21.3719C38.9117 21.7772 39.7543 21.6066 40.1596 20.9879C40.5649 20.3693 40.3943 19.5267 39.7757 19.1213C39.157 18.716 38.3144 18.8867 37.9091 19.5053C37.4931 20.1346 37.6637 20.9666 38.2931 21.3719Z" fill="white"/>
<path d="M41.0449 16.6255C41.4502 16.8921 41.9836 16.7748 42.2502 16.3695C42.5169 15.9641 42.3995 15.4308 41.9942 15.1642C41.5889 14.8975 41.0556 15.0149 40.7889 15.4095C40.533 15.8148 40.6503 16.3588 41.0449 16.6255Z" fill="white"/>
<path d="M38.4957 29.7769C37.0131 29.6915 35.7332 30.8328 35.6585 32.3154C35.5732 33.798 36.7145 35.078 38.1971 35.1526C38.2504 35.1526 38.3037 35.1526 38.3464 35.1526C39.829 35.1526 41.0343 33.9473 41.0343 32.4541C41.0449 31.0355 39.925 29.8515 38.4957 29.7769Z" fill="white"/>
<path d="M26.4109 28.1983C26.8696 29.1049 27.7975 29.6809 28.8215 29.6809C30.3041 29.6809 31.5094 28.4756 31.5094 26.9823C31.5094 26.5664 31.4134 26.1504 31.2214 25.7664C30.5494 24.4331 28.9281 23.8998 27.6055 24.5718C26.2723 25.2544 25.7389 26.8757 26.4109 28.1983Z" fill="white"/>
<path d="M47.5193 24.7531C48.0633 24.4758 48.2766 23.8038 47.9993 23.2598C47.722 22.7159 47.05 22.5025 46.506 22.7799C45.962 23.0572 45.7487 23.7185 46.0154 24.2625C46.3034 24.8064 46.9647 25.0304 47.5193 24.7531Z" fill="white"/>
<path d="M40.6929 25.6064C39.9143 26.001 39.5943 26.9503 39.989 27.729C40.3836 28.5076 41.3329 28.8276 42.1115 28.4329C42.8902 28.0383 43.2102 27.089 42.8155 26.3103C42.4209 25.5317 41.4716 25.2224 40.6929 25.6064Z" fill="white"/>
<path d="M31.8933 16.2201C32.5013 16.2521 33.024 15.7828 33.0666 15.1749C33.1093 14.5669 32.6293 14.0442 32.0213 14.0016C31.4134 13.9696 30.8907 14.4282 30.8481 15.0362C30.8161 15.6548 31.2854 16.1775 31.8933 16.2201Z" fill="white"/>
<path d="M31.8827 23.1852C32.7573 23.2385 33.5039 22.5665 33.5466 21.6919C33.5999 20.8173 32.928 20.0706 32.0533 20.028C31.1787 19.9746 30.4321 20.6466 30.3894 21.5212C30.3467 22.3959 31.008 23.1425 31.8827 23.1852Z" fill="white"/>
<path d="M23.3071 39.3551C24.0857 38.9605 24.4057 38.0112 24.011 37.2325C23.6164 36.4539 22.6671 36.1339 21.8884 36.5286C21.1098 36.9232 20.7898 37.8725 21.1845 38.6511C21.5791 39.4298 22.5284 39.7498 23.3071 39.3551Z" fill="white"/>
<path d="M32.9066 25.4997C32.096 26.7477 32.4373 28.4116 33.6853 29.2222C34.9332 30.0329 36.5971 29.6915 37.4078 28.4436C38.2184 27.1957 37.8771 25.5317 36.6291 24.7211C36.1918 24.4331 35.6798 24.2838 35.1572 24.2838C34.2506 24.2838 33.4079 24.7424 32.9066 25.4997Z" fill="white"/>
<path d="M37.5891 36.7632C36.9171 35.4299 35.2959 34.8966 33.9732 35.5686C32.64 36.2406 32.1067 37.8618 32.7786 39.1844C33.4506 40.5177 35.0719 41.051 36.3945 40.3791C37.7171 39.7178 38.2611 38.1178 37.5997 36.7846C37.5997 36.7739 37.5997 36.7739 37.5891 36.7632Z" fill="white"/>
<path d="M42.2929 36.5712C41.5569 36.0912 40.5756 36.2939 40.1063 37.0299C39.6263 37.7658 39.829 38.7471 40.565 39.2164C41.3009 39.6964 42.2822 39.4938 42.7515 38.7578C43.2315 38.0325 43.0288 37.0512 42.2929 36.5712Z" fill="white"/>
<path d="M47.4553 32.5287C47.498 31.7821 46.9327 31.1528 46.186 31.1101C45.4394 31.0675 44.8101 31.6328 44.7674 32.3794C44.7248 33.1261 45.2901 33.7554 46.0367 33.798C46.7727 33.8407 47.4126 33.2647 47.4553 32.5287Z" fill="white"/>
<path d="M51.1778 31.5688C50.6978 31.5368 50.2819 31.9101 50.2605 32.3901C50.2392 32.8701 50.6018 33.286 51.0818 33.3074C51.5618 33.3394 51.9671 32.966 51.9991 32.4861C52.0204 32.0061 51.6578 31.6008 51.1778 31.5688Z" fill="white"/>
<path d="M47.6686 40.2084C47.1567 39.8777 46.474 40.0164 46.1327 40.5284C45.802 41.0404 45.9407 41.723 46.4527 42.0643C46.9647 42.395 47.6473 42.2563 47.9886 41.7443C48.3299 41.2324 48.1806 40.539 47.6686 40.2084Z" fill="white"/>
<path d="M22.9444 48.336C22.5391 48.0694 22.0058 48.1867 21.7391 48.5814C21.4725 48.9867 21.5898 49.52 21.9844 49.7866C22.3898 50.0533 22.9231 49.936 23.1897 49.5413C23.467 49.1467 23.3497 48.6027 22.9444 48.336Z" fill="white"/>
<path d="M41.2049 48.2507C40.7783 48.464 40.6076 48.9973 40.8209 49.424C41.0343 49.8506 41.5676 50.0213 41.9942 49.808C42.4209 49.5946 42.5915 49.072 42.3782 48.6454C42.1649 48.208 41.6422 48.0267 41.2049 48.2507Z" fill="white"/>
<path d="M31.0934 39.4618C31.904 38.2138 31.5627 36.5499 30.3147 35.7286C29.0668 34.918 27.4029 35.2593 26.5816 36.5072C25.7603 37.7552 26.1123 39.4191 27.3602 40.2404C27.7975 40.5284 28.3095 40.6777 28.8321 40.6777C29.7494 40.6884 30.5921 40.2297 31.0934 39.4618Z" fill="white"/>
<path d="M25.707 43.5896C25.0883 43.1843 24.2457 43.3549 23.8404 43.9736C23.4351 44.5922 23.6057 45.4348 24.2244 45.8402C24.843 46.2455 25.6856 46.0748 26.0909 45.4562C26.5069 44.8375 26.3363 43.9949 25.707 43.5896Z" fill="white"/>
<path d="M31.9893 48.7414C31.3814 48.7094 30.8587 49.1787 30.8161 49.7866C30.7734 50.3946 31.2534 50.9173 31.8613 50.9599C32.4693 50.9919 32.992 50.5333 33.0346 49.9253C33.0666 49.3067 32.5973 48.784 31.9893 48.7414Z" fill="white"/>
<path d="M32 41.7763C31.1254 41.723 30.3787 42.395 30.3361 43.2696C30.2827 44.1442 30.9547 44.8909 31.8293 44.9335C32.704 44.9762 33.4506 44.3149 33.4933 43.4403C33.5466 42.5763 32.8746 41.819 32 41.7763Z" fill="white"/>
<path d="M38.4744 43.4829C37.8131 43.8242 37.5464 44.6349 37.8877 45.2962C38.2291 45.9575 39.0397 46.2241 39.701 45.8828C40.3623 45.5522 40.6289 44.7415 40.2983 44.0802C39.957 43.4189 39.1463 43.1416 38.4744 43.4829Z" fill="white"/>
</svg>
