<svg width="64" height="64" viewBox="0 0 64 64" fill="none" xmlns="http://www.w3.org/2000/svg">
<rect width="64" height="64" fill="black"/>
<path d="M20.6489 19.0299C20.6609 19.0478 20.7269 19.1286 20.7899 19.2063C21.2489 19.7505 21.5939 20.6355 21.7799 21.7507C21.9029 22.4832 21.9089 22.7134 21.9089 25.506V28.1072H20.6549C19.5089 28.1072 19.3769 28.1012 19.152 28.0563C18.798 27.9816 18.432 27.7813 18.186 27.5241C17.991 27.3178 17.997 27.3059 18.009 27.9308C18.024 28.448 18.03 28.5048 18.105 28.7859C18.225 29.2314 18.39 29.5632 18.639 29.8592C18.978 30.2659 19.323 30.4931 19.8149 30.6456C19.9199 30.6755 20.1419 30.6874 20.9279 30.6934L21.9089 30.7084V32.003V33.3006L20.5259 33.2916L19.137 33.2827L18.897 33.187C18.612 33.0734 18.483 32.9897 18.204 32.7415L18 32.5591L18.012 33.1302C18.027 33.6594 18.03 33.7192 18.105 33.9883C18.366 34.9391 18.996 35.6178 19.8269 35.839C20.0339 35.8958 20.1149 35.8988 20.9819 35.9108L21.9089 35.9227V38.6017C21.9089 40.2192 21.8999 41.4121 21.8849 41.6155C21.8699 41.8008 21.8219 42.1477 21.7799 42.3898C21.5849 43.5051 21.2339 44.3452 20.7299 44.8894L20.6279 45H25.7007C28.7336 45 31.0015 44.988 31.3345 44.9731C31.9195 44.9432 33.2244 44.8146 33.5184 44.7518C33.6114 44.7339 33.7854 44.707 33.8994 44.6891C34.1424 44.6532 34.5444 44.5695 35.1234 44.423C35.9393 44.2196 36.6833 43.9655 37.4123 43.6426C37.6403 43.5409 38.2942 43.2091 38.4682 43.1044C38.5612 43.0506 38.6722 42.9848 38.7142 42.9639C38.8312 42.9011 39.0262 42.7755 39.3112 42.5722C39.4522 42.4706 39.5932 42.3719 39.6232 42.351C39.7492 42.2673 40.1842 41.9055 40.3822 41.7231C41.1351 41.0324 41.7651 40.264 42.2541 39.4418C42.3231 39.3222 42.4131 39.1727 42.4521 39.1099C42.5511 38.9425 42.9591 38.1053 42.9981 37.9798C43.0161 37.923 43.0401 37.8632 43.0521 37.8512C43.1301 37.7495 43.58 36.3383 43.634 36.0304C43.652 35.9317 43.661 35.9167 43.736 35.9018C43.784 35.8928 44.483 35.8928 45.29 35.8988C46.9039 35.9108 46.9039 35.9108 47.2609 36.0752C47.4619 36.1679 47.5219 36.2098 47.7439 36.4101C48.0349 36.6702 48.0079 36.7121 47.9899 36.0603C47.9779 35.6776 47.9629 35.4414 47.9359 35.3457C47.8339 34.9779 47.8099 34.9002 47.7199 34.7148C47.4259 34.075 46.9339 33.6175 46.3039 33.3993L46.058 33.3096L45.056 33.2976L44.057 33.2827L44.069 32.9328C44.081 32.4724 44.081 31.5605 44.066 31.0911L44.054 30.7144L45.392 30.7084C46.5379 30.7024 46.7509 30.7084 46.8769 30.7413C47.2549 30.8459 47.5099 30.9894 47.8219 31.2735L47.9959 31.4349V30.9924C47.9959 30.4662 47.9689 30.233 47.8609 29.8862C47.6479 29.1835 47.2279 28.6603 46.6279 28.3374C46.2379 28.1281 46.2139 28.1221 44.873 28.1132C44.087 28.1072 43.676 28.0952 43.655 28.0773C43.637 28.0593 43.622 28.0294 43.622 28.0055C43.622 27.9816 43.577 27.7932 43.517 27.5899C42.8151 25.1173 41.5041 23.1529 39.5872 21.6969C39.3262 21.4966 38.6872 21.075 38.4292 20.9315C38.3302 20.8747 38.2222 20.8149 38.1952 20.7969C38.0693 20.7282 37.3463 20.3753 37.1663 20.3006C37.0583 20.2528 36.9173 20.193 36.8543 20.169C35.7953 19.7116 34.0194 19.2781 32.6635 19.1435C32.4415 19.1226 32.1475 19.0897 32.0125 19.0777C31.4005 19.009 30.5515 19 25.7307 19C21.6569 19 20.6339 19.009 20.6489 19.0299ZM30.5695 20.3245C31.5835 20.3843 32.2075 20.4621 32.9364 20.6385C35.1624 21.1647 36.7283 22.2769 37.8653 24.1366C37.9703 24.31 38.4142 25.213 38.4802 25.3954C38.7952 26.2415 38.9482 26.7438 39.0832 27.4075C39.1162 27.569 39.1612 27.7843 39.1822 27.8859C39.2032 27.9846 39.2122 28.0773 39.2032 28.0862C39.1882 28.0982 36.1763 28.1042 32.5045 28.1012L25.8297 28.0952L25.8207 24.2532C25.8177 22.1424 25.8207 20.3873 25.8297 20.3544L25.8417 20.2976H27.9746C29.1446 20.2976 30.3145 20.3096 30.5695 20.3245ZM39.4942 30.7981C39.5152 30.9266 39.5152 33.1092 39.4942 33.2169L39.4762 33.2976L32.6515 33.2916L25.8297 33.2827L25.8237 32.0149C25.8177 31.3183 25.8237 30.7383 25.8297 30.7263C25.8387 30.7114 28.7456 30.7024 32.6605 30.7024H39.4762L39.4942 30.7981ZM39.1882 35.9317C39.2032 35.9765 39.1312 36.3443 38.9842 36.9423C38.8162 37.615 38.5882 38.2937 38.3572 38.796C38.2432 39.0531 37.9583 39.6092 37.8893 39.7139C37.8563 39.7617 37.7603 39.9142 37.6763 40.0488C37.1363 40.8919 36.3653 41.6603 35.4863 42.2284C35.1654 42.4317 34.5054 42.7785 34.3284 42.8323C34.2924 42.8413 34.2534 42.8592 34.2384 42.8712C34.2174 42.8891 33.9444 42.9908 33.6264 43.1044C33.0414 43.3107 31.9285 43.535 31.0345 43.6276C30.4555 43.6845 30.3625 43.6874 28.1336 43.6874H25.8267V39.8096V35.9287L32.4535 35.9167C36.0983 35.9108 39.1012 35.9018 39.1252 35.8958C39.1522 35.8928 39.1792 35.9108 39.1882 35.9317Z" fill="white"/>
</svg>
