<svg width="64" height="64" viewBox="0 0 64 64" fill="none" xmlns="http://www.w3.org/2000/svg">
<rect width="64" height="64" fill="black"/>
<g clip-path="url(#clip0_90_119)">
<path d="M23.3742 35.4299C23.0221 36.7586 22.7509 38.1075 22.5622 39.4691C19.7596 39.3812 17.7657 39.3373 16.5805 39.3374C15.4097 39.3374 13.4415 39.3813 10.6757 39.4691C10.5586 39.4691 10.5 39.3666 10.5 39.1617C10.5 38.9787 10.5586 38.8799 10.6757 38.8653C11.5609 38.7627 12.1628 38.5979 12.4811 38.3708C12.7994 38.1436 12.9585 37.6897 12.9584 37.0088V26.6727C12.9584 26.1603 12.8943 25.7997 12.7662 25.5909C12.6381 25.3822 12.4131 25.2173 12.0911 25.0964C11.7691 24.9758 11.2971 24.8787 10.6753 24.8054C10.5584 24.8055 10.5 24.7049 10.5 24.5037C10.5 24.3025 10.5586 24.2019 10.6757 24.2018C11.1659 24.2018 11.7512 24.2238 12.4317 24.2678C13.0828 24.3117 13.6316 24.3336 14.078 24.3336C14.5245 24.3335 15.0696 24.3116 15.7135 24.2678C16.3865 24.2238 16.9682 24.2018 17.4585 24.2018C17.5755 24.2018 17.6341 24.3025 17.6341 24.5037C17.6342 24.7049 17.5756 24.8055 17.4585 24.8055C16.8439 24.879 16.3756 24.976 16.0537 25.0968C15.7318 25.2175 15.5086 25.3804 15.3842 25.5855C15.2597 25.7906 15.1975 26.1531 15.1976 26.673V37.3386C15.1976 38.2029 15.622 38.635 16.4708 38.6348H18.6439C19.5438 38.6348 20.3048 38.3952 20.9269 37.916C21.5489 37.4367 22.1635 36.5422 22.7707 35.2325C22.7999 35.174 22.8694 35.1447 22.9792 35.1446C23.0758 35.1451 23.1699 35.1758 23.2482 35.2325C23.3322 35.291 23.3742 35.357 23.3742 35.4299ZM33.0203 31.1164C33.9725 32.0897 34.4486 33.3153 34.4487 34.7933C34.4487 36.2495 33.9744 37.4478 33.0259 38.3881C32.0773 39.3283 30.8485 39.7983 29.3396 39.7981C27.8305 39.7981 26.6 39.3262 25.6479 38.3823C24.6958 37.4383 24.2196 36.242 24.2194 34.7933C24.2194 33.3227 24.6992 32.0989 25.6588 31.122C26.6185 30.1452 27.8454 29.6567 29.3396 29.6567C30.8412 29.6567 32.0681 30.1433 33.0203 31.1164ZM32.2316 34.7714C32.2316 33.4323 31.9736 32.3622 31.4576 31.561C30.9416 30.7599 30.2337 30.3592 29.334 30.3591C28.4413 30.3591 27.7352 30.7615 27.2158 31.5665C26.6963 32.3714 26.4366 33.4397 26.4364 34.7714C26.4364 36.0958 26.6926 37.1476 27.2048 37.9268C27.7171 38.706 28.4268 39.0957 29.334 39.0957C30.2413 39.0957 30.9511 38.7098 31.4633 37.9379C31.9756 37.166 32.2317 36.1105 32.2316 34.7714ZM44.7861 31.1164C45.7383 32.0897 46.2144 33.3153 46.2144 34.7933C46.2144 36.2495 45.7402 37.4478 44.7916 38.3881C43.843 39.3283 42.6143 39.7984 41.1053 39.7982C39.5963 39.7982 38.3657 39.3263 37.4136 38.3824C36.4615 37.4385 35.9854 36.2421 35.9852 34.7934C35.9852 33.3228 36.465 32.0991 37.4246 31.1222C38.3842 30.1453 39.6111 29.6569 41.1054 29.6569C42.6069 29.6568 43.8338 30.1433 44.7861 31.1164ZM43.9973 34.7714C43.9973 33.4323 43.7393 32.3622 43.2233 31.561C42.7073 30.7599 41.9994 30.3592 41.0996 30.3591C40.2068 30.3591 39.5008 30.7615 38.9814 31.5665C38.4619 32.3714 38.2022 33.4397 38.202 34.7714C38.202 36.0958 38.4581 37.1476 38.9704 37.9268C39.4826 38.706 40.1924 39.0957 41.0996 39.0957C42.0069 39.0957 42.7166 38.7098 43.2289 37.9379C43.7411 37.166 43.9973 36.1105 43.9973 34.7714ZM53.2147 31.3252C53.4049 31.3252 53.5 31.1276 53.5 30.7323C53.5 30.3371 53.4049 30.1396 53.2147 30.1398H49.9878L50.0757 28.0434C50.0757 27.9264 49.9736 27.8678 49.7694 27.8676C49.6453 27.8676 49.5432 27.9267 49.4629 28.0439C48.7116 29.139 47.829 29.9876 46.8153 30.5898C46.7547 30.6189 46.7039 30.6649 46.6689 30.7222C46.634 30.7796 46.6164 30.8459 46.6183 30.913C46.6183 31.1002 46.6988 31.1936 46.8599 31.1935H47.6941C47.8697 31.1935 47.9575 31.2959 47.9575 31.5007L47.9135 36.8347V36.9336C47.9135 37.7678 48.1618 38.4391 48.6585 38.9474C49.1551 39.4557 49.8195 39.7101 50.6518 39.7104C51.331 39.7104 51.9425 39.5549 52.4865 39.2438C53.0304 38.9328 53.3025 38.6859 53.3027 38.503C53.3028 38.4156 53.278 38.33 53.2313 38.2561C53.1836 38.1793 53.1306 38.1409 53.0722 38.1409C52.5675 38.428 51.9955 38.5757 51.4148 38.5688C50.4344 38.5688 49.9442 37.881 49.9442 36.5054V31.2373L53.2147 31.3252Z" fill="white"/>
</g>
<defs>
<clipPath id="clip0_90_119">
<rect width="43" height="43" fill="white" transform="translate(10.5 10.5)"/>
</clipPath>
</defs>
</svg>
