<svg width="64" height="64" viewBox="0 0 64 64" fill="none" xmlns="http://www.w3.org/2000/svg">
<rect width="64" height="64" fill="black"/>
<path d="M45.4413 11.4933L26.7307 26.0118H19.2537L21.1932 19.803L9 29.1456H22.5056L16.0247 34.1656H22.1536L28.6449 29.1456H39.719L37.9598 34.1656H42.9149L44.6657 29.1456H50.1932L54 26.1295V26.0118H45.5885L50.3491 11.4933H45.4413ZM43.3061 17.9293L40.6461 26.0118H32.6835L43.3061 17.9293Z" fill="white"/>
<path d="M38.9543 38.2095V42.0588H39.9099V39.2087L45.2796 42.1653L45.2864 38.2095H44.3129V40.5909L39.9997 38.2095H38.9543Z" fill="white"/>
<path d="M35.641 38.2095H34.605V42.0588H35.641V38.2095Z" fill="white"/>
<path d="M25.7187 38.2091V42.0588H26.7546L26.7591 40.7731L28.5944 40.77C30.539 40.767 30.4922 40.768 30.7289 40.723C31.0008 40.6717 31.1858 40.6016 31.3719 40.4794C31.4874 40.4035 31.6221 40.2682 31.682 40.1678C31.7184 40.1069 31.7652 40.0138 31.7594 40.0138C31.7564 40.0138 31.7584 40.0085 31.764 40.0017C31.7787 39.9839 31.8071 39.8959 31.8274 39.8049C31.8826 39.5583 31.8706 39.2729 31.7958 39.0517C31.7439 38.8984 31.6493 38.7449 31.541 38.6388C31.4587 38.558 31.3302 38.4663 31.2247 38.413C31.1658 38.3833 30.9446 38.3007 30.8965 38.2905C30.8756 38.2859 30.8204 38.2742 30.7737 38.2641C30.5316 38.2118 30.702 38.2151 28.1011 38.2121L25.7187 38.2091ZM26.7547 38.8966L28.4582 38.8997C29.9263 38.9027 30.1717 38.905 30.2333 38.9165C30.5956 38.9846 30.7307 39.127 30.7441 39.4551C30.7495 39.5855 30.7349 39.6648 30.688 39.7596C30.6112 39.915 30.4482 40.0129 30.1798 40.0649C30.1171 40.077 29.9019 40.0792 28.4377 40.082C27.5189 40.0835 26.7644 40.0825 26.7609 40.079C26.7575 40.0754 26.7546 39.808 26.7546 39.4845L26.7547 38.8966Z" fill="white"/>
<path d="M12.6253 38.089L9 42.0586H10.213L10.8602 41.3263H14.3924L15.0338 42.0588H16.2547L12.6253 38.089ZM12.6259 39.3482L13.7725 40.6387H11.4811L12.6259 39.3482Z" fill="white"/>
<path d="M48.5997 38.2095V42.0588H53.8113L54 41.3711H49.6357V40.4512H53.86V39.7546H49.6357V38.8972H53.86V38.2095H48.5997Z" fill="white"/>
<path d="M18.5115 38.2095V42.0588L23.2385 42.0542L23.527 41.3755L19.5474 41.3709V38.2094L18.5115 38.2095Z" fill="white"/>
<path d="M28.2323 51.0901L27.3046 51.9334H30.2107L31.1384 51.0901H28.2323Z" fill="#006FBA"/>
<path d="M20.8945 48.0353V45.4099H22.7369V45.7198H21.2559V46.5328H22.5375V46.8426H21.2559V48.0353H20.8945Z" fill="white"/>
<path d="M30.1917 48.0353V45.7198H29.3177V45.4099H31.4203V45.7198H30.5427V48.0353H30.1917Z" fill="white"/>
<path d="M32.7595 48.0353V45.4099H34.5169V45.7198H33.0811V46.5238H34.4257V46.8319H33.0811V47.7255H34.5732V48.0353H32.7595Z" fill="white"/>
<path d="M35.625 48.0353L36.6679 45.4099H37.0551L38.1666 48.0353H37.7572L37.4404 47.2402H36.3048L36.0066 48.0353H35.625ZM36.4086 46.9572H37.3292L37.0458 46.2301C36.9594 46.0093 36.8951 45.8278 36.8532 45.6857C36.8186 45.8541 36.7698 46.0212 36.7068 46.1872L36.4086 46.9572Z" fill="white"/>
<path d="M39.4115 48.0353V45.4099H39.9738L40.642 47.2688C40.7036 47.442 40.7485 47.5715 40.7768 47.6575C40.8089 47.5619 40.859 47.4217 40.927 47.2366L41.6029 45.4099H42.1055V48.0353H41.7454V45.838L40.925 48.0353H40.5881L39.7716 45.8003V48.0353H39.4115Z" fill="white"/>
<path d="M23.9212 45.3993V45.7196H24.5306V48.0353H24.8773V45.3993H23.9212Z" fill="white"/>
<path d="M26.5561 45.1261C26.642 45.1261 26.7259 45.1482 26.8078 45.1926C26.8897 45.2364 26.9535 45.2995 26.9991 45.3819C27.0448 45.4637 27.0677 45.5492 27.0677 45.6383C27.0677 45.7265 27.0451 45.8114 26.9998 45.8928C26.955 45.9742 26.8919 46.0375 26.8105 46.0828C26.7295 46.1275 26.6447 46.1499 26.5561 46.1499C26.4674 46.1499 26.3824 46.1275 26.301 46.0828C26.22 46.0375 26.1569 45.9742 26.1117 45.8928C26.0664 45.8114 26.0438 45.7265 26.0438 45.6383C26.0438 45.5492 26.0666 45.4637 26.1123 45.3819C26.1585 45.2995 26.2225 45.2364 26.3043 45.1926C26.3862 45.1482 26.4701 45.1261 26.5561 45.1261ZM26.5561 45.2109C26.4842 45.2109 26.414 45.2294 26.3457 45.2665C26.2779 45.3032 26.2247 45.3558 26.1863 45.4246C26.1478 45.4929 26.1286 45.5642 26.1286 45.6383C26.1286 45.7121 26.1474 45.7829 26.1849 45.8507C26.2229 45.9181 26.2758 45.9708 26.3437 46.0088C26.4116 46.0463 26.4823 46.0651 26.5561 46.0651C26.6298 46.0651 26.7006 46.0463 26.7684 46.0088C26.8363 45.9708 26.889 45.9181 26.9265 45.8507C26.9641 45.7829 26.9829 45.7121 26.9829 45.6383C26.9829 45.5642 26.9636 45.4929 26.9252 45.4246C26.8872 45.3558 26.834 45.3032 26.7657 45.2665C26.6974 45.2294 26.6275 45.2109 26.5561 45.2109ZM26.3315 45.9213V45.3703H26.5208C26.5855 45.3703 26.6323 45.3755 26.6612 45.3859C26.6902 45.3959 26.7133 45.4135 26.7305 45.4389C26.7476 45.4642 26.7562 45.4911 26.7562 45.5196C26.7562 45.5599 26.7418 45.5949 26.7128 45.6248C26.6843 45.6546 26.6463 45.6714 26.5988 45.675C26.6183 45.6831 26.6339 45.6928 26.6456 45.7041C26.6678 45.7259 26.6949 45.7623 26.7271 45.8134L26.7942 45.9213H26.6857L26.6368 45.8344C26.5984 45.7661 26.5674 45.7234 26.5439 45.7062C26.5276 45.6935 26.5038 45.6872 26.4726 45.6872H26.4204V45.9213H26.3315ZM26.4204 45.6112H26.5283C26.5798 45.6112 26.6149 45.6035 26.6334 45.5881C26.6524 45.5727 26.6619 45.5524 26.6619 45.5271C26.6619 45.5108 26.6574 45.4963 26.6484 45.4836C26.6393 45.4705 26.6266 45.4608 26.6104 45.4545C26.5945 45.4481 26.5649 45.445 26.5215 45.445H26.4204V45.6112Z" fill="white"/>
<path d="M32.7893 51.09L31.8616 51.9334H34.7677L35.6954 51.09H32.7893Z" fill="#DB090A"/>
<path d="M31.1384 51.0901L30.2107 51.9334H31.8616L32.7893 51.09L31.1384 51.0901Z" fill="white"/>
</svg>
