<svg width="64" height="64" viewBox="0 0 64 64" fill="none" xmlns="http://www.w3.org/2000/svg">
<rect width="64" height="64" fill="#D9327C"/>
<path fill-rule="evenodd" clip-rule="evenodd" d="M30.6927 18.844C30.4364 19.0491 30.1288 19.4079 29.9237 20.0744C29.7186 20.7409 28.5907 24.022 27.1552 28.1235H36.7423C35.3068 24.022 34.1789 20.7409 33.9739 20.0744C33.7688 19.4079 33.4612 19.0491 33.2048 18.844C32.9485 18.6389 32.5896 18.4851 31.9231 18.4851C31.2567 18.4851 30.9491 18.6389 30.6927 18.844ZM16.5428 28.1235H23.0538C24.6431 23.4581 26.0273 19.5617 26.2324 18.844C26.6426 17.6136 27.309 16.5369 28.3344 15.7679C29.3598 14.9989 30.5902 14.64 31.8719 14.64C33.1536 14.64 34.384 14.9476 35.4094 15.7679C36.4347 16.5369 37.1012 17.6136 37.5114 18.844C37.7677 19.5617 39.1007 23.4068 40.69 28.1235H47.3035C48.3801 28.1235 49.2517 28.995 49.2517 30.0716C49.2517 31.1483 48.3801 32.0198 47.3035 32.0198H42.1255H38.0753H25.8223H21.7721H16.5428C15.4662 32.0198 14.6459 31.1483 14.6459 30.0716C14.6459 28.995 15.5174 28.1235 16.5428 28.1235ZM16.5428 35.8137C15.4662 35.8137 14.6459 36.6852 14.6459 37.7618C14.6459 38.8385 15.5174 39.71 16.5428 39.71H19.1062L18.0808 42.6835L17.0555 45.6571L16.6453 46.785C16.2864 47.8103 16.8504 48.887 17.8245 49.2458C18.8498 49.6047 19.9265 49.0408 20.2853 48.0667L20.6955 46.9388L21.7208 43.9652C22.131 42.7348 22.6437 41.2993 23.2076 39.71H40.7412C41.2539 41.248 41.7666 42.7348 42.228 43.9652L43.2534 46.9388L43.6635 48.0667C44.0224 49.092 45.099 49.6047 46.1244 49.2458C47.1497 48.887 47.6624 47.8103 47.3035 46.785L46.8934 45.6571L45.868 42.6835L44.8427 39.71H47.406C48.4827 39.71 49.3542 38.8385 49.3542 37.7618C49.3542 36.6852 48.4827 35.8137 47.406 35.8137H43.5097H39.4595H24.5918H20.5417H16.5428ZM45.4066 47.3489L47.201 46.7337C47.201 46.7337 47.201 46.7337 45.4066 47.3489ZM45.4066 47.3489C43.6122 47.9641 43.6122 47.9641 43.6122 47.9641L45.4066 47.3489ZM18.491 47.3489L20.2853 47.9641C20.2853 47.9641 20.2853 47.9641 18.491 47.3489ZM18.491 47.3489C16.6966 46.7337 16.6966 46.7337 16.6966 46.7337L18.491 47.3489Z" fill="white"/>
</svg>
