<svg width="64" height="64" viewBox="0 0 64 64" fill="none" xmlns="http://www.w3.org/2000/svg">
<rect width="64" height="64" fill="#3164FA"/>
<path fill-rule="evenodd" clip-rule="evenodd" d="M27.4103 11.802L25.3584 9.62417C28.9222 9.1742 38.2995 9.75016 47.3889 15.7617C47.5149 16.5897 47.4789 17.4176 47.4789 17.4176L48.1448 17.7776H48.1628C48.5408 18.4256 48.9188 19.3795 49.1528 20.5134C49.4407 21.8813 49.5307 23.4472 49.1888 24.9591C48.8468 26.471 48.1808 27.7309 47.5509 28.6488C47.0829 29.3328 46.6329 29.8008 46.327 30.0527C45.175 30.0707 42.9972 30.8627 42.3852 33.5445C40.5314 34.6064 37.5976 35.6683 33.7459 35.6683C30.0561 35.6683 26.2944 34.6064 23.4686 32.5366C20.6608 30.4847 18.7529 27.4429 18.7529 23.4292C18.7529 20.2434 20.1928 17.7416 21.9927 15.9237C23.8106 14.0879 26.2944 12.594 27.7523 12.108L27.3923 11.802H27.4103ZM43.3572 17.0396L43.3551 17.0419L43.3392 17.0396H43.3572ZM43.3551 17.0419C42.636 17.8143 41.9711 18.1917 41.7733 18.2996C37.5976 17.3636 36.0857 15.1138 36.0857 15.1138C40.0274 15.0958 43.5912 16.0677 46.183 17.7236C46.183 17.7236 44.7894 17.2412 43.3551 17.0419ZM25.2865 12.396L25.2658 12.4001L25.3045 12.378L25.2865 12.396ZM25.2658 12.4001C16.3126 14.2083 9.50159 22.2668 9.50159 31.9966C9.50159 44.3077 19.9049 54.495 32.7559 54.495C42.3493 54.495 50.3227 48.6274 54.4984 40.78C48.9548 42.0939 42.3133 39.754 42.2773 34.6424C40.2794 35.6683 37.3996 36.5863 33.7459 36.5863C29.8941 36.5863 25.9524 35.4704 22.9466 33.2745C19.9228 31.0787 17.871 27.7669 17.871 23.4292C17.871 19.9374 19.4369 17.2376 21.3807 15.2758C22.4853 14.1712 24.013 13.1196 25.2658 12.4001ZM49.6028 18.7495C49.7828 19.2355 49.9267 19.7754 50.0527 20.3334H50.0707C50.3947 21.8093 50.4847 23.5192 50.1067 25.175C49.7288 26.8129 49.0268 28.1808 48.3249 29.1708C48.0369 29.5667 47.7489 29.9087 47.4969 30.1967C48.0189 30.3767 48.3249 30.6287 48.4688 30.7907C48.7568 31.1146 49.5308 32.0866 48.6128 33.6165C50.5207 33.3105 53.4905 31.3666 53.7245 26.435C53.8865 22.9972 52.0146 20.5494 49.6028 18.7495Z" fill="white"/>
</svg>
