<svg width="64" height="64" viewBox="0 0 64 64" fill="none" xmlns="http://www.w3.org/2000/svg">
<rect width="64" height="64" fill="#2359E3"/>
<path d="M31.1028 40.7021C31.0907 40.8421 31.1324 41.0455 31.0563 41.1098C30.8572 41.2784 30.6068 41.3862 30.3768 41.5182C30.3208 41.3449 30.251 41.1745 30.214 40.9972C30.1936 40.8983 30.2293 40.788 30.238 40.6827C30.265 40.3547 30.3072 39.9699 30.7338 40.0416C30.9197 40.0729 31.0537 40.4128 31.2113 40.6126L31.1028 40.7021ZM29.0283 41.8303C29.0944 41.7785 29.3777 41.6692 29.4225 41.4977C29.5237 41.1098 29.765 40.6755 29.3818 40.2939C29.1187 40.0319 28.7659 40.0719 28.5844 40.4096C28.4613 40.645 28.3698 40.8956 28.3125 41.1549C28.1837 41.7141 28.277 41.8179 29.0283 41.8303ZM32.0405 42.4889C32.0627 42.8626 32.134 43.2881 32.5881 43.2282C32.8015 43.2 32.9655 42.7977 33.2344 42.4616C32.9628 42.2014 32.8038 41.918 32.6147 41.8963C32.2644 41.8562 32.0162 42.0807 32.0405 42.4891V42.4889ZM29.9809 42.7823C30.0506 43.1101 30.07 43.3836 30.1733 43.6206C30.2394 43.7727 30.4188 43.9519 30.5663 43.9707C30.7165 43.9899 30.9954 43.8607 31.034 43.7384C31.1694 43.3099 31.2322 42.8574 31.3043 42.4112C31.3145 42.3478 31.2189 42.2035 31.1802 42.2063C30.8511 42.2301 30.5101 42.2384 30.2029 42.3413C30.0833 42.3813 30.0414 42.6523 29.9809 42.7823ZM28.2953 44.5076C28.3517 44.6539 28.5567 44.8079 28.7127 44.8302C28.8385 44.8482 29.071 44.7036 29.1181 44.579C29.2604 44.203 29.3805 43.8068 29.427 43.4089C29.5229 42.5888 29.2057 42.3504 28.4493 42.7065C28.2323 42.8086 28.1309 43.1563 28.0116 43.3378C28.1236 43.8269 28.1697 44.1825 28.2953 44.5075V44.5076ZM27.3929 41.9875C27.6414 41.5457 27.7654 41.0339 27.9492 40.5184C27.8736 40.3919 27.8319 40.2403 27.7327 40.1706C27.3586 39.9079 26.6689 40.2108 26.5829 40.6647C26.52 40.9968 26.436 41.3307 26.4293 41.6651C26.426 41.831 26.5638 42.1334 26.6581 42.1416C26.9061 42.1633 27.3083 42.138 27.3929 41.9874V41.9875ZM25.3047 44.2176C25.2858 44.3406 25.2438 44.4618 25.2383 44.5849C25.2146 45.1188 25.4677 45.3754 26.0038 45.3741C26.8453 45.3721 27.26 44.8778 27.4008 43.7593C27.256 43.5524 27.1512 43.221 26.9594 43.159C25.8795 42.8099 25.4779 43.0886 25.3047 44.2175V44.2176ZM24.7448 39.8334C24.15 39.8423 23.8292 40.1306 23.7308 40.8435C23.5876 41.8812 23.7608 42.8849 24.1597 43.9303C24.2857 43.8725 24.3916 43.8583 24.4353 43.7987C25.0802 42.9178 25.624 41.9827 25.7397 40.8728C25.8144 40.1553 25.4669 39.8226 24.7448 39.8334ZM21.9197 29.9458C21.5804 31.209 21.2424 32.4729 20.9275 33.7425C20.8364 34.1101 20.8575 34.4825 21.343 34.6656C21.7677 32.9772 22.1858 31.315 22.6063 29.643C22.2716 29.4874 22.0204 29.5711 21.9197 29.9458ZM24.8797 21.264C24.3086 22.5024 23.7271 23.7359 23.1513 24.9721C23.0916 25.1 22.9626 25.2792 23.0057 25.3557C23.1299 25.5763 23.2918 25.8615 23.5011 25.9292C23.851 26.0423 23.8304 25.6924 23.8146 25.4782C23.7561 24.6795 24.1559 24.0591 24.5184 23.3971C24.9976 22.5217 25.3809 21.5937 25.8054 20.6884L25.6089 20.5568C25.182 20.5854 25.0373 20.9223 24.8797 21.264H24.8797ZM33.0067 40.3974C32.9005 40.2053 32.8353 39.9238 32.6748 39.8502C32.5522 39.794 32.2189 39.9545 32.1415 40.103C32.0378 40.3023 32.0505 40.59 32.0916 40.8262C32.1143 40.9573 32.3128 41.1679 32.4032 41.154C32.5804 41.1269 32.7693 40.9949 32.8908 40.8531C32.9635 40.768 32.9177 40.5817 32.9252 40.4409L33.0067 40.3974ZM35.5344 40.3509C36.4298 40.2098 37.3229 40.0479 38.2095 39.8588C39.0871 39.6718 39.2697 39.4481 39.3155 38.5551C39.3641 37.6097 39.6431 36.7474 40.1314 35.9363C40.57 35.2077 40.9643 34.4526 41.3867 33.6934C40.4987 33.0644 39.3618 33.0082 38.4832 33.5404C38.1746 33.7274 37.812 33.962 37.6726 34.266C37.2415 35.2053 36.6033 35.9224 35.7718 36.5203C35.4974 36.7176 35.2137 37.0925 35.1872 37.4076C35.1125 38.2914 35.1581 39.1868 35.1905 40.0764C35.1941 40.1771 35.4314 40.3671 35.5344 40.3509ZM44.3885 32.6748C44.6306 32.7705 44.849 32.9261 45.0764 33.053C44.6709 33.8144 44.2206 33.9438 43.4969 33.653C42.4764 33.2429 41.4538 32.8116 40.3946 32.531C38.9498 32.1485 37.5165 32.9625 36.819 34.2696C36.5126 34.8438 36.0235 35.3762 35.497 35.764C34.7331 36.3264 34.3607 36.9736 34.4129 37.9265C34.4595 38.7781 34.4331 39.6365 34.3905 40.4894C34.3569 41.1609 34.1837 41.3358 33.4491 41.5492C33.4491 41.071 33.4389 40.6261 33.4512 40.1818C33.475 39.3227 33.2645 39.1538 32.4161 39.2938C31.8305 39.3905 31.2284 39.3922 30.6466 39.5045C30.0567 39.6184 29.4943 39.6721 28.8788 39.6207C28.0056 39.5477 27.0861 39.8598 26.2372 39.7132C25.4703 39.5807 24.7024 39.4168 23.9369 39.2677C23.5612 39.1945 23.2701 38.9928 22.8784 39.2991C22.7868 39.1741 22.6983 39.0725 22.6309 38.9583C22.2237 38.2677 21.5383 37.9984 20.7692 38.1669C20.5472 38.2155 20.2862 38.1114 20.0483 38.0546C19.9307 38.0267 19.8307 37.9272 19.7131 37.8955C19.1715 37.75 18.6306 37.5967 18.0814 37.4866C17.7228 37.4148 17.3399 37.4539 16.9869 37.3666C16.6311 37.2786 16.2987 37.0957 15.8399 36.9065C16.1682 36.5115 16.4506 36.1303 16.7756 35.7898C17.3775 35.1593 18.0056 34.554 18.6206 33.9358C19.3831 33.1694 19.6116 32.3784 19.0754 31.4753C18.3983 30.3351 18.616 29.3557 19.3603 28.4246C20.583 26.895 21.2325 25.1054 21.6277 23.2438C21.9166 21.8825 22.1724 20.5254 22.7538 19.2576C22.8944 18.951 23.1275 18.6249 23.4076 18.4553C24.4806 17.8059 25.6067 17.5612 26.7799 18.2462C27.0711 18.4164 27.3809 18.555 27.6841 18.7043C28.678 19.1937 29.6909 19.3116 30.7902 19.0441C32.4135 18.6492 34.0637 18.6297 35.7167 18.9208C37.5513 19.2436 38.5817 20.3691 39.0016 22.1315C39.4076 23.8349 39.3086 25.5583 39.24 27.2849C39.2098 28.049 39.234 28.8144 39.3125 29.5752C39.3997 30.4192 39.8515 30.9789 40.7081 31.2658C41.9526 31.6826 43.1666 32.1918 44.3884 32.6748H44.3885ZM26.6248 31.1703C26.5101 30.4686 26.1862 29.8675 25.5731 29.4858C24.6799 28.925 23.6576 28.6031 22.6042 28.551C21.6626 28.5022 21.1347 28.9163 20.9266 29.8402C20.8175 30.3249 20.7882 30.8292 20.6583 31.3071C20.4632 32.0249 20.1955 32.7223 19.9881 33.437C19.7853 34.1358 19.9095 34.7862 20.4395 35.3053C20.9878 35.8425 21.6326 35.9639 22.3552 35.6646C23.8586 35.0419 25.099 34.0835 25.9802 32.7159C26.2779 32.254 26.4146 31.6885 26.6249 31.1703H26.6248ZM27.5004 19.7895C26.3275 19.0417 24.4755 19.4043 24.0062 20.8255C23.5627 22.1684 22.9335 23.4103 22.2438 24.6382C21.6818 25.6386 22.0921 26.5411 23.1947 26.8972C23.5268 27.0045 23.8894 27.0177 24.2698 27.0792C24.8639 26.9575 25.4711 26.8299 26.0797 26.7094C26.9499 26.5371 27.4815 25.9632 27.657 25.1519C27.914 23.9531 28.1072 22.7415 28.236 21.5222C28.3075 20.8574 28.1243 20.1873 27.5005 19.7895H27.5004ZM37.172 22.8321C36.4425 20.3023 33.9727 18.9669 31.548 20.5764C31.2658 20.7637 31.0792 21.0125 31.2582 21.3335C31.4419 21.6632 31.7435 21.6194 32.0473 21.4551C32.3147 21.3106 32.5969 21.1936 32.8724 21.0645L32.9803 21.1656C31.7787 22.9174 30.5424 24.6584 31.2616 27.0188C30.6838 26.953 30.5418 26.6891 30.508 26.3456C30.4227 25.4793 30.3358 24.6137 30.5931 23.7553C30.6635 23.52 30.7177 23.2601 30.6897 23.022C30.6712 22.8641 30.5114 22.6256 30.3823 22.6021C30.2189 22.5725 29.9648 22.6768 29.8549 22.8101C29.7176 22.9766 29.6793 23.2291 29.6119 23.4487C29.3233 24.3887 29.4408 25.3437 29.4737 26.3031C29.501 27.0983 29.8497 27.6421 30.5347 27.9438C31.5396 28.3863 32.6055 28.5972 33.7061 28.4534C34.5273 28.3461 35.2635 28.0069 35.7257 27.2908C36.1775 26.5907 36.5753 25.8534 36.962 25.1144C37.3407 24.3911 37.3975 23.6141 37.172 22.8321H37.172ZM50.0559 21.6804C48.9065 20.6289 47.5947 19.7316 46.8057 18.3259C46.6958 18.1302 46.5128 17.966 46.3376 17.8181C45.1651 16.8283 43.8212 16.1166 42.2878 16.1018C40.5365 16.0849 38.7736 16.2239 37.0338 16.4405C35.9787 16.572 35.0558 17.1686 34.2128 17.9567C34.6047 18.0064 34.9975 18.0497 35.3883 18.1071C37.1206 18.3613 38.5694 19.0632 39.2976 20.7656C40.0571 22.5408 40.1518 24.4159 40.0295 26.3187C39.9713 27.2233 39.9407 28.1338 39.9732 29.039C40.0106 30.0779 40.2579 30.2557 41.2171 30.634C42.8011 31.2588 44.3621 31.9449 45.9134 32.6483C46.5772 32.9493 46.9922 32.9783 47.5429 32.481C48.59 31.5355 49.26 30.3846 49.516 28.9707C49.7084 27.9088 50.0555 26.8761 50.2882 25.8203C50.482 24.9414 50.6438 24.0521 50.7544 23.1592C50.8294 22.5536 50.5065 22.0927 50.0559 21.6804ZM43.2172 34.3554C42.0443 33.7792 42.2134 33.7627 41.5751 34.8626C40.8203 36.1633 39.9969 37.4395 39.9911 39.0456C39.9882 39.8696 39.3991 40.2973 38.6552 40.5105C38.4142 40.5744 38.1699 40.6248 37.9233 40.6615C36.5622 40.8915 35.1802 41.0231 34.1353 42.128C33.8717 42.4066 33.5689 42.5767 33.4772 43.0088C33.3255 43.7233 32.8873 43.9728 32.2111 43.7251C31.8467 43.5916 31.7122 43.7035 31.5295 43.9742C31.1414 44.5491 30.8135 44.6496 30.1608 44.4658C30.063 44.4383 29.9606 44.4269 29.855 44.407C29.7892 44.5214 29.7379 44.6136 29.6839 44.7042C29.1948 45.5236 28.713 45.6272 27.9611 45.0383C27.6524 44.7964 27.5772 45.0316 27.4367 45.2162C26.9936 45.7983 26.3899 45.9773 25.6854 45.8902C25.0354 45.8099 24.8237 45.3386 24.6941 44.7901C24.6824 44.7405 24.649 44.696 24.6053 44.608C24.2257 44.7828 23.7746 44.7819 23.7395 45.34C23.7316 45.4651 23.4736 45.6453 23.3066 45.6784C22.0741 45.9229 20.9001 45.8754 19.9276 44.9156C19.8183 44.8077 19.5798 44.7269 19.4426 44.7686C18.7826 44.9697 18.5702 44.9335 18.2398 44.322C18.0403 43.9529 17.8055 43.8109 17.392 43.8669C16.8818 43.936 16.4217 43.8581 16.0378 43.4246C15.9086 43.2787 15.5679 43.32 15.3239 43.2758L15.1692 43.4912C15.8405 44.6966 16.4513 45.9413 17.2016 47.0954C17.8331 48.0669 18.8084 48.6239 19.9737 48.8367C22.649 49.3251 25.3478 49.4065 28.058 49.3861C29.5179 49.3752 30.9218 49.1539 32.2723 48.5873C32.5681 48.4628 32.8822 48.3873 33.2023 48.3635C34.6922 48.2626 36.1831 48.1551 37.6753 48.118C38.5691 48.0958 39.362 47.852 39.9057 47.1658C40.6537 46.2216 41.3376 45.2211 41.9834 44.2031C42.519 43.3588 42.709 42.399 42.6533 41.3919C42.6052 40.5215 42.5357 39.6481 42.5625 38.7787C42.5991 37.5928 42.5971 36.3881 43.4466 35.3932C43.9935 34.7523 43.9663 34.7235 43.2172 34.3554ZM15.5755 40.5488C15.4608 40.569 15.3155 40.6991 15.278 40.8136C15.2136 41.01 15.2221 41.2303 15.1861 41.5744C15.2386 41.7752 15.3059 42.1004 15.4165 42.4102C15.4453 42.4907 15.6052 42.5406 15.7137 42.5661C15.7437 42.5732 15.8459 42.4424 15.8475 42.3734C15.8593 41.8457 15.8677 41.3169 15.842 40.7902C15.8375 40.6992 15.652 40.5352 15.5755 40.5488ZM15.325 39.4788C15.449 39.5235 15.6904 39.4621 15.773 39.3604C16.03 39.0444 16.2471 38.6936 16.4556 38.3419C16.5269 38.2217 16.5988 38.0108 16.5427 37.9269C16.4572 37.7993 16.2604 37.7461 16.1283 37.6711C16.0202 37.7047 15.922 37.7044 15.8917 37.7495C15.591 38.1972 15.2876 38.645 15.0271 39.116C14.996 39.1723 15.1921 39.431 15.325 39.4788ZM16.7724 40.9532C16.6934 40.9393 16.4668 41.2561 16.4624 41.4252C16.4456 41.8838 16.4849 42.3427 16.5795 42.7918C16.6265 43.0014 16.8709 43.1668 17.0259 43.3522C17.5943 43.2956 17.7643 43.1413 17.6525 42.6655C17.5563 42.2557 17.5466 41.8256 17.5018 41.4038C17.4534 40.9496 17.0525 41.0023 16.7724 40.9532ZM16.2823 39.9189C16.6146 39.9461 17.0213 40.0796 17.1046 39.9692C17.5169 39.4226 17.8438 38.8114 18.2133 38.2026C17.409 38.0083 16.8648 38.4899 16.2823 39.9189ZM23.1453 39.9247C22.981 40.121 22.7985 40.3051 22.6555 40.5158C21.9366 41.5755 21.2238 42.6392 20.5169 43.707C20.1083 44.322 20.1916 44.7706 20.8922 44.9909C21.5046 45.1833 22.1793 45.2023 22.8299 45.239C23.178 45.2587 23.265 45.021 23.2466 44.6594C23.1887 43.526 23.1732 42.3899 23.1709 41.2547C23.17 40.8344 23.2512 40.414 23.295 39.9937L23.1453 39.9247ZM19.7175 38.6533C19.5072 38.5303 19.0896 38.4991 18.9174 38.6291C18.5779 38.8855 18.3051 39.2581 18.0756 39.6265C17.6556 40.3012 17.7807 40.5226 18.6787 40.6234C18.7363 40.5839 18.9005 40.5183 18.9945 40.398C19.2455 40.0768 19.4679 39.7331 19.6986 39.3963C19.8677 39.1495 20.0288 38.8353 19.7175 38.6533ZM21.5173 38.809C21.1709 38.6968 20.8916 38.7419 20.6801 39.0629C20.3166 39.6145 19.9466 40.1618 19.4891 40.8463C20.1958 40.9279 20.715 41.0133 21.2373 41.0402C21.6762 41.0629 22.1666 40.5629 22.2252 40.098C22.2981 39.5206 21.9815 38.9595 21.5173 38.809ZM20.2379 41.6269C19.6365 41.6005 19.0367 41.5353 18.2545 41.4717C18.2268 41.5231 18.0427 41.7035 18.0728 41.8348C18.2428 42.5748 18.4446 43.309 18.6759 44.0324C18.8009 44.4229 19.1199 44.4183 19.3234 44.1305C19.7812 43.4825 20.2049 42.8076 20.5976 42.118C20.7767 41.8036 20.5995 41.6429 20.2379 41.6269Z" fill="white"/>
</svg>
