<svg width="64" height="64" viewBox="0 0 64 64" fill="none" xmlns="http://www.w3.org/2000/svg">
<rect width="64" height="64" fill="#213147"/>
<path d="M11.6495 22.1089V41.4736C11.6495 42.7022 12.3087 43.8489 13.3916 44.4573L30.247 54.1339C31.3181 54.754 32.6482 54.754 33.7193 54.1339L50.5865 44.4573C51.6576 43.8372 52.3286 42.7022 52.3286 41.4736V22.1089C52.3286 20.8803 51.6694 19.7336 50.5865 19.1135L33.7193 9.43697C32.6482 8.81683 31.3181 8.81683 30.247 9.43697L13.3798 19.1135C12.3205 19.7336 11.6495 20.8686 11.6495 22.1089Z" fill="#213147"/>
<path d="M35.6735 35.5414L33.2605 42.0938C33.1899 42.2693 33.1899 42.4799 33.2605 42.6554L37.392 53.935L42.1826 51.1853L36.4385 35.5297C36.3091 35.1787 35.8029 35.1787 35.6735 35.5414Z" fill="#12AAFF"/>
<path d="M40.4879 24.5076C40.3584 24.1449 39.8523 24.1449 39.711 24.5076L37.2981 31.06C37.2275 31.2472 37.2275 31.4461 37.2981 31.6216L44.0779 50.0971L48.8685 47.3475L40.4879 24.5076Z" fill="#12AAFF"/>
<path d="M31.9891 10.1507C32.1068 10.1507 32.2245 10.1858 32.3304 10.2443L50.5748 20.7165C50.7867 20.8335 50.9161 21.0558 50.9161 21.3015V42.2459C50.9161 42.4916 50.7867 42.7139 50.5748 42.8309L32.3304 53.3148C32.2245 53.3733 32.1068 53.4084 31.9891 53.4084C31.8714 53.4084 31.7537 53.3733 31.6477 53.3148L13.4034 42.8426C13.1915 42.7256 13.062 42.5033 13.062 42.2576V21.3015C13.062 21.0558 13.1915 20.8335 13.4034 20.7165L31.6477 10.2443C31.7537 10.1858 31.8714 10.1507 31.9891 10.1507ZM31.9891 7.09683C31.3417 7.09683 30.6826 7.27234 30.1058 7.59996L11.8614 18.0721C10.7079 18.7391 9.97815 19.9677 9.97815 21.3015V42.2459C9.97815 43.5798 10.6962 44.8201 11.8614 45.487L30.1058 55.9592C30.6826 56.2985 31.3299 56.4623 31.9891 56.4623C32.6482 56.4623 33.2956 56.2868 33.8724 55.9592L52.1167 45.487C53.282 44.8201 54 43.5915 54 42.2459V21.3015C54 19.9677 53.282 18.7274 52.1167 18.0604L33.8724 7.59996C33.2838 7.27234 32.6365 7.09683 31.9891 7.09683Z" fill="#9DCCED"/>
<path d="M19.9242 50.1205L21.6074 45.5572L24.9738 48.342L21.831 51.2087L19.9242 50.1205Z" fill="#213147"/>
<path d="M30.4469 19.8156H25.8211C25.4797 19.8156 25.1619 20.0262 25.0442 20.3538L15.1334 47.3825L19.924 50.1322L30.8471 20.3655C30.9413 20.0964 30.7412 19.8156 30.4469 19.8156Z" fill="white"/>
<path d="M38.5451 19.8156H33.9193C33.5779 19.8156 33.2601 20.0262 33.1424 20.3538L21.8309 51.2087L26.6215 53.9584L38.9335 20.3655C39.0395 20.0964 38.8276 19.8156 38.5451 19.8156Z" fill="white"/>
</svg>
