<svg width="64" height="64" viewBox="0 0 64 64" fill="none" xmlns="http://www.w3.org/2000/svg">
<rect width="64" height="64" fill="white"/>
<path d="M27.4464 16.2598C28.6011 17.4254 29.0121 18.4938 29.0121 20.4363C29.0121 21.7767 28.9142 22.2429 28.562 22.9034C27.4464 25.0208 25.9199 25.9532 23.1604 26.264C21.125 26.4971 19.9116 27.041 18.8548 28.2066C17.7784 29.3915 17.3674 30.4988 17.3674 32.1694C17.3674 35.4718 19.6376 37.7251 23.2387 38.0359C25.2545 38.2108 26.37 38.7158 27.5443 39.9979C30.9888 43.7471 28.3076 49.8079 23.2387 49.7496C22.5341 49.7496 21.6143 49.6136 21.2033 49.4582C18.9135 48.6229 17.4848 46.6221 17.25 43.9413C17.0934 42.1736 16.5258 40.8138 15.4886 39.8037C14.373 38.6964 13.3945 38.269 11.5157 38.0748C8.79529 37.8028 6.99476 36.6956 5.97707 34.6365C5.33123 33.3738 5.3508 30.8096 5.97707 29.6247C7.09262 27.5267 8.63872 26.5166 11.2025 26.264C14.8623 25.8949 16.7802 24.0884 17.1912 20.6695C17.4457 18.5715 17.8567 17.5031 18.7569 16.4735C21.0076 13.9288 25.0001 13.8316 27.4464 16.2598ZM45.0407 16.3614C46.1563 17.5463 46.5086 18.401 46.7238 20.4019C46.9195 22.3056 47.448 23.4906 48.5244 24.5395C49.6203 25.5885 50.6772 26.0353 52.6147 26.249C54.7088 26.4821 55.4525 26.7735 56.6072 27.8419C58.7208 29.765 59.1905 32.6983 57.7619 35.1265C56.7442 36.8942 55.1394 37.7878 52.5364 38.0792C48.9354 38.4677 47.0957 40.352 46.7043 43.9651C46.4498 46.5682 45.5496 48.0251 43.5729 49.0935C42.2029 49.8122 40.0501 49.9677 38.6802 49.4237C36.7622 48.6467 35.5684 47.2869 35.04 45.2278C34.7073 44.0234 34.7073 43.868 35.04 42.6831C35.4314 41.129 36.2729 39.8858 37.3885 39.1282C38.4062 38.4288 39.189 38.1957 40.9504 38.0209C42.5944 37.8849 43.6512 37.4381 44.7667 36.4474C46.0584 35.2819 46.6064 34.0581 46.6064 32.1932C46.626 30.9306 46.5477 30.4643 46.1563 29.6873C45.119 27.6088 43.4751 26.5598 40.7547 26.249C38.0539 25.9576 36.3121 24.7921 35.3531 22.6747C34.7464 21.3732 34.7464 19.3529 35.314 18.0902C37.0949 14.1663 42.1247 13.2727 45.0407 16.3614ZM36.0577 27.9695C38.3279 30.184 38.3083 34.1857 36.0185 36.1866C34.1006 37.8377 31.6933 38.1874 29.5405 37.119C27.3877 36.07 26.37 34.3605 26.37 31.9129C26.3896 26.94 32.4762 24.4535 36.0577 27.9695Z" fill="black"/>
</svg>
