<svg width="64" height="64" viewBox="0 0 64 64" fill="none" xmlns="http://www.w3.org/2000/svg">
<rect width="64" height="64" fill="#2E76AA"/>
<g clip-path="url(#clip0_90_129)">
<path d="M22.3461 27.259V30.5678L25.161 28.543L22.3461 27.259ZM10.7406 31.9506C10.9381 36.0989 28.6178 53.3341 32.0254 53.2847C35.433 53.186 53.0633 36.6915 53.2608 32.0493C53.409 27.4071 35.0873 10.8139 31.9267 10.7151C28.7661 10.6657 10.4937 27.8022 10.7406 31.9506H10.7406ZM20.5682 39.4076V26.7157C20.5682 24.3453 21.951 24.444 22.5929 24.7898C22.5929 24.7898 31.1859 29.4319 30.9389 30.469C30.692 31.4567 30.297 31.6048 29.655 31.4567C29.013 31.3579 27.5808 30.0739 27.5808 30.0739L23.7782 33.7778V37.1359C23.7782 39.0619 24.3708 38.5187 24.6671 38.0249L39.7294 22.8638C43.0382 19.6044 43.6802 24.0984 43.5815 26.7158V35.3087C43.5815 40.9879 40.8653 40.3953 39.4825 39.4076L37.0627 37.1359C37.0627 37.1359 34.0008 34.321 34.0008 33.7778C34.0008 33.2839 34.6428 33.037 34.6428 33.037C35.2848 33.037 35.9762 33.4815 38.3466 35.8519C40.7171 38.2224 41.1122 36.8397 41.0134 35.8519V29.827C41.0134 26.0244 39.4825 26.6664 38.7417 27.5059C34.4452 32.395 25.3091 42.1237 23.2349 42.1237C21.2101 42.1237 20.6175 40.346 20.5682 39.4076Z" fill="white"/>
</g>
<defs>
<clipPath id="clip0_90_129">
<rect width="43" height="43" fill="white" transform="translate(10.5 10.5)"/>
</clipPath>
</defs>
</svg>
