<svg width="64" height="64" viewBox="0 0 64 64" fill="none" xmlns="http://www.w3.org/2000/svg">
<rect width="64" height="64" fill="#1E1C1D"/>
<path d="M50.5479 37.1256C48.449 45.2802 41.022 51.2965 32.1999 51.2416C21.8346 51.1764 13.5 42.7859 13.5 32.4206C13.5 22.0554 21.8336 13.6917 32.1502 13.6006C32.1357 13.8004 32.1295 14.0012 32.1295 14.204C32.1295 19.2878 36.2498 23.4081 41.3336 23.4081C43.6498 23.4081 45.7684 22.5521 47.3861 21.1373C48.8382 23.0748 49.9269 25.301 50.5479 27.7156C50.6597 28.1472 50.3327 28.5674 49.8876 28.5674H40.8388C40.5066 28.5674 40.1972 28.3894 40.0378 28.0975C38.5195 25.3238 35.5832 23.436 32.2041 23.4081C27.3573 23.3687 23.3084 27.223 23.1242 32.0677C22.9276 37.2053 27.0344 41.4332 32.1295 41.4332C35.5408 41.4332 38.5081 39.5381 40.0378 36.7427C40.1972 36.4508 40.5066 36.2738 40.8388 36.2738H49.8876C50.3327 36.2738 50.6597 36.694 50.5479 37.1256Z" fill="#F5AFC4"/>
<path d="M47.3861 21.1373C45.7685 22.5521 43.6499 23.4081 41.3336 23.4081C36.2498 23.4081 32.1296 19.2878 32.1296 14.204C32.1296 14.0012 32.1358 13.8004 32.1503 13.6006C32.2072 13.5996 32.2631 13.5996 32.32 13.5996C38.4812 13.5996 43.9511 16.5607 47.3861 21.1373Z" fill="#B567A6"/>
<path d="M50.5376 14.204C50.5376 16.9705 49.3174 19.4513 47.3861 21.1373C43.951 16.5607 38.4812 13.5996 32.32 13.5996C32.2631 13.5996 32.2072 13.5996 32.1503 13.6006C32.4597 8.79939 36.4527 5 41.3336 5C46.2145 5 50.5376 9.12127 50.5376 14.204Z" fill="#B290C2"/>
</svg>
