<svg width="64" height="64" viewBox="0 0 64 64" fill="none" xmlns="http://www.w3.org/2000/svg">
<rect width="64" height="64" fill="#5FB885"/>
<path fill-rule="evenodd" clip-rule="evenodd" d="M40.7169 31.9496C45.5578 31.9496 49.4869 28.0205 49.4869 23.1796C49.4869 18.4291 45.5578 14.5 40.7169 14.5C35.876 14.5 32.0373 18.4291 31.9469 23.1796C31.9496 18.4291 28.0205 14.5 23.1796 14.5C18.3388 14.5 14.5 18.4291 14.5 23.27C14.5 28.1109 18.4291 31.9496 23.1796 32.04C18.3388 32.04 14.5 35.9691 14.5 40.81C14.5 45.6509 18.4291 49.58 23.27 49.58C28.1109 49.58 32.04 45.6509 32.04 40.81C32.04 35.9691 28.1109 32.1304 23.3604 32.04C28.1109 32.04 32.04 28.1109 32.04 23.3604C32.04 28.1109 35.876 31.9469 40.7196 31.9469L40.7169 31.9496Z" fill="white"/>
<path d="M40.717 49.4869C45.5579 49.4869 49.487 45.5578 49.487 40.7169C49.487 35.876 45.5579 31.9469 40.717 31.9469C35.8761 31.9469 31.947 35.876 31.947 40.7169C31.947 45.5578 35.8761 49.4869 40.717 49.4869Z" fill="white"/>
</svg>
