<svg width="64" height="64" viewBox="0 0 64 64" fill="none" xmlns="http://www.w3.org/2000/svg">
<rect width="64" height="64" fill="#69E2DC"/>
<path d="M36.7908 33.7903L48.0122 45.0117C48.2267 45.2274 48.3928 45.4863 48.4995 45.7712C48.6061 46.0562 48.6508 46.3606 48.6307 46.6641C48.6105 46.9677 48.5258 47.2635 48.3824 47.5318C48.239 47.8001 48.04 48.0348 47.7988 48.2202C44.8042 50.5723 41.2077 52.0335 37.4212 52.4365C33.6347 52.8396 29.8112 52.1681 26.3885 50.4991C22.9659 48.8301 20.0824 46.231 18.0683 42.9993C16.0542 39.7677 14.9909 36.0342 15.0001 32.2263C15.0092 28.4184 16.0906 24.6901 18.1203 21.4682C20.15 18.2463 23.0459 15.6611 26.4766 14.0086C29.9073 12.3561 33.7339 11.7032 37.5185 12.1245C41.303 12.5458 44.8924 14.0244 47.8756 16.3909C48.1055 16.5796 48.2929 16.8146 48.4259 17.0806C48.5588 17.3466 48.6341 17.6377 48.647 17.9348C48.6599 18.2319 48.61 18.5283 48.5006 18.8049C48.3912 19.0814 48.2248 19.3318 48.0122 19.5397L36.7823 30.7695C36.5849 30.9675 36.4283 31.2024 36.3215 31.4607C36.2128 31.732 36.1578 32.0218 36.1594 32.3141C36.156 32.6073 36.2142 32.898 36.33 33.1674C36.4348 33.4268 36.5916 33.6621 36.7908 33.8586V33.7903Z" fill="white"/>
</svg>
