<svg width="64" height="64" viewBox="0 0 64 64" fill="none" xmlns="http://www.w3.org/2000/svg">
<rect width="64" height="64" fill="white"/>
<g clip-path="url(#clip0_90_118)">
<path d="M37.7855 19.7994H35V24.0056H37.7855V19.7994Z" fill="#1682FE"/>
<path d="M29.7911 12H27.0056V16.2061H29.7911V12Z" fill="#1682FE"/>
<path d="M21.7967 16.0112H19.0112V20.2173H21.7967V16.0112Z" fill="#60D8A4"/>
<path d="M17.8134 32H15V44.0056H17.8134V32Z" fill="#F4BB3B"/>
<path d="M17.8134 19.9944H15V32H17.8134V19.9944Z" fill="#60D8A4"/>
<path d="M41.7688 23.8106H38.9833V28.0167H41.7688V23.8106Z" fill="#1682FE"/>
<path d="M41.7688 35.9833H38.9833V40.1894H41.7688V35.9833Z" fill="#FF5A5A"/>
<path d="M37.7855 39.9944H35V44.2006H37.7855V39.9944Z" fill="#FF5A5A"/>
<path d="M29.7911 47.7939H27.0056V52H29.7911V47.7939Z" fill="#FF5A5A"/>
<path d="M21.7967 43.7827H19.0112V47.9888H21.7967V43.7827Z" fill="#F4BB3B"/>
<path d="M49.5961 27.9889V19.9944H45.5849V16.0111H37.5905V12H29.5961V16.0111H21.6017V20.0223H17.5905V44.0056H21.6017V48.0167H29.5961V52.0278H37.5905V48.0167H45.5849V44.0056H49.5961V35.9833H41.6017V39.9944H37.5905V44.0056H29.5961V39.9944H25.6128V24.0056H29.6239V19.9944H37.6184V24.0056H41.6295V28.0167H49.5961V27.9889Z" fill="#3A3A3A"/>
</g>
<defs>
<clipPath id="clip0_90_118">
<rect width="34.5961" height="40" fill="white" transform="translate(15 12)"/>
</clipPath>
</defs>
</svg>
