<svg width="64" height="64" viewBox="0 0 64 64" fill="none" xmlns="http://www.w3.org/2000/svg">
<rect width="64" height="64" fill="#666666"/>
<path fill-rule="evenodd" clip-rule="evenodd" d="M46.9873 40.4987C46.6477 41.0655 46.0998 41.4768 45.4608 41.6449C44.8219 41.813 44.1425 41.7244 43.568 41.3981L35.6815 36.926V34.0875L38.1866 32.6683L46.0714 37.1388C47.2695 37.8171 47.6788 39.3238 46.9873 40.4987ZM34.5032 46.537C34.5032 47.8951 33.3827 48.9958 31.9998 48.9958C30.6169 48.9958 29.4964 47.8951 29.4964 46.537V37.5943L31.9998 36.1751L34.5032 37.5943V46.537ZM20.4316 41.3981C19.8569 41.7243 19.1774 41.8126 18.5384 41.6442C17.8994 41.4758 17.3517 41.0641 17.0123 40.4971C16.8485 40.2173 16.7422 39.9077 16.6996 39.5863C16.657 39.2649 16.679 38.9382 16.7643 38.6254C16.8496 38.3127 16.9965 38.0201 17.1963 37.7648C17.3962 37.5095 17.645 37.2967 17.9282 37.1388L25.813 32.6667L28.3181 34.0875V36.926L20.4316 41.3981ZM17.9282 26.8611C17.645 26.7033 17.3962 26.4905 17.1963 26.2352C16.9965 25.9799 16.8496 25.6873 16.7643 25.3745C16.679 25.0618 16.657 24.7351 16.6996 24.4137C16.7422 24.0923 16.8485 23.7827 17.0123 23.5029C17.3517 22.9359 17.8994 22.5242 18.5384 22.3558C19.1774 22.1874 19.8569 22.2757 20.4316 22.6019L28.3181 27.074V29.9124L25.813 31.3316L17.9282 26.8611ZM29.4964 17.463C29.4964 16.1049 30.6185 15.0041 31.9998 15.0041C33.3827 15.0041 34.5032 16.1049 34.5032 17.463V26.404L31.9998 27.8249L29.4964 26.4057V17.463ZM35.6815 31.2491L37.0083 32L35.6815 32.7509V31.2491ZM33.1781 28.4932L34.5032 27.7407V29.2441L33.1781 28.4932ZM29.4964 29.2441V27.7424L30.8215 28.4932L29.4964 29.2441ZM28.3181 32.7509L26.9913 32L28.3181 31.2491V32.7509ZM30.8215 35.5068L29.4964 36.2593V34.7559L30.8215 35.5068ZM34.5032 34.7559V36.2576L33.1781 35.5068L34.5032 34.7559ZM31.9998 34.8384L29.4964 33.4192V30.5808L31.9998 29.1616L34.5032 30.5808V33.4192L31.9998 34.8384ZM43.568 22.6019C44.1427 22.2757 44.8222 22.1874 45.4612 22.3558C46.1002 22.5242 46.6479 22.9359 46.9873 23.5029C47.6804 24.6779 47.2678 26.1829 46.0714 26.8611L38.1866 31.3333L35.6815 29.9124V27.074L43.568 22.6019ZM46.6606 36.1371L39.3648 32L46.6606 27.8628C47.0773 27.6309 47.4435 27.318 47.7376 26.9427C48.0318 26.5673 48.248 26.1369 48.3736 25.6768C48.4992 25.2168 48.5316 24.7362 48.469 24.2634C48.4063 23.7907 48.2499 23.3352 48.0088 22.9237C46.9923 21.1942 44.7397 20.6018 42.9789 21.6002L35.6815 25.7373V17.4614C35.6815 15.4662 34.0329 13.8473 31.9998 13.8473C29.9667 13.8473 28.3181 15.4662 28.3181 17.463V25.7373L21.0207 21.6002C19.2599 20.6018 17.0073 21.1942 15.9924 22.9237C15.7514 23.3352 15.5949 23.7907 15.5323 24.2634C15.4696 24.7362 15.5021 25.2168 15.6276 25.6768C15.7532 26.1369 15.9695 26.5673 16.2636 26.9427C16.5578 27.318 16.924 27.6309 17.3407 27.8628L24.6348 32L17.3407 36.1371C16.9238 36.3689 16.5575 36.6817 16.2632 37.057C15.9688 37.4323 15.7524 37.8627 15.6267 38.3228C15.5009 38.7829 15.4684 39.2634 15.5309 39.7363C15.5934 40.2091 15.7498 40.6647 15.9908 41.0763C17.0073 42.8058 19.2599 43.3982 21.0207 42.3998L28.3181 38.2627V46.537C28.3181 48.5338 29.9667 50.1527 31.9998 50.1527C34.0329 50.1527 35.6815 48.5338 35.6815 46.537V38.2627L42.9789 42.3998C44.7397 43.3982 46.9923 42.8058 48.0088 41.0763C48.2499 40.6648 48.4063 40.2093 48.469 39.7365C48.5316 39.2638 48.4992 38.7832 48.3736 38.3231C48.248 37.8631 48.0318 37.4327 47.7376 37.0573C47.4435 36.6819 47.0773 36.3691 46.6606 36.1371Z" fill="white"/>
</svg>
