<svg width="64" height="64" viewBox="0 0 64 64" fill="none" xmlns="http://www.w3.org/2000/svg">
<rect width="64" height="64" fill="#7866D5"/>
<g clip-path="url(#clip0_90_121)">
<path d="M48.8719 28.8645H18.6316C18.6316 21.8967 21.0471 21.8038 28.34 21.8038C35.215 21.8038 42.3221 21.9431 49.2435 21.9431C52.3558 21.9431 52.7738 21.4786 53.099 19.156C53.2848 16.787 52.7274 16.0902 49.7545 15.9972C45.8525 15.765 41.8576 15.6257 37.9556 15.6257C32.0562 15.6257 26.2033 15.6257 20.2574 16.2295C14.5437 16.787 11.7102 19.667 11.0134 25.2413C10.5489 29.9329 10.6883 34.4853 11.0134 39.1769C11.7102 44.7512 14.2651 47.5382 19.7929 47.9099C29.362 48.3744 38.9776 48.3744 48.7325 48.3744C50.7764 48.3744 53.4242 47.9099 53.099 44.8905C52.7738 42.057 50.219 42.1963 48.4074 42.1963C40.1389 42.1034 32.0562 42.3356 23.8342 41.8711C18.678 41.7782 18.7709 39.7808 18.7709 35.0891H49.0112C51.0087 35.0891 53.2848 34.764 53.2848 31.791C53.099 28.7716 50.9158 28.8646 48.8719 28.8646V28.8645Z" fill="white"/>
</g>
<defs>
<clipPath id="clip0_90_121">
<rect width="43" height="43" fill="white" transform="translate(10.5 10.5)"/>
</clipPath>
</defs>
</svg>
