<svg width="64" height="64" viewBox="0 0 64 64" fill="none" xmlns="http://www.w3.org/2000/svg">
<rect width="64" height="64" fill="#0095FF"/>
<g filter="url(#filter0_d_90_132)">
<path d="M35.8814 44.6611C34.0017 44.6611 32.2172 44.3637 30.5279 43.7689C28.8623 43.174 27.3871 42.3175 26.1023 41.1992C24.8413 40.0571 23.8538 38.7009 23.14 37.1305C22.45 35.5364 22.105 33.7519 22.105 31.777C22.105 29.9211 22.45 28.2199 23.14 26.6734C23.83 25.1268 24.7937 23.7825 26.0309 22.6404C27.292 21.4745 28.7553 20.5823 30.4208 19.9636C32.1101 19.3212 33.9303 19 35.8814 19C36.7855 19 37.6659 19.0714 38.5224 19.2141C39.4028 19.3331 40.2474 19.5235 41.0564 19.7852C41.8654 20.0469 42.6268 20.3681 43.3406 20.7488L41.1992 24.6747C40.3664 24.2464 39.498 23.9371 38.5938 23.7468C37.6897 23.5326 36.7379 23.4256 35.7386 23.4256C34.4538 23.4256 33.2641 23.6278 32.1696 24.0323C31.0989 24.4368 30.1591 25.0078 29.3501 25.7454C28.5411 26.483 27.9225 27.3634 27.4942 28.3865C27.0659 29.4096 26.8518 30.5398 26.8518 31.777C26.8518 33.1332 27.0778 34.3348 27.5299 35.3817C27.982 36.4048 28.6006 37.2852 29.3858 38.0228C30.1948 38.7366 31.1346 39.2957 32.2053 39.7002C33.2998 40.0809 34.4776 40.2712 35.7386 40.2712C36.4048 40.2712 37.0472 40.2237 37.6659 40.1285C38.2845 40.0333 38.8912 39.8905 39.4861 39.7002C40.0809 39.5099 40.6519 39.2719 41.1992 38.9864L43.3406 42.948C42.603 43.3049 41.8297 43.6142 41.0207 43.8759C40.2118 44.1139 39.3671 44.3042 38.4867 44.447C37.6302 44.5897 36.7617 44.6611 35.8814 44.6611ZM19 36.0241V32.9191L35.81 32.9905V36.0598L19 36.0241ZM19 31.0632V27.9939L35.81 28.0296V31.0989L19 31.0632Z" fill="white"/>
</g>
<defs>
<filter id="filter0_d_90_132" x="17.7692" y="19" width="26.8022" height="28.1227" filterUnits="userSpaceOnUse" color-interpolation-filters="sRGB">
<feFlood flood-opacity="0" result="BackgroundImageFix"/>
<feColorMatrix in="SourceAlpha" type="matrix" values="0 0 0 0 0 0 0 0 0 0 0 0 0 0 0 0 0 0 127 0" result="hardAlpha"/>
<feOffset dy="1.2308"/>
<feGaussianBlur stdDeviation="0.615402"/>
<feComposite in2="hardAlpha" operator="out"/>
<feColorMatrix type="matrix" values="0 0 0 0 0 0 0 0 0 0 0 0 0 0 0 0 0 0 0.15 0"/>
<feBlend mode="normal" in2="BackgroundImageFix" result="effect1_dropShadow_90_132"/>
<feBlend mode="normal" in="SourceGraphic" in2="effect1_dropShadow_90_132" result="shape"/>
</filter>
</defs>
</svg>
