<svg width="64" height="64" viewBox="0 0 64 64" fill="none" xmlns="http://www.w3.org/2000/svg">
<rect width="64" height="64" fill="#0077D1"/>
<path d="M27.5 15.763C27.5 15.1951 27.0575 14.8739 26.5163 15.0468C19.2568 17.3654 14 24.1639 14 32.1901C14 40.2161 19.2568 47.0146 26.5163 49.3332C27.0575 49.5061 27.5 49.1849 27.5 48.617V47.2202C27.5 46.8393 27.2129 46.4057 26.8551 46.2747C21.1108 44.1714 17 38.652 17 32.19C17 25.7281 21.1108 20.2085 26.8551 18.1052C27.2129 17.9742 27.5 17.5407 27.5 17.1599V15.763Z" fill="white"/>
<path d="M37.4838 15.0468C36.9426 14.8739 36.5 15.1951 36.5 15.763V17.1599C36.5 17.5407 36.7872 17.9742 37.1448 18.1052C42.8893 20.2085 47 25.728 47 32.1901C47 38.6521 42.8893 44.1714 37.1448 46.2747C36.7526 46.4184 36.5 46.8025 36.5 47.2202V48.617C36.5 49.1849 36.9426 49.5061 37.4838 49.3332C44.7432 47.0146 50 40.216 50 32.1901C50 24.1641 44.7432 17.3654 37.4838 15.0468Z" fill="white"/>
<path d="M36.7647 36.2589L38.1375 36.8721C38.4593 37.0158 38.5995 37.4014 38.4397 37.7155C37.185 40.1831 35.3055 41.4222 32.812 41.4222C29.2999 41.4753 26.679 38.9101 25.7686 35.1487H22.8901C22.4286 35.1487 22.1292 34.6623 22.3373 34.2505L23.217 33.0636C23.3223 32.8551 23.5361 32.7236 23.7698 32.7236H25.4333C25.4221 32.4653 25.4159 32.2045 25.4191 31.9397C25.4191 31.6725 25.4309 31.4143 25.4432 31.1565H22.8901C22.4286 31.1565 22.1292 30.6701 22.3373 30.2583L23.217 29.0715C23.3223 28.863 23.5361 28.7315 23.7698 28.7315H25.7745C26.1017 27.3484 26.653 26.1342 27.445 25.0994C28.8002 23.3423 30.5847 22.4571 32.812 22.4571C35.2529 22.4571 37.1102 23.6123 38.384 25.9122C38.5588 26.2278 38.4184 26.627 38.0882 26.7727L36.7082 27.3817C36.4204 27.5087 36.0768 27.4033 35.9241 27.1284C35.2426 25.9019 34.1803 25.153 32.812 25.153C31.0163 25.1249 29.6206 26.5525 28.952 28.7315H33.5229C33.9844 28.7315 34.2838 29.2179 34.0757 29.6297L33.196 30.8166C33.0906 31.025 32.8768 31.1565 32.6432 31.1565H28.5371C28.5232 31.4132 28.5157 31.6736 28.5185 31.9397C28.5185 32.2079 28.5272 32.4683 28.5416 32.7236H33.5229C33.9844 32.7236 34.2838 33.21 34.0757 33.6218L33.196 34.8087C33.0906 35.0172 32.8768 35.1487 32.6432 35.1487H28.9565C29.1437 35.7516 29.3896 36.3019 29.6992 36.795C30.4908 38.0691 31.5239 38.6995 32.812 38.6995C34.2347 38.6995 35.3116 37.8618 35.9596 36.5471C36.1059 36.2503 36.4624 36.1239 36.7647 36.2589Z" fill="white"/>
</svg>
