<svg width="64" height="64" viewBox="0 0 64 64" fill="none" xmlns="http://www.w3.org/2000/svg">
<rect width="64" height="64" fill="#202944"/>
<path d="M25.4869 15.5H29.4816V19.6684H25.4869V15.5ZM15.4132 15.5H19.5816V19.6684H15.4132V15.5ZM19.4079 25.5737V29.7421H15.2395V25.5737H19.4079ZM18.3658 48.5H16.629V46.9368H18.1921V48.5H18.3658ZM19.5816 40.1632H15.4132V36.1684H19.5816V40.1632ZM28.4395 48.5H26.8763V46.9368H28.4395V48.5ZM28.4395 38.7737H26.8763V37.2105H28.4395V38.7737ZM29.6553 29.9158H25.4869V25.7474H29.6553V29.9158ZM38.5132 48.5H36.95V46.9368H38.5132V48.5ZM38.5132 38.7737H36.95V37.2105H38.5132V38.7737ZM38.5132 28.5263H36.95V26.9632H38.5132V28.5263ZM39.9027 19.6684H35.7342V15.5H39.9027V19.6684ZM48.7606 48.5H47.1974V46.9368H48.7606V48.5ZM48.7606 38.7737H47.1974V37.2105H48.7606V38.7737ZM48.7606 28.5263H47.1974V26.9632H48.7606V28.5263ZM48.7606 18.4526H47.1974V16.8895H48.7606V18.4526Z" fill="white"/>
</svg>
