<svg width="64" height="64" viewBox="0 0 64 64" fill="none" xmlns="http://www.w3.org/2000/svg">
<rect width="64" height="64" fill="#13B5EC"/>
<path fill-rule="evenodd" clip-rule="evenodd" d="M34.2251 26.3445L40.9005 22.4505V30.2384L34.2251 26.3445ZM40.9005 43.0329L32 48.2249L23.0995 43.0329V33.947L32 39.1389L40.9005 33.947V43.0329ZM23.0995 22.4505L29.7749 26.3445L23.0995 30.2384V22.4505ZM33.1126 28.1987L39.788 32.0927L33.1126 35.9867V28.1987ZM30.8875 35.9867L24.2121 32.0927L30.8875 28.1987V35.9867ZM39.788 20.5962L32 25.0465L24.2121 20.5962L32 15.9605L39.788 20.5962ZM20.8744 19.8545V44.1455L32 50.45L43.1256 44.1455V19.8545L32 13.55L20.8744 19.8545Z" fill="white"/>
</svg>
