<svg width="64" height="64" viewBox="0 0 64 64" fill="none" xmlns="http://www.w3.org/2000/svg">
<rect width="64" height="64" fill="#02A6C2"/>
<path fill-rule="evenodd" clip-rule="evenodd" d="M49.998 16.002C41.3905 15.9993 32.7836 15.9993 24.1772 16.002C24.1745 18.783 24.1745 21.5645 24.1772 24.3463C32.7845 24.349 41.3914 24.349 49.998 24.3463C50.0007 21.5654 50.0007 18.7839 49.998 16.002ZM22.3421 27.4857C19.5646 27.4713 16.7874 27.4713 14.0108 27.4857C13.9964 30.2632 13.9964 33.0406 14.0108 35.8177C16.7876 35.8316 19.5646 35.8312 22.3421 35.817C22.3565 33.0395 22.3565 30.2623 22.3421 27.4857ZM24.1837 27.4857C30.3956 27.4725 36.6071 27.4725 42.8183 27.4857C42.8314 30.2623 42.8314 33.0395 42.8183 35.817C36.6064 35.83 30.3949 35.83 24.1837 35.817C24.1707 33.0402 24.1707 30.2632 24.1837 27.4857ZM32.5059 38.9718C29.7348 38.9418 26.9634 38.9418 24.1914 38.9718C24.1635 41.7439 24.1641 44.5148 24.1929 47.2848C26.9637 47.3131 29.7352 47.3136 32.5071 47.2862C32.535 44.5134 32.5347 41.742 32.5059 38.9718Z" fill="white"/>
</svg>
