<svg width="64" height="64" viewBox="0 0 64 64" fill="none" xmlns="http://www.w3.org/2000/svg">
<rect width="64" height="64" fill="white"/>
<path d="M23.308 14.6097C32.8707 14.6068 42.4339 14.6068 51.9978 14.6097C52.0007 17.7008 52.0007 20.7913 51.9978 23.8812C42.4349 23.8841 32.8716 23.8841 23.308 23.8812C23.305 20.7902 23.305 17.6997 23.308 14.6097Z" fill="#02A6C2"/>
<path d="M12.012 27.3694C15.0972 27.3534 18.1828 27.3534 21.2691 27.3694C21.2851 30.4545 21.2851 33.5402 21.2691 36.6264C18.183 36.6423 15.0973 36.6426 12.012 36.6272C11.996 33.5415 11.996 30.4556 12.012 27.3694Z" fill="#5FCADE"/>
<path d="M23.3152 27.3693C30.2174 27.3547 37.1191 27.3547 44.0203 27.3693C44.035 30.4545 44.035 33.5402 44.0203 36.6264C37.1183 36.6408 30.2166 36.6408 23.3152 36.6264C23.3008 33.5411 23.3008 30.4554 23.3152 27.3693Z" fill="#5FCADE"/>
<path d="M23.3238 40.1318C26.4038 40.0983 29.4832 40.0983 32.5621 40.1318C32.5941 43.2097 32.5946 46.2892 32.5635 49.3701C29.4835 49.4005 26.4042 49.3999 23.3254 49.3685C23.2934 46.2908 23.2929 43.2119 23.3238 40.1318Z" fill="#ABEBF4"/>
</svg>
