<svg width="64" height="64" viewBox="0 0 64 64" fill="none" xmlns="http://www.w3.org/2000/svg">
<rect width="64" height="64" fill="#6747ED"/>
<g clip-path="url(#clip0_91_696)">
<path d="M29.6131 39.0251C21.8672 39.1225 15.388 32.692 15.4367 24.8488C15.4367 16.9568 21.7698 10.7212 29.6131 10.7212C37.505 10.7212 43.8381 17.103 43.7893 24.9949C43.7893 32.7894 37.4076 39.1225 29.6131 39.0251ZM20.1622 24.8488C20.1135 30.0126 24.3517 34.2509 29.5156 34.2509C34.6795 34.3484 39.0152 30.0614 39.0152 24.8488C39.0639 19.6849 34.7769 15.3979 29.6131 15.3979C24.3517 15.3979 20.1135 19.7336 20.1622 24.8488ZM29.6131 50.863C29.6131 50.2784 29.8079 49.6451 30.295 49.2067C33.4616 46.0402 36.5794 42.8736 39.6972 39.7071C40.6715 38.7815 42.133 38.7815 43.1073 39.7071C44.0817 40.6814 44.0817 42.1917 43.1073 43.1659C41.11 45.1633 39.0152 47.2094 37.0178 49.2554C35.8974 50.3272 34.8257 51.4476 33.7052 52.5194C32.877 53.3476 31.7565 53.4937 30.831 53.0065C30.0515 52.5193 29.6131 51.8374 29.6131 50.863ZM43.7893 13.0108C43.7893 11.6954 44.8611 10.6237 46.1764 10.7212C47.4917 10.8186 48.5635 11.6955 48.5635 13.0108C48.5635 14.3261 47.4917 15.4466 46.1764 15.3979C44.861 15.3492 43.7893 14.3261 43.7893 13.0108Z" fill="white"/>
</g>
<defs>
<clipPath id="clip0_91_696">
<rect width="43" height="43" fill="white" transform="translate(10.5 10.5)"/>
</clipPath>
</defs>
</svg>
