<svg width="64" height="64" viewBox="0 0 64 64" fill="none" xmlns="http://www.w3.org/2000/svg">
<rect width="64" height="64" fill="#B96BFC"/>
<g clip-path="url(#clip0_170_98)">
<path d="M31.9914 51.0001C22.0813 50.9959 13.9558 42.6601 13.9999 32.4711C14.0464 21.8041 22.6293 13.8219 32.3468 14.0032C41.8435 14.1803 50.0469 22.2571 49.9999 32.5486C49.9533 42.7311 41.9151 51.0042 31.9914 51.0003V51.0001ZM46.9896 32.3059C47.0296 23.7272 39.9792 16.454 31.1657 16.9321C23.649 17.3399 17.003 23.7633 17.0114 32.3712C17.0195 40.8548 23.7953 47.7388 32.0855 47.7183C40.2943 47.698 47.0106 40.7523 46.9896 32.3057V32.3059Z" fill="white"/>
<path d="M18.2698 32.2965C18.248 24.4119 24.5614 18.1536 32.0361 18.1822C39.5804 18.2111 45.7547 24.5175 45.7583 32.2627C45.7621 40.2726 39.3536 46.4997 31.865 46.425C24.5366 46.3522 18.2369 40.1829 18.2696 32.2962L18.2698 32.2965ZM27.7394 24.9505C27.2195 25.3175 26.7454 25.6522 26.2558 25.9979C26.6224 26.5449 26.9567 27.0593 27.3063 27.5626C28.7846 29.6927 31.3519 30.1609 33.4615 28.687C34.1808 28.1845 34.897 27.6768 35.612 27.168C36.2661 26.7027 36.9172 26.2328 37.572 25.7633C36.8691 24.8587 35.9333 24.6798 35.0577 25.2772C34.1796 25.8764 33.3182 26.502 32.455 27.1238C31.2099 28.0209 29.6564 27.7545 28.7836 26.4848C28.4464 25.9943 28.1136 25.5004 27.7397 24.9505H27.7394ZM38.0831 26.4772C37.5098 26.8783 36.9769 27.2341 36.4613 27.6149C34.6719 28.9361 34.0659 31.484 35.2002 33.3982C36.1629 35.023 37.2733 36.5552 38.3203 38.1311C39.2285 37.3539 39.3764 36.3908 38.7359 35.4157C38.1747 34.5611 37.589 33.7233 37.0162 32.8765C36.0988 31.5204 36.3547 29.9908 37.6566 29.0428C38.131 28.6974 38.6073 28.3551 39.0982 28.0003C38.7524 27.4814 38.4334 27.0031 38.0829 26.4772H38.0831ZM37.6055 38.6473C37.2751 38.1539 36.9622 37.6933 36.6565 37.228C35.1931 35.0022 32.6051 34.4591 30.4353 35.9437C29.3367 36.6954 28.2599 37.4808 27.1739 38.2523C26.879 38.4619 26.5869 38.6757 26.2935 38.8874C26.9302 39.7654 27.9571 39.9545 28.8183 39.367C29.7227 38.7498 30.5996 38.0897 31.5048 37.4735C32.759 36.6202 34.1922 36.9014 35.0698 38.1529C35.4255 38.6601 35.7715 39.1745 36.1315 39.6996C36.639 39.3373 37.0908 39.0146 37.6057 38.6471L37.6055 38.6473ZM25.6369 26.6468C24.7429 27.4097 24.5869 28.3977 25.1846 29.3065C25.7458 30.1598 26.3333 30.9947 26.8965 31.8468C27.8916 33.3519 27.6194 34.797 26.1569 35.8412C25.7238 36.1505 25.2942 36.4644 24.8482 36.7872C25.2134 37.3219 25.5369 37.795 25.8794 38.2962C26.41 37.9235 26.9051 37.5786 27.3975 37.2291C29.2742 35.8977 29.9047 33.3771 28.7342 31.3703C27.7928 29.7559 26.6905 28.2406 25.6369 26.6471V26.6468Z" fill="white"/>
</g>
<defs>
<clipPath id="clip0_170_98">
<rect width="36" height="37" fill="white" transform="translate(14 14)"/>
</clipPath>
</defs>
</svg>
