<svg width="64" height="64" viewBox="0 0 64 64" fill="none" xmlns="http://www.w3.org/2000/svg">
<rect width="64" height="64" fill="#225D84"/>
<path d="M39.6037 36.39C37.8563 40.3689 33.0909 42.226 28.7121 40.6652C24.7661 39.2659 22.481 35.0121 23.6156 31.1692C24.6204 28.5847 26.0142 27.7847 27.3025 27.1092C27.5256 26.9921 27.8012 27.0452 27.9945 27.2068L30.8076 29.5571C30.9735 29.6955 30.9539 29.9577 30.7662 30.0644C30.2443 30.3607 29.7333 30.7558 29.1883 31.3173C27.9872 32.5556 28.267 34.6109 29.9181 35.7779C31.5368 36.9192 33.2391 36.6869 34.5353 35.1846C35.812 33.6884 35.4962 32.238 34.0128 30.9869C33.5098 30.5613 33.0007 30.1357 32.4971 29.7102C30.8594 28.3365 29.2151 26.9501 27.5835 25.5575C26.9385 25.0161 26.3007 24.4741 25.6618 23.926C24.482 22.9139 23.1663 22.5981 21.7994 23.3004C20.458 23.9906 19.8971 25.2155 19.9099 26.7635C19.9294 29.5425 19.9038 40.6152 19.9355 43.3875C19.9611 45.6635 19.0393 45.7476 17.4333 44.9288C15.6993 44.0447 15.0287 42.5998 15.0348 40.7237C15.0543 35.7907 14.9189 30.8509 15.0799 25.9246C15.2799 19.6953 22.3219 15.8066 27.4866 19.3404C31.6203 22.1713 35.3151 25.6862 38.9458 29.1681C41.0286 31.1606 40.7127 33.8689 39.6037 36.39Z" fill="white"/>
<path d="M48.9992 40.2463C48.9992 41.4328 48.9541 42.5998 48.0902 43.5613C47.2774 44.4575 44.5497 46.1854 44.4985 44.9544C44.4271 43.1875 44.5436 29.4456 44.4338 26.6599C44.2979 23.2425 41.6158 21.7329 38.6362 23.4614C38.6301 23.4675 38.6173 23.4742 38.6106 23.4742C37.9491 24.0351 37.2931 24.596 36.6376 25.1521C36.5334 25.2405 36.381 25.2393 36.2773 25.1503L33.2465 22.5322C33.1172 22.4206 33.1185 22.2207 33.2495 22.1109C33.7599 21.6823 34.2702 21.2506 34.7805 20.8239C34.7933 20.8104 34.8061 20.7982 34.8195 20.7848C34.936 20.6879 35.0451 20.5977 35.1609 20.5013C35.2195 20.4562 35.2774 20.4111 35.3414 20.366C38.0625 18.3857 40.9518 17.9729 43.8918 19.0435C44.182 19.1466 44.4722 19.2624 44.7624 19.3984C47.7737 20.7848 49.0376 23.2803 48.9925 26.6916C48.9279 31.296 49.012 35.7389 48.9986 40.2463H48.9992Z" fill="#5CAADE"/>
</svg>
