<svg width="64" height="64" viewBox="0 0 64 64" fill="none" xmlns="http://www.w3.org/2000/svg">
<rect width="64" height="64" fill="url(#paint0_linear_90_122)"/>
<path d="M15.9163 41.192V26.1307L27.3381 34.727V41.192H30.2533V34.12C30.2528 33.8573 30.1914 33.5982 30.0738 33.3631C29.9563 33.1281 29.7859 32.9235 29.576 32.7654L15.7243 22.3366C15.4709 22.1484 15.1703 22.0342 14.856 22.0065C14.5416 21.9789 14.2257 22.039 13.9434 22.1802C13.6611 22.3213 13.4235 22.538 13.257 22.806C13.0904 23.0741 13.0015 23.3831 13 23.6987V41.192H15.9163ZM47.5045 41.192V26.1307L36.0827 34.727V41.192H33.1675V34.12C33.168 33.8573 33.2294 33.5982 33.347 33.3631C33.4645 33.1281 33.6349 32.9235 33.8448 32.7654L47.6965 22.3408C47.9496 22.1529 48.2498 22.0387 48.5638 22.0109C48.8778 21.9831 49.1934 22.0428 49.4755 22.1835C49.7576 22.3241 49.9953 22.5401 50.1622 22.8076C50.329 23.075 50.4185 23.3835 50.4208 23.6987V41.192H47.5045Z" fill="white"/>
<defs>
<linearGradient id="paint0_linear_90_122" x1="32" y1="0" x2="32" y2="64" gradientUnits="userSpaceOnUse">
<stop stop-color="#4FA89B"/>
<stop offset="1" stop-color="#6ACEBB"/>
</linearGradient>
</defs>
</svg>
