<svg width="64" height="64" viewBox="0 0 64 64" fill="none" xmlns="http://www.w3.org/2000/svg">
<rect width="64" height="64" fill="#EBEEF0"/>
<path d="M42.8479 15.838L35.3363 26.9856C34.8169 27.7447 35.8158 28.6637 36.535 28.0244L43.9267 21.5916C44.1265 21.4317 44.4062 21.5516 44.4062 21.8313V41.929C44.4062 42.2087 44.0466 42.3285 43.8868 42.1287L21.5117 15.3585C20.7925 14.4795 19.7536 14 18.5949 14H17.7958C15.7181 14 14 15.7181 14 17.8357V46.1243C14 48.242 15.7181 49.96 17.8357 49.96C19.1543 49.96 20.3929 49.2808 21.1121 48.1221L28.6238 36.9745C29.1432 36.2153 28.1443 35.2963 27.4251 35.9356L20.0333 42.3285C19.8335 42.4883 19.5538 42.3685 19.5538 42.0888V22.0311C19.5538 21.7514 19.9134 21.6315 20.0733 21.8313L42.4484 48.6016C43.1676 49.4806 44.2464 49.96 45.3651 49.96H46.1643C48.2819 49.96 50 48.242 50 46.1243V17.8357C50 15.7181 48.2819 14 46.1643 14C44.8058 14 43.5671 14.6792 42.8479 15.838Z" fill="black"/>
</svg>
