<svg width="64" height="64" viewBox="0 0 64 64" fill="none" xmlns="http://www.w3.org/2000/svg">
<rect width="64" height="64" fill="#102338"/>
<path d="M45.8571 30.0714C45.7286 31.0357 45.15 34.9571 42 37.1429C39.3643 39.0071 35.8929 39.0714 34.2857 39.0714C34.0286 39.0714 33.7714 39.0714 33.6429 39.0714H33V38.4286C33.0643 37.4643 33.3214 34.5071 35.5714 32C39.2357 27.95 44.7643 28.7214 45.2143 28.7857H45.8571V30.0714ZM37.5 27.5C37.7571 27.2429 38.0143 26.9857 38.1429 26.8571L37.5 26.2143C37.3714 26.0857 37.1143 25.8286 36.8571 25.5714C35.7643 24.5429 33.3857 22.3571 29.7857 21.7143C28.95 21.5857 27.6 21.3286 25.9286 21.7143C24.0643 22.1643 22.7143 23.0643 22.0714 23.6429L21.4286 24.2857L20.7857 24.9286L21.4286 25.5714L22.0714 26.2143C22.7786 26.8571 24.5143 28.5286 27.2143 29.4286C28.3714 29.8143 30.1071 30.4571 32.3571 30.0714C35.1214 29.6214 36.9857 27.95 37.5 27.5ZM26.5714 31.3571C25.4786 30.9071 23.6143 30.3286 21.4286 30.7143C18.5357 31.2286 16.5429 33.0929 15.6429 33.9286C15.3857 34.1857 15.1286 34.3786 15 34.5714L15.6429 35.2143C18.2143 36.8857 20.1429 36.6286 20.7857 36.5C22.9714 36.1143 24.8357 34.3143 26.5714 32.6429L27.2143 32L26.5714 31.3571ZM38.7857 25.5714C39.0429 25.8286 39.3 26.0857 39.4286 26.2143C39.5571 26.0857 39.8143 25.8929 40.0714 25.5714C41.7429 23.5786 41.4214 20.9429 41.3571 20.4286C41.1643 18.8857 40.4571 17.7929 40.0714 17.2143C39.1714 15.8643 38.1429 15.0929 37.5 14.6429L36.2143 14C36.0214 14.1286 35.8286 14.3214 35.5714 14.6429C34.0286 16.5071 34.2857 19.0143 34.2857 19.1429C34.5429 21.2 35.9571 22.6786 38.7857 25.5714ZM33 21.0714C33 20.9429 33 20.6857 33 20.4286C33 20.4286 32.9357 19.0143 32.3571 17.8571C31.7143 16.6357 29.7214 15.4786 27.2143 15.2857C27.0214 15.2857 26.7643 15.2857 26.5714 15.2857V15.9286C26.5714 16.1857 26.8286 19.0786 29.1429 20.4286C30.1071 21.0071 31.0714 21.0714 31.7143 21.0714H33ZM20.7857 38.4286C20.2071 38.5571 19.1786 38.8786 18.2143 39.7143C16.6071 41.1286 16.35 43.1214 16.2857 43.5714C16.2214 44.0857 16.2214 44.5357 16.2857 44.8571H17.5714C18.0214 44.7929 20.5286 44.2143 21.4286 42.2857C22.0071 41.1286 22.0714 39.2643 22.0714 39.0714C22.0714 38.8143 22.0714 38.5571 22.0714 38.4286H20.7857ZM27.8571 33.2857C27.8571 33.2857 24.5143 35.7929 23.3571 38.4286C22.3286 40.8071 22.5214 42.9929 22.7143 44.2143C22.7786 44.6643 23.2929 47.1714 25.2857 49.3571L25.9286 50H26.5714L27.2143 49.3571C28.05 48.65 29.5286 47.1714 30.4286 44.8571C30.6214 44.3429 31.65 41.7071 31.0714 38.4286C30.8786 37.3357 30.5571 35.5357 29.1429 33.9286C28.8857 33.6714 28.6929 33.4143 28.5 33.2857H27.8571ZM32.3571 41.6429C32.4857 41.9643 32.6786 42.4143 33 42.9286C33.45 43.7 35.3143 46.7857 38.7857 47.4286C40.7143 47.75 42.3214 47.2357 43.2857 46.7857C43.2857 46.6571 43.2857 46.4 43.2857 46.1429C43.2857 45.8857 43.1571 44.8571 42 43.5714C40.3929 41.7714 38.3357 41.0643 38.1429 41C35.8286 40.2286 33.7714 40.7429 33 41L32.3571 41.6429ZM41.3571 40.3571C42 40.8714 43.1571 41.5143 44.5714 41.6429C46.3714 41.7714 48.75 41.0643 49.0714 39.7143C49.1357 39.4571 49.1357 39.2 49.0714 39.0714C48.8143 38.8143 47.3357 37.0786 45.2143 37.1429C43.4786 37.2071 42.0643 38.4286 41.3571 39.0714C41.1 39.3286 40.8429 39.5214 40.7143 39.7143L41.3571 40.3571Z" fill="white"/>
</svg>
