<svg width="64" height="64" viewBox="0 0 64 64" fill="none" xmlns="http://www.w3.org/2000/svg">
<rect width="64" height="64" fill="black"/>
<path d="M53.9473 40.4332C53.9486 34.8091 53.9486 29.1851 53.9473 23.5612C53.97 22.9862 53.6813 22.4139 53.2198 22.0749C46.518 17.1782 39.8161 12.2807 33.1142 7.38241C32.9115 7.22392 32.6772 7.11067 32.4271 7.0503C32.177 6.98993 31.9168 6.98383 31.6641 7.0324C31.3519 7.09365 31.0704 7.24991 30.8196 7.43791C24.1655 12.3015 17.5111 17.1648 10.8563 22.0279C10.6075 22.2008 10.4046 22.4316 10.2649 22.7004C10.1252 22.9693 10.053 23.268 10.0545 23.5709C10.0505 29.1935 10.0505 34.8159 10.0545 40.438C10.0458 41.047 10.3618 41.638 10.8625 41.981C17.5166 46.8421 24.1694 51.7043 30.8209 56.5675C31.4574 57.112 32.4559 57.155 33.1129 56.6243C39.7934 51.7464 46.4713 46.8661 53.1468 41.9835C53.6495 41.6448 53.9748 41.0433 53.9468 40.4335" fill="white"/>
<path d="M29.6828 11.0578C29.8593 10.8578 30.0383 10.546 30.3485 10.5875C31.4038 10.5937 32.4616 10.571 33.5166 10.5987C33.6994 10.7122 33.8394 10.8825 33.9956 11.0288C33.9916 12.1178 33.9916 13.207 33.9956 14.2966C33.6816 14.3003 33.3666 14.3143 33.0526 14.2928C33.0336 14.2158 32.9958 14.0646 32.9776 13.9878C32.9776 13.1745 33.0481 12.3603 32.9801 11.5483C32.2046 11.5494 31.4296 11.5494 30.6551 11.5483C30.6513 11.8218 30.6501 12.0968 30.6476 12.3703C30.321 12.3703 29.9933 12.3703 29.6655 12.3678C29.6678 11.9325 29.6198 11.49 29.6828 11.0578Z" fill="black"/>
<path d="M27.0518 12.3865C27.4086 12.3728 27.7653 12.3728 28.1233 12.3815C28.1283 13.8881 28.1346 15.3933 28.1196 16.8986C27.7791 16.9061 27.4388 16.9061 27.0996 16.9036C26.9863 15.4036 27.0768 13.8918 27.0518 12.3865Z" fill="black"/>
<path d="M36.1269 14.0053C37.077 13.9928 38.0255 13.9965 38.975 14.0028C38.98 14.3508 38.98 14.6976 38.975 15.0453C38.025 15.0553 37.075 15.0591 36.1249 15.0428C36.1214 14.6973 36.1214 14.3496 36.1249 14.0053" fill="black"/>
<path d="M30.3665 14.5183C30.7497 14.5096 31.133 14.5108 31.5165 14.5108C31.8832 15.2243 32.3435 15.8901 32.6415 16.6376C32.2897 16.6541 31.9367 16.6541 31.585 16.6553C31.167 15.9496 30.7635 15.2356 30.3665 14.5183Z" fill="black"/>
<path d="M34.2795 15.7728C34.611 15.7653 34.9425 15.7666 35.2755 15.7716C36.178 17.1716 37.0553 18.5881 37.9646 19.9849C37.9646 20.4099 37.9646 20.8349 37.9571 21.2599C37.8586 21.2422 37.6646 21.2082 37.5676 21.1919C36.7961 20.0419 36.0863 18.8509 35.3235 17.6959C35.311 18.9959 35.3273 20.2959 35.3148 21.5959C34.9693 21.6023 34.623 21.6023 34.276 21.5959C34.2718 19.6556 34.2655 17.7141 34.2795 15.7728Z" fill="black"/>
<path d="M38.3996 16.5606C38.7526 16.5531 39.1068 16.5531 39.4598 16.5631C39.4623 16.8958 39.4623 17.2301 39.4598 17.5631C39.1068 17.5719 38.7526 17.5719 38.4008 17.5656C38.3983 17.2313 38.3983 16.8963 38.4008 16.5606" fill="black"/>
<path d="M20.9475 16.8896C21.226 16.8846 21.5048 16.8858 21.7833 16.8883C22.5271 16.8383 23.2696 16.8531 24.0136 16.8958C24.0161 17.2186 24.0136 17.5426 24.0111 17.8654C22.9111 18.5259 21.8541 19.2584 20.7383 19.8904C20.4093 19.7654 20.1583 19.5021 19.8898 19.2826C20.6198 18.8376 21.3345 18.3686 22.0721 17.9361C21.6988 17.9171 21.3245 17.9196 20.9513 17.9159C20.9448 17.5728 20.9435 17.2308 20.9475 16.8896Z" fill="black"/>
<path d="M29.7475 17.2728C30.0892 17.2628 30.432 17.2641 30.7725 17.2728C30.7812 17.6159 30.7812 17.9574 30.7725 18.3004C30.4308 18.3104 30.0891 18.3108 29.7475 18.3016C29.7395 17.9586 29.7395 17.6157 29.7475 17.2728Z" fill="black"/>
<path d="M24.732 18.2763C25.2792 19.1059 25.81 19.9469 26.3645 20.7714C26.918 19.9369 27.4525 19.0896 28.011 18.2589C28.011 18.8089 28.0475 19.3646 27.9998 19.9141C27.493 20.7826 26.9068 21.6034 26.3608 22.4482C25.8237 21.6174 25.255 20.8041 24.7457 19.9571C24.688 19.3996 24.7295 18.8361 24.732 18.2763Z" fill="black"/>
<path d="M39.8821 18.4163C41.5247 18.4088 43.1674 18.4093 44.8102 18.4176C44.8102 18.7503 44.8102 19.0846 44.8087 19.4176C43.1672 19.4214 41.525 19.4219 39.8821 19.4189C39.8806 19.0846 39.8796 18.7496 39.8821 18.4163Z" fill="black"/>
<path d="M31.1869 19.7174C31.5172 19.7112 31.8487 19.7112 32.1804 19.7149C32.1969 21.1722 32.1804 22.631 32.1892 24.09C32.0354 24.2362 31.8829 24.385 31.7329 24.5337C30.5944 24.5462 29.4561 24.5337 28.3189 24.54C28.1689 24.3962 28.0151 24.2587 27.8801 24.1037C27.8221 23.6575 27.8649 23.2022 27.8636 22.7537C28.1803 22.7512 28.498 22.7512 28.8166 22.7537C28.8254 23.011 28.8241 23.268 28.8204 23.5252C29.6034 23.6135 30.3924 23.5502 31.1792 23.5692C31.1832 22.2854 31.1707 20.9997 31.1869 19.7174Z" fill="black"/>
<path d="M47.0683 24.0252C47.058 22.9252 47.058 21.8246 47.0683 20.7234C47.4126 20.7159 47.7566 20.7146 48.1021 20.7234C48.1132 21.8234 48.1132 22.9244 48.1021 24.0264C47.7576 24.0322 47.4136 24.0309 47.0693 24.0264" fill="black"/>
<path d="M42.1628 21.5544C42.8128 21.5481 43.4663 21.4471 44.1128 21.5519C44.5363 22.9324 44.8996 24.3342 45.3206 25.7172C44.9878 25.7197 44.6536 25.7197 44.3206 25.7197C44.0028 24.6469 43.7318 23.5614 43.4041 22.4909C43.2213 22.4934 43.0385 22.4959 42.8555 22.4971C42.5833 23.5777 42.2555 24.6417 41.9743 25.7182C41.6388 25.7194 41.3034 25.719 40.9683 25.717C41.381 24.3342 41.7683 22.9419 42.1628 21.5544Z" fill="black"/>
<path d="M14.3728 22.0814C15.8706 22.0726 17.3696 22.0689 18.8671 22.0814C18.8759 22.4257 18.8759 22.7684 18.8684 23.1127C17.3684 23.1264 15.8703 23.1227 14.3713 23.1139C14.3666 22.7697 14.3666 22.4234 14.3728 22.0801" fill="black"/>
<path d="M19.5736 22.0827C19.9141 22.0802 20.2543 22.0789 20.5961 22.0827C20.6036 22.4282 20.6036 22.7747 20.5961 23.1202C20.2543 23.124 19.9141 23.1227 19.5736 23.1202C19.5696 22.7747 19.5696 22.4304 19.5736 22.0852" fill="black"/>
<path d="M23.3376 22.1251C23.6716 22.1226 24.0071 22.1239 24.3411 22.1276C24.3511 22.9277 24.3461 23.7299 24.3461 24.5307C24.0069 24.5332 23.6679 24.5344 23.3301 24.5307C23.3266 23.7307 23.3161 22.9264 23.3376 22.1239" fill="black"/>
<path d="M49.5189 22.8439C49.9034 22.8364 50.2892 22.8377 50.6737 22.8364C51.0545 23.5424 51.5172 24.2114 51.8007 24.9657C51.4507 24.9782 51.0985 24.9795 50.7479 24.981C50.3334 24.2712 49.9387 23.5497 49.5187 22.8439" fill="black"/>
<path d="M34.3602 23.7002C34.6935 23.6977 35.0269 23.6977 35.3602 23.7002C35.3677 24.7969 35.3624 25.8937 35.3624 26.9907C35.0272 26.9932 34.6929 26.9945 34.3579 26.9945C34.3579 25.8967 34.3562 24.7974 34.3602 23.6989" fill="black"/>
<path d="M37.877 25.034C37.873 24.691 37.873 24.3472 37.877 24.0027C38.2135 23.9977 38.552 23.9977 38.8893 24.0065C38.8893 24.3495 38.8918 24.6922 38.8868 25.0352C38.5508 25.0365 38.2118 25.0352 37.8758 25.0352" fill="black"/>
<path d="M18.8497 26.5543C19.6577 25.9643 20.5203 25.4512 21.3498 24.894C21.8983 24.9002 22.4453 24.894 22.9938 24.9015C22.1793 25.484 21.3133 25.987 20.4938 26.5618C21.336 27.0913 22.1618 27.646 22.9988 28.1805C22.4353 28.1905 21.8718 28.1843 21.3083 28.1855C20.495 27.6335 19.6502 27.1248 18.8497 26.5543Z" fill="black"/>
<path d="M47.0694 25.5975C47.4147 25.59 47.7602 25.5887 48.107 25.5975C48.1155 25.943 48.1145 26.287 48.1045 26.6325C47.7602 26.64 47.4149 26.6387 47.0707 26.6325C47.0632 26.2882 47.0632 25.944 47.0707 25.6" fill="black"/>
<path d="M11.6029 25.7387C13.3279 25.7287 15.056 25.725 16.7832 25.7412C16.787 26.0677 16.787 26.3955 16.7882 26.7232C16.0167 27.2287 15.2452 27.7367 14.4522 28.2057C14.1169 28.0835 13.8634 27.8057 13.5772 27.602C14.0044 27.3322 14.4382 27.0712 14.8522 26.7825C13.7692 26.7775 12.6864 26.7887 11.6021 26.7762C11.5971 26.4307 11.5971 26.0849 11.6021 25.7387" fill="black"/>
<path d="M26.3736 26.7397C27.8676 26.746 29.3614 26.7322 30.8542 26.746C30.8905 27.0857 30.8859 27.4286 30.8404 27.7673C29.3514 27.7735 27.8639 27.7685 26.3763 27.7698C26.3737 27.4253 26.3728 27.0819 26.3736 26.7397Z" fill="black"/>
<path d="M31.83 26.746C32.1893 26.7385 32.5473 26.7385 32.9068 26.751C32.9079 27.0864 32.9074 27.4209 32.9053 27.7545C32.5473 27.7645 32.188 27.7645 31.8303 27.7583C31.8268 27.4205 31.8268 27.0833 31.8303 26.746" fill="black"/>
<path d="M36.5288 28.1908C36.482 27.8365 36.8453 27.655 37.0318 27.4118C37.4705 27.4118 37.909 27.4093 38.3481 27.418C38.3581 27.7483 38.3581 28.0785 38.3528 28.4103C38.0758 28.4153 37.7968 28.4153 37.5198 28.419V30.7716C38.8093 30.7803 40.0991 30.7666 41.3889 30.7791C41.3926 31.1131 41.3926 31.4473 41.3839 31.7791C39.9316 31.7891 38.4778 31.7803 37.0255 31.7841C36.8403 31.5421 36.4848 31.3591 36.53 31.0076C36.5235 30.0691 36.5235 29.1301 36.53 28.1908" fill="black"/>
<path d="M41.4188 27.878C41.7743 27.8655 42.1323 27.8655 42.4891 27.878C42.4929 28.2184 42.4929 28.5588 42.4891 28.8993C42.1323 28.9118 41.7768 28.9118 41.42 28.8993C41.4163 28.5575 41.4163 28.2173 41.42 27.8755" fill="black"/>
<path d="M44.8165 27.878C46.3192 27.8578 47.8208 27.8718 49.3236 27.8705C49.3261 28.2173 49.3261 28.5653 49.3221 28.9118C47.8205 28.9118 46.3192 28.9243 44.8175 28.9055C44.8125 28.5625 44.8125 28.22 44.8175 27.878" fill="black"/>
<path d="M23.9998 29.0771C24.8421 29.0758 25.6828 29.0771 26.5248 29.0758C26.5323 29.4258 26.5323 29.7758 26.5248 30.1258C25.6838 30.1272 24.8433 30.1272 24.0033 30.1258C23.9886 29.7758 23.9879 29.4262 24.001 29.0771" fill="black"/>
<path d="M29.553 29.0771C30.8743 29.0758 32.1956 29.077 33.5166 29.0745C33.9966 28.9995 34.4774 29.4981 34.4166 29.9721C34.4138 30.9426 34.4133 31.9142 34.4151 32.8869C34.2461 33.0696 34.0761 33.2499 33.9059 33.4314C33.4684 33.4314 33.0324 33.4314 32.5948 33.4264C32.5912 33.093 32.5908 32.7602 32.5936 32.4279C32.8671 32.4241 33.1411 32.4216 33.4144 32.4179C33.4144 31.6538 33.4144 30.8886 33.4169 30.1246C32.1333 30.0098 30.8401 30.1056 29.5528 30.0716C29.5496 29.7382 29.5496 29.4067 29.5528 29.0771" fill="black"/>
<path d="M20.2415 29.3845C20.887 29.3808 21.5313 29.377 22.1768 29.387C22.5676 30.7826 22.9873 32.1706 23.3568 33.5726C23.0318 33.5726 22.7068 33.5726 22.3836 33.5751C22.0521 32.4983 21.7961 31.4016 21.4543 30.33C21.2703 30.3413 21.0863 30.355 20.902 30.369C20.6575 31.4483 20.3083 32.4996 20.041 33.5739C19.707 33.5739 19.3728 33.5739 19.041 33.5701C19.4385 32.1748 19.8343 30.7776 20.241 29.3845" fill="black"/>
<path d="M48.4023 30.6453C49.5273 30.634 50.6538 30.6225 51.7773 30.649C52.0611 30.8241 52.3811 31.1081 52.3193 31.4811C52.3193 32.2811 52.3143 33.0833 52.3193 33.8841C52.3093 34.2686 52.3268 34.6531 52.3156 35.0376C52.3333 35.3516 52.2476 35.6604 52.2656 35.9756C51.9453 35.9756 51.6251 35.9756 51.3048 35.9719C51.3086 34.5271 51.3048 33.0811 51.3073 31.6363C50.5216 31.6148 49.7365 31.6313 48.951 31.6251C48.9495 31.8936 48.9495 32.1621 48.9448 32.4318C48.6143 32.4368 48.2839 32.4385 47.9535 32.4368C47.9473 31.9943 47.9488 31.5506 47.9498 31.1081C48.102 30.9556 48.252 30.8016 48.402 30.6453" fill="black"/>
<path d="M16.3873 30.6855H17.4323C17.4348 31.7836 17.4323 32.8803 17.4323 33.9774H16.3823C16.3873 32.8806 16.3836 31.7826 16.3861 30.6855" fill="black"/>
<path d="M13.1084 31.6036C13.4514 31.5986 13.7942 31.6086 14.1359 31.6313C14.1398 31.9565 14.1398 32.2821 14.1359 32.6083C13.7904 32.6121 13.4452 32.6133 13.0997 32.6083C13.0959 32.2728 13.0972 31.9388 13.1084 31.6048" fill="black"/>
<path d="M25.3879 37.6209C25.3789 35.6794 25.3785 33.7377 25.3867 31.7958C25.7272 31.7908 26.0674 31.7908 26.408 31.7983C27.208 33.0881 28.033 34.3639 28.85 35.6447C29.203 36.0997 28.9913 36.7099 29.048 37.2394C28.9295 37.2394 28.811 37.2419 28.6937 37.2444C27.9587 36.0769 27.191 34.9296 26.4875 33.7444C26.3602 35.0329 26.4647 36.3327 26.4232 37.6262C26.0769 37.6297 25.7319 37.6297 25.3879 37.6209Z" fill="black"/>
<path d="M29.9268 32.5426C30.2733 32.5351 30.62 32.5342 30.9668 32.5401C30.9718 33.3886 30.9706 34.2371 30.9668 35.0854C30.6188 35.0916 30.2721 35.0916 29.9243 35.0829C29.9186 34.2359 29.9171 33.3886 29.9243 32.5426" fill="black"/>
<path d="M36.2124 33.6774C36.5516 33.6749 36.8919 33.6736 37.2324 33.6774C37.2387 34.0229 37.2387 34.3683 37.2324 34.7136C36.8919 34.715 36.5519 34.715 36.2124 34.7136C36.2084 34.3695 36.2084 34.0244 36.2124 33.6786" fill="black"/>
<path d="M39.519 33.7226C40.5755 33.7089 41.632 33.7164 42.6898 33.7189C42.7325 34.0277 42.759 34.3417 42.7288 34.6544C42.6288 34.8574 42.3895 34.7767 42.2105 34.7957C41.3105 34.7692 40.4077 34.8474 39.514 34.7457C39.5077 34.4034 39.5077 34.0632 39.519 33.7226Z" fill="black"/>
<path d="M43.7818 33.8689C44.1223 33.8639 44.4663 33.8412 44.8068 33.8939C44.8396 35.0864 44.8206 36.283 44.8143 37.477C44.4701 37.4833 44.1264 37.4833 43.783 37.477C43.7715 36.2748 43.7715 35.0725 43.783 33.8702" fill="black"/>
<path d="M34.3603 34.5754C34.693 34.5754 35.0273 34.5729 35.3603 34.5754C35.364 34.9184 35.365 35.2624 35.3603 35.6079C35.027 35.6129 34.6936 35.6129 34.3603 35.6079C34.3578 35.2639 34.3578 34.9184 34.3603 34.5742" fill="black"/>
<path d="M18.3314 35.3086C19.5189 35.1801 20.7179 35.2821 21.9104 35.2444C22.2177 35.2405 22.525 35.2543 22.8307 35.2859C22.8357 35.6326 22.8344 35.9806 22.8307 36.3272C21.3307 36.3247 19.8339 36.3347 18.3364 36.3222C18.3274 35.9844 18.3274 35.6471 18.3301 35.3086" fill="black"/>
<path d="M11.6043 36.0754C11.7671 35.9167 11.9308 35.7564 12.0949 35.5977C12.5286 35.5952 12.9621 35.5939 13.3949 35.6027C13.3999 35.9304 13.3999 36.2594 13.3974 36.5872C13.1276 36.5934 12.8591 36.5947 12.5894 36.5972C12.5956 37.3789 12.5856 38.1605 12.5956 38.9422C13.8726 38.946 15.1499 38.9335 16.4269 38.9485C16.4332 39.2712 16.4332 39.5927 16.4307 39.9155C16.1142 39.9167 15.7964 39.918 15.4807 39.918C14.3474 39.9067 13.2126 39.937 12.0806 39.9042C11.8916 39.797 11.7011 39.6205 11.6153 39.4202C11.5856 38.306 11.6118 37.1902 11.6056 36.0754" fill="black"/>
<path d="M38.0984 36.7254C38.2686 36.5654 38.4401 36.4052 38.6154 36.2489C39.7196 36.2577 40.8242 36.2489 41.9284 36.2527C42.0949 36.4114 42.2612 36.5717 42.4284 36.7292C42.4298 37.8222 42.4298 38.9148 42.4284 40.007C42.0919 40.0095 41.7552 40.007 41.4199 39.9982C41.4199 39.0792 41.4124 38.1614 41.4237 37.2424C40.6487 37.2412 39.8769 37.2424 39.1039 37.2412C39.1051 37.5209 39.1039 37.8009 39.0976 38.0807C38.7661 38.0857 38.4346 38.0857 38.1041 38.0844C38.0934 37.6314 38.0959 37.1789 38.0971 36.7254" fill="black"/>
<path d="M45.1884 38.6547C46.4134 37.8567 47.6507 37.0797 48.8859 36.2997C49.181 36.4964 49.471 36.7032 49.7585 36.9099C48.8694 37.4766 47.9811 38.0419 47.0934 38.6057C48.3982 38.6195 49.7032 38.6057 51.0092 38.6132C51.0117 38.96 51.0117 39.308 51.0092 39.6545C49.0699 39.6608 47.1308 39.6608 45.1921 39.6545C45.1871 39.3202 45.1871 38.9862 45.1896 38.6545" fill="black"/>
<path d="M31.3245 38.8524C32.5537 38.0342 33.822 37.2752 35.051 36.4572C35.3433 36.6589 35.6323 36.8644 35.9298 37.0572C35.0798 37.6547 34.1775 38.1754 33.3112 38.7514C34.6085 38.7742 35.9058 38.7489 37.2031 38.7652C37.2118 39.1219 37.2118 39.48 37.2031 39.8367C35.2615 39.848 33.3197 39.8405 31.378 39.8405C31.328 39.5132 31.328 39.1817 31.3257 38.8512" fill="black"/>
<path d="M18.5633 37.9699C19.1028 38.7949 19.6438 39.62 20.177 40.4472C20.7493 39.6302 21.2613 38.7722 21.8286 37.9509C21.8398 38.5069 21.8311 39.0642 21.8361 39.6202C21.2713 40.4472 20.7543 41.307 20.1745 42.1228C19.6375 41.3032 19.1168 40.4727 18.557 39.6682C18.5515 39.1022 18.5458 38.5349 18.5633 37.9699Z" fill="black"/>
<path d="M24.4769 40.0868C24.4644 39.7338 24.4632 39.3808 24.4832 39.029C24.8224 39.0253 25.1639 39.0265 25.5032 39.054C25.5107 39.398 25.5107 39.7422 25.5032 40.0865C25.1622 40.0893 24.8204 40.0905 24.4782 40.0865" fill="black"/>
<path d="M29.2835 40.5963C29.6278 40.5925 29.973 40.5913 30.3173 40.5963C30.326 41.8783 30.3173 43.1606 30.3223 44.4426C30.0778 44.4526 29.833 44.4641 29.5885 44.4866C29.5103 44.4713 29.354 44.4438 29.2758 44.4298C29.2835 43.1528 29.2695 41.8745 29.2835 40.5975" fill="black"/>
<path d="M36.4049 41.4005C37.0549 41.388 37.7031 41.3968 38.3526 41.393C38.751 42.7885 39.1498 44.1841 39.5492 45.5798C39.2139 45.5798 38.8784 45.5798 38.5444 45.5723C38.2594 44.5058 37.9506 43.4455 37.6606 42.3803C37.4791 42.369 37.2976 42.3613 37.1161 42.3525C36.8161 43.429 36.5169 44.5053 36.2186 45.5813C35.8834 45.5813 35.5491 45.5813 35.2151 45.5763C35.6233 44.1871 36.0294 42.7978 36.4049 41.4013" fill="black"/>
<path d="M21.6864 43.7125C22.9231 42.9183 24.1574 42.119 25.4114 41.3513C25.7002 41.5543 25.9914 41.7513 26.2775 41.959C25.3799 42.5175 24.4999 43.105 23.5934 43.6483C24.9072 43.6733 26.222 43.6445 27.537 43.6635C27.5432 44.0091 27.5445 44.3543 27.5345 44.6998C25.5867 44.7061 23.6389 44.7151 21.6911 44.6961C21.6814 44.3681 21.6826 44.0403 21.6864 43.7125Z" fill="black"/>
<path d="M31.9019 41.6047C32.264 41.6087 32.6259 41.5868 32.9849 41.5392C33.4099 42.2393 33.9114 42.9335 34.1296 43.7303C33.7904 43.7328 33.4514 43.7328 33.1136 43.7353C32.7146 43.0218 32.3107 42.3116 31.9019 41.6047Z" fill="black"/>
<path d="M46.2198 42.032C46.574 42.0208 46.9295 42.0208 47.2848 42.0283C47.2863 42.3673 47.2863 42.7069 47.2848 43.0471C46.9295 43.0558 46.575 43.0558 46.2208 43.0408C46.2145 42.7041 46.2145 42.3688 46.2208 42.032" fill="black"/>
<path d="M43.6087 44.7451C44.0374 44.0556 44.4962 43.3861 44.9275 42.6978C44.94 43.2083 44.9477 43.7203 44.935 44.2321C44.9475 44.4238 44.8077 44.5726 44.7182 44.7276C44.2432 45.4298 43.7877 46.1458 43.3214 46.8526C42.7604 46.0156 42.2172 45.1696 41.6624 44.3276C41.6599 43.7678 41.6549 43.208 41.6687 42.6495C42.2132 43.4653 42.7277 44.3023 43.2849 45.1103C43.4422 45.0438 43.5129 44.8751 43.6099 44.7451" fill="black"/>
<path d="M17.2246 43.7531C18.1337 43.7228 19.0439 43.7378 19.9542 43.7443C19.9592 44.0808 19.9807 44.4193 19.9377 44.7553C19.0349 44.7993 18.1287 44.7781 17.2259 44.7616C17.2221 44.4251 17.2221 44.0896 17.2246 43.7531Z" fill="black"/>
<path d="M28.3063 45.9506C29.7636 45.9291 31.2198 45.9506 32.6771 45.9393C32.8438 46.106 33.0104 46.2737 33.1771 46.4423C33.1709 47.5556 33.1734 48.6701 33.1746 49.7856C33.0284 49.9382 32.8839 50.0924 32.7409 50.2484C32.2744 50.2584 31.8078 50.2597 31.3408 50.2459C31.3471 49.9307 31.3068 49.6091 31.3823 49.3004C31.6458 49.2726 31.9106 49.2826 32.1766 49.2801C32.1791 48.4999 32.1766 47.7206 32.1766 46.9416C30.8856 46.9341 29.5933 46.9581 28.3038 46.9291C28.2998 46.6026 28.2998 46.2764 28.3038 45.9506" fill="black"/>
<path d="M21.3053 46.3211C21.6456 46.3161 21.9865 46.3169 22.3278 46.3236C22.3328 46.6638 22.3332 47.005 22.3291 47.3474C21.986 47.3524 21.6444 47.3528 21.304 47.3486C21.2994 47.0056 21.2994 46.6631 21.304 46.3211" fill="black"/>
<path d="M39.3362 46.8719C39.7219 46.5469 40.0724 47.0886 40.4027 47.2469C40.4027 47.2771 40.4027 47.3389 40.4027 47.3691C39.5404 47.9252 38.6579 48.4509 37.8144 49.0359L38.3036 49.0322C38.5632 49.0322 38.8237 49.0351 39.0854 49.0409C39.0879 49.3814 39.0879 49.7229 39.0829 50.0634C38.0214 50.0787 36.9599 50.0747 35.8984 50.0659C35.8769 49.7444 35.8734 49.4217 35.8706 49.1014C37.0039 48.3264 38.1864 47.6264 39.3349 46.8719" fill="black"/>
<path d="M23.2204 47.8174C24.5985 47.8124 25.9777 47.8049 27.3555 47.8211C27.358 48.1601 27.358 48.4997 27.3555 48.8399C25.9762 48.8601 24.5982 48.8511 23.2192 48.8449C23.2129 48.5021 23.2142 48.1591 23.2192 47.8174" fill="black"/>
<path d="M26.8929 50.4347C27.2812 50.4309 27.6695 50.4297 28.058 50.4372C28.4172 51.1519 28.895 51.8102 29.1712 52.5652C28.8232 52.5842 28.4765 52.5842 28.1287 52.5867C27.7037 51.877 27.3065 51.1502 26.8929 50.4347Z" fill="black"/>
<path d="M33.7752 51.5215C34.1144 51.519 34.4534 51.524 34.7912 51.5465C34.7974 51.8857 34.7949 52.226 34.7522 52.564C34.4282 52.5653 34.105 52.5653 33.7827 52.564C33.7702 52.214 33.7702 51.8682 33.7749 51.5215" fill="black"/>
<path d="M31.4114 54.8952C31.4114 54.1035 31.3937 53.3104 31.4239 52.5187C31.7657 52.5187 32.1084 52.5377 32.4489 52.5687C32.4528 53.344 32.4528 54.1198 32.4489 54.896C32.1029 54.9013 31.7571 54.9013 31.4114 54.896" fill="black"/>
</svg>
