<svg width="64" height="64" viewBox="0 0 64 64" fill="none" xmlns="http://www.w3.org/2000/svg">
<rect width="64" height="64" fill="black"/>
<path d="M44.1573 48.0005C48.6275 48.0005 51.4608 43.1785 49.2119 39.2803L34.2072 13.2731C33.2281 11.575 30.7743 11.575 29.7952 13.2731L14.7875 39.2803C12.5416 43.1723 15.3749 48.0005 19.842 48.0005L44.1573 48.0005ZM34.2194 21.0723L37.4872 27.3966L45.372 41.4986C45.8921 42.4012 45.2496 43.5579 44.1604 43.5579L34.2225 43.5579L34.2225 21.0693L34.2194 21.0723ZM18.6366 41.5017L26.5183 27.3936L29.786 21.0723L29.786 43.5609L19.8481 43.5609C18.7589 43.5609 18.1164 42.4043 18.6366 41.5017Z" fill="white"/>
</svg>
