<svg width="64" height="64" viewBox="0 0 64 64" fill="none" xmlns="http://www.w3.org/2000/svg">
<rect width="64" height="64" fill="#046EE3"/>
<g clip-path="url(#clip0_91_691)">
<path d="M48.7687 21.3829C50.0098 24.0268 50.6573 26.6707 50.981 29.2067C51.1969 33.8471 50.6572 38.2177 48.7688 42.8041C45.4234 49.333 40.2434 53.0021 32.6354 53.2719C26.2684 53.4877 21.3582 51.0057 17.4193 45.8797C16.7178 44.9624 16.0703 43.9372 17.0416 43.1278L38.0311 22.1922C38.193 21.7605 38.6786 21.6526 38.8945 21.167C37.6535 19.6022 35.7649 19.0626 34.0383 18.685C29.4519 17.8756 25.7288 19.3324 23.2467 23.3793C22.3834 25.1059 21.8978 27.1563 21.6819 28.7211C21.4661 31.7967 22.1675 35.7356 21.1423 36.7608C19.4157 38.4874 17.743 40.0522 16.2322 41.5631C16.0164 41.7249 15.7466 41.9947 15.153 42.3724C12.4012 35.6816 11.5918 27.1563 16.7178 19.1706C19.7394 14.1525 24.11 11.5086 29.9914 10.8611C35.7649 10.2136 40.8369 11.6704 45.0996 16.2029C45.855 16.9043 46.5565 17.8756 47.5277 19.0626C47.9054 19.6022 47.9054 20.0878 47.096 20.7353L34.0383 33.8471C31.3944 36.491 28.6965 39.2429 25.8907 41.7249C24.8115 42.8041 25.0813 42.9659 26.1605 43.8293C31.0167 47.0128 38.8945 45.8797 41.5384 39.2429C42.7795 35.6817 42.9953 32.1744 42.6716 28.4513C42.6716 28.2355 42.6716 27.6959 42.7795 27.3182C44.5601 25.2678 46.5565 23.5951 48.7688 21.3828L48.7687 21.3829Z" fill="white"/>
</g>
<defs>
<clipPath id="clip0_91_691">
<rect width="43" height="43" fill="white" transform="translate(10.5 10.5)"/>
</clipPath>
</defs>
</svg>
