<svg width="64" height="64" viewBox="0 0 64 64" fill="none" xmlns="http://www.w3.org/2000/svg">
<rect width="64" height="64" fill="white"/>
<mask id="mask0_105_237" style="mask-type:luminance" maskUnits="userSpaceOnUse" x="11" y="14" width="14" height="33">
<path fill-rule="evenodd" clip-rule="evenodd" d="M11 14.8036H24.9019V46.6427H11V14.8036Z" fill="white"/>
</mask>
<g mask="url(#mask0_105_237)">
<path d="M22.6627 17.1479C23.4616 16.2382 24.1964 15.4684 24.8961 14.8153C13.0819 14.4363 16.5223 22.9792 12.6503 31.6504C8.21854 41.6452 13.1752 45.4531 20.5576 46.6427C19.5255 45.4123 18.6858 44.0361 18.0618 42.5608C13.2976 36.537 15.2278 25.5566 22.6627 17.1479Z" fill="#EFE812"/>
</g>
<path d="M51.0903 27.7958C49.6966 31.4462 47.679 34.8284 45.1248 37.7849C43.0781 40.269 40.6289 42.3916 37.8765 44.0652C34.681 46.0887 30.9664 47.1442 27.1819 47.1033C24.9718 47.1208 22.7676 46.9692 20.5808 46.6427C21.7937 48.0888 23.2982 49.2726 24.9951 50.1006C35.6781 55.2672 36.3487 45.6747 47.6498 40.8055C53.9943 38.0706 54.0176 32.7291 51.0845 27.7958" fill="#EDE70A"/>
<path d="M37.8765 17.8243C39.4218 18.0925 40.9147 18.6232 42.285 19.3871C45.8771 21.4047 48.9094 24.297 51.0903 27.7958C53.0147 22.3727 52.1166 18.1158 47.9123 17.3461C43.2822 16.5006 39.6668 16.2265 36.1913 13.8007C31.9111 10.8267 28.1557 11.7947 24.9019 14.8211L25.6074 14.8503C30.1209 15.1185 34.4361 16.0166 37.8532 17.8126" fill="#EDE70A"/>
<path d="M22.6625 17.1478C15.2276 25.5566 13.2974 36.537 18.0849 42.5607C15.8399 37.2601 16.2247 31.2071 19.1171 26.233C23.1465 19.5153 31.2346 16.5997 37.8764 17.8243C34.436 16.0049 30.1208 15.1302 25.6307 14.862L24.9251 14.827C24.202 15.4917 23.4672 16.2381 22.6625 17.1478Z" fill="#DEC21C"/>
<path d="M42.2849 19.3754C40.9146 18.6173 39.4218 18.0925 37.8765 17.8243C42.4016 20.2035 45.4047 24.2387 45.4047 30.6182C45.3522 36.088 42.5124 41.1612 37.8765 44.0652C40.6288 42.3975 43.078 40.2749 45.1248 37.7849C47.6789 34.8284 49.6966 31.4462 51.0902 27.7958C48.9093 24.297 45.877 21.3989 42.2849 19.3754Z" fill="#E5CB22"/>
<path d="M37.8767 17.8243C31.2348 16.5997 23.1468 19.5154 19.1173 26.2039C16.2075 31.1897 15.8285 37.2543 18.0852 42.5608C18.7091 44.0419 19.5488 45.4181 20.581 46.6427C22.7677 46.9692 24.972 47.1209 27.182 47.1034C30.9666 47.1442 34.6811 46.0887 37.8767 44.0653C42.5126 41.1613 45.3524 36.0938 45.4049 30.6182C45.4049 24.2388 42.4018 20.2035 37.8767 17.8243ZM37.1303 41.033C32.0162 44.316 25.211 42.8523 21.8989 37.7558C18.5983 32.665 20.2311 26.0931 25.1819 22.5943C30.7216 18.6582 37.8242 20.2093 40.4133 25.8715C42.9383 31.388 42.2443 37.7616 37.1303 41.033Z" fill="#CCA727"/>
</svg>
