<svg width="64" height="64" viewBox="0 0 64 64" fill="none" xmlns="http://www.w3.org/2000/svg">
<rect width="64" height="64" fill="black"/>
<g clip-path="url(#clip0_91_694)">
<path d="M32.0695 25.848L21.1468 13.0508C21.1468 13.0508 25.9788 11.3873 28.1968 10.5423C30.5556 9.70619 39.4011 21.5354 39.4011 21.5354L32.0695 25.848ZM42.1647 14.7142C41.3374 18.6133 39.6739 21.5354 39.6739 21.5354L47.2784 26.4025C50.4645 18.05 42.1647 14.7142 42.1647 14.7142ZM51.8463 32.9596C51.7055 31.2874 51.4327 27.8108 51.4327 27.8108C51.4327 27.8108 51.5735 26.9746 49.6371 26.7018C47.2784 26.2705 47.2784 26.4113 47.2784 26.4113L47.9737 35.1777L51.151 34.7641C51.151 34.7641 51.9783 34.4823 51.8463 32.9596ZM47.9649 35.1777L41.6014 40.3264L44.5059 46.0298C44.5059 46.0298 45.2012 48.2565 47.2696 45.7481C49.2059 43.2397 50.0332 42.826 49.8926 41.2946C49.7692 39.7631 49.3467 36.1458 47.9649 35.1777ZM25.1515 51.8652C25.1515 51.8652 24.597 52.9741 26.5333 53.1149C28.4697 53.3966 31.647 54.0919 33.3105 52.4196C34.9739 50.897 41.4694 40.3176 41.4694 40.3176L32.756 36.4186L25.1515 51.8652ZM32.756 36.2866L31.9286 25.9889L13.12 27.2475C13.12 27.2475 12.0109 27.3883 12.1518 29.4743C12.2926 32.2555 12.5655 35.3184 12.5655 35.3184C12.5655 35.3184 12.4246 36.5682 14.9154 36.709C17.4062 36.8411 32.4831 36.8411 32.756 36.2866Z" fill="white"/>
</g>
<defs>
<clipPath id="clip0_91_694">
<rect width="43" height="43" fill="white" transform="translate(10.5 10.5)"/>
</clipPath>
</defs>
</svg>
