<svg width="64" height="64" viewBox="0 0 64 64" fill="none" xmlns="http://www.w3.org/2000/svg">
<rect width="64" height="64" fill="black"/>
<path fill-rule="evenodd" clip-rule="evenodd" d="M15.7909 32.8521C15.7733 32.9048 15.7645 32.9487 15.7557 33.0014C16.0542 34.4672 16.5984 35.8101 17.6078 36.9249C17.9589 37.3286 18.468 37.5481 18.9946 37.5393C20.5921 37.5481 21.8912 36.8897 22.9532 35.7311C23.1288 35.5293 23.3131 35.3361 23.515 35.1606C23.7695 34.9675 24.0767 34.9061 24.3664 35.0904C24.656 35.2747 24.6999 35.538 24.6648 35.8452C24.6121 36.2666 24.419 36.6615 24.1294 36.9687C22.9181 38.2415 21.5137 39.2421 19.767 39.6722C18.1783 40.0672 16.8793 39.6283 15.8084 38.4346C15.0535 37.5656 14.4567 36.5825 14.0266 35.5117C13.8254 35.0501 13.6521 34.5804 13.4798 34.1136C13.3966 33.8881 13.3136 33.6632 13.2278 33.4402C13.1752 33.3086 13.1225 33.1681 13.0347 32.9224C12.9738 33.0769 12.9203 33.2088 12.8718 33.3286L12.8717 33.3287C12.8155 33.4674 12.7659 33.5899 12.7188 33.7123C12.5701 34.107 12.4239 34.5017 12.2779 34.8959C11.9499 35.7815 11.6228 36.6646 11.2705 37.5393C10.9984 38.2502 10.5858 38.8998 10.068 39.4615C9.66422 39.8916 9.19024 40.1462 8.5846 40.076C7.94385 39.9882 7.51376 39.5581 7.45231 38.9086C7.39965 38.3995 7.50498 37.8904 7.75952 37.4427C8.07989 36.859 8.39588 36.2732 8.71186 35.6873C9.02785 35.1014 9.34384 34.5155 9.66422 33.9318L10.0598 33.2123C10.936 31.6181 11.8108 30.0264 12.7188 28.4547C13.2103 27.6647 13.7369 26.9098 14.3075 26.1813C14.5181 25.9268 14.7727 25.6986 15.0448 25.5142C15.2905 25.3123 15.6416 25.286 15.905 25.4616C16.1683 25.602 16.3087 25.9004 16.2473 26.1989C16.2122 26.55 16.1332 26.8923 16.0103 27.2258C15.7256 27.9289 15.4217 28.6242 15.1189 29.3169L15.1188 29.317C14.9642 29.6708 14.8099 30.0238 14.6586 30.3769C14.6413 30.4114 14.6254 30.4473 14.6082 30.4861L14.6082 30.4861C14.5816 30.5461 14.552 30.613 14.5094 30.6929C14.9394 30.7631 15.3871 30.7456 15.8084 30.6402C18.0993 30.2189 20.1708 28.086 20.5219 25.7863C20.7589 24.2942 20.0918 23.1004 18.6962 22.5036C18.0115 22.2227 17.2742 22.091 16.5369 22.1086C15.6241 22.1086 14.7376 22.1613 13.851 22.4246C12.4818 22.8547 11.4811 23.7061 10.7526 24.9437C10.4279 25.4967 10.1031 26.0409 9.74322 26.5675C9.50623 26.9625 9.12002 27.2434 8.67237 27.3487C7.86485 27.533 6.92567 27.1117 7.00467 25.9882C7.05733 25.2597 7.36454 24.6277 7.78586 24.0484C8.73382 22.7318 9.98899 21.8189 11.4285 21.1431C13.2191 20.2917 15.194 19.9055 17.1689 20.0196C18.626 20.0986 19.9952 20.4584 21.2328 21.2484C23.6642 22.8108 24.1821 25.8039 22.962 28.0509C22.1106 29.6396 20.7852 30.728 19.2404 31.5794C18.1695 32.1587 17.0021 32.5976 15.7909 32.8521ZM37.4008 36.8722C37.5237 37.355 37.8309 37.5393 38.2347 37.6271C38.9193 37.7675 39.5864 37.6358 40.2359 37.4515C41.7983 37.0039 43.2202 36.2314 44.6334 35.4503C45.1162 35.2045 45.4848 34.792 45.6779 34.2916C45.9045 33.7405 46.1652 33.198 46.4333 32.6401L46.4333 32.6401C46.5495 32.3983 46.6671 32.1537 46.7839 31.9042C46.5644 31.8954 46.4064 31.8866 46.2485 31.8691C45.9939 31.8691 45.7394 31.8515 45.4848 31.8164C45.1513 31.755 44.8967 31.5794 44.8177 31.2195C44.7475 30.8772 44.9143 30.6227 45.1776 30.4471C45.3532 30.3155 45.5638 30.2365 45.7745 30.2101C46.0625 30.1734 46.3591 30.1666 46.6523 30.1598L46.6524 30.1598C46.7791 30.1569 46.9052 30.154 47.0296 30.1487C47.1802 30.1429 47.3192 30.1448 47.4644 30.1467C47.5394 30.1477 47.616 30.1487 47.6967 30.1487C47.7515 30.047 47.806 29.9452 47.8605 29.8436L47.8605 29.8434C48.1113 29.3754 48.3603 28.9105 48.6271 28.4634C49.5049 26.9976 50.5231 25.6722 51.9274 24.6804C52.7701 24.0835 53.7619 23.7324 54.7977 23.671C55.7719 23.6008 56.4829 24.0747 56.8165 25.0139C57.0973 25.8039 57.0271 26.6114 56.7989 27.4014C56.6409 27.9719 55.8422 28.244 55.3419 27.9368C55.0868 27.7752 55.087 27.5478 55.0873 27.2944L55.0873 27.2697C55.1136 27.0064 55.1049 26.7343 55.0698 26.4622C54.9732 25.997 54.7011 25.7776 54.2359 25.8741C53.9199 25.9355 53.6215 26.0584 53.3582 26.2428C52.2259 26.9976 51.4359 28.0772 50.7513 29.2271C50.6539 29.3948 50.5665 29.5692 50.4686 29.7646C50.4076 29.8863 50.3426 30.0161 50.2685 30.1575H51.0936C51.4635 30.1633 51.8325 30.1682 52.2012 30.173L52.2014 30.173C52.9435 30.1828 53.6843 30.1926 54.429 30.2101C54.5607 30.2101 54.6923 30.2277 54.824 30.2628C55.1312 30.3506 55.3857 30.4998 55.4209 30.8597C55.4735 31.2108 55.2804 31.5443 54.9556 31.6847C54.6923 31.7901 54.4114 31.8427 54.1218 31.8603C52.7174 31.9042 51.3218 31.9217 49.9262 31.9393H49.3644C49.3093 32.0463 49.253 32.1508 49.1973 32.2544L49.197 32.2548C49.102 32.4314 49.0085 32.6049 48.9256 32.7819C48.5462 33.5765 48.1675 34.3705 47.7889 35.1641L47.7871 35.1679C46.6857 37.4768 45.5854 39.7834 44.4754 42.0948C44.3174 42.4107 44.1243 42.7092 43.8961 42.9813C43.5977 43.3324 43.1939 43.5694 42.7375 43.6484C41.9563 43.7976 41.4911 43.2885 41.7808 42.56C41.993 42.0323 42.2389 41.5129 42.4835 40.9962L42.4836 40.9959C42.5929 40.765 42.702 40.5346 42.8077 40.3042C43.1298 39.597 43.466 38.8829 43.8352 38.0987L43.8359 38.0972L43.9663 37.8202C43.6627 37.9809 43.4035 38.1214 43.1614 38.2527C43.0465 38.315 42.9354 38.3753 42.8253 38.4346C41.6052 39.0753 40.3062 39.5932 38.9369 39.8126C38.3576 39.9092 37.7607 39.9267 37.1726 39.8653C36.1369 39.7424 35.3732 39.1455 34.8729 38.2327C34.8056 38.1224 34.7467 38.0122 34.6815 37.89L34.6813 37.8896C34.6532 37.8368 34.6238 37.7818 34.5921 37.7236C34.4857 37.784 34.3821 37.8444 34.2801 37.9039L34.2797 37.9041L34.2797 37.9041C34.0705 38.026 33.8681 38.1441 33.6617 38.2502C32.3275 38.9876 30.9319 39.5669 29.4222 39.8126C28.8604 39.918 28.2811 39.9355 27.7106 39.8741C26.2886 39.681 25.446 38.7769 25.0159 37.4515C24.6209 36.2753 24.8052 35.143 25.3494 34.0722C26.4027 32.0183 27.9914 30.5612 30.2472 29.9205C30.9319 29.7362 31.6516 29.6747 32.3626 29.7362C33.53 29.8327 34.241 30.6753 34.162 31.8603C34.1181 32.5713 33.8196 33.2471 33.3281 33.765C32.424 34.7481 31.2742 35.3888 30.0892 35.9593C29.5637 36.2059 29.0189 36.4333 28.4692 36.6627L28.4687 36.6629C28.2749 36.7438 28.0805 36.825 27.8861 36.9073C27.9388 37.355 28.2548 37.5481 28.6498 37.6534C29.2115 37.7938 29.7557 37.7148 30.2999 37.5919C31.7394 37.2584 33.056 36.6177 34.3551 35.8891C34.374 35.8058 34.3881 35.7208 34.4021 35.6356L34.4021 35.6355L34.4021 35.6355C34.4207 35.5233 34.4393 35.4108 34.4692 35.301C35.1275 32.5888 38.0591 29.6308 41.5701 29.7011C43.6503 29.7449 44.019 31.439 43.5538 32.6503C43.308 33.2471 42.9218 33.7738 42.4303 34.1863C41.4735 35.0289 40.3851 35.6082 39.2441 36.1173C39.0307 36.2052 38.8174 36.2908 38.6017 36.3774L38.6013 36.3775C38.2136 36.5331 37.8181 36.6918 37.4008 36.8722ZM37.2692 35.1694C38.5507 34.4935 39.7795 33.7211 40.9469 32.8609C41.0873 32.7468 41.2102 32.5976 41.2892 32.4308C41.5701 31.9042 41.3507 31.5355 40.7538 31.5355C40.0692 31.5355 39.4899 31.834 38.9895 32.2904C38.1381 33.0716 37.629 34.0722 37.2692 35.1694ZM27.6667 35.1957C27.7457 35.1782 27.8247 35.1518 27.9037 35.1255C28.2097 34.9312 28.5164 34.7376 28.8232 34.5439L28.8234 34.5438L28.8234 34.5437C29.6253 34.0375 30.428 33.5307 31.2215 33.0101C31.441 32.8521 31.6165 32.6503 31.7482 32.4133C32.0291 31.9042 31.8096 31.5443 31.2303 31.5355C30.6159 31.5355 30.0278 31.7637 29.5714 32.1763C28.6498 32.9575 28.1582 34.0108 27.6667 35.1957ZM49.1099 36.1525C47.9337 36.249 47.1701 37.1619 47.214 38.0835C47.2169 38.1303 47.2179 38.1761 47.2189 38.222C47.2208 38.3136 47.2228 38.4053 47.2403 38.5048C47.3369 39.1719 48.1619 39.8214 48.8202 39.6897C50.0403 39.4264 50.6108 38.417 50.4879 37.3374C50.409 36.7054 49.7331 36.0998 49.1099 36.1525Z" fill="white"/>
</svg>
