<svg width="64" height="64" viewBox="0 0 64 64" fill="none" xmlns="http://www.w3.org/2000/svg">
<rect width="64" height="64" fill="#00E6A0"/>
<g clip-path="url(#clip0_91_686)">
<path d="M18.496 14.4616H32.9394C38.8579 14.4616 42.1701 17.5566 41.8986 22.6064C41.8986 26.4073 38.5321 29.9367 34.6769 29.9367H24.7946C29.2471 37.8643 34.0253 45.5203 38.8579 53.285C39.5638 52.6334 40.8669 52.0361 41.7358 51.4389C38.2606 45.3574 34.6769 39.4932 30.9303 33.4661C36.686 33.4661 41.8986 33.0317 44.5593 26.8417C46.0253 23.4208 45.7538 19.5113 43.962 16.2534C41.3556 12.0182 37.3918 10.715 32.0163 10.715H18.496V14.4616Z" fill="white"/>
</g>
<defs>
<clipPath id="clip0_91_686">
<rect width="43" height="43" fill="white" transform="translate(10.5 10.5)"/>
</clipPath>
</defs>
</svg>
