<svg width="64" height="64" viewBox="0 0 64 64" fill="none" xmlns="http://www.w3.org/2000/svg">
<rect width="64" height="64" fill="#FCD15A"/>
<g clip-path="url(#clip0_90_86)">
<path fill-rule="evenodd" clip-rule="evenodd" d="M39.8307 28.9993H39.4976C37.8325 29.1646 36.6634 30.499 36.8311 32.1642C36.8311 32.4995 36.6658 32.9979 36.3304 33.1656C36.1651 33.3309 35.9974 33.3309 35.6644 33.3309C35.5742 33.3421 35.4827 33.333 35.3965 33.3044C35.3103 33.2758 35.2316 33.2284 35.166 33.1656C34.6765 32.8279 34.0931 32.6527 33.4985 32.6649H33.1655C31.498 32.8326 30.3313 34.1646 30.499 35.8321C30.499 36.3305 30.3313 36.6658 29.9983 36.8312C29.8329 36.9989 29.6652 36.9989 29.3322 36.9989C29.2415 37.0101 29.1495 37.0009 29.0628 36.9718C28.9762 36.9428 28.8971 36.8948 28.8315 36.8312C28.3918 36.5217 27.8693 36.3514 27.3317 36.3423C26.9373 36.341 26.5465 36.4178 26.1818 36.5683C25.8172 36.7187 25.4859 36.9398 25.2071 37.2189C24.9283 37.4979 24.7074 37.8293 24.5573 38.1941C24.4071 38.5589 24.3306 38.9497 24.3322 39.3442C24.3306 39.7385 24.4071 40.1293 24.5573 40.4939C24.7075 40.8585 24.9284 41.1898 25.2072 41.4687C25.4861 41.7475 25.8174 41.9684 26.182 42.1186C26.5466 42.2688 26.9374 42.3453 27.3317 42.3437H27.6648C28.3462 42.2689 28.9818 41.9639 29.4666 41.4791C29.9514 40.9943 30.2564 40.3587 30.3313 39.6772V39.1765C30.3313 38.8435 30.499 38.3428 30.832 38.1774C30.9997 38.0097 31.165 38.0097 31.498 38.0097C31.5887 37.9985 31.6808 38.0078 31.7674 38.0368C31.8541 38.0658 31.9331 38.1139 31.9988 38.1774C32.4881 38.5153 33.0717 38.6898 33.6662 38.6758H33.9993C34.6809 38.6013 35.3167 38.2965 35.8016 37.8116C36.2865 37.3267 36.5913 36.6909 36.6658 36.0092V35.5109C36.6658 35.0102 36.8319 34.6764 37.1641 34.5095C37.3318 34.3441 37.4972 34.3441 37.8325 34.3441C37.9227 34.333 38.0142 34.342 38.1004 34.3706C38.1866 34.3992 38.2653 34.4466 38.3309 34.5095C38.8204 34.8472 39.4038 35.0224 39.9984 35.0102C40.3927 35.0117 40.7835 34.9352 41.1481 34.785C41.5127 34.6349 41.844 34.414 42.1229 34.1351C42.4017 33.8563 42.6226 33.525 42.7728 33.1604C42.923 32.7957 42.9995 32.405 42.9979 32.0106C42.8302 30.3432 41.4981 29.0111 39.8307 29.0111" fill="white"/>
<path fill-rule="evenodd" clip-rule="evenodd" d="M39.8307 28.9993H39.4976C37.8325 29.1646 36.6634 30.499 36.8311 32.1642C36.8311 32.4995 36.6658 32.9979 36.3304 33.1656C36.1651 33.3309 35.9974 33.3309 35.6644 33.3309C35.5742 33.3421 35.4827 33.333 35.3965 33.3044C35.3103 33.2758 35.2316 33.2284 35.166 33.1656C34.6765 32.8279 34.0931 32.6527 33.4985 32.6649H33.1655C31.498 32.8326 30.3313 34.1646 30.499 35.8321C30.499 36.3305 30.3313 36.6658 29.9983 36.8312C29.8329 36.9989 29.6652 36.9989 29.3322 36.9989C29.2415 37.0101 29.1495 37.0009 29.0628 36.9718C28.9762 36.9428 28.8971 36.8948 28.8315 36.8312C28.3918 36.5217 27.8693 36.3514 27.3317 36.3423C26.9373 36.341 26.5465 36.4178 26.1818 36.5683C25.8172 36.7187 25.4859 36.9398 25.2071 37.2189C24.9283 37.4979 24.7074 37.8293 24.5573 38.1941C24.4071 38.5589 24.3306 38.9497 24.3322 39.3442C24.3306 39.7385 24.4071 40.1293 24.5573 40.4939C24.7075 40.8585 24.9284 41.1898 25.2072 41.4687C25.4861 41.7475 25.8174 41.9684 26.182 42.1186C26.5466 42.2688 26.9374 42.3453 27.3317 42.3437H27.6648C28.3462 42.2689 28.9818 41.9639 29.4666 41.4791C29.9514 40.9943 30.2564 40.3587 30.3313 39.6772V39.1765C30.3313 38.8435 30.499 38.3428 30.832 38.1774C30.9997 38.0097 31.165 38.0097 31.498 38.0097C31.5887 37.9985 31.6808 38.0078 31.7674 38.0368C31.8541 38.0658 31.9331 38.1139 31.9988 38.1774C32.4881 38.5153 33.0717 38.6898 33.6662 38.6758H33.9993C34.6809 38.6013 35.3167 38.2965 35.8016 37.8116C36.2865 37.3267 36.5913 36.6909 36.6658 36.0092V35.5109C36.6658 35.0102 36.8319 34.6764 37.1641 34.5095C37.3318 34.3441 37.4972 34.3441 37.8325 34.3441C37.9227 34.333 38.0142 34.342 38.1004 34.3706C38.1866 34.3992 38.2653 34.4466 38.3309 34.5095C38.8204 34.8472 39.4038 35.0224 39.9984 35.0102C40.3927 35.0117 40.7835 34.9352 41.1481 34.785C41.5127 34.6349 41.844 34.414 42.1229 34.1351C42.4017 33.8563 42.6226 33.525 42.7728 33.1604C42.923 32.7957 42.9995 32.405 42.9979 32.0106C42.8302 30.3432 41.4981 29.0111 39.8307 29.0111" fill="white"/>
<path fill-rule="evenodd" clip-rule="evenodd" d="M33.5081 25.166H33.1751C31.5076 25.3313 30.3408 26.6657 30.5085 28.3332C30.5085 28.8308 30.3416 29.1638 30.0078 29.3323C29.8425 29.4976 29.6748 29.4976 29.3418 29.4976C29.2513 29.5088 29.1594 29.4998 29.0728 29.4712C28.9862 29.4426 28.9071 29.3951 28.841 29.3323C28.3562 28.9959 27.7777 28.8208 27.1877 28.8316H26.8311C26.0993 28.9251 25.4261 29.2804 24.9359 29.8318C24.4457 30.3832 24.1717 31.0934 24.1646 31.8311C24.163 32.2257 24.2396 32.6166 24.3899 32.9814C24.5403 33.3462 24.7614 33.6776 25.0405 33.9564C25.3196 34.2353 25.6511 34.4562 26.016 34.6062C26.3809 34.7563 26.7719 34.8325 27.1665 34.8307H27.4995C28.1812 34.7562 28.817 34.4513 29.3019 33.9665C29.7867 33.4816 30.0916 32.8458 30.166 32.1641V31.6658C30.166 31.1619 30.3353 30.8313 30.6738 30.6738C30.8415 30.5085 31.0092 30.5085 31.3423 30.5085C31.4324 30.4973 31.5239 30.5064 31.6101 30.535C31.6963 30.5635 31.775 30.611 31.8406 30.6738C32.3305 31.0098 32.9143 31.1818 33.5081 31.1651H33.8411C34.5731 31.072 35.2466 30.7168 35.7369 30.1653C36.2271 29.6139 36.501 28.9034 36.5076 28.1655C36.5095 27.7711 36.4332 27.3802 36.2831 27.0154C36.1331 26.6506 35.9122 26.3192 35.6333 26.0403C35.3544 25.7614 35.0229 25.5405 34.6582 25.3905C34.2934 25.2404 33.9025 25.1641 33.5081 25.166Z" fill="white"/>
<path fill-rule="evenodd" clip-rule="evenodd" d="M33.5081 25.166H33.1751C31.5076 25.3313 30.3408 26.6657 30.5085 28.3332C30.5085 28.8308 30.3416 29.1638 30.0078 29.3323C29.8425 29.4976 29.6748 29.4976 29.3418 29.4976C29.2513 29.5088 29.1594 29.4998 29.0728 29.4712C28.9862 29.4426 28.9071 29.3951 28.841 29.3323C28.3562 28.9959 27.7777 28.8208 27.1877 28.8316H26.8311C26.0993 28.9251 25.4261 29.2804 24.9359 29.8318C24.4457 30.3832 24.1717 31.0934 24.1646 31.8311C24.163 32.2257 24.2396 32.6166 24.3899 32.9814C24.5403 33.3462 24.7614 33.6776 25.0405 33.9564C25.3196 34.2353 25.6511 34.4562 26.016 34.6062C26.3809 34.7563 26.7719 34.8325 27.1665 34.8307H27.4995C28.1812 34.7562 28.817 34.4513 29.3019 33.9665C29.7867 33.4816 30.0916 32.8458 30.166 32.1641V31.6658C30.166 31.1619 30.3353 30.8313 30.6738 30.6738C30.8415 30.5085 31.0092 30.5085 31.3423 30.5085C31.4324 30.4973 31.5239 30.5064 31.6101 30.535C31.6963 30.5635 31.775 30.611 31.8406 30.6738C32.3305 31.0098 32.9143 31.1818 33.5081 31.1651H33.8411C34.5731 31.072 35.2466 30.7168 35.7369 30.1653C36.2271 29.6139 36.501 28.9034 36.5076 28.1655C36.5095 27.7711 36.4332 27.3802 36.2831 27.0154C36.1331 26.6506 35.9122 26.3192 35.6333 26.0403C35.3544 25.7614 35.0229 25.5405 34.6582 25.3905C34.2934 25.2404 33.9025 25.1641 33.5081 25.166Z" fill="white"/>
<path fill-rule="evenodd" clip-rule="evenodd" d="M31.9988 8C18.8338 8 8 18.6661 8 31.8311C8 44.9985 18.8338 55.6646 31.9988 55.6646C35.1967 55.6327 38.3609 55.0072 41.3305 53.82C50.1638 50.1544 55.9976 41.4887 55.9976 31.9894C56.163 18.6661 45.3315 8 31.9988 8ZM14.9935 31.6658C14.9935 22.3317 22.6577 14.8328 31.9988 14.8328C36.502 14.8478 40.8159 16.6456 43.997 19.8329C47.1643 23.0001 48.9971 27.3318 48.9971 31.6658C48.9971 40.9975 41.3305 48.4964 31.9917 48.4964C22.6577 48.4964 14.9864 40.9975 14.9864 31.6658H14.9935Z" fill="white"/>
<path fill-rule="evenodd" clip-rule="evenodd" d="M31.9988 8C18.8338 8 8 18.6661 8 31.8311C8 44.9985 18.8338 55.6646 31.9988 55.6646C35.1967 55.6327 38.3609 55.0072 41.3305 53.82C50.1638 50.1544 55.9976 41.4887 55.9976 31.9894C56.163 18.6661 45.3315 8 31.9988 8ZM14.9935 31.6658C14.9935 22.3317 22.6577 14.8328 31.9988 14.8328C36.502 14.8478 40.8159 16.6456 43.997 19.8329C47.1643 23.0001 48.9971 27.3318 48.9971 31.6658C48.9971 40.9975 41.3305 48.4964 31.9917 48.4964C22.6577 48.4964 14.9864 40.9975 14.9864 31.6658H14.9935Z" fill="white"/>
<path d="M29.3984 26.2548L29.2685 25.6265H29.2826C29.3345 25.6062 29.3819 25.5758 29.4219 25.5371C29.462 25.4983 29.4939 25.452 29.5159 25.4008C29.5378 25.3496 29.5494 25.2945 29.5499 25.2388C29.5504 25.1831 29.5399 25.1278 29.5188 25.0762L30.0054 24.755C30.0313 24.781 30.0573 24.7928 30.0691 24.8188L29.4669 26.2689C29.4468 26.2598 29.4251 26.2549 29.4031 26.2548M29.4149 23.959L29.9014 24.2803C29.8639 24.384 29.8639 24.4977 29.9014 24.6015L29.4149 24.9203C29.3413 24.8468 29.2436 24.8024 29.1397 24.7955C29.0359 24.7885 28.9331 24.8195 28.8504 24.8825L28.5953 24.6463C28.6391 24.5823 28.6625 24.5066 28.6625 24.4291C28.6625 24.3515 28.6391 24.2758 28.5953 24.2118L28.8504 23.9756C28.9255 24.0301 29.0151 24.0614 29.1079 24.0653C29.1645 24.0705 29.2215 24.0628 29.2747 24.0428C29.3279 24.0227 29.3758 23.9909 29.4149 23.9496M28.1702 22.8986L28.2481 22.8608L28.7748 23.3993C28.7322 23.4551 28.705 23.5211 28.6959 23.5907C28.6868 23.6604 28.6961 23.7312 28.7229 23.7961C28.7229 23.8221 28.7229 23.8339 28.7489 23.8598L28.4914 24.096C28.419 24.0423 28.3312 24.0134 28.2411 24.0134C28.1509 24.0134 28.0631 24.0423 27.9907 24.096L27.5561 23.6591C27.6071 23.5849 27.6332 23.4964 27.6306 23.4064C27.6281 23.3164 27.597 23.2296 27.5419 23.1584L27.7781 22.8773C27.8339 22.9145 27.898 22.9374 27.9647 22.944C28.0314 22.9506 28.0988 22.9407 28.1608 22.9151M29.4928 23.8244C29.5139 23.7728 29.5245 23.7176 29.524 23.6618C29.5234 23.6061 29.5119 23.5511 29.4899 23.4998C29.4679 23.4486 29.436 23.4023 29.3959 23.3636C29.3559 23.3248 29.3086 23.2944 29.2567 23.2741L29.3842 22.6199C29.409 22.6257 29.4349 22.6257 29.4598 22.6199L30.0502 24.1078C30.0243 24.1078 29.9983 24.1456 29.9747 24.1574L29.4928 23.8244ZM25.2037 22.6647C25.2557 22.6388 25.4092 22.5608 25.4399 22.4286L26.0162 22.5443C26.0188 22.6269 26.0406 22.7078 26.08 22.7805L25.5556 23.3072C25.4866 23.258 25.4042 23.2308 25.3194 23.2292L25.2037 22.6647ZM28.345 22.7545C28.3976 22.6747 28.4248 22.5808 28.4229 22.4852L28.9874 22.3577C29.0087 22.4089 29.0408 22.4548 29.0816 22.4923C29.1224 22.5298 29.1708 22.558 29.2236 22.575L29.0937 23.2292C29.0377 23.2309 28.9822 23.2397 28.9284 23.2552C28.9049 23.2636 28.8832 23.2765 28.8646 23.293L28.345 22.7545ZM27.3672 21.7413L27.7026 22.2136C27.6332 22.2871 27.5924 22.383 27.5876 22.484C27.5828 22.5849 27.6144 22.6843 27.6766 22.7639L27.4404 23.0474C27.374 23.009 27.2986 22.9888 27.2219 22.9888C27.1452 22.9888 27.0699 23.009 27.0034 23.0474L26.7862 22.8112C26.8489 22.7282 26.8795 22.6252 26.8721 22.5214C26.8647 22.4176 26.8199 22.32 26.746 22.2467L27.0672 21.7578C27.1081 21.7732 27.1511 21.782 27.1948 21.7838C27.2567 21.7855 27.3182 21.7725 27.3743 21.746M25.4848 22.2845V22.2065L26.857 21.6043C26.883 21.6303 26.909 21.668 26.9326 21.694L26.5901 22.1711C26.5384 22.1497 26.4829 22.1388 26.4269 22.1392C26.3709 22.1395 26.3156 22.151 26.2641 22.173C26.2126 22.195 26.1661 22.227 26.1271 22.2673C26.0882 22.3075 26.0577 22.3551 26.0374 22.4073L25.4848 22.2845ZM27.5112 21.6562C27.5327 21.6338 27.5496 21.6073 27.5608 21.5783L28.978 22.1168V22.2065L28.4135 22.3483C28.3923 22.2944 28.3602 22.2456 28.3192 22.2048C28.2782 22.164 28.2292 22.1322 28.1752 22.1113C28.1213 22.0904 28.0636 22.081 28.0058 22.0836C27.948 22.0861 27.8914 22.1007 27.8395 22.1262L27.5112 21.6562ZM27.2018 20.9477C27.1046 20.9497 27.0109 20.9851 26.9365 21.0478C26.8622 21.1106 26.8116 21.197 26.7932 21.2925C26.779 21.3523 26.779 21.4146 26.7932 21.4744L25.421 22.0625C25.4026 22.035 25.3812 22.0097 25.3572 21.9869C25.2758 21.9146 25.1699 21.876 25.0611 21.8791C24.9522 21.8822 24.8487 21.9267 24.7715 22.0035C24.6944 22.0804 24.6495 22.1838 24.646 22.2926C24.6424 22.4014 24.6806 22.5075 24.7526 22.5892C24.7668 22.5892 24.7786 22.6152 24.7927 22.6152C24.4515 23.0566 24.2419 23.5855 24.1881 24.1409V24.4479C24.1881 25.2623 24.5116 26.0432 25.0874 26.6191C25.6632 27.1949 26.4442 27.5184 27.2585 27.5184C27.3613 27.5157 27.4638 27.507 27.5656 27.4924C28.1381 27.4318 28.6814 27.2089 29.1315 26.85C29.1315 26.8641 29.1433 26.8641 29.1433 26.8759C29.2112 26.9439 29.3034 26.9821 29.3995 26.9821C29.4957 26.9821 29.5878 26.9439 29.6558 26.8759C29.7238 26.808 29.762 26.7158 29.762 26.6197C29.762 26.5236 29.7238 26.4314 29.6558 26.3634C29.6421 26.3475 29.6252 26.3346 29.6062 26.3256L30.2085 24.8754C30.2631 24.8914 30.3203 24.8961 30.3768 24.8894C30.4333 24.8827 30.4878 24.8646 30.5372 24.8363C30.5865 24.808 30.6296 24.7701 30.6639 24.7247C30.6983 24.6794 30.7231 24.6276 30.7369 24.5724C30.7508 24.5172 30.7533 24.4598 30.7444 24.4037C30.7356 24.3475 30.7155 24.2937 30.6853 24.2454C30.6552 24.1972 30.6156 24.1556 30.569 24.123C30.5223 24.0904 30.4696 24.0676 30.414 24.0559H30.3998C30.3673 24.0443 30.3327 24.0394 30.2982 24.0417C30.2715 24.0395 30.2446 24.0444 30.2203 24.0559L29.6322 22.5679C29.7213 22.5047 29.783 22.4099 29.8047 22.3028C29.8264 22.1956 29.8065 22.0843 29.7491 21.9913C29.6916 21.8984 29.6009 21.8308 29.4954 21.8023C29.3899 21.7739 29.2775 21.7867 29.1811 21.8381C29.123 21.8712 29.0748 21.9194 29.0417 21.9774L27.6246 21.4389C27.6355 21.3851 27.6355 21.3295 27.6246 21.2757C27.6136 21.2218 27.592 21.1706 27.561 21.1253C27.5299 21.0799 27.4901 21.0412 27.4438 21.0115C27.3975 20.9818 27.3458 20.9617 27.2916 20.9524C27.2656 20.9524 27.2396 20.9382 27.2136 20.9382L27.2018 20.9477Z" fill="white"/>
</g>
<defs>
<clipPath id="clip0_90_86">
<rect width="48" height="47.6646" fill="white" transform="translate(8 8)"/>
</clipPath>
</defs>
</svg>
