<svg width="64" height="64" viewBox="0 0 64 64" fill="none" xmlns="http://www.w3.org/2000/svg">
<rect width="64" height="64" fill="black"/>
<g clip-path="url(#clip0_91_697)">
<path d="M10.715 13.3801V50.6199H45.2692V46.3229H14.8328V17.677H45.2692V13.3801H10.715ZM36.5561 35.4017C36.5561 37.0727 37.0931 38.8034 37.8093 39.997C38.2271 40.6535 39.0029 41.5487 39.5997 41.9068C41.211 43.16 43.8369 43.5181 46.3434 43.3987C48.7903 43.2794 50.4016 42.3842 51.7743 41.1906C52.4904 40.2954 53.0872 39.3406 53.2066 38.2067C53.3259 37.1921 53.3259 35.163 53.0872 34.3275C52.4904 32.4774 51.1178 31.1645 48.6113 30.3887C48.0741 30.2096 47.4773 30.0903 46.8805 30.0903C45.0902 29.6725 43.8369 29.2548 43.2998 29.016C42.1062 28.5983 41.6885 27.8821 41.6885 26.8079C41.6885 25.674 42.2853 25.0175 43.5385 24.6595C44.4337 24.4208 45.8064 24.5401 46.4628 24.6595C47.7758 25.1966 48.6113 26.2111 48.7903 27.345V27.8821H53.0872L52.9678 26.9273C52.9678 25.674 52.4904 24.6595 51.7742 23.7046C50.7597 22.2126 49.208 21.1981 47.2386 20.7206C46.7611 20.6013 46.3434 20.6013 45.0902 20.6013H43.5385C40.4948 20.84 38.3464 22.4513 37.5706 25.0175C37.3915 25.674 37.3915 25.7934 37.2125 26.6289C37.2125 28.7176 37.6899 30.0903 38.8238 31.1645C40.0174 32.2984 41.5691 33.0145 44.6127 33.6113C46.6418 33.9097 47.4773 34.3275 48.0741 34.7452C48.9693 35.4017 49.208 36.834 48.7903 37.7889C48.6112 38.326 47.9548 38.9825 47.4773 39.1615C46.1644 39.8777 43.9562 39.5793 42.8223 38.9825C42.1062 38.684 41.6884 38.2067 41.211 37.5501C40.9723 37.0727 40.7933 36.1179 40.7933 35.5807V35.163H36.556L36.5561 35.4017Z" fill="white"/>
</g>
<defs>
<clipPath id="clip0_91_697">
<rect width="43" height="43" fill="white" transform="translate(10.5 10.5)"/>
</clipPath>
</defs>
</svg>
