<svg width="64" height="64" viewBox="0 0 64 64" fill="none" xmlns="http://www.w3.org/2000/svg">
<rect width="64" height="64" fill="#0BAEC8"/>
<path d="M32.2093 44.9353C25.9558 44.9353 20.8776 39.8571 20.8776 33.6036C20.8776 27.5242 31.1356 16.7874 31.5709 16.3376L32.1077 15.7717L32.6591 16.3231C33.1089 16.7729 43.541 27.5097 43.541 33.5891C43.541 39.8571 38.4628 44.9353 32.2093 44.9353ZM32.1222 17.9626C31.2227 18.9347 29.3365 21.0386 27.4648 23.5052C24.1421 27.887 22.3865 31.3692 22.3865 33.5891C22.3865 39.001 26.7973 43.4119 32.2093 43.4119C37.6212 43.4119 42.0321 39.001 42.0321 33.5891C42.0321 31.3692 40.2474 27.887 36.8668 23.5052C34.9661 21.0531 33.0363 18.9347 32.1222 17.9626Z" fill="url(#paint0_linear_90_91)"/>
<path d="M32.209 48.5627C23.9533 48.5627 17.25 41.8449 17.25 33.6037C17.25 25.5365 28.5092 14.2773 28.988 13.813C29.2782 13.5228 29.7715 13.5228 30.0617 13.813C30.3519 14.1032 30.3519 14.5965 30.0617 14.8867C29.9456 15.0028 18.7735 26.1749 18.7735 33.6037C18.7735 41.0179 24.8093 47.0537 32.2236 47.0537C39.6378 47.0537 45.6736 41.0179 45.6736 33.6037C45.6736 30.5567 43.7004 26.349 39.957 21.4014C37.0842 17.6145 34.1968 14.7416 34.1678 14.7126C33.8631 14.4224 33.8631 13.9436 34.1678 13.6389C34.458 13.3342 34.9368 13.3342 35.2415 13.6389C35.7348 14.1177 47.1971 25.522 47.1971 33.6037C47.1681 41.8449 40.4648 48.5627 32.209 48.5627Z" fill="url(#paint1_linear_90_91)"/>
<path d="M32.2091 52.19C22.1687 52.19 14 44.0213 14 33.9809C14 29.8312 16.0893 24.724 20.1955 18.8187C23.2279 14.4659 26.2023 11.361 26.3329 11.2304C26.6231 10.9257 27.1019 10.9257 27.4066 11.2159C27.7113 11.506 27.7113 11.9848 27.4211 12.2895C27.392 12.3186 24.3886 15.4526 21.4287 19.7038C17.5548 25.2608 15.509 30.194 15.509 33.9809C15.509 43.1797 22.9957 50.681 32.2091 50.681C41.4225 50.681 48.9093 43.1943 48.9093 33.9809C48.9093 30.194 46.849 25.2608 42.946 19.7038C39.9571 15.4526 36.9246 12.3186 36.8956 12.2895C36.6054 11.9848 36.6054 11.506 36.9101 11.2159C37.2148 10.9257 37.6936 10.9257 37.9838 11.2304C38.4916 11.7527 50.4182 24.1436 50.4182 33.9809C50.4182 44.0213 42.2495 52.19 32.2091 52.19Z" fill="url(#paint2_linear_90_91)"/>
<defs>
<linearGradient id="paint0_linear_90_91" x1="32.2093" y1="44.9336" x2="32.2093" y2="15.7699" gradientUnits="userSpaceOnUse">
<stop stop-color="white"/>
<stop offset="1" stop-color="#71E0EC"/>
</linearGradient>
<linearGradient id="paint1_linear_90_91" x1="32.2236" y1="48.5609" x2="32.2236" y2="13.4086" gradientUnits="userSpaceOnUse">
<stop stop-color="white"/>
<stop offset="1" stop-color="#71E0EC"/>
</linearGradient>
<linearGradient id="paint2_linear_90_91" x1="32.2091" y1="52.1882" x2="32.2091" y2="10.9982" gradientUnits="userSpaceOnUse">
<stop stop-color="white"/>
<stop offset="1" stop-color="#71E0EC"/>
</linearGradient>
</defs>
</svg>
