<svg width="64" height="64" viewBox="0 0 64 64" fill="none" xmlns="http://www.w3.org/2000/svg">
<rect width="64" height="64" fill="#2683FF"/>
<path d="M15.8915 39.922C15.6535 39.922 15.4209 39.9926 15.2231 40.1248C15.0252 40.257 14.871 40.4449 14.7799 40.6647C14.6889 40.8846 14.665 41.1265 14.7115 41.3599C14.7579 41.5933 14.8725 41.8077 15.0407 41.9759C15.209 42.1442 15.4234 42.2588 15.6568 42.3052C15.8902 42.3516 16.1321 42.3278 16.3519 42.2368C16.5718 42.1457 16.7597 41.9915 16.8919 41.7936C17.0241 41.5958 17.0947 41.3631 17.0947 41.1252C17.0947 40.9118 17.0364 40.7177 16.9394 40.5237C16.8318 40.3412 16.6787 40.1898 16.495 40.0844C16.3113 39.979 16.1033 39.9231 15.8915 39.9222M32.8899 13.745C32.8899 13.5071 32.8193 13.2745 32.6871 13.0766C32.5549 12.8787 32.367 12.7245 32.1472 12.6335C31.9273 12.5424 31.6854 12.5186 31.452 12.565C31.2186 12.6114 31.0042 12.726 30.836 12.8943C30.6677 13.0625 30.5531 13.2769 30.5067 13.5103C30.4603 13.7437 30.4841 13.9856 30.5751 14.2055C30.6662 14.4253 30.8204 14.6132 31.0183 14.7454C31.2161 14.8776 31.4488 14.9482 31.6867 14.9482C32.0053 14.9464 32.3103 14.8191 32.5355 14.5938C32.7608 14.3686 32.8881 14.0636 32.8899 13.745ZM47.5609 24.1848C47.7989 24.1848 48.0315 24.1143 48.2294 23.9821C48.4272 23.8499 48.5815 23.662 48.6725 23.4421C48.7636 23.2223 48.7874 22.9803 48.741 22.7469C48.6946 22.5136 48.58 22.2992 48.4117 22.1309C48.2434 21.9626 48.0291 21.848 47.7957 21.8016C47.5623 21.7552 47.3204 21.779 47.1005 21.8701C46.8806 21.9612 46.6927 22.1154 46.5605 22.3132C46.4283 22.5111 46.3578 22.7437 46.3578 22.9817C46.3585 23.1859 46.412 23.3864 46.5131 23.5638C46.6164 23.7514 46.7681 23.9079 46.9524 24.0171C47.1366 24.1264 47.3467 24.1843 47.5609 24.1848ZM16.4532 21.8755C15.871 21.5455 15.153 21.7398 14.8232 22.3219C14.4934 22.904 14.6875 23.6221 15.2696 23.9519C15.8517 24.2816 16.5698 24.0876 16.8995 23.5055C17.2295 22.9427 17.0353 22.2053 16.4532 21.8755ZM48.0449 40.1548C47.8703 40.0384 47.6569 39.9994 47.4435 39.9801C47.2841 39.9779 47.1259 40.0074 46.978 40.0669C46.8302 40.1264 46.6956 40.2147 46.5822 40.3266C46.4687 40.4386 46.3787 40.5719 46.3172 40.7189C46.2557 40.866 46.224 41.0238 46.224 41.1831C46.224 41.3425 46.2557 41.5003 46.3172 41.6473C46.3787 41.7944 46.4687 41.9277 46.5822 42.0396C46.6956 42.1516 46.8302 42.2398 46.978 42.2993C47.1259 42.3588 47.2841 42.3884 47.4435 42.3862C47.8703 42.3862 48.2575 42.1534 48.4913 41.7847C48.8213 41.222 48.627 40.4845 48.0449 40.1548ZM30.4836 50.1867C30.4253 50.7301 30.7553 51.2539 31.2597 51.4479C31.3761 51.4867 31.5121 51.5256 31.6284 51.5256C31.9227 51.5251 32.2076 51.4222 32.4342 51.2345C32.6608 51.0468 32.815 50.7861 32.8703 50.4971C32.9135 50.1846 32.8315 49.8677 32.6423 49.6154C32.453 49.363 32.1718 49.1956 31.8597 49.1496C31.5476 49.1035 31.23 49.1825 30.9759 49.3695C30.7218 49.5564 30.5518 49.8361 30.5029 50.1477C30.4924 50.1582 30.4856 50.1718 30.4836 50.1865" fill="white"/>
<path d="M49.2288 37.9427C49.0858 37.86 48.9366 37.7886 48.7824 37.7293V26.4939C48.9571 26.4356 49.1318 26.3386 49.3065 26.2612C51.1105 25.252 51.7704 22.9623 50.7618 21.1572C49.7531 19.3521 47.4629 18.6932 45.6578 19.7019C45.5025 19.7796 45.3667 19.8766 45.231 19.9736L35.3346 14.2493C35.3539 14.0746 35.3733 13.9193 35.3733 13.7448C35.3731 11.6687 33.6857 10 31.6287 10C29.5717 10 27.8447 11.7076 27.8447 13.7644C27.8447 13.9391 27.8641 14.0944 27.8835 14.2688L18.0647 19.9545C17.6741 19.6485 17.2267 19.423 16.7484 19.2911C16.27 19.1592 15.7703 19.1236 15.2781 19.1862C14.7859 19.2488 14.311 19.4084 13.8809 19.6558C13.4508 19.9032 13.074 20.2335 12.7725 20.6275C12.4709 21.0215 12.2505 21.4715 12.124 21.9513C11.9976 22.4311 11.9675 22.9312 12.0357 23.4226C12.1038 23.9141 12.2688 24.3872 12.5211 24.8145C12.7733 25.2417 13.1078 25.6147 13.5052 25.9118C13.641 26.0088 13.7769 26.1059 13.932 26.2029C14.0905 26.2999 14.2598 26.378 14.4365 26.4356V37.6516C12.5153 38.4278 11.5836 40.6018 12.3597 42.5221C13.1359 44.4425 15.3092 45.3746 17.2305 44.5985C17.4052 44.5402 17.5605 44.4432 17.7156 44.3657C17.8709 44.2687 18.026 44.1717 18.1813 44.0553L27.903 49.6633C27.573 51.7007 28.9703 53.6217 31.0079 53.9517C33.0455 54.2817 34.9665 52.8845 35.2963 50.8469C35.335 50.6335 35.335 50.4394 35.335 50.2258C35.3325 50.0441 35.3196 49.8627 35.2963 49.6824L44.96 44.1134C45.1153 44.2298 45.2704 44.3461 45.4451 44.4434C47.249 45.4525 49.5394 44.8121 50.549 43.0075C51.5186 41.2026 50.9364 38.9905 49.2288 37.9427ZM49.9079 42.6385C49.1124 43.9968 47.3465 44.4625 45.9882 43.667C44.9017 43.0266 44.3583 41.7653 44.6493 40.543L40.1086 37.8846C39.4078 38.5952 38.5127 39.0829 37.5356 39.2864C36.5586 39.49 35.5432 39.4003 34.617 39.0286C33.9378 39.242 32.483 39.3779 32.483 39.3779V47.3727C34.0742 47.8578 34.947 49.546 34.463 51.1371C33.979 52.7281 32.2896 53.601 30.6983 53.117C30.679 53.117 30.6596 53.0977 30.64 53.0977C30.5043 53.059 30.3877 53.0007 30.2713 52.9424C28.7771 52.2049 28.195 50.3809 28.9324 48.9063C29.3011 48.1688 29.9609 47.6257 30.7364 47.3733V39.2233C30.1665 39.0471 29.6089 38.8332 29.0675 38.5829C28.2005 38.7561 27.306 38.7364 26.4475 38.5251C25.589 38.3138 24.7875 37.9162 24.0999 37.3603L18.686 40.4843C18.8183 41.0387 18.7832 41.6198 18.5853 42.1543C18.3873 42.6887 18.0353 43.1525 17.5738 43.4869C17.1123 43.8214 16.562 44.0115 15.9925 44.0331C15.4229 44.0549 14.8597 43.9072 14.3741 43.6089C13.8885 43.3105 13.5022 42.8749 13.2642 42.357C13.0261 41.8392 12.947 41.2624 13.0367 40.6995C13.1264 40.1367 13.381 39.6131 13.7683 39.195C14.1556 38.7768 14.6581 38.4829 15.2124 38.3503C16.1439 38.1176 17.1335 38.389 17.8524 39.0488L22.917 36.1186C21.2094 33.7125 21.4811 30.4137 23.577 28.3179L17.813 25.0191C16.669 26.1056 14.8635 26.0476 13.7769 24.8833C13.5184 24.6087 13.3168 24.2857 13.1836 23.9328C13.0504 23.5799 12.9883 23.2042 13.0009 22.8273C13.0136 22.4503 13.1006 22.0796 13.2571 21.7364C13.4136 21.3932 13.6364 21.0844 13.9127 20.8277C15.0769 19.7411 16.8622 19.7992 17.9488 20.9634C18.6088 21.6619 18.8609 22.6321 18.6473 23.5636L25.0314 27.2309C25.8678 26.781 26.7987 26.535 27.7482 26.5129C28.6411 25.7759 30.9291 25.0191 30.9291 25.0191V16.2871C29.5126 15.8603 28.717 14.3661 29.1438 12.9495C29.5706 11.5329 31.066 10.7568 32.4825 11.1836C33.8991 11.6104 34.6946 13.1046 34.2678 14.5212C34.1416 14.9435 33.9124 15.3278 33.6008 15.6394C33.2891 15.9511 32.9048 16.1803 32.4825 16.3065V24.8644C32.4825 24.8644 36.6739 25.9123 37.9935 27.4839L44.7851 23.6225C44.4357 22.0702 45.3865 20.5177 46.9391 20.1685C48.4916 19.8194 50.0439 20.77 50.393 22.3225C50.7422 23.8751 49.7916 25.4274 48.239 25.7765C47.777 25.8806 47.2964 25.8696 46.8396 25.7444C46.3828 25.6191 45.9637 25.3836 45.6193 25.0584L38.9054 28.8613C39.0994 29.2688 39.2741 29.6753 39.3905 30.1032C41.4668 31.5198 42.2043 34.2363 41.0981 36.5067L45.5421 39.0875C45.9898 38.6702 46.5605 38.4088 47.169 38.3423C47.7775 38.2759 48.3911 38.408 48.9184 38.7188C50.2573 39.5143 50.7224 41.2609 49.9084 42.6385H49.9079Z" fill="white"/>
<path d="M37.3921 31.6168C37.3727 31.4615 37.3534 31.3257 37.3338 31.1704C37.3148 31.0653 37.2889 30.9616 37.2561 30.86C37.2561 30.8213 37.2368 30.7823 37.2368 30.7436C37.198 30.6272 37.1591 30.4913 37.1204 30.3749V30.3555C36.8736 29.7046 36.4973 29.1105 36.0142 28.6092C35.8979 28.4928 35.8008 28.3958 35.6649 28.2792L35.6455 28.2598C35.5291 28.1628 35.4128 28.0658 35.2768 27.9881L35.2574 27.9688C35.1411 27.8911 35.0051 27.7941 34.8887 27.736L34.8694 27.7167C34.744 27.6443 34.6144 27.5795 34.4813 27.5226L34.4426 27.5033C34.3068 27.445 34.1709 27.3869 34.0158 27.3286L33.9964 27.3092C33.8411 27.2705 33.7054 27.2122 33.55 27.1929H33.5307C33.3771 27.1575 33.2216 27.1316 33.0649 27.1152H33.0456C32.2191 26.9978 31.3763 27.0981 30.6005 27.4063L30.5035 27.4839C30.3871 27.5226 30.1931 27.6196 30.0767 27.6779C30.0161 27.7179 29.951 27.7505 29.8827 27.775C29.8244 27.7943 29.7273 27.872 29.6693 27.9107C29.6112 27.9494 29.4752 28.0464 29.3976 28.1047L29.3393 28.1435C29.2229 28.2211 29.1259 28.3181 29.0093 28.4152L28.9123 28.5122C28.7959 28.6286 28.6989 28.7256 28.6018 28.8422C28.371 28.8035 28.1374 28.784 27.9033 28.7839C27.8257 28.7839 27.7676 28.7839 27.7093 28.8032C26.8168 28.842 25.963 29.2107 25.3032 29.8124C24.9732 30.1034 24.7017 30.4724 24.4892 30.8602L24.4685 30.8998C24.4087 31.0125 24.3568 31.1293 24.3132 31.2492C24.2938 31.2879 24.2938 31.3075 24.2745 31.3462C24.2333 31.4467 24.2009 31.5506 24.1774 31.6566C24.1581 31.6953 24.1581 31.7536 24.1387 31.7924C24.1194 31.8894 24.1 31.9864 24.0804 32.1028C24.0804 32.1415 24.0611 32.1804 24.0611 32.2385C24.0449 32.3867 24.0385 32.5358 24.0417 32.6849C24.0385 32.8081 24.0449 32.9314 24.0611 33.0536C24.0611 33.0923 24.0804 33.1313 24.0804 33.1893C24.0998 33.267 24.0998 33.3447 24.1191 33.4221C24.1385 33.4995 24.1385 33.5191 24.1579 33.5774C24.1799 33.6332 24.193 33.6922 24.1966 33.7521C24.1966 33.8104 24.2353 33.8685 24.2549 33.9268C24.2707 33.9735 24.2902 34.0189 24.3132 34.0625C24.3424 34.1258 24.3683 34.1906 24.3908 34.2566C24.4102 34.2953 24.4296 34.3149 24.4296 34.3536C24.7023 34.9927 25.1626 35.534 25.7496 35.9059C26.0406 36.0806 26.3317 36.2359 26.6421 36.3327C26.7624 36.3741 26.8857 36.4065 27.0108 36.4297L27.0495 36.4491L27.3989 36.5074L27.4765 36.5267C27.6123 36.5461 27.7482 36.5461 27.9033 36.5461C28.4274 36.5461 28.9318 36.4491 29.3976 36.2357C29.5139 36.3133 29.611 36.391 29.7276 36.4684L29.7663 36.4878C29.8633 36.5461 29.9797 36.6042 30.0963 36.6625H30.1152C31.2243 37.2277 32.5043 37.3592 33.7051 37.0312H33.7245C33.8991 36.9935 34.0685 36.9348 34.229 36.8565L34.753 36.6237C35.2519 37.013 35.8665 37.2247 36.4993 37.2252C36.6351 37.2252 36.7517 37.2059 36.8874 37.2059L36.9844 37.1865C37.1088 37.168 37.2319 37.1421 37.3531 37.1088C37.4727 37.0721 37.5895 37.0267 37.7025 36.9731L37.7608 36.9537C37.8772 36.8954 37.9742 36.8374 38.0908 36.7791C38.5759 36.4686 38.9446 36.0029 39.158 35.4789C39.2357 35.3042 39.2744 35.1295 39.3133 34.9551V34.8968C39.3327 34.8191 39.3327 34.7414 39.3521 34.664C39.3521 34.567 39.3714 34.47 39.3714 34.3729C39.3714 33.0923 38.5759 31.9862 37.3914 31.6175" fill="white"/>
</svg>
