<svg width="64" height="64" viewBox="0 0 64 64" fill="none" xmlns="http://www.w3.org/2000/svg">
<rect width="64" height="64" fill="#4CA3FF"/>
<path fill-rule="evenodd" clip-rule="evenodd" d="M40.4053 28.8471C41.8651 30.7932 42.7382 33.2545 42.7382 35.9318C42.7382 38.6092 41.8386 41.1456 40.3405 43.1026L40.2106 43.2718L40.1767 43.0572C40.1473 42.8756 40.1134 42.6909 40.0735 42.5062C39.3229 39.0052 36.8781 36.0039 32.8538 33.5723C30.136 31.9346 28.5804 29.965 28.1719 27.7245C27.908 26.2763 28.1041 24.8217 28.483 23.5754C28.862 22.3307 29.4253 21.2864 29.9046 20.6586L31.4706 18.6263C31.7449 18.2693 32.2596 18.2693 32.5338 18.6263L40.4068 28.8471H40.4053ZM42.8812 26.8164L32.3878 13.1949C32.1873 12.935 31.8127 12.935 31.6122 13.1949L21.1203 26.8164L21.0864 26.8618C19.1561 29.4061 18 32.6392 18 36.1589C18 44.3552 24.2686 51 32 51C39.7315 51 46 44.3552 46 36.1589C46 32.6392 44.8439 29.4061 42.9137 26.8633L42.8797 26.8179L42.8812 26.8164ZM23.6316 28.8033L24.5694 27.5836L24.5974 27.809C24.6195 27.9875 24.6476 28.166 24.68 28.346C25.2876 31.7295 27.4567 34.5493 31.0828 36.7334C34.2355 38.6389 36.0714 40.8293 36.5993 43.2311C36.8205 44.2331 36.8588 45.2194 36.763 46.0822L36.7571 46.1354L36.7114 46.1589C35.2884 46.8963 33.6884 47.3112 31.9985 47.3112C26.0691 47.3112 21.2619 42.2165 21.2619 35.9303C21.2619 33.231 22.1481 30.7525 23.6286 28.8001L23.6316 28.8033Z" fill="white"/>
</svg>
