<svg width="64" height="64" viewBox="0 0 64 64" fill="none" xmlns="http://www.w3.org/2000/svg">
<rect width="64" height="64" fill="white"/>
<mask id="mask0_90_107" style="mask-type:luminance" maskUnits="userSpaceOnUse" x="14" y="14" width="36" height="36">
<path d="M50 14H14V50H50V14Z" fill="white"/>
</mask>
<g mask="url(#mask0_90_107)">
<path d="M21.5002 17.45L49.4002 36.5L42.5002 46.7L14.6002 27.5L21.5002 17.45Z" fill="url(#paint0_linear_90_107)"/>
<path d="M49.3999 36.5C46.9999 39.95 38.8999 38.6 31.2499 33.2C23.4499 27.95 19.2499 20.9 21.4999 17.45C23.8999 14 31.9999 15.35 39.6499 20.75C47.4499 25.85 51.6499 33.05 49.3999 36.5Z" fill="url(#paint1_linear_90_107)"/>
<path d="M42.4999 46.55C40.0999 50 32 48.65 24.35 43.25C16.7 37.85 12.35 30.95 14.75 27.35C17.15 23.9 25.25 25.25 32.9 30.65C40.5499 36.05 44.7499 43.1 42.4999 46.55Z" fill="url(#paint2_linear_90_107)"/>
<path d="M49.3998 36.5L42.4998 46.6999C40.0998 50.1499 31.9998 48.65 24.3498 43.4C22.8498 42.35 21.4998 41.2999 20.1498 40.0999C21.1998 39.95 22.5498 39.3499 23.8998 37.85C26.2998 35.3 27.4998 34.7 28.5498 34.85C29.5998 34.85 30.7998 35.8999 32.7498 38.4499C34.6998 40.9999 37.3998 41.75 39.0498 40.4C39.1998 40.25 39.3498 40.25 39.4998 40.0999C40.8498 39.05 41.2998 38.6 43.8498 33.8C44.4498 32.6 46.5498 30.65 49.3998 31.55C50.1498 33.5 50.1498 35.15 49.3998 36.5Z" fill="#0E0F23"/>
<path fill-rule="evenodd" clip-rule="evenodd" d="M48.3499 35.9C46.2499 38.9 38.8999 37.4 31.8499 32.45C24.6499 27.5 20.4499 21.2 22.5499 18.2C24.6499 15.2 31.9999 16.7 39.0499 21.65C46.0999 26.6 50.2999 32.9 48.3499 35.9ZM41.7499 31.4C40.6999 32.9 37.0999 32.15 33.4999 29.75C30.0499 27.35 27.9499 24.2 28.9999 22.7C30.0499 21.2 33.6499 21.95 37.2499 24.35C40.6999 26.75 42.7999 29.9 41.7499 31.4Z" fill="white"/>
<path d="M20.9 20.9C20.9 20.75 20.75 20.6 20.6 20.75C20.45 20.9 20.3 20.9 20.3 21.05C20.45 21.5 20.6 21.8 20.6 22.1C20.6 22.25 20.75 22.4 20.9 22.25C21.05 22.25 21.2 22.1 21.05 21.95C21.05 21.65 21.05 21.35 20.9 20.9Z" fill="white"/>
<path d="M21.65 23.3C21.65 23.15 21.5 23 21.35 23.15C21.2 23.3 21.2 23.3 21.2 23.45C22.85 27.2 26.3 31.25 30.8 34.25C30.95 34.4 31.1 34.25 31.25 34.25C31.4 34.1 31.25 33.95 31.25 33.8C26.6 30.8 23.3 26.9 21.65 23.3Z" fill="white"/>
<path d="M39.8001 38C39.6501 38 39.5001 38 39.5001 38.15C39.5001 38.3 39.5001 38.45 39.6501 38.45C40.1001 38.6 40.7001 38.75 41.1501 38.9C41.3001 38.9 41.4501 38.9 41.4501 38.75C41.4501 38.6 41.4501 38.45 41.3001 38.45C40.8501 38.3 40.2501 38.15 39.8001 38Z" fill="white"/>
<path d="M42.5001 38.6C42.3501 38.6 42.2001 38.75 42.2001 38.9C42.2001 39.05 42.3501 39.2 42.5001 39.2C43.7001 39.35 45.0501 39.5 46.1001 39.35C46.2501 39.35 46.4001 39.2 46.4001 39.05C46.4001 38.9 46.2501 38.75 46.1001 38.75C44.9001 38.9 43.7001 38.75 42.5001 38.6Z" fill="white"/>
</g>
<defs>
<linearGradient id="paint0_linear_90_107" x1="26.9665" y1="14.7414" x2="32.4994" y2="33.7407" gradientUnits="userSpaceOnUse">
<stop stop-color="#03B8FF"/>
<stop offset="1" stop-color="#FA52A0"/>
</linearGradient>
<linearGradient id="paint1_linear_90_107" x1="31.5226" y1="13.4144" x2="37.0556" y2="32.4138" gradientUnits="userSpaceOnUse">
<stop stop-color="#03B8FF"/>
<stop offset="1" stop-color="#FA52A0"/>
</linearGradient>
<linearGradient id="paint2_linear_90_107" x1="22.424" y1="16.0641" x2="27.957" y2="35.0636" gradientUnits="userSpaceOnUse">
<stop stop-color="#03B8FF"/>
<stop offset="1" stop-color="#FA52A0"/>
</linearGradient>
</defs>
</svg>
