<svg width="64" height="64" viewBox="0 0 64 64" fill="none" xmlns="http://www.w3.org/2000/svg">
<rect width="64" height="64" fill="#002868"/>
<g clip-path="url(#clip0_105_233)">
<path d="M41.582 41.1752H40.5044C40.4096 41.1752 40.3328 41.2604 40.3328 41.3564V44.9144C40.3328 45.0092 40.4096 45.086 40.5044 45.086H41.5916C42.632 45.0872 43.442 44.2664 43.442 43.1312C43.442 41.996 42.6308 41.1752 41.582 41.1752Z" fill="white"/>
<path d="M47.12 14H16.88C15.296 14 14 15.296 14 16.88V47.12C14 48.704 15.296 50 16.88 50H47.12C48.704 50 50 48.704 50 47.12V16.88C50 15.296 48.704 14 47.12 14ZM24.4112 41.0048C24.4112 41.0996 24.3248 41.1764 24.23 41.1764H22.532C22.4372 41.1764 22.3508 41.2616 22.3508 41.3576V46.1948C22.3508 46.2896 22.274 46.376 22.1792 46.376H21.0248C20.93 46.376 20.8532 46.2896 20.8532 46.1948V41.3576C20.8532 41.2628 20.7764 41.1764 20.6816 41.1764H18.974C18.878 41.1764 18.7928 41.0996 18.7928 41.0048V40.07C18.7928 39.9752 18.8792 39.8888 18.974 39.8888H24.23C24.3248 39.8888 24.4112 39.974 24.4112 40.07V41.0048ZM31.1552 43.3712C31.1552 45.3272 30.0488 46.4624 28.2932 46.4624C26.5376 46.4624 25.4504 45.3272 25.4504 43.3712V40.07C25.4504 39.9752 25.5272 39.8888 25.622 39.8888H26.7668C26.8616 39.8888 26.948 39.974 26.948 40.07V43.418C26.948 44.3816 27.4436 45.068 28.3028 45.068C29.162 45.068 29.6576 44.3816 29.6576 43.418V40.07C29.6576 39.9752 29.7344 39.8888 29.8292 39.8888H30.974C31.0688 39.8888 31.1552 39.974 31.1552 40.07V43.3712ZM34.9148 46.4528C33.56 46.4528 32.396 45.794 32.2148 44.4116C32.1956 44.2784 32.2628 44.2304 32.396 44.2304H33.446C33.5792 44.2304 33.656 44.288 33.6944 44.3924C33.8372 44.8508 34.3244 45.2036 35.03 45.2036C35.6504 45.2036 36.194 44.9744 36.194 44.4884C36.194 43.9064 35.6216 43.802 34.4768 43.658C33.1604 43.4864 32.2448 43.1048 32.2448 41.8928C32.2448 40.6808 33.2852 39.8132 34.916 39.8132C36.3848 39.8132 37.406 40.6052 37.616 41.7884C37.6448 41.9216 37.6064 42.008 37.4636 42.008H36.4124C36.26 42.0068 36.212 41.9492 36.1544 41.8352C35.954 41.3672 35.5148 41.072 34.8476 41.072C34.2464 41.072 33.7412 41.282 33.7412 41.6828C33.7412 42.122 34.2092 42.3032 35.2388 42.4268C36.8036 42.608 37.7 43.0856 37.7 44.3252C37.7 45.7184 36.4784 46.4528 34.9148 46.4528ZM41.5916 46.376H38.9972C38.9024 46.376 38.8256 46.2896 38.8256 46.1948V40.07C38.8256 39.9752 38.9024 39.8888 38.9972 39.8888H41.5916C43.5188 39.8888 45.0164 41.2148 45.0164 43.1516C45.0164 45.0884 43.538 46.376 41.5916 46.376ZM49.52 35.84C49.52 36.104 49.304 36.32 49.04 36.32H14.96C14.696 36.32 14.48 36.104 14.48 35.84V16.88C14.48 15.56 15.56 14.48 16.88 14.48H47.12C48.44 14.48 49.52 15.56 49.52 16.88V35.84Z" fill="white"/>
<path d="M39.0801 18.5072H24.9201C24.7221 18.5072 24.5601 18.6692 24.5601 18.8672V21.9872C24.5601 22.1852 24.7221 22.3472 24.9201 22.3472H30.2877V32.0672C30.2877 32.2652 30.4497 32.4272 30.6477 32.4272H33.7677C33.9657 32.4272 34.1277 32.2652 34.1277 32.0672V22.3472H39.0801C39.2781 22.3472 39.4401 22.1852 39.4401 21.9872V18.8672C39.4401 18.6692 39.2781 18.5072 39.0801 18.5072Z" fill="white"/>
</g>
<defs>
<clipPath id="clip0_105_233">
<rect width="36" height="36" fill="white" transform="translate(14 14)"/>
</clipPath>
</defs>
</svg>
