<svg width="64" height="64" viewBox="0 0 64 64" fill="none" xmlns="http://www.w3.org/2000/svg">
<rect width="64" height="64" fill="#FF4A4A"/>
<path fill-rule="evenodd" clip-rule="evenodd" d="M12.768 36.9843H23.2696C23.6928 36.9843 24.0376 36.6395 24.0376 36.2163V27.5799C24.0376 27.2508 23.7712 27 23.4577 27H21.8119C21.4828 27 21.232 27.2665 21.232 27.5799V34.1473H14.8683V27.5799C14.8683 27.2508 14.6019 27 14.2884 27H12.5956C12.2665 27 12.0157 27.2508 12 27.5799V36.2163C12 36.6395 12.3448 36.9843 12.768 36.9843ZM35.9342 37H37.627C37.9404 37 38.1912 36.7335 38.1755 36.4201V27.8307C38.1599 27.6897 38.1285 27.5329 38.0345 27.4075C37.7994 27.0627 37.3135 26.9687 36.9686 27.2038L32.2978 30.4169C32.1097 30.558 31.8433 30.558 31.6552 30.4169L26.9843 27.2038C26.8589 27.1097 26.7179 27.0627 26.5611 27.0627C26.1379 27.0627 25.7931 27.4075 25.7931 27.8307V36.4201C25.7931 36.7492 26.0596 37 26.373 37H28.0502C28.3793 37 28.6301 36.7335 28.6301 36.4201V31.9687L31.5768 33.8182C31.8276 33.9749 32.1411 33.9749 32.3918 33.8182L35.3542 31.9687V36.4201C35.3542 36.7492 35.6207 37 35.9342 37ZM40.7304 27H51.232C51.6552 27 52 27.3448 52 27.768V36.4044C52 36.7179 51.7492 36.9843 51.4357 36.9843H49.7429C49.4295 36.9843 49.163 36.7335 49.163 36.4044V30.2132C49.163 30.0094 48.9906 29.837 48.7868 29.837H43.1912C42.9875 29.837 42.815 30.0094 42.815 30.2132V36.4044C42.815 36.7179 42.5643 36.9843 42.2351 36.9843H40.5423C40.2288 36.9843 39.9624 36.7335 39.9624 36.4044V27.768C39.9624 27.3448 40.3072 27 40.7304 27ZM46.8119 31.6552H45.1348C44.8213 31.6552 44.5549 31.906 44.5549 32.2194V33.9436C44.5549 34.2727 44.8213 34.5235 45.1348 34.5235H46.8119C47.1411 34.5235 47.3919 34.2571 47.3919 33.9436V32.2351C47.3919 31.906 47.1254 31.6552 46.8119 31.6552Z" fill="white"/>
</svg>
