<svg width="64" height="64" viewBox="0 0 64 64" fill="none" xmlns="http://www.w3.org/2000/svg">
<rect width="64" height="64" fill="#FA8A07"/>
<g clip-path="url(#clip0_91_681)">
<path d="M10.7457 31.8883C10.7457 20.2497 20.4446 10.5508 32.1386 10.7171C43.7772 10.8834 53.2544 20.028 53.2544 31.8883C53.2544 43.7486 43.7772 53.0595 31.8615 53.2812C20.2229 53.5029 10.7457 43.5269 10.7457 31.8883ZM12.6855 31.8883C12.6855 42.5847 21.2205 51.0643 31.8615 51.3414C42.6134 51.6185 51.3146 42.8064 51.3146 31.8883C51.3146 21.1918 42.7796 12.6569 32.1386 12.6569C21.2205 12.6569 12.6855 21.0256 12.6855 31.8883ZM13.8494 31.334C13.8494 27.6208 15.1795 23.6858 17.9506 20.2497C18.2831 20.028 18.5048 19.4737 19.059 20.028C19.6687 20.4713 19.8904 20.8039 19.2807 21.6352C16.7313 24.6834 15.5674 28.3967 15.5674 32.3316C15.8445 35.9895 17.0084 39.2594 19.2807 42.1414C19.6687 42.5847 19.8904 42.9173 19.2807 43.5269C18.7265 44.0811 18.5048 44.0811 17.9506 43.5269C15.1795 40.0353 13.8494 36.322 13.8494 31.334ZM20.0566 44.6907C20.4446 44.3582 20.8325 43.9703 21.6639 44.5245C23.5482 46.2426 26.0422 47.4064 28.7579 48.0161C33.8567 48.9582 38.3459 47.9606 42.2254 44.6907C42.9459 44.0811 43.7772 44.3582 44.1652 45.0787C44.1652 45.245 43.9435 45.6883 43.7772 45.8546C40.2856 48.6257 36.4061 50.1775 31.8615 50.1775C27.6494 50.1775 23.7699 48.792 20.4445 45.8546C20.0566 45.6883 19.5024 45.245 20.0566 44.6907ZM20.2229 19.3075C19.6687 18.8641 19.6687 18.4762 20.2229 17.8665C23.7699 15.2062 27.6494 13.6545 31.8615 13.6545C36.4061 13.6545 40.2856 15.2062 43.5001 17.8665C43.9434 18.3099 44.4977 18.4762 43.9434 19.0304C43.5001 19.4737 43.223 20.028 42.3362 19.3075C40.2302 17.5894 37.9579 16.3701 35.2422 15.9268C30.1434 14.8183 25.7096 15.9268 21.6639 19.3075C21.2205 19.4737 20.8325 19.8617 20.2229 19.3075H20.2229ZM24.3241 25.5148C24.3241 24.6834 24.7675 24.5726 25.3217 24.5726H27.6494C28.2037 24.5726 28.647 24.2955 28.647 23.575V22.4111C28.4253 21.4135 28.7579 21.0256 29.5892 21.0256C30.5868 21.0256 30.6976 21.4135 30.6976 22.1894V23.6859C30.9193 23.9629 31.141 24.2955 31.5844 24.2955C31.8615 24.5726 32.3049 24.1292 32.3049 23.6859V22.1894C32.1386 21.1918 32.6928 21.1918 33.4687 21.1918C34.023 21.0256 34.4663 21.4135 34.4663 22.1894C34.4663 22.7437 34.2446 23.6858 34.5772 24.1292C35.0205 24.6834 35.7964 24.6834 36.5169 24.8497C39.676 25.8473 40.2856 28.6184 38.1242 31.5003C39.288 31.8883 40.2857 32.6642 40.4519 34.0498C41.0615 36.5438 39.8423 38.8714 37.5146 39.7028C36.794 39.869 36.1844 40.0353 35.4085 40.0353C34.5772 40.0353 34.4663 40.4233 34.4663 41.1992V42.1413C34.4663 43.3606 34.2446 43.5269 33.0254 43.5269C32.4711 43.5269 32.3049 43.1389 32.3049 42.5847V40.8666C32.1386 40.5895 31.6952 40.257 31.5844 40.257C31.141 40.0353 30.6976 40.4232 30.6976 41.0329V42.5847C30.6976 43.3606 30.3651 43.5268 29.5892 43.5268C28.7579 43.5268 28.4253 43.1389 28.6471 42.363V41.4209C28.6471 40.0353 28.6471 40.0353 27.206 40.0353H25.488C24.7675 40.0353 24.5458 39.869 24.5458 38.8714C24.7675 37.9293 24.8783 37.3196 26.0422 37.3196C26.6518 37.5413 27.0398 37.1533 27.0398 36.5437V28.0087C27.0398 27.0666 26.4855 26.8449 25.4879 26.8449C24.3241 26.8449 24.3241 26.6232 24.3241 25.5148ZM30.6976 36.7654C30.6976 36.9317 31.141 37.3196 31.3073 37.3196C32.6928 37.3196 34.023 37.1534 35.2422 36.7654C35.7965 36.7654 36.1844 35.7678 36.1844 35.2136C36.1844 34.7703 35.7964 34.0498 35.2423 33.6064C34.5772 33.4401 33.635 33.2738 32.8591 33.2738C30.3651 33.0522 30.6976 33.0522 30.6976 35.3244V36.7654ZM30.6976 28.7846C30.6976 30.9461 30.6976 30.9461 32.6928 30.9461C34.4663 30.7244 35.4085 30.1148 35.4085 28.9509C35.4085 27.7871 34.4663 27.0666 32.6928 27.0666C30.6976 26.8449 30.6976 26.8449 30.6976 28.7847V28.7846ZM44.4977 42.363C46.2712 40.257 47.435 37.7076 48.0447 35.0474C49.1532 30.1148 47.8785 25.681 44.7194 21.6352C44.3314 21.1918 43.9435 20.8039 44.4977 20.2497C45.1073 19.64 45.4953 19.64 45.8833 20.2497C48.7652 23.6858 50.1508 27.6208 50.1508 31.8883C50.1508 36.322 48.5989 40.257 45.8833 43.5269C45.717 43.9702 45.2736 44.3582 44.9411 43.9702C44.3314 43.5269 43.9435 43.1389 44.4977 42.363Z" fill="white"/>
</g>
<defs>
<clipPath id="clip0_91_681">
<rect width="43" height="43" fill="white" transform="translate(10.5 10.5)"/>
</clipPath>
</defs>
</svg>
