<svg width="64" height="64" viewBox="0 0 64 64" fill="none" xmlns="http://www.w3.org/2000/svg">
<rect width="64" height="64" fill="white"/>
<g clip-path="url(#clip0_91_712)">
<path d="M32.0096 54L31.7789 53.8846C22.7789 48.6154 15.9712 39.9231 13.2019 29.5385C12.7596 27.9038 12.4327 26.2308 12.2019 24.5385C11.9904 22.8461 11.875 21.1346 11.8558 19.4231C11.8558 19.1346 11.8173 19.1731 12.0866 19.0385C15.4712 17.1154 19.0481 15.7115 22.8366 14.8269C24.2404 14.5 25.6442 14.25 27.0673 14.0769C29.0289 13.8461 30.9904 13.75 32.9712 13.7885C34.0866 13.8077 35.1827 13.8846 36.2789 14C41.7981 14.5961 46.9712 16.25 51.8173 18.9615C51.8942 19 51.9519 19.0385 52.0289 19.0769C52.1058 19.1154 52.1442 19.1731 52.1442 19.2692V19.5577C52.125 20.5577 52.0866 21.5385 52.0096 22.5385C51.8942 23.9615 51.7019 25.3654 51.4327 26.7692C50.8558 29.7885 49.9519 32.6923 48.7019 35.4808C46.7212 39.9231 44.0096 43.8846 40.5865 47.3461C38.125 49.8461 35.375 52 32.3366 53.7885C32.2212 53.8654 32.125 53.9231 32.0096 54ZM13.7019 20.4038V20.6346C13.7019 22.0385 13.7981 23.4615 13.9712 24.8461C14.125 26.1154 14.3366 27.3654 14.625 28.6154C14.6827 28.8269 14.7404 29.0385 14.8366 29.25C16.5673 32.9231 20.5673 34.8846 24.5289 33.9808C27.5481 33.2885 30.0096 30.9615 30.8366 27.9808C31.0673 27.1538 31.1442 26.3077 31.1827 25.4615C31.2019 24.9038 31.2596 24.3461 31.3558 23.7885C32.0096 20.4038 34.2596 17.6154 37.4327 16.2885C37.6058 16.2115 37.7981 16.1538 37.9712 16.0769C37.9904 16.0577 38.0289 16.0577 38.0289 16.0192C37.5289 15.8461 34.5481 15.5385 32.7596 15.5C28.9135 15.4231 25.1442 15.9231 21.4712 17.0385C18.7404 17.8654 16.1635 18.9808 13.7019 20.4038ZM42.0673 43.4423C42.1635 43.3846 42.2212 43.3077 42.2596 43.25C43.0289 42.2885 43.7596 41.2885 44.4327 40.25C46.8365 36.5192 48.5289 32.5 49.4712 28.1538C49.7981 26.6731 50.0096 25.1923 50.1442 23.6923C50.2404 22.6731 50.2789 21.6538 50.2789 20.6154C50.2789 20.5385 50.2789 20.4808 50.2596 20.4038L49.9712 20.2308C49.1827 19.7885 48.375 19.3654 47.5673 18.9808C46.375 18.4231 45.1827 17.9231 43.9327 17.5192C42.4135 17.0385 40.875 16.9808 39.3365 17.3654C34.9327 18.4231 32.1058 22.75 32.9519 27.1923C33.4135 29.6538 34.7404 31.5769 36.8558 32.9231C36.9904 33.0192 37.1442 33.0961 37.2789 33.1923C38.8365 34.1346 40.0481 35.4231 40.9135 37.0192C41.8366 38.6923 42.2404 40.5 42.125 42.4038C42.1442 42.7308 42.1058 43.0769 42.0673 43.4423ZM32.0096 52.0385C32.0866 52 32.1827 51.9423 32.2596 51.8846C34.6827 50.4615 36.9135 48.7692 38.9519 46.8461C39.0865 46.7308 39.1827 46.5769 39.2596 46.4231C39.3942 46.1731 39.5289 45.9038 39.6442 45.6538C40.6058 43.6538 40.8173 41.5769 40.1827 39.4231C38.9327 35.2692 34.9327 32.8846 30.9135 33.3846C29.7596 33.5192 28.7019 33.8846 27.7019 34.4615C25.7981 35.5385 23.7596 35.9808 21.5673 35.7692C20.4904 35.6731 19.4712 35.3846 18.4904 34.9615C17.7212 34.6154 16.9904 34.1923 16.3366 33.6731C16.2981 33.6346 16.2404 33.6154 16.1442 33.5577C16.1635 33.6538 16.1827 33.7115 16.2019 33.75C17.0673 35.9423 18.125 38.0192 19.375 40C20.7404 42.1346 22.2981 44.1154 24.0673 45.9231C25.8366 47.7308 27.7789 49.3461 29.875 50.75C30.8366 51.3654 31.7404 51.9231 32.0096 52.0385Z" fill="black"/>
<path d="M13.702 20.4038C16.1635 18.9808 18.7404 17.8654 21.452 17.0577C25.1443 15.9615 28.8943 15.4423 32.7404 15.5192C34.5289 15.5577 37.5097 15.8462 38.0097 16.0385C38.0289 16.0769 37.9904 16.0962 37.952 16.0962C37.7789 16.1731 37.5866 16.2308 37.4135 16.3077C34.2404 17.6346 31.9904 20.4231 31.3366 23.8077C31.2404 24.3654 31.1827 24.9231 31.1635 25.4808C31.1443 26.3269 31.0674 27.1731 30.8174 28C29.9712 30.9808 27.5289 33.3077 24.5097 34C20.5481 34.9038 16.5481 32.9423 14.8174 29.2692C14.7212 29.0577 14.6443 28.8462 14.6058 28.6346C14.3174 27.3846 14.1058 26.1346 13.952 24.8654C13.7789 23.4615 13.6827 22.0577 13.6827 20.6538C13.702 20.5577 13.702 20.5 13.702 20.4038Z" fill="#F7A800"/>
<path d="M42.0674 43.4423C42.1058 43.0769 42.1443 42.75 42.1635 42.4039C42.2597 40.5 41.8558 38.6923 40.952 37.0192C40.0866 35.4231 38.8751 34.1539 37.3174 33.1923C37.1828 33.0962 37.0289 33.0192 36.8943 32.9231C34.7597 31.5769 33.452 29.6731 32.9904 27.1923C32.1635 22.7308 34.9712 18.4231 39.3751 17.3654C40.9328 17 42.452 17.0385 43.9712 17.5192C45.2212 17.9039 46.4135 18.4231 47.6058 18.9808C48.4328 19.3654 49.2212 19.7885 50.0097 20.2308C50.1058 20.2885 50.1828 20.3269 50.2981 20.4039C50.2981 20.4808 50.3174 20.5385 50.3174 20.6154C50.3174 21.6346 50.2597 22.6731 50.1828 23.6923C50.0481 25.1923 49.8174 26.6923 49.5097 28.1539C48.5674 32.5 46.8943 36.5192 44.4712 40.25C43.7981 41.2885 43.0674 42.2885 42.2981 43.25C42.2212 43.3077 42.1828 43.3846 42.0674 43.4423Z" fill="#67B2E8"/>
<path d="M32.0096 52.0384C31.7211 51.9231 30.8365 51.3846 29.8942 50.75C27.7981 49.3461 25.8558 47.7307 24.0865 45.9231C22.3173 44.1154 20.7404 42.1346 19.3942 40C18.125 38.0192 17.0673 35.9423 16.2211 33.75C16.2019 33.6923 16.1827 33.6538 16.1635 33.5577C16.2596 33.6154 16.2981 33.6346 16.3558 33.6731C17.0288 34.1923 17.7404 34.6346 18.5096 34.9615C19.4904 35.3846 20.5096 35.6731 21.5865 35.7692C23.7596 35.9807 25.7981 35.5384 27.7211 34.4615C28.7211 33.9038 29.7981 33.5384 30.9327 33.3846C34.9519 32.8846 38.9519 35.2692 40.2019 39.4231C40.8365 41.5577 40.6442 43.6346 39.6635 45.6538C39.5288 45.9231 39.4135 46.1731 39.2788 46.4231C39.2019 46.5769 39.1058 46.7307 38.9711 46.8461C36.9327 48.7692 34.7019 50.4615 32.2788 51.8846C32.1827 51.9423 32.0865 52 32.0096 52.0384Z" fill="#00C4B3"/>
</g>
<defs>
<clipPath id="clip0_91_712">
<rect width="40.2901" height="40" fill="white" transform="translate(11.855 14)"/>
</clipPath>
</defs>
</svg>
