<svg width="64" height="64" viewBox="0 0 64 64" fill="none" xmlns="http://www.w3.org/2000/svg">
<rect width="64" height="64" fill="black"/>
<path d="M40.4151 20.4581C39.5149 20.8886 38.693 21.3583 37.8319 21.7497C37.7928 21.7889 37.5971 21.7497 37.5188 21.6714C36.5012 21.1626 35.4052 20.7712 34.3094 20.5364C32.1567 20.1058 30.1214 20.2624 28.0861 21.0452C24.7592 22.2585 22.4109 24.5678 21.1584 27.8946C20.4539 29.5776 20.2973 31.3389 20.4147 33.1002C20.4539 33.2568 20.4539 33.335 20.5322 33.4916C29.9648 28.6774 39.4367 23.9024 48.8302 19.049V21.7888C48.8302 21.9454 48.8302 21.9845 48.7127 22.0628C45.7773 23.5501 42.8418 24.9982 39.9455 26.4856C36.3838 28.3251 32.822 30.1647 29.2212 31.9651C26.5597 33.335 23.8982 34.6657 21.1975 36.0748L15.4049 39.0103C15.3658 39.0886 15.2875 39.0886 15.2483 39.1277V37.4838C15.2483 37.0925 15.1701 36.7402 15.2483 36.3879C15.2483 36.2705 15.2875 36.1922 15.3658 36.1531C15.7572 35.9183 16.2268 35.6834 16.6574 35.4877C17.4402 34.9398 17.8316 34.157 17.8316 33.2568V31.0258C17.9099 29.3819 18.3795 27.6989 19.0449 26.1333C20.1799 23.7067 21.902 21.6715 24.0939 20.1841C25.8552 19.0099 27.7339 18.2663 29.8083 17.9531C31.4913 17.6792 33.1352 17.6792 34.8182 18.0314C36.8143 18.462 38.6538 19.2056 40.2977 20.4189C40.3368 20.4189 40.3368 20.4581 40.4151 20.4581ZM15.17 42.2198C15.17 42.0632 15.2483 42.0241 15.3657 41.9066C18.8101 40.1845 22.2935 38.4232 25.6595 36.6619C29.4169 34.7441 33.1352 32.9045 36.8534 30.9867C39.6715 29.5385 42.4896 28.0903 45.3076 26.6813L48.6736 24.9591C48.7127 24.92 48.791 24.92 48.8302 24.8809V27.5424C48.8302 27.7381 48.8302 27.8163 48.7127 27.8163C48.2822 28.0512 47.8517 28.2469 47.4603 28.4817C46.5209 29.0688 46.1687 29.969 46.247 31.1041C46.3644 32.8654 46.1687 34.5484 45.6207 36.1922C44.9553 38.3841 43.8203 40.3019 42.2156 41.9066C41.0022 43.2374 39.4758 44.255 37.9102 44.9595C35.7575 45.938 33.5266 46.3686 31.2173 46.212C28.4775 46.0163 26.0117 45.1552 23.7808 43.5896C23.7416 43.5896 23.7416 43.5113 23.7025 43.4722C24.0547 43.3157 24.4462 43.12 24.7593 42.9243C25.2289 42.7286 25.6986 42.4546 26.2074 42.2589C26.2857 42.2198 26.4031 42.2198 26.4814 42.2589C27.773 42.9243 29.1429 43.3939 30.6694 43.5113C31.961 43.7071 33.2526 43.6679 34.5051 43.3548C36.3446 42.9243 37.9102 42.2198 39.3192 41.0847C41.2762 39.48 42.607 37.4447 43.3115 35.0572C43.6246 33.8439 43.7028 32.5523 43.6246 31.3389C43.6246 31.0258 43.6246 30.791 43.5854 30.4387L15.2483 44.9204V44.6073C15.2483 43.8245 15.2483 43.0025 15.17 42.2198Z" fill="white"/>
</svg>
