<svg width="64" height="64" viewBox="0 0 64 64" fill="none" xmlns="http://www.w3.org/2000/svg">
<rect width="64" height="64" fill="black"/>
<path d="M47.8399 45.0627C46.4544 45.0627 44.9565 45.175 43.4961 45.0627C43.2714 45.0627 42.9719 44.9504 42.8595 44.7257C40.5378 42.5163 38.291 40.307 36.0068 38.0976C33.6851 35.7759 30.3149 35.7759 27.8434 38.0976C25.6341 40.307 23.4247 42.5163 21.103 44.7257C20.8783 44.9504 20.4664 45.0627 20.1668 45.0627C18.7813 45.175 17.5081 45.0627 16.16 45.0627V44.838C18.5566 42.5163 20.9907 40.2321 23.4247 37.7606C24.0613 37.1614 24.7728 36.4125 25.4468 35.7759C29.2289 32.0687 34.6961 32.0687 38.5157 35.7759C41.474 38.7342 44.4697 41.6925 47.428 44.5385C47.5029 44.7257 47.7276 44.838 47.8399 44.9504V45.0627ZM16.16 18.9623V18.8875H20.4664C20.6536 18.8875 20.9907 19.0747 21.103 19.187C23.3498 21.3964 25.5217 23.6432 27.731 25.7402C30.3149 28.2491 33.6851 28.2491 36.194 25.7402C38.4034 23.6432 40.5378 21.3964 42.7472 19.2994C43.0842 19.0747 43.3838 18.8875 43.7208 18.8875H47.8399C47.6153 19.0747 47.5029 19.2994 47.428 19.4117C44.3574 22.37 41.2493 25.4032 38.2161 28.3615C34.6961 31.7317 29.1166 31.7317 25.6341 28.3615C22.4885 25.2159 19.3055 22.1453 16.16 18.9623Z" fill="white"/>
</svg>
