<svg width="64" height="64" viewBox="0 0 64 64" fill="none" xmlns="http://www.w3.org/2000/svg">
<rect width="64" height="64" fill="#046EE3"/>
<g clip-path="url(#clip0_91_685)">
<path d="M31.2126 34.7182C31.3645 34.8701 31.6175 35.1231 31.8199 35.3761C32.6296 34.8701 33.2369 34.7182 34.0467 34.364C37.9434 32.694 41.6883 34.1109 42.5486 38.2101C43.1559 40.4368 43.1559 42.866 42.7005 45.0421C41.6883 50.457 36.9313 52.3295 32.2248 49.2931C32.3766 48.8376 32.8827 48.4327 33.0345 48.0785C33.8948 46.8133 33.8948 45.5482 33.0345 44.3842C32.0223 43.1696 30.6054 43.1696 29.3402 43.7263C27.9232 44.3842 27.7208 45.5482 27.7208 46.8133C28.1762 48.8376 29.1884 50.457 30.8078 51.7728C35.7166 55.1635 44.7247 52.5319 46.9514 47.0664C49.6336 40.6393 46.7996 33.7061 40.9798 31.6312C39.8158 31.1758 38.6013 31.1758 37.2855 31.0745C40.6256 27.532 43.915 24.192 47.2551 20.7507C46.5972 19.5361 45.5851 19.1313 43.915 19.1313H27.7208V15.5888C27.7208 10.7811 27.5689 10.5281 22.6094 10.7811C22.154 10.7811 21.6985 10.7811 20.9394 10.9329C23.3686 13.4127 23.1661 16.2467 22.8119 19.1313H16.0305C16.233 20.1434 16.233 20.7507 16.233 21.7628H22.9637V34.8701C22.9637 38.0077 24.1783 40.0826 26.7086 40.6393C29.7451 41.4996 32.8827 41.8538 35.0588 39.2223C35.7167 38.7668 36.1721 38.2101 36.2734 37.4004C36.2734 36.9955 36.1721 36.3883 35.9191 35.3761C34.5021 36.5401 33.6418 37.5522 32.6296 38.2101C30.3524 39.6271 28.1762 38.5644 27.9232 35.8822C27.7208 31.1758 27.9232 26.5199 27.9232 21.7628H41.2835C37.7916 26.2668 34.5021 30.6191 31.2126 34.7182Z" fill="white"/>
</g>
<defs>
<clipPath id="clip0_91_685">
<rect width="43" height="43" fill="white" transform="translate(10.5 10.5)"/>
</clipPath>
</defs>
</svg>
