<svg width="64" height="64" viewBox="0 0 64 64" fill="none" xmlns="http://www.w3.org/2000/svg">
<rect width="64" height="64" fill="#046EE3"/>
<path fill-rule="evenodd" clip-rule="evenodd" d="M30.0732 18.631H33.1493V45.369H30.0732V18.631Z" fill="white"/>
<path fill-rule="evenodd" clip-rule="evenodd" d="M28.3578 31.231V28.0366C25.9325 26.8535 24.217 24.3099 24.217 21.4113C24.217 17.3296 27.5297 14.0169 31.6113 14.0169C36.2254 14.0169 39.5381 17.3296 39.5381 21.4113C39.5381 22.4169 39.3015 23.4225 38.8282 24.6056L37.5268 20.3465L34.924 21.1746L37.2311 29.9887L46.2226 26.6761L45.0987 24.0732L41.7268 25.1972C42.3184 23.8958 42.4367 22.8901 42.4367 21.3521C42.4367 15.6141 37.8226 11 31.5522 11C25.8142 11 21.2001 15.6141 21.2001 21.3521C21.2592 25.9662 24.217 29.8704 28.3578 31.231Z" fill="white"/>
<path fill-rule="evenodd" clip-rule="evenodd" d="M34.8648 32.769V35.9634C37.2901 37.1465 39.0056 39.6901 39.0056 42.5887C39.0056 46.6704 35.693 49.9831 31.6113 49.9831C26.9972 49.9831 23.6845 46.6704 23.6845 42.5887C23.6845 41.5831 23.9211 40.5775 24.3944 39.3944L25.6958 43.6535L28.2986 42.8254L25.9916 34.0113L17 37.3239L18.1239 39.9268L21.4958 38.8028C20.9042 40.1042 20.7859 41.1099 20.7859 42.6479C20.7859 48.3859 25.4 53 31.6704 53C37.4085 53 42.0225 48.3859 42.0225 42.6479C41.9634 38.0338 39.0056 34.1296 34.8648 32.769Z" fill="white"/>
</svg>
