<svg width="64" height="64" viewBox="0 0 64 64" fill="none" xmlns="http://www.w3.org/2000/svg">
<rect width="64" height="64" fill="#E8307A"/>
<path d="M17.2559 33.4348V30.1307H46.1509V33.4348H17.2559Z" fill="white"/>
<path d="M30.8433 35.3177H27.3943C25.4481 39.2917 20.6413 40.9301 16.6764 38.9748C13.9335 37.626 12.1955 34.8379 12.1955 31.7873C12.1955 26.8175 15.7802 23.2328 20.2068 23.2328C21.3202 23.2328 22.3793 23.4591 23.6467 24.0113L19.0571 25.4235L19.9443 28.2569L29.5035 25.7494L25.9188 16L23.1216 17.1859L24.3618 20.8158C22.9315 20.155 21.8905 20.0283 20.2068 20.0283C14.015 20.0283 9 25.0433 9 31.7873C9 37.9791 14.024 43.0031 20.2158 43.0031C25.0407 42.9941 29.3225 39.9072 30.8433 35.3177Z" fill="white"/>
<path d="M32.5542 28.2569H36.0122C37.9584 24.2829 42.7562 22.6444 46.7302 24.5997C49.473 25.9485 51.2111 28.7366 51.2111 31.7873C51.2111 36.757 47.6263 40.3417 43.1997 40.3417C42.0863 40.3417 41.0272 40.1154 39.7599 39.5632L44.3494 38.1511L43.4623 35.3177L33.912 37.8252L37.4968 47.5655L40.2849 46.3796L39.0447 42.7496C40.475 43.4105 41.516 43.5372 43.1997 43.5372C49.3915 43.5372 54.4065 38.5131 54.4065 31.7782C54.4065 25.5864 49.3825 20.5624 43.1907 20.5714C38.3658 20.5805 34.075 23.6673 32.5542 28.2569Z" fill="white"/>
</svg>
