<svg width="64" height="64" viewBox="0 0 64 64" fill="none" xmlns="http://www.w3.org/2000/svg">
<rect width="64" height="64" fill="black"/>
<g clip-path="url(#clip0_90_92)">
<path d="M31.9957 12.521H32H32.0043C33.3373 13.209 35.9388 14.5248 38.9703 15.9223C42.1867 17.4058 45.8718 19.1387 47.5832 19.9471C47.7079 23.0044 47.8111 32.2064 44.9258 38.2264C43.2574 41.7051 41.0988 44.814 38.6779 47.2048C36.5107 49.3548 34.2102 50.8684 32 51.6037C29.7898 50.8727 27.4893 49.3548 25.3221 47.2091C22.9055 44.814 20.7426 41.7051 19.0742 38.2307C16.1932 32.2236 16.2921 23.0087 16.4168 19.9514C18.1282 19.143 21.8133 17.4101 25.0297 15.9266C28.0612 14.5291 30.6584 13.2133 31.9957 12.5253V12.521ZM32.0043 10.5L31.8753 10.5688C30.9981 11.0289 27.9709 12.5984 24.2772 14.3012C19.8783 16.3265 14.6753 18.7904 14.6753 18.7904C14.6753 18.7904 13.7164 31.2174 17.4488 39.009C21.0909 46.6028 26.625 51.8832 31.8022 53.4398C31.8022 53.4398 31.9355 53.5172 32 53.5C32.0645 53.5172 32.1978 53.4398 32.1978 53.4398C37.375 51.8832 42.9134 46.6028 46.5512 39.009C50.2836 31.2174 49.3247 18.7904 49.3247 18.7904C49.3247 18.7904 44.1303 16.3265 39.7271 14.3012C36.0377 12.5898 33.0062 11.0203 32.129 10.5602L32.0043 10.5Z" fill="white"/>
<path d="M46.0137 20.949C46.0137 20.949 41.8083 18.8979 38.2522 17.2123C35.2637 15.7933 32.817 14.4861 32.1075 14.1034L32.0043 14.0475L31.9011 14.1034C31.1916 14.4861 28.7449 15.7933 25.7564 17.2123C22.196 18.9022 17.9906 20.949 17.9906 20.949C17.9906 20.949 17.2123 31.2948 20.2352 37.7835C23.1807 44.1088 27.657 48.5077 31.8409 49.7977C31.8409 49.7977 31.9484 49.8622 32 49.845C32.0516 49.8622 32.1591 49.7977 32.1591 49.7977C36.3473 48.5034 40.8236 44.1045 43.7691 37.7792C46.792 31.2948 46.0137 20.949 46.0137 20.949ZM42.1351 37.0267C41.6922 37.9813 41.1977 38.9144 40.6516 39.8174C40.1442 39.8174 39.1939 39.8518 39.1939 39.8518L36.6397 43.9884L37.0439 44.5216C35.397 46.1728 33.6684 47.3596 32.0043 47.9573C30.3273 47.3553 28.5815 46.1599 26.9217 44.4786L27.2915 43.9884L24.733 39.8518C24.733 39.8518 23.873 39.8217 23.3527 39.8174C22.8109 38.9144 22.3164 37.9813 21.8692 37.0267C19.6117 32.1806 19.6418 24.776 19.7407 22.0928C21.1898 21.3919 24.0321 20.0073 26.5304 18.8291C27.958 18.1497 29.2695 17.4961 30.3273 16.9543L32 19.3021L33.6727 16.9543C34.7305 17.4961 36.042 18.154 37.4739 18.8291C39.9722 20.0159 42.8145 21.3919 44.2636 22.0971C44.3625 24.776 44.3969 32.1677 42.1351 37.0267Z" fill="white"/>
<path d="M22.0154 20.9877H29.7898L33.5652 28.9126L36.5236 23.615C36.5236 23.615 36.6053 21.9939 36.1968 21.5596C35.7883 21.1253 35.5174 20.992 35.5174 20.992H41.417L35.2207 33.1309L35.3282 40.7591L36.7128 43.1929L27.6914 43.3262L29.6221 41.1633V32.946L24.1095 23.4215C24.1095 23.4215 23.4817 21.637 22.0154 20.9877Z" fill="white"/>
</g>
<defs>
<clipPath id="clip0_90_92">
<rect width="43" height="43" fill="white" transform="translate(10.5 10.5)"/>
</clipPath>
</defs>
</svg>
