<svg width="64" height="64" viewBox="0 0 64 64" fill="none" xmlns="http://www.w3.org/2000/svg">
<rect width="64" height="64" fill="#49C1BF"/>
<path d="M46.5309 28.687L40.7155 31.2799L25.2878 39.1326L40.7155 46.5501V34.2895L46.5309 31.6688V49.7819L40.7155 52.3748L18 41.5032V35.7248L33.724 28.011L18 20.4546V14.5929L23.9081 12L46.5309 22.8901V28.687Z" fill="#49C1BF"/>
<path d="M18 14.5929L40.7155 25.483L46.5309 22.8901L23.9081 12L18 14.5929Z" fill="#077A8F"/>
<path d="M40.7153 25.4584L46.5308 22.8655V28.6625L40.7153 31.2554V25.4584Z" fill="#298E97"/>
<path d="M18 14.5981V20.4598L33.724 28.0162L18 35.73V41.5085L40.7155 52.38V46.5646L25.2878 39.1378L40.7155 31.2851V25.4882L18 14.5981Z" fill="white"/>
<path d="M40.7153 52.3368L46.5308 49.7439V31.6308L40.7153 34.2515V52.3368Z" fill="#298E97"/>
</svg>
