<svg width="64" height="64" viewBox="0 0 64 64" fill="none" xmlns="http://www.w3.org/2000/svg">
<rect width="64" height="64" fill="black"/>
<path d="M44.0028 39.6114C45.5931 41.7453 47.2332 43.9288 48.8732 46.1124C45.5931 49.9832 41.5179 52.4645 36.5977 53.5066C31.1309 54.648 25.9623 53.8043 20.9428 51.0253C25.4156 47.7004 29.7891 44.4251 34.2122 41.1498C35.2062 42.0927 36.1505 43.0356 37.0947 43.9288C38.1384 44.9214 37.7408 44.971 39.0827 44.2266C40.9215 43.1845 42.4621 41.7453 43.6549 40.0084C43.7046 39.9092 43.804 39.8099 43.8537 39.7107C43.804 39.7107 43.8537 39.7107 44.0028 39.6114ZM24.4714 43.9785C23.2289 44.9214 22.0859 45.765 20.9428 46.6583C20.0979 47.3034 19.2531 47.8989 18.4082 48.544C18.0603 48.8418 17.8118 48.8418 17.4142 48.4944C13.6371 45.1199 11.2516 40.9513 10.3571 35.9887C9.46249 30.9766 10.2577 26.2125 12.6432 21.6966C12.6929 21.5973 12.7923 21.4484 12.842 21.3492C12.842 21.2996 12.8917 21.2996 12.9911 21.2499C16.2712 25.5674 19.6009 29.8848 22.881 34.2022C22.7816 34.3511 22.7319 34.4503 22.6325 34.5496C21.6386 35.5917 20.6446 36.6339 19.6009 37.6264C19.3028 37.9241 19.2531 38.1723 19.4518 38.5196C20.4955 40.5047 21.9368 42.1423 23.7259 43.4822C23.9744 43.6311 24.1732 43.78 24.4714 43.9785ZM43.0088 13.1609C41.4185 14.3023 39.8281 15.4437 38.2378 16.5355C35.5044 18.4709 32.771 20.4559 30.0873 22.3913C29.7394 22.6394 29.4909 22.6891 29.1927 22.3417C28.2981 21.3988 27.3539 20.5552 26.4593 19.6123C26.2108 19.3642 25.9623 19.3145 25.6144 19.4634C23.4774 20.5552 21.7877 22.0936 20.3961 24.029C20.2967 24.1282 20.1973 24.2771 20.0979 24.426C19.3028 23.3838 18.5573 22.4409 17.8118 21.4484C17.0166 20.4063 16.2712 19.3642 15.5257 18.3716C15.2772 18.0243 15.2275 17.7761 15.5754 17.4288C19.4021 13.2106 24.1235 10.7293 29.7891 10.1338C34.2619 9.63753 38.536 10.5308 42.5118 12.6647C42.6609 12.7639 42.81 12.8136 42.9591 12.9128C42.9591 13.0617 42.9591 13.1113 43.0088 13.1609ZM51.1096 42.9363C50.066 41.5964 49.1217 40.3558 48.1774 39.1152C45.9907 36.2369 43.804 33.309 41.5676 30.4307C41.2694 30.0337 41.2694 29.7855 41.6173 29.4382C42.5615 28.4953 43.4561 27.5524 44.4004 26.6095C44.6489 26.3614 44.7483 26.1132 44.5495 25.7659C43.4561 23.6816 41.9652 21.9447 40.0269 20.5552C39.8778 20.4559 39.7287 20.307 39.5299 20.2078C39.679 20.0589 39.8281 19.9597 39.9275 19.8604C41.8161 18.4213 43.7046 17.0317 45.5931 15.5926C45.8913 15.3445 46.1398 15.2452 46.4877 15.5926C51.209 19.8604 53.7436 25.1704 53.9921 31.5721C54.0915 35.294 53.2467 38.8174 51.5569 42.1423C51.4078 42.3408 51.2587 42.589 51.1096 42.9363Z" fill="white"/>
</svg>
