<svg width="64" height="64" viewBox="0 0 64 64" fill="none" xmlns="http://www.w3.org/2000/svg">
<rect width="64" height="64" fill="url(#paint0_linear_90_110)"></rect>
<path d="M46.1897 45.1732L35.3691 19.0124C34.7588 17.6598 33.8515 17 32.6557 17H31.699C30.5031 17 29.5959 17.6598 28.9856 19.0124L24.2763 30.4103H20.7134C19.6495 30.4186 18.7835 31.2763 18.7753 32.3485V32.3732C18.7835 33.4371 19.6495 34.3031 20.7134 34.3113H22.6268L18.132 45.1732C18.0495 45.4124 18 45.6598 18 45.9155C18 46.5258 18.1897 47.0041 18.5278 47.3753C18.866 47.7464 19.3526 47.9278 19.9629 47.9278C20.367 47.9196 20.7546 47.7959 21.0763 47.5567C21.4227 47.3175 21.6619 46.9711 21.8515 46.5753L26.8 34.3031H30.2309C31.2948 34.2948 32.1608 33.4371 32.1691 32.3649V32.3155C32.1608 31.2515 31.2948 30.3856 30.2309 30.3773H28.4L32.1773 20.967L42.4701 46.567C42.6598 46.9629 42.899 47.3093 43.2454 47.5485C43.567 47.7876 43.9629 47.9113 44.3588 47.9196C44.9691 47.9196 45.4474 47.7381 45.7938 47.367C46.1402 46.9959 46.3217 46.5175 46.3217 45.9072C46.3299 45.6598 46.2887 45.4041 46.1897 45.1732Z" fill="white"></path>
<defs>
<linearGradient id="paint0_linear_90_110" x1="55.8587" y1="11.9247" x2="8.24274" y2="51.9887" gradientUnits="userSpaceOnUse">
<stop stop-color="#B6509E"></stop>
<stop offset="1" stop-color="#2EBAC6"></stop>
</linearGradient>
</defs>
</svg>