<svg width="64" height="64" viewBox="0 0 64 64" fill="none" xmlns="http://www.w3.org/2000/svg">
<rect width="64" height="64" fill="#0981D5"></rect>
<path d="M46.1104 20.7804C46.3775 19.9129 46.676 19.0473 47 18.2085C45.3446 17.1016 43.5261 16.2131 41.584 15.5792L41.4308 12.2968C41.4308 12.1168 41.2266 12 41.0204 12C40.8259 12 40.7788 12.0402 40.712 12.1053C40.6453 12.1704 38.1945 14.7653 38.1945 14.7653L37.9412 15.0564C37.8273 15.0506 37.7114 15.0411 37.5956 15.0353C37.4817 15.0296 37.3658 15.0238 37.2499 15.02C37.1714 15.0162 37.0909 15.0143 37.0084 15.0104H36.9004C36.7826 15.0066 36.6647 15.0047 36.5469 15.0047C35.7771 15.0047 35.0172 15.0506 34.2749 15.1387C31.9733 15.4145 29.8053 16.0963 27.8455 17.1093C27.6 17.2357 27.3585 17.3698 27.1209 17.5057C26.4022 17.9175 25.7188 18.3771 25.0707 18.8731C24.8508 19.0377 24.6407 19.2082 24.4325 19.3844C24.3284 19.4744 24.2224 19.5605 24.1203 19.6506C20.3341 22.9712 17.9541 27.7837 17.9541 33.1439V37.5446L19.798 38.5826L17.9541 39.6186V46.3174C17.9541 47.2634 17.5849 47.9969 17.1018 48.5522C16.8053 48.8874 16.4695 49.1593 16.1513 49.3738C15.8685 49.5634 16.008 50 16.3556 50H42.2222C42.2418 50 42.2575 49.9962 42.2772 49.9962C42.2889 49.9923 42.3027 49.9923 42.3145 49.9904C42.3204 49.9904 42.3243 49.9904 42.3302 49.9866C42.3459 49.9866 42.3616 49.9828 42.3754 49.977C42.3871 49.9732 42.397 49.9713 42.4107 49.9674C42.4303 49.9617 42.448 49.9521 42.4676 49.9425C42.4794 49.9368 42.4971 49.9272 42.5089 49.9215C42.5717 49.8851 42.6228 49.8353 42.664 49.7798C42.6758 49.7683 42.6856 49.751 42.6935 49.7357C42.7033 49.7204 42.7131 49.7051 42.719 49.6898C42.719 49.6898 42.7229 49.6859 42.7229 49.684C42.7288 49.6725 42.7347 49.6591 42.7386 49.6438C42.7504 49.6151 42.7583 49.5844 42.7642 49.55C42.7642 49.5404 42.7681 49.5289 42.7681 49.5155C42.772 49.481 42.772 49.4466 42.7681 49.414C42.7622 49.3604 42.7485 49.3048 42.7229 49.2551C42.717 49.2397 42.7072 49.2206 42.6974 49.2053C42.6876 49.1899 42.6758 49.1746 42.6621 49.1593C42.6522 49.144 42.6365 49.1287 42.6247 49.1133C42.609 49.098 42.5953 49.0846 42.5776 49.0693C42.4853 48.9927 42.393 48.918 42.3007 48.8395C42.1809 48.7342 42.0553 48.6327 41.9355 48.5273C41.9099 48.5024 41.8844 48.4814 41.8589 48.4565C41.7352 48.3512 41.6134 48.242 41.4936 48.1309L41.4897 48.1348V48.1309C41.2933 47.9509 41.095 47.7709 40.9025 47.5851C40.8397 47.5239 40.7749 47.4607 40.7081 47.3994C40.6001 47.2941 40.496 47.1887 40.39 47.0834C40.2407 46.9379 40.0935 46.7885 39.9521 46.641C39.8401 46.5261 39.7302 46.4093 39.6241 46.2906C39.5986 46.2657 39.577 46.2408 39.5534 46.2159C39.4415 46.0991 39.3315 45.9765 39.2235 45.8559C39.037 45.6452 38.8524 45.4346 38.6697 45.2182C38.5716 45.1071 38.4793 44.9922 38.383 44.8773C38.2043 44.6609 38.0276 44.4426 37.8548 44.2204C37.7409 44.0711 37.625 43.9236 37.5151 43.7704C37.5092 43.7647 37.5052 43.7608 37.5033 43.7551C37.407 43.6287 37.3128 43.4985 37.2205 43.3682C37.1891 43.328 37.1577 43.2821 37.1243 43.238C37.028 43.1021 36.9338 42.9661 36.8376 42.8282C36.8277 42.8167 36.8218 42.8033 36.812 42.7918C36.7138 42.6463 36.6156 42.5007 36.5155 42.3514C36.4193 42.2058 36.325 42.0564 36.2288 41.909C36.2131 41.8879 36.1993 41.8649 36.1876 41.8439C36.0953 41.7022 36.0069 41.5547 35.9205 41.4092C35.8989 41.3747 35.8792 41.3402 35.8576 41.3077C35.785 41.1832 35.7123 41.0625 35.6377 40.9361C35.6161 40.8998 35.5925 40.8615 35.5749 40.8212C35.4924 40.6814 35.4119 40.5397 35.3294 40.3942C35.2724 40.2889 35.2155 40.1835 35.1585 40.0782C35.1173 40.0016 35.0761 39.9269 35.0387 39.8484C34.807 39.406 34.5851 38.956 34.377 38.5002C34.3455 38.4294 34.3141 38.3585 34.2807 38.2896C34.1983 38.1 34.1158 37.9142 34.0353 37.7246C34.0038 37.65 33.9724 37.5753 33.943 37.5044C33.9017 37.4048 33.8605 37.3052 33.8232 37.2095C33.7878 37.1195 33.7564 37.0333 33.7211 36.9452C33.6897 36.861 33.6543 36.7748 33.6229 36.6886C33.5875 36.5986 33.5561 36.5124 33.5267 36.4243C33.4952 36.3382 33.4638 36.2481 33.4304 36.1601C33.3106 35.8096 33.1928 35.4592 33.0868 35.103C33.0573 35.0129 33.0318 34.9268 33.0043 34.8368C32.9375 34.6108 32.8747 34.381 32.8138 34.1512C32.7824 34.021 32.747 33.8946 32.7156 33.7643C32.694 33.6743 32.6744 33.5882 32.6528 33.4982C32.6332 33.412 32.6155 33.322 32.5958 33.2339C32.5291 32.9217 32.478 32.6115 32.4368 32.3032C32.4269 32.2381 32.4211 32.173 32.4112 32.1117C32.3857 31.901 32.3661 31.6942 32.3504 31.4855C32.3445 31.4165 32.3405 31.3495 32.3386 31.2806L32.3288 31.0756C32.3229 30.9895 32.3229 30.8956 32.3189 30.8056C32.2993 30.0741 32.3386 29.3215 32.4211 28.5095V28.5057C32.4368 28.3601 32.4525 28.2088 32.4721 28.0556C32.4839 27.9407 32.4976 27.8239 32.5134 27.7052V27.7014C32.5192 27.642 32.5703 27.6113 32.6174 27.6113C32.6685 27.6113 32.7196 27.642 32.7254 27.7052C32.9415 29.9553 33.2439 31.6387 33.8821 33.5633C34.6067 35.7522 35.624 37.8319 36.8866 39.7507C37.3501 40.4612 37.8489 41.1525 38.3811 41.8151C40.117 41.5183 43.4024 40.6183 45.1384 39.8561C45.1285 39.8254 45.1227 39.7948 45.1128 39.7622C45.0873 39.6569 45.0618 39.5573 45.0402 39.4558C44.9184 38.956 44.8242 38.5002 44.7417 38.0732C44.6435 37.5274 44.5708 37.0257 44.5198 36.5258C44.3902 35.2619 44.3961 34.0305 44.3961 32.2055C44.3961 28.2356 44.993 24.3998 46.1124 20.7804H46.1104Z" fill="white"></path>
</svg>