<svg width="64" height="64" viewBox="0 0 64 64" fill="none" xmlns="http://www.w3.org/2000/svg">
<rect width="64" height="64" fill="black"></rect>
<path d="M21.2619 48.5L26.0344 40.2354L30.8069 32L35.5503 23.7354L36.336 22.4259L36.6852 23.7354L38.1402 29.1772L36.5106 32L31.7381 40.2354L26.9947 48.5H32.6984L37.4709 40.2354L39.9445 35.9577L41.1085 40.2354L43.3201 48.5H48.4418L46.2302 40.2354L44.0185 32L43.4365 29.8757L46.9868 23.7354H41.8069L41.6323 23.1243L39.8281 16.373L39.5953 15.5H34.6191L34.5027 15.6746L29.8466 23.7354L25.0741 32L20.3307 40.2354L15.5582 48.5H21.2619Z" fill="white"></path>
</svg>