<svg width="64" height="64" viewBox="0 0 64 64" fill="none" xmlns="http://www.w3.org/2000/svg">
<rect width="64" height="64" fill="#2359E3"></rect>
<path fill-rule="evenodd" clip-rule="evenodd" d="M34.6 12.6L47.7 19.3C49.6 20.3 50.7999 22.2 50.7999 24.4V27.5H46V24.4C46 24.1 45.7999 23.8 45.5 23.6L32.4 16.9C32.2 16.8 31.9 16.8 31.6 16.9L18.5 23.6C18.2 23.7 18 24 18 24.4V27.5H13.2V24.4C13.2 22.3 14.4 20.3 16.3 19.3L29.4 12.6C31 11.8 32.9 11.8 34.6 12.6ZM36.1 31.8C36.1 29.5 34.2 27.7 32 27.7C29.7 27.7 27.9 29.5 27.9 31.8C27.9 34.1 29.7999 35.9 32 35.9C34.2 35.9 36.1 34.1 36.1 31.8ZM45.4 40.4C45.7 40.3 45.9 40 45.9 39.6V36.5H50.7V39.6C50.7 41.7 49.5 43.7 47.6 44.7L34.5 51.4C33.7 51.8 32.8 52 31.9 52C31 52 30.1 51.8 29.3 51.4L16.3 44.7C14.4 43.7 13.2 41.8 13.2 39.6V36.5H18V39.6C18 39.9 18.2 40.2 18.5 40.4L29.6 46V40.4C25.8 39.3 23.1 35.9 23.1 31.8C23.1 26.9 27.1 22.8 32.1 22.8C37 22.8 41.1 26.8 41.1 31.8C41.1 35.9 38.3 39.4 34.6 40.4V46L45.4 40.4Z" fill="white" fill-opacity="0.9"></path>
</svg>