<svg width="64" height="64" viewBox="0 0 64 64" fill="none" xmlns="http://www.w3.org/2000/svg">
<rect width="64" height="64" fill="#3D415A"></rect>
<path d="M31.9925 12C29.5238 12 27.522 20.9543 27.522 32C27.522 43.0457 29.5238 52 31.9925 52C34.4613 52 36.4631 43.0457 36.4631 32C36.4631 20.9543 34.4613 12 31.9925 12ZM32.3012 50.8713C32.0189 51.2478 31.7366 50.9653 31.7366 50.9653C30.5996 49.648 30.0312 47.2007 30.0312 47.2007C28.0425 40.8008 28.5159 27.0596 28.5159 27.0596C29.4504 16.1505 31.1505 13.5735 31.7291 13.0014C31.7881 12.943 31.8659 12.9073 31.9487 12.9006C32.0315 12.8939 32.114 12.9166 32.1817 12.9648C33.0212 13.5596 33.7252 16.0472 33.7252 16.0472C35.8042 23.7648 35.616 31.0118 35.616 31.0118C35.8042 37.3177 34.5742 44.3764 34.5742 44.3764C33.6273 49.7409 32.3012 50.8713 32.3012 50.8713Z" fill="#6F7390"></path>
<path d="M49.3403 22.0469C48.1111 19.9048 39.3488 22.6247 29.7631 28.1214C20.1774 33.618 13.4158 39.8108 14.644 41.952C15.8723 44.0932 24.6355 41.3742 34.2212 35.8776C43.8069 30.381 50.5685 24.1882 49.3403 22.0469ZM15.7781 41.6581C15.3075 41.5989 15.4138 41.2121 15.4138 41.2121C15.991 39.5707 17.828 37.8596 17.828 37.8596C22.3917 32.9496 34.5471 26.5223 34.5471 26.5223C44.4736 21.9039 47.5569 22.0987 48.3391 22.3141C48.4194 22.3365 48.4891 22.3866 48.536 22.4555C48.5829 22.5244 48.6039 22.6077 48.5952 22.6906C48.5012 23.7152 46.6893 25.5632 46.6893 25.5632C41.0335 31.2092 34.6534 34.653 34.6534 34.653C29.2773 37.9555 22.5424 40.3997 22.5424 40.3997C17.4178 42.2464 15.7782 41.6581 15.7782 41.6581H15.7781Z" fill="#6F7390"></path>
<path d="M49.2969 42.0234C50.5356 39.8869 43.791 33.6657 34.239 28.1278C24.687 22.5898 15.9257 19.8362 14.6881 21.9763C13.4506 24.1165 20.1941 30.334 29.7516 35.8719C39.3091 41.4099 48.0594 44.1637 49.2969 42.0234ZM15.5089 22.8019C15.326 22.3681 15.7122 22.2636 15.7122 22.2636C17.4222 21.9407 19.8241 22.6765 19.8241 22.6765C26.3587 24.1646 38.0108 31.4634 38.0108 31.4634C46.9821 37.7411 48.358 40.5062 48.5642 41.2911C48.5851 41.3716 48.577 41.457 48.5412 41.532C48.5053 41.6071 48.4441 41.6672 48.3684 41.7015C47.4329 42.1298 44.9274 41.4917 44.9274 41.4917C37.205 39.4211 31.029 35.6273 31.029 35.6273C25.4799 32.6344 19.9928 28.0292 19.9928 28.0292C15.8234 24.5186 15.5102 22.8066 15.5102 22.8066L15.5089 22.8019Z" fill="#6F7390"></path>
<path d="M31.9455 34.3057C33.245 34.3057 34.2984 33.2523 34.2984 31.9528C34.2984 30.6533 33.245 29.5999 31.9455 29.5999C30.646 29.5999 29.5926 30.6533 29.5926 31.9528C29.5926 33.2523 30.646 34.3057 31.9455 34.3057Z" fill="#B7B9C8"></path>
<path d="M41.5925 24.3292C42.3462 24.3292 42.9572 23.6972 42.9572 22.9175C42.9572 22.1378 42.3462 21.5057 41.5925 21.5057C40.8388 21.5057 40.2278 22.1378 40.2278 22.9175C40.2278 23.6972 40.8388 24.3292 41.5925 24.3292Z" fill="#B7B9C8"></path>
<path d="M19.1925 29.1293C19.9463 29.1293 20.5573 28.4972 20.5573 27.7175C20.5573 26.9378 19.9463 26.3058 19.1925 26.3058C18.4388 26.3058 17.8278 26.9378 17.8278 27.7175C17.8278 28.4972 18.4388 29.1293 19.1925 29.1293Z" fill="#B7B9C8"></path>
<path d="M29.169 46.4469C29.9227 46.4469 30.5338 45.8148 30.5338 45.0351C30.5338 44.2554 29.9227 43.6234 29.169 43.6234C28.4153 43.6234 27.8043 44.2554 27.8043 45.0351C27.8043 45.8148 28.4153 46.4469 29.169 46.4469Z" fill="#B7B9C8"></path>
</svg>