<svg width="64" height="64" viewBox="0 0 64 64" fill="none" xmlns="http://www.w3.org/2000/svg">
<rect width="64" height="64" fill="#891CCA"></rect>
<g clip-path="url(#clip0_90_103)">
<path d="M32.1088 14.165C33.4241 16.4137 34.8242 18.62 36.1395 20.9112C40.0854 27.7846 44.0737 34.5308 48.0196 41.4467C48.6984 42.6347 49.5046 43.8227 50.1834 45.0107C50.9472 46.326 50.6502 46.8351 49.1227 46.8351H25.2777C23.7503 46.8351 23.4533 46.326 24.1746 45.0107C25.108 43.3135 26.1687 41.7437 27.0598 40.0465C27.4416 39.3253 27.9083 39.1131 28.7145 39.1555C31.0481 39.2828 33.4241 39.198 35.7577 39.198C37.1578 39.198 37.5397 38.5191 36.8184 37.3311C35.5031 35.1672 34.3151 32.9609 33.0422 30.7546C32.1937 29.2696 31.5148 29.2696 30.6662 30.7122C29.4782 32.7064 28.375 34.743 27.2719 36.7371C26.8476 37.5008 26.3809 37.7978 25.5747 37.7554C23.7079 37.6705 21.8835 37.7554 20.0166 37.7554C18.3194 37.7554 18.0224 37.2038 18.871 35.8037C22.4775 29.8212 25.999 23.8388 29.4782 17.7715C30.1571 16.5834 30.9208 15.3954 31.6845 14.165H32.1088Z" fill="white"></path>
</g>
<defs>
<clipPath id="clip0_90_103">
<rect width="33" height="33" fill="white" transform="translate(18 14)"></rect>
</clipPath>
</defs>
</svg>