<svg width="64" height="64" viewBox="0 0 64 64" fill="none" xmlns="http://www.w3.org/2000/svg">
<rect width="64" height="64" fill="#E84142"></rect>
<path fill-rule="evenodd" clip-rule="evenodd" d="M22.6143 47H16.173C14.8195 47 14.1509 47 13.7432 46.7393C13.3029 46.4538 13.0339 45.9809 13.0013 45.4589C12.9768 44.9781 13.3111 44.3908 13.9797 43.2167L29.884 15.1831C30.5608 13.9927 30.9032 13.3975 31.3353 13.1773C31.8001 12.9409 32.3546 12.9409 32.8193 13.1773C33.2515 13.3975 33.5939 13.9927 34.2706 15.1831L37.5402 20.8906L37.5569 20.9197C38.2878 22.1968 38.6585 22.8444 38.8203 23.5242C38.9997 24.2661 38.9997 25.0489 38.8203 25.7909C38.6573 26.4757 38.2904 27.1281 37.5484 28.4245L29.1942 43.1923L29.1726 43.2301C28.4368 44.5177 28.064 45.1703 27.5472 45.6627C26.9846 46.201 26.3078 46.5921 25.5659 46.8126C24.8891 47 24.1309 47 22.6143 47ZM38.8807 47H48.1103C49.4719 47 50.157 47 50.5649 46.7313C51.005 46.4458 51.2822 45.9645 51.3069 45.443C51.3303 44.9776 51.0033 44.4133 50.3625 43.3074C50.3404 43.2697 50.3183 43.2314 50.2957 43.1924L45.6725 35.2835L45.6199 35.1945C44.9703 34.0959 44.6423 33.5411 44.2212 33.3267C43.7567 33.0902 43.21 33.0902 42.7455 33.3267C42.3214 33.5468 41.979 34.1257 41.3023 35.2917L36.6955 43.2006L36.6797 43.2278C36.0054 44.3919 35.6683 44.9737 35.6926 45.451C35.7253 45.9729 35.9943 46.4538 36.4346 46.7393C36.8341 47 37.519 47 38.8807 47Z" fill="white"></path>
</svg>