<svg width="64" height="64" viewBox="0 0 64 64" fill="none" xmlns="http://www.w3.org/2000/svg">
<rect width="64" height="64" fill="#1E1E1E"></rect>
<path d="M31.528 45.8976C21.2944 45.8976 13 42.9408 13 38.9792C13 36.912 15.2592 35.0496 18.8752 33.7376C21.6976 35.5488 26.4336 36.4768 31.8032 36.4768C37.0448 36.4768 41.6784 35.344 44.5264 33.6096C47.9376 34.9088 50.056 36.72 50.056 38.7168C50.056 42.6848 41.7616 45.8976 31.528 45.8976Z" fill="white"></path>
<path d="M31.6368 35.5872C23.88 35.5872 17.5888 33.1552 17.5888 30.1536C17.5888 28.4896 19.528 26.9984 22.568 26.0064C24.7376 27.1392 27.9888 27.8624 31.6368 27.8624C35.2848 27.8624 38.536 27.1392 40.7056 26.0064C43.752 27.0048 45.6848 28.4896 45.6848 30.1536C45.6912 33.1552 39.4 35.5872 31.6368 35.5872Z" fill="white"></path>
<path d="M31.5856 26.96C25.5888 26.96 20.7248 24.9504 20.7248 22.48C20.7248 20.0096 25.5888 18 31.5856 18C37.5824 18 42.4464 20.0096 42.4464 22.48C42.4464 24.9504 37.5824 26.96 31.5856 26.96Z" fill="white"></path>
</svg>