<svg width="64" height="64" viewBox="0 0 64 64" fill="none" xmlns="http://www.w3.org/2000/svg">
<rect width="64" height="64" fill="#F3BA2F"></rect>
<g clip-path="url(#clip0_90_128)">
<path d="M45.8894 27.6198C47.4326 29.0269 48.8397 30.5702 50.2468 32.0226C44.3007 38.1049 37.9915 44.1872 31.9092 50.3149C30.5475 48.9078 29.1404 47.3191 27.5517 45.9574C33.634 39.8298 39.7617 33.7475 45.8894 27.6198ZM13.7531 31.7957C15.1602 30.434 16.5673 29.0269 18.1559 27.6198C19.563 29.0269 20.9248 30.5702 22.3319 32.0226L18.1559 36.1985C16.7488 34.9276 15.1602 33.4298 13.7531 31.7957ZM20.7886 24.9872L32.0908 13.685C33.4524 15.1375 34.8595 16.6354 36.2667 17.9971C32.59 21.8552 28.7773 25.7134 25.1006 29.39C23.7389 27.9375 22.1503 26.4396 20.7886 24.9872H20.7886ZM21.061 39.6482C20.5617 39.1489 20.5617 38.7858 21.061 38.2865C26.3262 33.0212 31.7277 27.6198 36.9929 22.3999C37.4468 21.7191 38.2184 20.9928 38.7178 20.312C40.4426 22.0368 42.0766 23.4439 43.3929 24.8056C37.3106 30.9333 31.0468 37.2425 24.9191 43.3248C24.6014 43.0071 24.0567 42.4624 23.5574 41.9177C22.695 41.1915 21.9233 40.3291 21.0609 39.6482H21.061Z" fill="white"></path>
</g>
<defs>
<clipPath id="clip0_90_128">
<rect width="37" height="37" fill="white" transform="translate(13.5 13.5)"></rect>
</clipPath>
</defs>
</svg>