<svg width="64" height="64" viewBox="0 0 64 64" fill="none" xmlns="http://www.w3.org/2000/svg">
<rect width="64" height="64" fill="white"></rect>
<path fill-rule="evenodd" clip-rule="evenodd" d="M21.7 21C21.2 18.4 23.2 16 25.8 16C28.1 16 30 17.9 30 20.2V25.4C30.6 25.4 31.2 25.3 31.8 25.3C32.4 25.3 32.9 25.3 33.5 25.4V20.2C33.5 17.9 35.4 16 37.7 16C40.3 16 42.3 18.4 41.9 21L40.8 27.1C44.7 28.8 47.7 31.8 47.7 35.5V37.8C47.7 40.9 45.7 43.5 42.8 45.2C39.9 47 36.1 48 31.8 48C27.5 48 23.7 47 20.8 45.2C18 43.5 16 40.9 16 37.8V35.5C16 31.8 18.9 28.8 22.8 27.1L21.7 21ZM39.3 27.9L40.6 20.7C40.9 18.9 39.6 17.2 37.7 17.2C36.1 17.2 34.8 18.5 34.8 20.1V26.7C34.4 26.6 33.9 26.6 33.5 26.6C32.9 26.6 32.4 26.5 31.8 26.5C31.2 26.5 30.6 26.5 30 26.6C29.6 26.6 29.1 26.7 28.7 26.7V20.2C28.7 18.6 27.4 17.3 25.8 17.3C24 17.3 22.6 19 23 20.8L24.3 28C20.1 29.6 17.3 32.4 17.3 35.6V37.9C17.3 42.8 23.8 46.8 31.8 46.8C39.8 46.8 46.3 42.8 46.3 37.9V35.6C46.4 32.3 43.6 29.5 39.3 27.9Z" fill="#633001"></path>
<path d="M46.4 37.8C46.4 42.7 39.9 46.7 31.9 46.7C23.9 46.7 17.4 42.7 17.4 37.8V35.5H46.5V37.8H46.4Z" fill="#FEDC90"></path>
<path fill-rule="evenodd" clip-rule="evenodd" d="M23 20.8C22.6 19 24 17.3 25.8 17.3C27.4 17.3 28.7 18.6 28.7 20.2V26.8C29.7 26.7 30.7 26.6 31.8 26.6C32.8 26.6 33.8 26.7 34.8 26.8V20.2C34.8 18.6 36.1 17.3 37.7 17.3C39.5 17.3 40.9 19 40.6 20.8L39.3 28C43.5 29.6 46.4 32.4 46.4 35.6C46.4 40.5 39.9 44.5 31.9 44.5C23.9 44.5 17.4 40.5 17.4 35.6C17.4 32.4 20.2 29.6 24.4 28L23 20.8Z" fill="#D1884F"></path>
<path d="M27.8 34.9C27.8 36.2 27.1 37.3 26.2 37.3C25.3 37.3 24.6 36.2 24.6 34.9C24.6 33.6 25.3 32.5 26.2 32.5C27.1 32.5 27.8 33.6 27.8 34.9Z" fill="#633001"></path>
<path d="M38.9 34.9C38.9 36.2 38.2 37.3 37.3 37.3C36.4 37.3 35.7 36.2 35.7 34.9C35.7 33.6 36.4 32.5 37.3 32.5C38.2 32.5 38.9 33.6 38.9 34.9Z" fill="#633001"></path>
</svg>