<svg width="64" height="64" viewBox="0 0 64 64" fill="none" xmlns="http://www.w3.org/2000/svg">
<rect width="64" height="64" fill="white"></rect>
<path d="M28.6053 47.1053C34.5214 47.1053 39.3158 42.3109 39.3158 36.3948C39.3158 30.4786 34.5214 25.6842 28.6053 25.6842C22.6892 25.6842 17.8947 30.4786 17.8947 36.3948C17.8947 42.3109 22.6892 47.1053 28.6053 47.1053ZM28.6053 51C20.5393 51 14 44.4608 14 36.3948C14 28.3288 20.5393 21.7895 28.6053 21.7895C36.6713 21.7895 43.2105 28.3288 43.2105 36.3948C43.2105 44.4608 36.6713 51 28.6053 51Z" fill="#FBCC5C"></path>
<path d="M36.3946 39.3158C42.3107 39.3158 47.1052 34.5214 47.1052 28.6053C47.1052 22.6892 42.3107 17.8947 36.3946 17.8947C30.4785 17.8947 25.6841 22.6892 25.6841 28.6053C25.6841 34.5214 30.4785 39.3158 36.3946 39.3158ZM36.3946 43.2105C28.3286 43.2105 21.7894 36.6713 21.7894 28.6053C21.7894 20.5393 28.3286 14 36.3946 14C44.4606 14 50.9999 20.5393 50.9999 28.6053C50.9999 36.6713 44.4606 43.2105 36.3946 43.2105Z" fill="#35D07F"></path>
<path d="M36.8776 43.2105C37.8902 41.9837 38.6146 40.5465 39.0002 39.0003C40.5425 38.6148 41.9797 37.8903 43.2104 36.8777C43.1559 38.6654 42.7703 40.4258 42.0732 42.0772C40.4257 42.7704 38.6653 43.156 36.8776 43.2105ZM25.9996 25.9997C24.4573 26.3853 23.0201 27.1097 21.7894 28.1223C21.8439 26.3346 22.2295 24.5742 22.9266 22.9268C24.5741 22.2335 26.3384 21.8479 28.1222 21.7895C27.1096 23.0163 26.3852 24.4535 25.9996 25.9997Z" fill="#5EA33B"></path>
</svg>