<svg width="64" height="64" viewBox="0 0 64 64" fill="none" xmlns="http://www.w3.org/2000/svg">
<rect width="64" height="64" fill="#E84142"></rect>
<path d="M44.5938 16.6323H20.1065C19.6937 15.6693 18.96 15.2566 17.8595 15.2566C16.5755 15.2566 15.6125 16.2196 15.6125 17.5035C15.6125 18.7417 16.5755 19.7505 17.8595 19.8881C17.997 19.8881 18.1346 19.8881 18.1346 20.0256C18.4098 20.4383 18.5473 20.8511 18.8224 21.3096C20.3816 24.6572 22.0783 28.0505 23.6374 31.4439C23.7749 31.5815 23.7749 31.7191 23.6374 31.8566C23.0412 32.5444 22.9037 33.4157 23.3164 34.2412C23.7749 35.1124 24.4628 35.5251 25.4258 35.5251C25.6092 35.5251 25.7468 35.6627 25.7468 35.8003C27.7186 39.7439 29.6904 43.6876 31.5247 47.7688C31.6623 47.9064 31.6623 47.9064 31.5247 48.0439C31.2037 48.4567 31.0661 48.8694 31.0661 49.3279C30.9286 50.2909 31.5247 51.2998 32.6252 51.7124C33.6341 51.9876 34.5971 51.7124 35.2849 50.8412C35.8811 50.0158 35.8811 48.7318 35.1473 47.9064C35.0098 47.9064 35.0098 47.7688 35.0098 47.6312L40.0999 35.8003C40.2374 35.6627 40.2374 35.5251 40.375 35.5251C42.0717 35.25 42.7595 33.4158 41.9341 31.9942V31.5815L46.7032 20.4383C46.8407 20.0256 46.9783 19.8881 47.391 19.7505C48.5374 19.7505 49.3629 18.7417 49.3629 17.6411C49.5463 16.4947 48.675 15.5317 47.712 15.2566C46.5656 14.9814 45.4192 15.5317 45.0065 16.3571C44.8689 16.6323 44.7313 16.6323 44.5938 16.6323H44.5938ZM20.1065 20.0256C23.9125 22.6853 27.581 25.2533 31.3413 27.9129C31.0661 28.0505 30.791 28.3257 30.5159 28.4632C29.3694 29.3345 28.1313 30.1599 26.9849 31.1687C26.8473 31.3064 26.7098 31.1687 26.5722 31.1687C26.1595 31.0312 25.8844 31.0312 25.4258 30.8478C25.2882 30.8478 25.2882 30.8478 25.1506 30.7102C23.775 27.6378 22.2158 24.5196 20.6567 21.3096C20.5191 20.8511 20.244 20.4383 20.1064 20.0256H20.1065ZM20.7943 18.329H44.4562C44.3186 18.4665 44.3186 18.6041 44.181 18.6041C40.5125 21.3096 36.844 23.9693 33.1755 26.629C32.9003 26.7666 32.7628 26.7666 32.6252 26.629C28.6816 23.9693 24.8755 21.3096 21.0694 18.6041C20.9319 18.6041 20.9319 18.4665 20.7943 18.329ZM27.2601 34.9748V34.6538C27.7186 34.1036 27.8562 33.5533 27.8562 32.8196C27.7186 32.682 27.8562 32.5444 27.9938 32.5444C29.5529 31.4439 31.0661 30.1599 32.7628 29.0593C32.7628 29.0593 32.9004 28.8759 33.038 29.0593C34.5971 30.1599 36.1562 31.1687 37.8529 32.2693C37.3943 33.4157 37.7153 34.3786 38.5407 35.1124C37.9905 36.4881 37.3943 37.7721 36.844 39.056C35.7435 41.7157 34.597 44.2378 33.4965 46.9433C33.4965 47.0809 33.3131 47.2185 33.3131 47.2185C33.1755 47.2185 33.038 47.0809 33.038 46.9434C32.6252 45.9345 32.075 44.9715 31.6623 44.1003C30.2407 41.0279 28.6816 38.0472 27.26 34.9748H27.2601ZM34.3219 27.9129C37.8529 25.2533 41.338 22.6853 45.0065 20.1632C44.8689 20.3007 44.8689 20.3007 44.8689 20.4383C43.4932 23.8317 41.9341 27.2251 40.5125 30.7102C40.375 30.8477 40.375 30.8477 40.0999 30.8477C39.8247 30.8477 39.5496 31.0311 39.091 31.0311H38.8159C37.3944 30.0224 35.8811 28.8759 34.4595 27.913L34.3219 27.9129Z" fill="white"></path>
</svg>