<svg width="64" height="64" viewBox="0 0 64 64" fill="none" xmlns="http://www.w3.org/2000/svg">
<rect width="64" height="64" fill="black"></rect>
<path fill-rule="evenodd" clip-rule="evenodd" d="M16.743 43.8503C15.6618 43.1885 15 42.0132 15 40.7475V33.6814C15 32.8424 15.6835 32.1625 16.5224 32.1662C16.79 32.1662 17.054 32.2385 17.2855 32.3723L33.2295 41.6697C34.1625 42.2121 34.7375 43.2102 34.7375 44.2915V51.6108C34.7411 52.6161 33.9275 53.4333 32.9221 53.4333C32.5858 53.4333 32.2531 53.3393 31.9675 53.1657L16.743 43.8503ZM40.509 30.4376C41.442 30.98 42.0134 31.9817 42.017 33.0594V47.9149C42.017 48.3525 41.782 48.7575 41.3986 48.9709L37.909 50.9345C37.8656 50.9598 37.8186 50.9779 37.7679 50.9924V42.7437C37.7679 41.6769 37.2074 40.6861 36.2889 40.1364L22.2867 31.7611V22.4493C22.2867 21.6103 22.9702 20.9305 23.8092 20.9341C24.0768 20.9341 24.3408 21.0064 24.5722 21.1402L40.509 30.4376ZM47.4884 19.4659C48.425 20.0083 49 21.01 49 22.0913V43.7888C48.9964 44.2336 48.7505 44.6422 48.3599 44.8556L45.0511 46.642V31.5369C45.0511 30.4701 44.4905 29.4829 43.5792 28.9332L29.2661 20.3483V11.5174C29.2661 11.2498 29.3384 10.9858 29.4686 10.7543C29.8917 10.0311 30.8211 9.78518 31.5444 10.2047L47.4884 19.4659Z" fill="#00D395"></path>
</svg>