<svg width="64" height="64" viewBox="0 0 64 64" fill="none" xmlns="http://www.w3.org/2000/svg">
<rect width="64" height="64" fill="#F3C82F"></rect>
<path d="M30.3113 16.7825H18.7095C18.4314 16.7825 18.4314 16.7825 18.4314 17.0606V26.3977C18.4314 26.6361 18.4314 26.6361 18.1533 26.6361H14.4184C14.18 26.6361 14.18 26.6361 14.18 26.9143V29.9339C14.18 30.1723 14.18 30.1723 14.4184 30.1723H18.1532C18.4313 30.1723 18.4313 30.212 18.4313 30.4902V33.629C18.4313 33.8674 18.4313 33.8674 18.1532 33.8674C16.8818 33.9072 15.6898 33.9072 14.4184 33.9072C14.18 33.9072 14.18 33.9072 14.18 34.1853V37.2049C14.18 37.4433 14.18 37.4433 14.4581 37.4433H18.034C18.4313 37.4433 18.4313 37.4036 18.4313 37.8407V46.8201C18.4313 47.2175 18.4313 47.2175 18.7889 47.2175H30.51C31.0662 47.2175 31.6622 47.2175 32.139 47.138C33.927 47.0188 35.6752 46.6612 37.3439 45.9858C38.6154 45.509 39.8868 44.8336 40.9596 43.9594C42.3502 43.0059 43.5025 41.7742 44.456 40.3438C45.052 39.5094 45.4096 38.5956 45.8069 37.6817C45.8466 37.5625 45.9659 37.4433 46.2043 37.4433H49.5815C49.8199 37.4433 49.8199 37.4433 49.8199 37.2049V34.1853C49.8199 33.9072 49.7801 33.8674 49.5815 33.8674C48.7471 33.9072 47.9922 33.9072 47.1578 33.8674C46.7605 33.8674 46.7605 33.9072 46.8399 33.5495C46.9194 32.4768 46.9194 31.404 46.8399 30.4504C46.8399 30.2518 46.8797 30.1723 47.0783 30.1723H49.5815C49.8199 30.1723 49.8199 30.1723 49.8199 29.9737V26.9143C49.8199 26.6361 49.8199 26.6361 49.5815 26.6361H46.2837C46.0851 26.6361 45.9658 26.5964 45.8864 26.4772C45.4096 25.2455 44.8534 24.0933 44.0587 23.0205C42.4297 20.7955 40.3636 19.2459 37.8605 18.1731C36.6288 17.6566 35.3971 17.2991 34.1256 17.0606C32.8542 16.862 31.6225 16.7825 30.3113 16.7825ZM21.9278 43.721V37.7215C21.9278 37.4433 21.9278 37.4433 22.2059 37.4433H41.7145C41.794 37.4433 41.9529 37.4831 42.0721 37.4831C42.0721 37.4831 42.0721 37.5625 42.1516 37.5625C41.8337 37.9201 41.6748 38.3174 41.3966 38.675C40.4431 40.1451 39.2114 41.3768 37.5823 42.2907C36.1917 43.0853 34.6421 43.6416 32.9734 43.8402C32.1414 43.9196 31.306 43.9593 30.4702 43.9594C27.689 43.9991 24.9475 43.9594 22.2059 43.9594C21.9278 43.9594 21.9278 43.9594 21.9278 43.721ZM21.9278 33.629V30.4902C21.9278 30.212 21.9278 30.1723 22.2059 30.1723H42.8667C43.1846 30.1723 43.2641 30.1723 43.2641 30.5299C43.3038 31.3246 43.3038 32.1192 43.3038 32.9138C43.3038 33.1125 43.2641 33.3906 43.2641 33.629C43.1846 33.8674 43.1846 33.8674 42.9064 33.8674H22.3251C22.2854 33.8674 22.2059 33.8674 22.2059 33.9072C22.0073 33.9072 21.9278 33.8277 21.9278 33.629ZM21.9278 26.3977V20.279C21.9278 20.0008 21.9675 20.0008 22.2059 20.0008H30.51C31.5828 20.0008 32.6158 20.0803 33.6886 20.279C34.96 20.5571 36.152 20.9544 37.2645 21.5107C39.2113 22.5835 40.8007 24.0933 41.8337 26.0004C41.9529 26.1991 42.0324 26.4374 42.1516 26.5567V26.6361H22.2059C21.9278 26.6361 21.9278 26.6361 21.9278 26.3977Z" fill="white"></path>
</svg>