<svg width="64" height="64" viewBox="0 0 64 64" fill="none" xmlns="http://www.w3.org/2000/svg">
<rect width="64" height="64" fill="#0095FF"></rect>
<g filter="url(#filter0_d_92_105)">
<path d="M30.0764 39.3677C32.4575 41.5747 35.3377 42.6798 38.7602 42.6798V47C33.9793 47 29.8788 45.4729 26.4863 42.422C23.6397 39.8299 21.9853 37.0201 21.5231 33.4903H36.8279L35.1467 36.4709H27.7924C28.3282 37.5023 29.0918 38.4702 30.0764 39.3677Z" fill="white"></path>
<path d="M30.0764 24.6323C32.4575 22.4253 35.3377 21.3202 38.7602 21.3202L38.733 17C33.944 17 29.8788 18.5271 26.4863 21.578C23.6397 24.1701 21.9853 26.9799 21.5231 30.5097H36.8279L35.1467 27.5291H27.7924C28.3282 26.4977 29.0918 25.5298 30.0764 24.6323Z" fill="white"></path>
</g>
<defs>
<filter id="filter0_d_92_105" x="20.2515" y="17" width="19.7805" height="32.5433" filterUnits="userSpaceOnUse" color-interpolation-filters="sRGB">
<feFlood flood-opacity="0" result="BackgroundImageFix"></feFlood>
<feColorMatrix in="SourceAlpha" type="matrix" values="0 0 0 0 0 0 0 0 0 0 0 0 0 0 0 0 0 0 127 0" result="hardAlpha"></feColorMatrix>
<feOffset dy="1.27167"></feOffset>
<feGaussianBlur stdDeviation="0.635833"></feGaussianBlur>
<feComposite in2="hardAlpha" operator="out"></feComposite>
<feColorMatrix type="matrix" values="0 0 0 0 0 0 0 0 0 0 0 0 0 0 0 0 0 0 0.15 0"></feColorMatrix>
<feBlend mode="normal" in2="BackgroundImageFix" result="effect1_dropShadow_92_105"></feBlend>
<feBlend mode="normal" in="SourceGraphic" in2="effect1_dropShadow_92_105" result="shape"></feBlend>
</filter>
</defs>
</svg>