<svg width="64" height="64" viewBox="0 0 64 64" fill="none" xmlns="http://www.w3.org/2000/svg">
<rect width="64" height="64" fill="#1391EC"></rect>
<path fill-rule="evenodd" clip-rule="evenodd" d="M34.0707 29.2287L33.3607 33.0151L40.1052 33.9617L39.6319 35.7366L33.0058 34.79C32.5325 36.3282 32.2958 37.9847 31.7042 39.4046C31.1126 41.0612 30.5209 42.7177 29.811 44.2559C28.8644 46.2674 27.2079 47.6873 24.9597 48.0423C23.6581 48.279 22.2382 48.1606 21.1733 47.3324C20.8184 47.0957 20.4634 46.6224 20.4634 46.2674C20.4634 45.7941 20.7 45.2025 21.055 44.9659C21.2916 44.8475 21.8833 44.9659 22.2382 45.0842C22.5932 45.4392 22.9482 45.9125 23.1848 46.3858C23.8948 47.3324 24.8414 47.4507 25.788 46.7407C26.8529 45.7941 27.4445 44.4926 27.7995 43.191C28.5094 40.3512 29.2194 37.6298 29.811 34.79V34.3167L23.5398 33.3701L23.7765 31.5952L30.2843 32.5418L31.1126 28.8738L24.3681 27.8089L24.6047 25.9157L31.5859 26.8623C31.8225 26.1523 31.9408 25.5607 32.1775 24.9691C32.7691 22.8392 33.3607 20.7094 34.7806 18.8162C36.2005 16.923 37.8571 15.7398 40.3419 15.8581C41.4068 15.8581 42.4717 16.2131 43.1816 17.0413C43.3 17.1597 43.5366 17.3963 43.5366 17.633C43.5366 18.1063 43.5366 18.6979 43.1816 19.0529C42.7083 19.4078 42.1167 19.2895 41.6434 18.8162C41.2885 18.4612 41.0518 18.1063 40.6968 17.7513C39.9869 16.8047 38.922 16.6864 38.0937 17.5146C37.5021 18.1063 36.9105 18.9345 36.5555 19.7628C35.7272 22.2476 35.1356 24.8507 34.3073 27.4539L40.8152 28.4005L40.3419 30.1753L34.0707 29.2287Z" fill="white"></path>
</svg>