<svg width="64" height="64" viewBox="0 0 64 64" fill="none" xmlns="http://www.w3.org/2000/svg">
<rect width="64" height="64" fill="black"></rect>
<path d="M32 12.68L15.2679 22.34V41.66L32 51.32L48.7321 41.66V22.34L32 12.68ZM32.3421 43.9727L19.4992 36.6478L19.5513 33.0857L32.3346 40.4032L38.4995 36.8486L34.3648 34.4615L32.818 35.3539L29.9178 33.6881L31.472 32.7883L29.4418 31.6133L28.2148 32.3272L25.3071 30.6614L26.5416 29.9475L19.9901 26.1623L32.3346 19.0382L43.9802 25.679L40.8568 27.4935L32.3346 22.6077L26.1698 26.1623L29.6203 28.1553L31.3828 27.1291L34.2904 28.7949L32.5131 29.8211L34.5433 30.9961L35.9859 30.1557L38.8936 31.8215L37.4361 32.6693L44.6643 36.8411L32.3421 43.9727Z" fill="white"></path>
</svg>