<svg width="64" height="64" viewBox="0 0 64 64" fill="none" xmlns="http://www.w3.org/2000/svg">
<rect width="64" height="64" fill="#00D4D5"></rect>
<path d="M33.038 10V20.914L42.514 15.464L33.038 10Z" fill="white"></path>
<path opacity="0.9" d="M42.514 15.464V26.378L51.988 20.914L42.514 15.464Z" fill="white"></path>
<path opacity="0.8" d="M33.038 20.914V31.828L42.514 26.378L33.038 20.914ZM42.514 26.378V37.292L51.988 31.828L42.514 26.378Z" fill="white"></path>
<path opacity="0.8" d="M33.038 31.828V42.742L42.514 37.292L33.038 31.828Z" fill="white"></path>
<path d="M42.514 37.292V48.206L51.988 42.742L42.514 37.292Z" fill="white"></path>
<path opacity="0.4" d="M8.54602 20.546V31.46L18.022 25.996L8.54602 20.546Z" fill="white"></path>
<path opacity="0.2" d="M20.5 24.604V35.518L29.96 30.068L20.5 24.604Z" fill="white"></path>
<path opacity="0.3" d="M13.476 31.506V42.42L22.95 36.956L13.476 31.506Z" fill="white"></path>
<path opacity="0.9" d="M19.72 39.742V50.656L29.18 45.192L19.72 39.742Z" fill="white"></path>
<path opacity="0.7" d="M32.96 44.44V55.356L42.42 49.89L32.96 44.44Z" fill="white"></path>
<path opacity="0.9" d="M22.078 19.214V30.13L31.538 24.68L22.078 19.214Z" fill="white"></path>
<path opacity="0.8" d="M33.038 10V20.914L23.562 15.464L33.038 10Z" fill="white"></path>
<path opacity="0.6" d="M22.078 14.64V25.552L12.6 20.088L22.078 14.64Z" fill="white"></path>
<path opacity="0.6" d="M31.554 20.04V30.956L22.078 25.49L31.554 20.04Z" fill="white"></path>
<path opacity="0.95" d="M20.456 24.604V35.518L10.98 30.068L20.456 24.604Z" fill="white"></path>
<path opacity="0.6" d="M33.038 31.828V42.742L23.578 37.292L33.038 31.828Z" fill="white"></path>
<path opacity="0.55" d="M13.476 34.37V45.284L4 39.818L13.476 34.37Z" fill="white"></path>
<path d="M51.988 20.914V31.828L42.514 26.378L51.988 20.914Z" fill="white"></path>
<path opacity="0.95" d="M42.514 26.38V37.292L33.038 31.828L42.514 26.38Z" fill="white"></path>
<path opacity="0.9" d="M51.988 31.828V42.742L42.514 37.292L51.988 31.828Z" fill="white"></path>
<path opacity="0.7" d="M42.514 37.292V48.206L33.038 42.742L42.514 37.292Z" fill="white"></path>
<path opacity="0.4" d="M30.94 41.84V52.754L21.466 47.304L30.94 41.84Z" fill="white"></path>
<path d="M42.514 15.464V26.378L33.038 20.914L42.514 15.464Z" fill="white"></path>
</svg>