<svg width="64" height="64" viewBox="0 0 64 64" fill="none" xmlns="http://www.w3.org/2000/svg">
<rect width="64" height="64" fill="white"></rect>
<path opacity="0.2" d="M18.3745 43.3277L20.4672 49L34.8322 32L20.4672 15L18.2725 20.5492L27.8146 31.9969L18.3745 43.3277Z" fill="#FF564F"></path>
<path d="M48.9949 48.9969H42.1779L27.8095 31.9969L42.1779 15H48.9949L34.8288 31.9969L48.9949 48.9969Z" fill="#F08179"></path>
<path d="M15 15H20.4638V48.9969H15V15Z" fill="#FF564F"></path>
<path d="M49 48.9969H42.183L27.8146 31.9969L42.183 15H49L34.8339 31.9969L49 48.9969Z" fill="#FF564F"></path>
<path d="M49 48.9969H42.183L27.8146 31.9969L42.183 15H49L34.8339 31.9969L49 48.9969Z" fill="#FF564F"></path>
<path d="M49 48.9969H42.183L27.8146 31.9969L42.183 15H49L34.8339 31.9969L49 48.9969Z" fill="#FF564F"></path>
<path d="M49 48.9969H42.183L27.8146 31.9969L42.183 15H49L34.8339 31.9969L49 48.9969Z" fill="#FF564F"></path>
</svg>