<svg width="64" height="64" viewBox="0 0 64 64" fill="none" xmlns="http://www.w3.org/2000/svg">
<rect width="64" height="64" fill="#31CB9E"></rect>
<g clip-path="url(#clip0_91_700)">
<path d="M29.7528 31.9968L45.8043 41.1911C45.9333 41.2686 46.0806 41.3104 46.2311 41.3121C46.3816 41.3139 46.5298 41.2755 46.6606 41.201C46.7913 41.1264 46.8999 41.0184 46.9751 40.8881C47.0502 40.7577 47.0894 40.6096 47.0884 40.4591V23.5216C47.0903 23.3709 47.0516 23.2224 46.9764 23.0917C46.9013 22.961 46.7924 22.8529 46.6611 22.7787C46.5298 22.7046 46.381 22.667 46.2303 22.6701C46.0796 22.6732 45.9324 22.7167 45.8043 22.7961L29.7528 31.9968Z" fill="white"></path>
<path d="M45.4639 18.7255L34.4912 10.6548C34.3775 10.5676 34.2442 10.5096 34.1029 10.4861C33.9616 10.4625 33.8167 10.4741 33.681 10.5198C33.5452 10.5655 33.4228 10.6438 33.3245 10.748C33.2261 10.8522 33.1549 10.9789 33.1172 11.1171L29.1107 29.0947L45.3676 20.1059C45.4913 20.0422 45.5965 19.9478 45.6731 19.8316C45.7496 19.7155 45.7949 19.5816 45.8046 19.4428C45.8143 19.304 45.788 19.1651 45.7283 19.0394C45.6687 18.9138 45.5776 18.8056 45.4639 18.7255Z" fill="white"></path>
<path d="M34.4783 53.3324L45.4639 45.2617C45.5791 45.1807 45.6716 45.0715 45.7325 44.9446C45.7933 44.8176 45.8205 44.6772 45.8115 44.5366C45.8025 44.3961 45.7575 44.2603 45.6809 44.1422C45.6043 44.024 45.4986 43.9276 45.374 43.862L29.1107 34.8732L33.1172 52.8508C33.1504 52.9905 33.2178 53.1197 33.3133 53.2269C33.4089 53.3341 33.5295 53.4159 33.6645 53.4649C33.7994 53.5139 33.9445 53.5286 34.0865 53.5077C34.2286 53.4868 34.3632 53.431 34.4783 53.3452" fill="white"></path>
<path d="M25.5794 31.6629L29.7528 12.1444C29.7847 11.9826 29.7676 11.815 29.7036 11.6631C29.6397 11.5111 29.5319 11.3817 29.394 11.2914C29.2561 11.201 29.0944 11.1539 28.9295 11.156C28.7647 11.1582 28.6042 11.2094 28.4687 11.3033L17.7784 19.5024C17.5077 19.71 17.2886 19.9774 17.1383 20.2837C16.9879 20.59 16.9104 20.9268 16.9116 21.268V42.0707C16.9064 42.4162 16.982 42.7581 17.1325 43.0692C17.283 43.3802 17.5042 43.6517 17.7784 43.862L28.4173 52.0354C28.5529 52.1293 28.7133 52.1805 28.8782 52.1827C29.043 52.1848 29.2047 52.1377 29.3426 52.0473C29.4805 51.957 29.5883 51.8276 29.6523 51.6756C29.7162 51.5237 29.7333 51.3561 29.7014 51.1943L25.5794 31.6629Z" fill="white"></path>
</g>
<defs>
<clipPath id="clip0_91_700">
<rect width="30.1767" height="43.05" fill="white" transform="translate(16.9116 10.475)"></rect>
</clipPath>
</defs>
</svg>