<svg width="64" height="64" viewBox="0 0 64 64" fill="none" xmlns="http://www.w3.org/2000/svg">
<rect width="64" height="64" fill="#172852"></rect>
<path d="M25.6364 15.0218C29.1572 13.705 33.121 13.7013 36.7113 14.7784C41.381 16.2279 45.3241 19.7524 47.3845 24.1762C47.9529 25.4371 48.4969 26.7515 48.5504 28.1523C45.9253 26.631 43.0471 25.644 40.1627 24.7446C35.5502 23.0821 30.7199 21.9272 26.3532 19.6416C25.337 19.0331 24.0409 18.4112 23.7634 17.1455C23.6526 16.0502 24.81 15.4417 25.6376 15.0157" fill="#FFD83D"></path>
<path d="M15.0044 25.6683C16.0242 22.902 17.6964 20.3329 19.9674 18.4294C20.5443 23.1758 22.5657 27.7677 25.904 31.2203C29.9068 35.3789 35.6086 37.9322 41.4101 37.8361C43.7139 37.9091 45.9666 37.376 48.2132 36.9464C46.0019 44.9337 37.2479 50.2363 29.1364 48.9609C24.2403 48.3353 19.7203 45.4315 16.993 41.3435C13.9163 36.8199 13.1362 30.8139 15.0044 25.6683Z" fill="#FFD83D"></path>
<path d="M40.1617 24.747C43.0461 25.6464 45.9243 26.6334 48.5495 28.1547L48.7271 28.2484C48.9705 30.0739 49.1482 31.9469 48.8233 33.7822C47.5028 33.2223 46.4331 32.239 45.3134 31.37C43.1605 29.5774 40.9625 27.5267 40.1617 24.747Z" fill="#FF6F03"></path>
</svg>