<svg width="64" height="64" viewBox="0 0 64 64" fill="none" xmlns="http://www.w3.org/2000/svg">
<rect width="64" height="64" fill="black"></rect>
<path d="M17.2872 31.2504C17.2874 31.6712 17.1628 32.0825 16.9292 32.4324C16.6957 32.7823 16.3636 33.0551 15.9749 33.2162C15.5863 33.3773 15.1586 33.4196 14.746 33.3377C14.3333 33.2557 13.9543 33.0532 13.6567 32.7558C13.3591 32.4584 13.1565 32.0795 13.0743 31.6669C12.9922 31.2542 13.0342 30.8265 13.1952 30.4378C13.3561 30.0491 13.6287 29.7169 13.9785 29.4831C14.3283 29.2494 14.7396 29.1246 15.1603 29.1246C15.7242 29.1246 16.265 29.3486 16.6638 29.7472C17.0627 30.1458 17.2869 30.6865 17.2872 31.2504ZM51.0803 31.2504C51.0805 31.6712 50.9559 32.0826 50.7223 32.4325C50.4887 32.7824 50.1565 33.0552 49.7678 33.2163C49.3792 33.3774 48.9514 33.4196 48.5387 33.3376C48.1261 33.2556 47.747 33.053 47.4495 32.7555C47.152 32.4579 46.9494 32.0789 46.8673 31.6662C46.7853 31.2535 46.8275 30.8258 46.9886 30.4371C47.1497 30.0484 47.4225 29.7162 47.7724 29.4826C48.1224 29.249 48.5337 29.1244 48.9545 29.1246C49.5175 29.126 50.0569 29.3506 50.4546 29.7491C50.8523 30.1476 51.0757 30.6875 51.076 31.2504M34.1843 39.6411C34.1845 40.0618 34.0599 40.4732 33.8263 40.8231C33.5926 41.173 33.2605 41.4458 32.8718 41.6069C32.4831 41.768 32.0554 41.8102 31.6427 41.7282C31.23 41.6462 30.851 41.4436 30.5534 41.1461C30.2559 40.8486 30.0533 40.4695 29.9713 40.0568C29.8893 39.6441 29.9315 39.2164 30.0926 38.8277C30.2537 38.439 30.5265 38.1069 30.8764 37.8732C31.2263 37.6396 31.6377 37.515 32.0585 37.5152C32.6222 37.5155 33.1627 37.7396 33.5613 38.1382C33.9599 38.5368 34.184 39.0773 34.1843 39.6411ZM25.6778 35.4989C25.6778 35.9195 25.553 36.3307 25.3193 36.6805C25.0856 37.0303 24.7534 37.3029 24.3648 37.4639C23.9762 37.6248 23.5485 37.667 23.1359 37.5849C22.7234 37.5028 22.3444 37.3003 22.0469 37.0028C21.7495 36.7054 21.5469 36.3264 21.4648 35.9138C21.3828 35.5012 21.4249 35.0736 21.5859 34.6849C21.7469 34.2963 22.0195 33.9641 22.3692 33.7304C22.719 33.4967 23.1302 33.372 23.5509 33.372C24.115 33.372 24.6559 33.5961 25.0548 33.9949C25.4537 34.3938 25.6778 34.9348 25.6778 35.4989ZM42.5749 35.4989C42.5759 35.9199 42.452 36.3318 42.2187 36.6824C41.9855 37.033 41.6534 37.3064 41.2646 37.4681C40.8758 37.6298 40.4478 37.6724 40.0348 37.5906C39.6217 37.5088 39.2423 37.3062 38.9444 37.0086C38.6466 36.7109 38.4439 36.3315 38.3618 35.9185C38.2798 35.5055 38.3222 35.0774 38.4837 34.6886C38.6452 34.2997 38.9185 33.9675 39.2689 33.7341C39.6194 33.5006 40.0312 33.3765 40.4523 33.3773C41.0147 33.3785 41.5538 33.6023 41.9516 33.9999C42.3493 34.3975 42.5735 34.9365 42.5749 35.4989ZM16.5972 37.688C16.5969 37.9722 16.5125 38.2499 16.3544 38.4861C16.1963 38.7223 15.9718 38.9063 15.7091 39.0149C15.4465 39.1234 15.1576 39.1516 14.8789 39.096C14.6002 39.0403 14.3443 38.9033 14.1435 38.7022C13.9427 38.5011 13.806 38.245 13.7508 37.9662C13.6955 37.6874 13.7242 37.3985 13.8332 37.1361C13.9421 36.8736 14.1265 36.6493 14.3629 36.4916C14.5993 36.3339 14.8771 36.2498 15.1613 36.25C15.35 36.2502 15.5368 36.2875 15.7111 36.3598C15.8854 36.4322 16.0437 36.5381 16.1771 36.6717C16.3104 36.8052 16.4161 36.9637 16.4882 37.138C16.5603 37.3124 16.5973 37.4993 16.5972 37.688ZM50.3903 37.688C50.3901 37.9722 50.3056 38.2499 50.1475 38.4861C49.9895 38.7223 49.7649 38.9063 49.5023 39.0149C49.2397 39.1234 48.9507 39.1516 48.672 39.096C48.3934 39.0403 48.1374 38.9033 47.9366 38.7022C47.7358 38.5011 47.5992 38.245 47.5439 37.9662C47.4887 37.6874 47.5174 37.3985 47.6263 37.1361C47.7353 36.8736 47.9196 36.6493 48.156 36.4916C48.3924 36.3339 48.6703 36.2498 48.9545 36.25C49.3355 36.2503 49.7008 36.4018 49.9702 36.6712C50.2396 36.9406 50.3911 37.3059 50.3914 37.6869M33.4943 46.1924C33.4945 46.4766 33.4104 46.7546 33.2526 46.9911C33.0947 47.2275 32.8703 47.4119 32.6077 47.5207C32.3451 47.6296 32.0561 47.6582 31.7773 47.6028C31.4985 47.5474 31.2424 47.4105 31.0413 47.2095C30.8403 47.0084 30.7035 46.7523 30.648 46.4735C30.5926 46.1947 30.6212 45.9057 30.7301 45.6431C30.839 45.3805 31.0233 45.1561 31.2598 44.9983C31.4962 44.8405 31.7742 44.7563 32.0585 44.7565C32.4391 44.7571 32.804 44.9086 33.0731 45.1777C33.3422 45.4469 33.4937 45.8117 33.4943 46.1924ZM24.9888 41.9375C24.9888 42.2217 24.9045 42.4996 24.7466 42.7359C24.5887 42.9722 24.3642 43.1564 24.1016 43.2651C23.839 43.3738 23.55 43.4022 23.2712 43.3467C22.9925 43.2912 22.7364 43.1542 22.5355 42.9532C22.3346 42.7521 22.1979 42.496 22.1425 42.2172C22.0872 41.9384 22.1158 41.6494 22.2247 41.3869C22.3337 41.1243 22.518 40.9 22.7544 40.7423C22.9909 40.5845 23.2688 40.5004 23.553 40.5006C23.7417 40.5006 23.9285 40.5378 24.1027 40.61C24.277 40.6822 24.4353 40.7881 24.5687 40.9215C24.702 41.055 24.8078 41.2134 24.8798 41.3877C24.9519 41.562 24.989 41.7489 24.9888 41.9375ZM41.8859 41.9375C41.8866 42.222 41.8028 42.5002 41.6451 42.737C41.4875 42.9738 41.2631 43.1585 41.0004 43.2676C40.7377 43.3768 40.4486 43.4055 40.1695 43.3502C39.8905 43.2948 39.6342 43.1579 39.433 42.9568C39.2319 42.7556 39.095 42.4993 39.0396 42.2203C38.9843 41.9412 39.013 41.652 39.1222 41.3894C39.2313 41.1267 39.416 40.9023 39.6528 40.7446C39.8896 40.587 40.1678 40.5032 40.4523 40.5038C40.8321 40.505 41.196 40.6564 41.4644 40.9251C41.7329 41.1937 41.884 41.5577 41.8849 41.9375M15.9082 42.7445C15.9082 42.893 15.8642 43.0383 15.7816 43.1618C15.6991 43.2853 15.5818 43.3816 15.4445 43.4385C15.3072 43.4953 15.1562 43.5102 15.0105 43.4812C14.8648 43.4522 14.7309 43.3807 14.6259 43.2756C14.5208 43.1706 14.4493 43.0367 14.4203 42.891C14.3913 42.7453 14.4062 42.5943 14.463 42.457C14.5199 42.3198 14.6162 42.2024 14.7397 42.1199C14.8632 42.0374 15.0085 41.9933 15.157 41.9933C15.3563 41.9933 15.5473 42.0724 15.6882 42.2133C15.8291 42.3542 15.9082 42.5452 15.9082 42.7445ZM49.7014 42.7445C49.7014 42.893 49.6573 43.0383 49.5748 43.1618C49.4922 43.2853 49.3749 43.3816 49.2377 43.4385C49.1004 43.4953 48.9494 43.5102 48.8037 43.4812C48.6579 43.4522 48.5241 43.3807 48.419 43.2756C48.314 43.1706 48.2424 43.0367 48.2135 42.891C48.1845 42.7453 48.1994 42.5943 48.2562 42.457C48.3131 42.3198 48.4093 42.2024 48.5329 42.1199C48.6564 42.0374 48.8016 41.9933 48.9502 41.9933C49.1494 41.9933 49.3405 42.0724 49.4814 42.2133C49.6222 42.3542 49.7014 42.5452 49.7014 42.7445ZM32.8043 51.251C32.8043 51.3996 32.7602 51.5448 32.6777 51.6683C32.5951 51.7918 32.4778 51.8881 32.3405 51.945C32.2033 52.0018 32.0523 52.0167 31.9065 51.9877C31.7608 51.9587 31.627 51.8872 31.5219 51.7821C31.4169 51.6771 31.3453 51.5432 31.3163 51.3975C31.2874 51.2518 31.3022 51.1008 31.3591 50.9635C31.4159 50.8263 31.5122 50.7089 31.6358 50.6264C31.7593 50.5439 31.9045 50.4998 32.0531 50.4998C32.2523 50.4998 32.4434 50.5789 32.5842 50.7198C32.7251 50.8607 32.8043 51.0518 32.8043 51.251ZM24.2988 46.9983C24.2988 47.1468 24.2548 47.2921 24.1722 47.4156C24.0897 47.5391 23.9724 47.6354 23.8351 47.6923C23.6979 47.7491 23.5468 47.764 23.4011 47.735C23.2554 47.706 23.1215 47.6345 23.0165 47.5294C22.9114 47.4244 22.8399 47.2905 22.8109 47.1448C22.7819 46.9991 22.7968 46.8481 22.8537 46.7108C22.9105 46.5735 23.0068 46.4562 23.1303 46.3737C23.2539 46.2911 23.3991 46.2471 23.5477 46.2471C23.7469 46.2471 23.9379 46.3262 24.0788 46.4671C24.2197 46.608 24.2988 46.799 24.2988 46.9983ZM41.1959 46.9983C41.1959 47.1468 41.1519 47.2921 41.0693 47.4156C40.9868 47.5391 40.8695 47.6354 40.7322 47.6923C40.595 47.7491 40.4439 47.764 40.2982 47.735C40.1525 47.706 40.0187 47.6345 39.9136 47.5294C39.8086 47.4244 39.737 47.2905 39.708 47.1448C39.679 46.9991 39.6939 46.8481 39.7508 46.7108C39.8076 46.5735 39.9039 46.4562 40.0274 46.3737C40.151 46.2911 40.2962 46.2471 40.4448 46.2471C40.644 46.2471 40.8351 46.3262 40.9759 46.4671C41.1168 46.608 41.1959 46.799 41.1959 46.9983ZM34.8721 14.8716C34.8721 15.4401 34.7035 15.9958 34.3877 16.4684C34.0718 16.9411 33.6228 17.3094 33.0976 17.5269C32.5724 17.7443 31.9944 17.8011 31.4369 17.69C30.8794 17.579 30.3674 17.3051 29.9655 16.9029C29.5637 16.5008 29.2902 15.9886 29.1795 15.431C29.0689 14.8734 29.1261 14.2955 29.344 13.7704C29.5618 13.2453 29.9305 12.7967 30.4033 12.4811C30.8762 12.1656 31.432 11.9974 32.0005 11.9979C32.7623 11.9984 33.4927 12.3015 34.0312 12.8403C34.5697 13.3792 34.8721 14.1098 34.8721 14.8716ZM34.8721 23.3728C34.8721 23.9412 34.7036 24.4969 34.3877 24.9695C34.0719 25.4421 33.623 25.8104 33.0979 26.0279C32.5727 26.2454 31.9948 26.3022 31.4373 26.1913C30.8798 26.0803 30.3678 25.8065 29.9659 25.4045C29.5641 25.0025 29.2904 24.4903 29.1797 23.9328C29.0689 23.3752 29.126 22.7974 29.3436 22.2723C29.5613 21.7472 29.9298 21.2984 30.4026 20.9828C30.8753 20.6672 31.431 20.4988 31.9994 20.499C32.7614 20.4993 33.4921 20.8022 34.0308 21.3411C34.5695 21.88 34.8721 22.6108 34.8721 23.3728ZM34.8721 31.7645C34.8721 32.3329 34.7036 32.8885 34.3877 33.3612C34.0719 33.8338 33.623 34.2021 33.0979 34.4196C32.5727 34.6371 31.9948 34.6939 31.4373 34.5829C30.8798 34.472 30.3678 34.1982 29.9659 33.7962C29.5641 33.3941 29.2904 32.882 29.1797 32.3244C29.0689 31.7669 29.126 31.1891 29.3436 30.664C29.5613 30.1389 29.9298 29.6901 30.4026 29.3745C30.8753 29.0588 31.431 28.8905 31.9994 28.8907C32.3771 28.8908 32.751 28.9654 33.0998 29.1102C33.4487 29.2549 33.7655 29.467 34.0323 29.7343C34.2991 30.0016 34.5106 30.3188 34.6547 30.6679C34.7988 31.017 34.8727 31.3911 34.8721 31.7688M51.7703 23.3728C51.7703 23.9412 51.6018 24.4968 51.286 24.9694C50.9702 25.442 50.5214 25.8103 49.9963 26.0278C49.4712 26.2453 48.8934 26.3022 48.3359 26.1913C47.7784 26.0805 47.2664 25.8068 46.8645 25.4048C46.4626 25.0029 46.1889 24.4909 46.078 23.9334C45.9671 23.376 46.024 22.7981 46.2415 22.273C46.459 21.7479 46.8274 21.2991 47.3 20.9833C47.7725 20.6675 48.3282 20.499 48.8965 20.499C49.6587 20.499 50.3897 20.8018 50.9286 21.3407C51.4675 21.8797 51.7703 22.6106 51.7703 23.3728ZM17.9772 23.3728C17.978 23.9413 17.8102 24.4974 17.4949 24.9705C17.1797 25.4437 16.7312 25.8127 16.2061 26.0309C15.6811 26.249 15.1031 26.3066 14.5454 26.1962C13.9876 26.0858 13.4752 25.8124 13.0728 25.4107C12.6705 25.0089 12.3964 24.4969 12.2851 23.9393C12.1739 23.3817 12.2306 22.8037 12.448 22.2783C12.6653 21.753 13.0337 21.3039 13.5064 20.9879C13.979 20.672 14.5348 20.5033 15.1034 20.5033C15.8648 20.5033 16.5951 20.8055 17.1339 21.3435C17.6728 21.8815 17.976 22.6114 17.9772 23.3728ZM26.4826 19.1201C26.4834 19.6884 26.3157 20.2443 26.0007 20.7174C25.6856 21.1904 25.2373 21.5594 24.7125 21.7777C24.1877 21.996 23.61 22.0538 23.0524 21.9437C22.4948 21.8337 21.9823 21.5608 21.5798 21.1595C21.1773 20.7581 20.9028 20.2465 20.7911 19.6892C20.6794 19.1319 20.7354 18.554 20.9522 18.0286C21.1689 17.5031 21.5366 17.0538 22.0087 16.7373C22.4808 16.4208 23.0361 16.2514 23.6045 16.2506C24.3667 16.2506 25.0977 16.5534 25.6366 17.0923C26.1755 17.6312 26.4783 18.3622 26.4783 19.1244M26.4783 27.515C26.4783 28.0833 26.3098 28.639 25.994 29.1115C25.6782 29.5841 25.2294 29.9525 24.7043 30.17C24.1792 30.3875 23.6013 30.4444 23.0439 30.3335C22.4864 30.2226 21.9744 29.9489 21.5725 29.547C21.1706 29.1451 20.8969 28.6331 20.786 28.0756C20.6751 27.5182 20.732 26.9403 20.9495 26.4152C21.167 25.8901 21.5354 25.4413 22.0079 25.1255C22.4805 24.8097 23.0361 24.6412 23.6045 24.6412C24.3667 24.6412 25.0977 24.944 25.6366 25.4829C26.1755 26.0218 26.4783 26.7528 26.4783 27.515ZM43.3797 19.1244C43.3797 19.6927 43.2112 20.2484 42.8954 20.7209C42.5796 21.1935 42.1308 21.5619 41.6057 21.7794C41.0806 21.9969 40.5027 22.0538 39.9453 21.9429C39.3878 21.832 38.8758 21.5583 38.4739 21.1564C38.072 20.7545 37.7983 20.2425 37.6874 19.685C37.5765 19.1275 37.6334 18.5497 37.8509 18.0246C38.0684 17.4995 38.4368 17.0507 38.9094 16.7349C39.3819 16.4191 39.9376 16.2506 40.5059 16.2506C41.2681 16.2506 41.9991 16.5534 42.538 17.0923C43.0769 17.6312 43.3797 18.3622 43.3797 19.1244ZM43.3797 27.515C43.3797 28.0833 43.2112 28.639 42.8954 29.1115C42.5796 29.5841 42.1308 29.9525 41.6057 30.17C41.0806 30.3875 40.5027 30.4444 39.9453 30.3335C39.3878 30.2226 38.8758 29.9489 38.4739 29.547C38.072 29.1451 37.7983 28.6331 37.6874 28.0756C37.5765 27.5182 37.6334 26.9403 37.8509 26.4152C38.0684 25.8901 38.4368 25.4413 38.9094 25.1255C39.3819 24.8097 39.9376 24.6412 40.5059 24.6412C41.2681 24.6412 41.9991 24.944 42.538 25.4829C43.0769 26.0218 43.3797 26.7528 43.3797 27.515Z" fill="white"></path>
</svg>