<svg width="64" height="64" viewBox="0 0 64 64" fill="none" xmlns="http://www.w3.org/2000/svg">
<rect width="64" height="64" fill="url(#paint0_linear_91_705)"></rect>
<path d="M40.8368 16.5C39.0613 16.4986 37.3579 17.2018 36.1003 18.4551C34.8428 19.7085 34.1339 21.4096 34.1293 23.185V30.5971C33.4385 30.6438 32.7322 30.6731 32 30.6731C31.2678 30.6731 30.5649 30.7025 29.8706 30.7439V23.185C29.8424 21.425 29.1234 19.7465 27.8687 18.5119C26.6141 17.2772 24.9243 16.5852 23.164 16.5852C21.4037 16.5852 19.714 17.2772 18.4593 18.5119C17.2047 19.7465 16.4856 21.425 16.4574 23.185V40.9001C16.4856 42.6602 17.2047 44.3386 18.4593 45.5733C19.714 46.808 21.4037 47.5 23.164 47.5C24.9243 47.5 26.6141 46.808 27.8687 45.5733C29.1234 44.3386 29.8424 42.6602 29.8706 40.9001V33.488C30.5614 33.4414 31.2678 33.4121 32 33.4121C32.7322 33.4121 33.4351 33.3827 34.1293 33.3413V40.9001C34.1576 42.6602 34.8766 44.3386 36.1312 45.5733C37.3859 46.808 39.0756 47.5 40.8359 47.5C42.5962 47.5 44.286 46.808 45.5407 45.5733C46.7953 44.3386 47.5143 42.6602 47.5426 40.9001V23.185C47.538 21.4099 46.8294 19.709 45.5722 18.4557C44.315 17.2024 42.612 16.4991 40.8368 16.5ZM23.1632 19.239C24.211 19.2385 25.2162 19.6537 25.9583 20.3935C26.7003 21.1333 27.1186 22.1372 27.1213 23.185V31.034C25.1591 31.3184 23.243 31.8601 21.4224 32.6453C20.6336 32.9915 19.891 33.4347 19.2119 33.9647V23.185C19.2146 22.1384 19.632 21.1355 20.3725 20.3959C21.1131 19.6563 22.1165 19.2403 23.1632 19.239ZM27.1213 40.9001C27.1213 41.9499 26.7043 42.9567 25.962 43.699C25.2197 44.4413 24.2129 44.8583 23.1632 44.8583C22.1134 44.8583 21.1066 44.4413 20.3643 43.699C19.622 42.9567 19.205 41.9499 19.205 40.9001V39.1231C19.205 37.5533 20.4484 36.0664 22.5328 35.1407C24.0016 34.5071 25.5426 34.0564 27.1213 33.7989V40.9001ZM40.8368 44.8462C39.789 44.8467 38.7838 44.4315 38.0417 43.6917C37.2997 42.9519 36.8814 41.948 36.8786 40.9001V33.0511C38.8408 32.7668 40.757 32.225 42.5776 31.4399C43.3664 31.0937 44.109 30.6505 44.7881 30.1205V40.9001C44.7853 41.9468 44.368 42.9497 43.6274 43.6892C42.8869 44.4288 41.8834 44.8449 40.8368 44.8462ZM41.4671 28.9341C39.9984 29.5677 38.4573 30.0184 36.8786 30.2759V23.185C36.8786 22.1353 37.2957 21.1285 38.038 20.3862C38.7803 19.6439 39.787 19.2269 40.8368 19.2269C41.8866 19.2269 42.8934 19.6439 43.6357 20.3862C44.378 21.1285 44.795 22.1353 44.795 23.185V24.9621C44.795 26.525 43.5516 28.0119 41.4671 28.9341Z" fill="white"></path>
<defs>
<linearGradient id="paint0_linear_91_705" x1="4.05333" y1="59.2318" x2="59.7343" y2="3.5518" gradientUnits="userSpaceOnUse">
<stop stop-color="#00AEE9"></stop>
<stop offset="1" stop-color="#69FABD"></stop>
</linearGradient>
</defs>
</svg>