<svg width="64" height="64" viewBox="0 0 64 64" fill="none" xmlns="http://www.w3.org/2000/svg">
<rect width="64" height="64" fill="#5F45BA"></rect>
<path d="M20.3809 18.3028C19.7215 19.4128 18.287 19.7786 17.177 19.1193C16.067 18.4599 15.7012 17.0254 16.3606 15.9154C17.0199 14.8054 18.4544 14.4396 19.5644 15.099C20.6744 15.7583 21.0402 17.1928 20.3809 18.3028Z" fill="white"></path>
<path d="M12.4005 17.2651C11.9354 18.0485 10.9205 18.3069 10.1371 17.8418C9.3537 17.3768 9.09533 16.3639 9.5604 15.5785C10.0255 14.793 11.0404 14.5367 11.8238 15.0018C12.6092 15.4689 12.8676 16.4818 12.4005 17.2651Z" fill="white"></path>
<path d="M34.6167 51.1018C43.1824 50.0952 50.0717 43.0922 50.6339 34.1793C51.2664 24.1503 43.6474 15.5082 33.6184 14.8778C32.4423 14.8033 31.262 14.8447 30.0941 14.9976C27.684 15.194 25.648 16.1138 25.648 16.1138C23.9986 16.9199 22.9341 18.2676 22.9341 20.07C22.9341 22.414 24.8336 24.3156 27.1776 24.3156C27.5703 24.3156 28.9263 23.8857 29.2487 23.7741C30.4807 23.3442 31.787 23.1664 33.0892 23.2511C36.5535 23.4702 39.4824 25.4628 41.0513 28.2884C41.9608 29.9255 42.3804 31.7878 42.2605 33.6564C41.9194 39.0616 37.2625 43.1687 31.8552 42.8277C28.6617 42.6251 25.923 40.9157 24.2838 38.4374C22.3243 35.8743 22.777 31.7754 22.7749 31.7238C22.6943 29.4439 20.8278 27.6208 18.5293 27.6208C16.5657 27.6208 14.9183 28.954 14.4284 30.7626C14.3333 31.1181 14.2837 32.1599 14.2982 32.2984C13.893 42.1538 21.4355 50.5727 31.3281 51.1948C32.4257 51.2631 33.5254 51.2321 34.6167 51.1018Z" fill="white"></path>
<path d="M17.9462 24.7931C17.0904 26.2338 15.2301 26.7072 13.7915 25.8514C12.3529 24.9957 11.8775 23.1354 12.7332 21.6968C13.5889 20.2581 15.4492 19.7827 16.8879 20.6385C18.3265 21.4942 18.7998 23.3545 17.9462 24.7931Z" fill="white"></path>
</svg>