<svg width="64" height="64" viewBox="0 0 64 64" fill="none" xmlns="http://www.w3.org/2000/svg">
<rect width="64" height="64" fill="black"></rect>
<path fill-rule="evenodd" clip-rule="evenodd" d="M45.489 22.3358C45.5732 22.4036 45.6571 22.4711 45.7421 22.5356L45.7435 22.536L45.7429 22.5365C45.8198 22.5833 45.8809 22.6468 45.9276 22.7243L45.9276 22.7243C45.9277 22.7244 45.9279 22.7246 45.928 22.7248C45.928 22.7248 45.928 22.7248 45.9281 22.7248M45.8745 22.7662C45.8744 22.7663 45.8743 22.7663 45.8743 22.7664L45.8742 22.7665C45.7964 22.7182 45.7323 22.6573 45.6887 22.5763L45.6893 22.5758C45.1546 22.2342 44.5721 22.078 43.9359 22.0887C43.7143 22.0925 43.4838 22.0756 43.267 22.0367C42.6101 21.9195 41.9595 21.9989 41.3137 22.0778L41.2546 22.085C40.7084 22.1515 40.2321 22.4297 39.8011 22.7749C39.7561 22.811 39.7106 22.8466 39.6651 22.882L39.665 22.8821C39.4451 23.0537 39.2257 23.2249 39.0638 23.4621C39.0006 23.5548 39.0039 23.6143 39.0718 23.6845C39.1439 23.759 39.2268 23.7534 39.3018 23.6944C39.3429 23.6624 39.3782 23.6228 39.4135 23.5832C39.4252 23.57 39.4369 23.5569 39.4489 23.544C40.1974 22.7417 41.1113 22.322 42.2172 22.3262C42.8142 22.3288 43.4076 22.3797 44.001 22.4306H44.001H44.001H44.001H44.001H44.001H44.001H44.0011H44.0011C44.1712 22.4452 44.3413 22.4598 44.5116 22.4733C44.8929 22.5037 45.2184 22.6972 45.5248 22.9206C45.6347 23.0008 45.631 23.1067 45.6274 23.2112C45.6257 23.2598 45.6241 23.3081 45.6339 23.3534C45.6939 23.6293 45.669 23.9155 45.6198 24.2035C45.4906 24.0593 45.3791 23.9127 45.2849 23.7553C45.0193 23.3112 44.69 22.9581 44.141 22.8892C43.5405 22.8143 42.9372 22.767 42.3329 22.7979C42.2849 22.8003 42.2361 22.8023 42.1871 22.8042L42.1869 22.8042L42.1868 22.8042C41.9081 22.8153 41.619 22.8268 41.3797 22.9351C40.8063 23.1946 40.2475 23.5178 39.8456 24.0171C39.6147 24.3038 39.3727 24.578 39.1302 24.8527L39.1302 24.8527L39.1301 24.8528L39.1301 24.8528L39.1301 24.8528L39.1301 24.8528L39.1301 24.8528L39.1301 24.8528L39.1301 24.8529C39.0695 24.9214 39.009 24.99 38.9486 25.0588C38.6483 25.4003 38.3795 25.7703 38.3134 26.249C38.2778 26.5071 38.3537 26.7975 38.534 26.8598C38.942 27.0003 39.3627 27.1104 39.7913 27.1408C40.3088 27.1777 40.8273 27.2024 41.3458 27.2271H41.3458H41.3458H41.3458H41.3459H41.3459H41.3459H41.3459H41.3459C41.7504 27.2464 42.155 27.2657 42.5592 27.2907C42.8228 27.3071 43.0737 27.2517 43.3247 27.1964L43.3247 27.1964C43.4764 27.1629 43.6281 27.1294 43.7827 27.1118C44.4338 27.0373 44.9322 26.6617 45.3383 26.1558C45.3559 26.134 45.373 26.1113 45.3903 26.0883C45.4585 25.9981 45.5296 25.9041 45.6409 25.8424C45.6934 26.0415 45.6512 26.234 45.5889 26.3806C45.4161 26.7881 45.1833 27.1689 44.8558 27.4781C44.5617 27.7558 44.2249 27.9268 43.8047 27.9006C43.6793 27.8927 43.5532 27.8955 43.4271 27.8983C43.3501 27.9 43.2731 27.9017 43.1962 27.901C43.1054 27.9001 43.0463 27.9273 43.0346 28.0261C43.0224 28.1287 43.0679 28.2195 43.1644 28.2078C43.2906 28.1927 43.4172 28.2131 43.5438 28.2335C43.7424 28.2656 43.9411 28.2976 44.1382 28.1924C44.1898 28.1652 44.2703 28.1708 44.3064 28.2312C44.3277 28.2676 44.3007 28.289 44.2737 28.3105C44.2621 28.3198 44.2504 28.329 44.2427 28.3394C44.0923 28.5418 43.8998 28.6626 43.6445 28.7081C43.4618 28.7404 43.2806 28.7388 43.0993 28.7371C43.0417 28.7366 42.9841 28.7361 42.9264 28.7366C42.8135 28.7376 42.7428 28.7938 42.7386 28.901C42.7353 28.991 42.7817 29.0477 42.888 29.0748C43.2229 29.1601 43.5475 29.0968 43.8694 29.0214C44.2183 28.9399 44.4343 28.6781 44.6301 28.4041C44.6985 28.3081 44.7547 28.2898 44.8296 28.3764C44.8963 28.4534 44.9658 28.5282 45.0353 28.6032L45.0354 28.6032L45.0354 28.6032C45.2538 28.8385 45.4724 29.0742 45.6067 29.3737C45.7374 29.6655 45.8611 29.9699 45.7894 30.2945C45.6395 30.9728 45.3697 31.5999 44.9341 32.1503C44.6048 32.5662 44.2563 32.9714 43.7359 33.1339C43.2796 33.2763 42.8088 33.3883 42.3226 33.3845C41.9817 33.3815 41.6423 33.4085 41.3029 33.4354L41.3027 33.4354C41.2155 33.4424 41.1283 33.4493 41.041 33.4557C40.5496 33.4918 40.055 33.4613 39.5702 33.4117L39.3786 33.3919C38.7652 33.3286 38.1503 33.2651 37.5372 33.2515C36.658 33.2323 35.7844 33.1658 34.9202 33.0351C34.6479 32.9939 34.3741 32.9613 34.1003 32.9286L34.1002 32.9286C33.5053 32.8577 32.9102 32.7868 32.3303 32.6281C32.1433 32.5768 31.9525 32.5462 31.7616 32.5156L31.7616 32.5156C31.513 32.4757 31.2644 32.4359 31.0238 32.3503C30.6449 32.2154 30.2425 32.1559 29.8439 32.1128C29.2602 32.0496 28.671 31.94 28.1356 31.7475C27.9233 31.6714 27.7065 31.611 27.4897 31.5506L27.4896 31.5505C27.2141 31.4738 26.9385 31.397 26.6722 31.288C26.4436 31.1943 26.1879 31.1091 25.9284 31.0678C25.8371 31.0535 25.7463 31.0352 25.6555 31.0169L25.6554 31.0168C25.4055 30.9665 25.1558 30.9161 24.8978 30.9484C24.7067 30.9723 24.5282 31.0388 24.4196 31.2196C24.1338 31.695 24.1184 32.3798 24.5704 32.7761C25.0374 33.185 25.541 33.5513 26.0932 33.8468C26.2624 33.9373 26.4373 34.0161 26.6121 34.0948C26.9041 34.2263 27.196 34.3578 27.4606 34.5438C27.8502 34.8183 28.2865 35.0108 28.7187 35.2015L28.7187 35.2015L28.7408 35.2112C29.375 35.4913 29.9942 35.8 30.613 36.1092C31.2534 36.4286 31.9279 36.5949 32.6296 36.7073C32.8204 36.7379 33.0122 36.7557 33.2041 36.7735C33.4499 36.7964 33.6957 36.8192 33.9398 36.8689C34.0528 36.8919 34.1618 36.9292 34.2707 36.9664C34.4474 37.0269 34.624 37.0873 34.8176 37.0867C35.5563 37.0848 36.2936 37.0928 37.0323 37.1579C37.6039 37.208 38.1826 37.1928 38.7587 37.1776H38.7587L38.9041 37.1738C39.6789 37.1541 40.4522 37.1111 41.2256 37.0431C41.5339 37.0161 41.8471 37.0448 42.1604 37.0734C42.2978 37.0859 42.4353 37.0985 42.5723 37.1064C42.603 37.1082 42.6336 37.1103 42.6642 37.1123L42.6644 37.1124C42.8493 37.125 43.0335 37.1375 43.2187 37.0853C43.7077 36.9471 44.1738 36.7658 44.5659 36.4286L44.5741 36.4215C44.6331 36.3703 44.7351 36.2818 44.7476 36.4333C44.7526 36.4936 44.7608 36.5541 44.769 36.6148L44.769 36.6148C44.7924 36.7877 44.816 36.9621 44.7664 37.1382C44.6076 37.7036 44.2549 38.1425 43.8651 38.5612C43.7789 38.6535 43.7195 38.6123 43.6497 38.5514C43.5955 38.5041 43.5403 38.4578 43.4851 38.4116L43.4851 38.4115L43.485 38.4115L43.485 38.4115L43.485 38.4115L43.4849 38.4114L43.4849 38.4114L43.4849 38.4114L43.4848 38.4113L43.4848 38.4113L43.4848 38.4113L43.4848 38.4113L43.4848 38.4113L43.4848 38.4113L43.4847 38.4113L43.4847 38.4112L43.4847 38.4112C43.3788 38.3225 43.273 38.2338 43.1742 38.1378C42.6524 37.63 42.0341 37.7251 41.4635 37.9588C41.0541 38.1265 40.6649 38.3392 40.3075 38.6062C40.2536 38.6463 40.1963 38.6805 40.1387 38.7147L40.1387 38.7148L40.1387 38.7148L40.1387 38.7148L40.1386 38.7148L40.1386 38.7148L40.1386 38.7148L40.1386 38.7149L40.1385 38.7149C40.0525 38.7661 39.9659 38.8176 39.8896 38.89C39.7903 38.9843 39.6918 39.0798 39.5934 39.1753L39.5934 39.1754L39.5933 39.1754L39.5932 39.1755L39.5931 39.1756L39.5931 39.1756L39.593 39.1757L39.5929 39.1758L39.5929 39.1758C39.0782 39.6752 38.5632 40.1749 37.9063 40.5032C37.8778 40.5174 37.8499 40.5327 37.8224 40.5476C37.647 40.6432 37.4915 40.7279 37.3307 40.4821C37.3143 40.457 37.2785 40.4439 37.2437 40.4311L37.2437 40.431C37.2353 40.428 37.227 40.4249 37.219 40.4217L37.2089 40.4174C36.6585 40.1767 36.0875 40.3111 35.5891 40.8301C35.338 41.0915 35.3235 41.41 35.4012 41.714C35.4879 42.0526 35.6631 42.3688 35.9441 42.5978C36.3185 42.9024 36.5712 43.2982 36.8238 43.6939L36.8238 43.6939L36.8238 43.6939L36.8239 43.694L36.8239 43.694L36.8239 43.694L36.8239 43.694L36.8239 43.6941L36.824 43.6941C36.9139 43.835 37.0038 43.9759 37.0993 44.1126C37.1606 44.2007 37.1836 44.3056 37.1817 44.4208C37.1751 44.8264 37.177 45.2321 37.1826 45.6377C37.184 45.7389 37.1611 45.8222 37.0894 45.8911C36.9194 46.055 36.7864 46.248 36.6674 46.4494C36.5043 46.7256 36.2189 46.831 35.9528 46.9293L35.9118 46.9445C35.8532 46.9663 35.7915 46.9863 35.7295 47.0063C35.6038 47.0469 35.4765 47.088 35.3698 47.1464C35.0947 47.2966 34.7973 47.3447 34.5064 47.3918C34.457 47.3998 34.4078 47.4078 34.359 47.4162C33.9173 47.4919 33.4695 47.4898 33.0208 47.4877C32.7371 47.4863 32.4531 47.485 32.1701 47.5033C31.6801 47.5353 31.1878 47.5292 30.6952 47.523H30.6951H30.6949H30.6948H30.6946H30.6945H30.6943H30.6942H30.694C30.3356 47.5186 29.977 47.5141 29.619 47.5244C29.5277 47.527 29.4355 47.5274 29.3432 47.5278C29.0675 47.5291 28.7903 47.5304 28.5286 47.589C28.1028 47.6841 27.6704 47.7253 27.2474 47.738C26.5031 47.7605 25.756 47.7609 25.0074 47.7113C24.8389 47.7002 24.6704 47.6897 24.5019 47.6792H24.5018C23.8585 47.6392 23.2157 47.5993 22.5735 47.5258C21.9894 47.4588 21.4142 47.345 20.8422 47.2298C20.5451 47.17 20.2515 47.0799 19.9577 46.9897L19.9575 46.9896C19.8137 46.9455 19.6699 46.9013 19.5255 46.8607C18.9203 46.6904 18.3572 46.4194 17.7943 46.1484L17.7943 46.1484C17.6727 46.09 17.5512 46.0315 17.4293 45.974C16.8236 45.6883 16.2437 45.3599 15.7603 44.885C15.6491 44.7756 15.5541 44.6523 15.4593 44.5293C15.3881 44.4368 15.3171 44.3446 15.2394 44.2587C14.918 43.9032 14.7623 43.4703 14.6073 43.0394L14.6073 43.0393C14.5538 42.8907 14.5004 42.7422 14.4403 42.5974C14.2866 42.226 14.222 41.8196 14.1578 41.4155V41.4154L14.1578 41.4154V41.4154C14.1445 41.3317 14.1312 41.2481 14.1171 41.165C14.0305 40.654 14.0445 40.1523 14.1232 39.6455C14.147 39.4922 14.1674 39.3382 14.1877 39.1842L14.1878 39.1838L14.1878 39.1837C14.2158 38.9714 14.2439 38.7589 14.2811 38.5481C14.3085 38.3927 14.3079 38.2359 14.3072 38.0798V38.0798C14.3066 37.9244 14.306 37.7697 14.3331 37.6179C14.3894 37.3005 14.4172 36.9805 14.445 36.6602C14.4705 36.366 14.4961 36.0716 14.5438 35.7789C14.5699 35.6193 14.6013 35.4605 14.6328 35.3015L14.6328 35.3014L14.6328 35.3012L14.6328 35.3011L14.6328 35.301L14.6329 35.3008L14.6329 35.3007L14.6329 35.3006L14.6329 35.3004L14.6329 35.3004C14.6968 34.9773 14.7608 34.6535 14.7809 34.3213C14.7993 34.0149 14.8535 33.7126 14.9078 33.4098L14.9078 33.4098C14.9585 33.127 15.0093 32.8439 15.031 32.5569C15.0563 32.2262 15.113 31.8889 15.2057 31.5807L15.2932 31.2892L15.2946 31.2846L15.2963 31.2789C15.5142 30.5513 15.7324 29.8228 16.0048 29.1114C16.1455 28.7443 16.309 28.3873 16.4722 28.0313C16.5226 27.9212 16.573 27.8112 16.6227 27.701C16.9015 27.0823 17.2181 26.4802 17.5346 25.8783L17.5346 25.8782C17.6355 25.6864 17.7363 25.4947 17.8359 25.3024C17.8928 25.1926 17.949 25.0826 18.0051 24.9727L18.0053 24.9724C18.2017 24.5877 18.398 24.2033 18.6224 23.8312C18.8608 23.4353 19.0706 23.021 19.2803 22.6069L19.2803 22.6068L19.2803 22.6068C19.3681 22.4335 19.4558 22.2602 19.5456 22.0883C19.7236 21.7476 19.9342 21.4291 20.1448 21.1107L20.1448 21.1106L20.1448 21.1106C20.29 20.891 20.4352 20.6714 20.5696 20.4447C20.7827 20.0854 21.0216 19.7313 21.3509 19.4681C21.5127 19.3388 21.6353 19.1797 21.7561 19.0228L21.7562 19.0227L21.7563 19.0226C21.7921 18.9761 21.8278 18.9297 21.8643 18.8844L21.9813 18.7392L21.9814 18.7392L21.9814 18.7392C22.301 18.3422 22.6203 17.9456 22.9768 17.5795C22.9893 17.5669 23.0019 17.5546 23.0145 17.5424L23.0145 17.5423L23.0145 17.5423L23.0145 17.5423L23.0146 17.5422L23.0146 17.5422L23.0147 17.5422L23.0147 17.5421C23.067 17.4913 23.1186 17.4411 23.1548 17.3687C23.3867 16.9045 23.6336 16.4516 23.9221 16.0151C24.4125 15.2731 25.0229 14.7059 25.8464 14.3659C25.9007 14.3434 25.9521 14.3151 26.0038 14.2867C26.0866 14.2411 26.1701 14.1952 26.267 14.1724C26.8144 14.0434 27.3728 14.0277 27.9289 14.0121C28.031 14.0093 28.133 14.0064 28.2349 14.0028C28.6373 13.9889 29.0427 14.0285 29.4468 14.0679L29.4468 14.0679L29.4469 14.0679C29.5461 14.0775 29.6452 14.0872 29.7441 14.0961C30.2481 14.141 30.7428 14.2422 31.1939 14.4834C32.1073 14.972 32.6849 15.7453 33.0338 16.7022C33.0669 16.7929 33.078 16.8913 33.0892 16.9896L33.0892 16.9897C33.0938 17.0305 33.0984 17.0713 33.1046 17.1116C33.12 17.2118 33.0647 17.2334 32.979 17.2198C32.1644 17.0919 31.3419 17.0479 30.5212 17.0053C29.8116 16.9687 29.1033 17.0526 28.4068 17.2053C27.9351 17.3088 27.4746 17.4376 27.075 17.7303C26.8925 17.8641 26.7222 18.013 26.5518 18.1619L26.5518 18.1619L26.5518 18.1619C26.3124 18.3711 26.0731 18.5802 25.8 18.7477C25.7251 18.7936 25.6487 18.876 25.7124 18.9711C25.7827 19.076 25.896 19.0859 26.0033 19.0217C26.2174 18.8929 26.4104 18.7378 26.5977 18.5706C27.0994 18.1233 27.6184 17.706 28.3117 17.58C28.7145 17.5069 29.116 17.4418 29.5244 17.4048C29.6171 17.3964 29.7094 17.3853 29.8016 17.3742C30.055 17.3437 30.308 17.3132 30.5662 17.3397C30.8828 17.372 31.2009 17.3907 31.5185 17.4076C31.7481 17.4198 31.9757 17.4515 32.2033 17.4832C32.4664 17.5199 32.7296 17.5566 32.9964 17.5631C33.1374 17.5664 33.2844 17.6179 33.4133 17.6971C33.9149 18.0043 34.4068 18.3163 34.8433 18.7233C35.7109 19.5322 36.2645 20.5416 36.7714 21.5871C36.8163 21.6803 36.8636 21.8241 36.7667 21.8836C36.6979 21.926 36.6381 21.8402 36.59 21.7713C36.5802 21.7572 36.5708 21.7437 36.562 21.7323C36.0776 21.1065 35.3759 21.0386 34.6742 21.0273C34.4992 21.0244 34.325 21.0423 34.1502 21.0603L34.1502 21.0603C33.8838 21.0876 33.6162 21.1151 33.343 21.069C32.9524 21.0031 32.5596 21.0256 32.1665 21.0481C31.8671 21.0653 31.5675 21.0825 31.2684 21.0606C31.2484 21.059 31.2277 21.0616 31.2075 21.0642L31.1986 21.0653C30.5742 21.1402 29.9483 21.1501 29.3197 21.1281C29.24 21.1252 29.1604 21.1204 29.0807 21.1155C28.7632 21.0962 28.4455 21.0768 28.1238 21.1861C27.907 21.2601 27.6699 21.3093 27.4423 21.3552C27.1898 21.4058 26.9631 21.4747 26.7621 21.6335C26.3516 21.9573 25.999 22.3396 25.6466 22.7216L25.6465 22.7217C25.5245 22.8539 25.4025 22.9862 25.2782 23.1159C25.0313 23.3731 24.9995 23.7164 25.0763 24.0536C25.1358 24.3145 25.4215 24.434 25.7162 24.3637C25.7451 24.3568 25.7731 24.3467 25.801 24.3366C25.8825 24.3071 25.9639 24.2777 26.0689 24.3272C26.1813 24.3803 26.2932 24.4345 26.4052 24.4887C26.8935 24.7253 27.382 24.962 27.9116 25.1057C28.2517 25.1979 28.5478 25.3787 28.8115 25.627C28.8624 25.6749 28.9119 25.7259 28.9616 25.7771C29.1089 25.9288 29.2581 26.0825 29.4518 26.1652C29.5393 26.2024 29.6264 26.2407 29.7136 26.2789L29.7137 26.279L29.7137 26.279L29.7138 26.279L29.7138 26.279L29.7138 26.279L29.7139 26.279L29.7139 26.2791L29.714 26.2791L29.714 26.2791C30.1166 26.4558 30.5202 26.6328 30.9583 26.716C31.19 26.7598 31.4097 26.8429 31.6294 26.9259L31.6295 26.926C31.8299 27.0017 32.0303 27.0775 32.2399 27.1235C32.5959 27.2017 32.9533 27.2781 33.3135 27.331C33.3798 27.3408 33.4463 27.351 33.5129 27.3612C33.8674 27.4155 34.2246 27.4703 34.5792 27.464C35.2017 27.4532 35.812 27.3179 36.3737 27.0354C36.4751 26.9845 36.5893 26.9773 36.7031 26.9701C36.8761 26.9592 37.0482 26.9484 37.1728 26.7839C37.1794 26.775 37.2295 26.7933 37.2557 26.8059C37.5016 26.9226 37.5429 27.1418 37.3382 27.3258C37.1883 27.4607 37.029 27.597 36.8501 27.6842C36.7721 27.7221 36.6947 27.7636 36.6171 27.8053C36.2981 27.9765 35.9754 28.1496 35.5914 28.0837C35.1076 28.0009 34.6235 27.9985 34.1377 27.996L34.0611 27.9956C34.0253 27.9954 33.9891 27.9963 33.9529 27.9972C33.8468 27.9999 33.7402 28.0026 33.6414 27.9764C33.2918 27.8841 32.9357 27.8688 32.5797 27.8535C32.3723 27.8446 32.1649 27.8357 31.9588 27.8116C31.8208 27.7954 31.6824 27.7821 31.5439 27.7687L31.5438 27.7687C31.1313 27.729 30.7187 27.6892 30.3193 27.576C29.8195 27.4345 29.3174 27.2706 28.9398 26.886C28.7471 26.6895 28.5427 26.5061 28.3382 26.3227L28.3382 26.3226C28.2123 26.2097 28.0864 26.0967 27.9632 25.9806C27.8732 25.8963 27.7702 25.8195 27.6456 25.7895C27.5378 25.7633 27.4788 25.8195 27.4245 25.9127C27.3662 26.0129 27.4349 26.0568 27.4865 26.0897L27.5004 26.0986C27.9393 26.3876 28.3201 26.7446 28.6822 27.1188C28.9314 27.376 29.2345 27.5418 29.5483 27.6781C30.1662 27.9465 30.8365 28.0434 31.4965 28.1165C31.6126 28.1294 31.7289 28.1445 31.8454 28.1596L31.8454 28.1597L31.8455 28.1597L31.8455 28.1597L31.8456 28.1597L31.8456 28.1597L31.8457 28.1597L31.8457 28.1597L31.8458 28.1597C32.2598 28.2134 32.6765 28.2674 33.0975 28.228C33.143 28.2238 33.1917 28.2303 33.2367 28.2416C33.6752 28.3491 34.1212 28.3536 34.5685 28.3581L34.7 28.3596C34.9533 28.3625 35.2064 28.3803 35.4622 28.3983H35.4622H35.4623H35.4623H35.4623H35.4623H35.4623H35.4624H35.4624C35.5778 28.4064 35.6938 28.4146 35.8106 28.4214C35.7714 28.5547 35.6803 28.6252 35.5912 28.6941C35.5388 28.7347 35.4871 28.7747 35.4471 28.8266C35.0246 29.3755 34.5051 29.8182 33.8531 30.0711C33.6148 30.1637 33.3719 30.2444 33.1291 30.3252L33.129 30.3252C32.7686 30.445 32.408 30.5649 32.0619 30.7236C31.7963 30.8454 31.5293 30.9536 31.2299 30.9465C31.2175 30.9463 31.2047 30.9454 31.1918 30.9445C31.1133 30.9391 31.034 30.9336 31.0388 31.0697C31.0435 31.199 31.0786 31.2744 31.2281 31.2707C31.2576 31.2699 31.287 31.2696 31.3165 31.2692H31.3166C31.4962 31.2669 31.6742 31.2647 31.8436 31.1826C31.9968 31.1084 32.1579 31.0533 32.319 30.9981L32.3191 30.9981C32.4317 30.9595 32.5444 30.9209 32.6544 30.8758C33.0671 30.7067 33.499 30.561 33.9304 30.4355C34.4042 30.2979 34.7635 29.9886 35.1142 29.6867L35.1221 29.68C35.3906 29.4489 35.6266 29.1798 35.8625 28.9107C35.9661 28.7926 36.0697 28.6745 36.176 28.5596C36.3577 28.3638 36.5639 28.2078 36.814 28.1015C37.1316 27.9661 37.407 27.76 37.6412 27.5062C37.9457 27.175 37.8047 26.6396 37.3808 26.4528C37.3695 26.4478 37.3581 26.4434 37.3469 26.439L37.3468 26.439C37.2991 26.4206 37.2552 26.4037 37.2412 26.3502C37.1874 26.1443 37.1004 25.9516 37.0134 25.7589C36.9375 25.5908 36.8616 25.4228 36.8079 25.2462C36.5451 24.3848 35.9807 23.8077 35.1628 23.4527C34.5937 23.2054 34.0306 22.9501 33.5308 22.5651C32.7912 21.9955 31.9218 21.8082 31.0117 21.8662L30.9532 21.87C30.5279 21.8973 30.0998 21.9247 29.6734 21.9843C29.0227 22.0756 28.3801 22.1712 27.7524 22.3721C27.0156 22.6082 26.4253 23.0222 26.0347 23.7005C25.9326 23.8775 25.7995 24.004 25.5808 24.0269C25.4716 24.0382 25.3981 23.9956 25.4004 23.9052C25.4014 23.8718 25.4011 23.8373 25.4007 23.8024V23.8023V23.8023V23.8023V23.8023V23.8022V23.8022C25.3991 23.6325 25.3974 23.4524 25.5419 23.3445C25.6993 23.227 25.8186 23.0768 25.9374 22.9273C26.0378 22.8009 26.138 22.6749 26.2605 22.5693C26.3498 22.4923 26.4312 22.4045 26.5125 22.3168L26.5125 22.3168C26.666 22.1513 26.8192 21.9862 27.0249 21.8943C27.6357 21.6213 28.2681 21.3978 28.9548 21.4475C29.1722 21.4634 29.3886 21.4765 29.6064 21.4868C29.8937 21.5002 30.1792 21.4763 30.4646 21.4525C30.7316 21.4302 30.9984 21.408 31.2665 21.4161C31.3935 21.42 31.5211 21.4198 31.6486 21.4195C32.1185 21.4186 32.5884 21.4178 33.0357 21.6241C33.1505 21.6772 33.2713 21.7179 33.3921 21.7586C33.4408 21.775 33.4895 21.7914 33.5379 21.8086C34.2349 22.0578 34.9 22.3538 35.3628 22.9735C35.3821 22.9993 35.3959 23.0297 35.4096 23.0596C35.4321 23.109 35.454 23.1571 35.4987 23.181C35.9079 23.3998 36.2218 23.725 36.5357 24.0502L36.5357 24.0503L36.5357 24.0503L36.5357 24.0503L36.5357 24.0503L36.5357 24.0503L36.5357 24.0503L36.5358 24.0503L36.5358 24.0503C36.6836 24.2035 36.8314 24.3566 36.9892 24.4986C37.1662 24.6579 37.2927 24.8508 37.4126 25.0527C37.5501 25.2844 37.5929 25.5396 37.6361 25.7968C37.6416 25.8298 37.6472 25.8628 37.6529 25.8958C37.655 25.9073 37.6567 25.9195 37.6585 25.932C37.6711 26.0212 37.6862 26.1285 37.8295 26.1179C37.979 26.1063 37.9781 26.0011 37.9772 25.8945L37.9771 25.8766C37.9733 25.1937 37.659 24.6565 37.1808 24.2021C36.987 24.0181 36.7892 23.838 36.5916 23.658L36.5916 23.6579C36.256 23.3524 35.9207 23.047 35.605 22.7225C35.1539 22.2588 34.6841 21.8461 34.0559 21.6461C34.0364 21.6399 34.0168 21.6338 33.9972 21.6277L33.9971 21.6277L33.997 21.6277L33.9969 21.6276C33.8512 21.5826 33.7027 21.5367 33.5814 21.4138C33.6938 21.3885 33.8049 21.3857 33.9159 21.3885C34.0578 21.3922 34.1998 21.3949 34.3418 21.3977L34.3419 21.3977L34.3419 21.3977L34.342 21.3977L34.3421 21.3977L34.3421 21.3977L34.3422 21.3977L34.3423 21.3977L34.3424 21.3977C34.6345 21.4034 34.9266 21.4091 35.219 21.4227C35.5699 21.4391 35.8481 21.5482 36.1006 21.7805C36.1772 21.8509 36.2482 21.928 36.3193 22.0051L36.3193 22.0051C36.4856 22.1854 36.652 22.3659 36.8899 22.462C36.9334 22.4794 36.9466 22.5122 36.9601 22.5464C37.0347 22.7358 37.1769 22.8695 37.3188 23.0028C37.3464 23.0287 37.3739 23.0545 37.4009 23.0808C37.5157 23.1923 37.5785 23.3286 37.6431 23.4719C37.7872 23.7914 37.7826 24.1242 37.778 24.4571C37.7767 24.5527 37.7753 24.6483 37.7775 24.7436C37.7803 24.8691 37.808 25.011 37.9396 25.0096C38.0722 25.0078 38.1331 24.8794 38.1195 24.7356C38.1073 24.6069 38.1063 24.4786 38.1053 24.35V24.35C38.1036 24.1276 38.1019 23.9042 38.0422 23.6766C37.9438 23.3 37.8323 22.9646 37.5204 22.7192C37.4419 22.6575 37.3846 22.5771 37.327 22.4965L37.327 22.4965C37.264 22.4081 37.2007 22.3194 37.1091 22.2545C37.0561 22.2172 37.0763 22.1565 37.0962 22.0967C37.1003 22.0846 37.1043 22.0725 37.1077 22.0606C37.1714 21.8386 37.1667 21.6161 37.0721 21.4002C36.7615 20.6929 36.3456 20.0461 35.9221 19.4034C35.805 19.2256 35.6595 19.0721 35.5097 18.9141L35.5097 18.9141L35.5097 18.9141L35.5096 18.9141L35.5096 18.9141L35.5096 18.914L35.5096 18.914L35.5096 18.914L35.5096 18.914C35.4132 18.8123 35.3149 18.7086 35.2214 18.5954C35.3956 18.573 35.5361 18.5425 35.672 18.491C36.2772 18.262 36.9105 18.1748 37.5485 18.0919C37.7507 18.0656 37.948 18.0795 38.1449 18.0933C38.2704 18.1021 38.3956 18.1109 38.5219 18.1093C39.2882 18.099 40.0096 18.3219 40.7211 18.5631C41.3475 18.7757 41.8992 19.1427 42.447 19.5072L42.4945 19.5388C43.1227 19.9566 43.6665 20.4625 44.0717 21.106C44.0803 21.1196 44.0922 21.1329 44.1042 21.1465C44.1365 21.1827 44.1698 21.2202 44.1429 21.2648C44.1097 21.3203 44.0492 21.307 43.9941 21.2948C43.9785 21.2914 43.9634 21.288 43.9495 21.2864C43.8937 21.2797 43.838 21.2726 43.7823 21.2655L43.7823 21.2655C43.5538 21.2365 43.3253 21.2074 43.0941 21.2044C42.6032 21.1978 42.1146 21.2484 41.6303 21.3084C41.2059 21.3608 40.7759 21.432 40.3974 21.6644C40.2761 21.7384 40.1543 21.8203 40.2461 21.9735C40.3185 22.0948 40.423 22.0424 40.52 21.9938C40.5315 21.9879 40.543 21.9822 40.5543 21.9768C40.8274 21.8461 41.0949 21.7243 41.4125 21.7042C41.7254 21.6845 42.0444 21.6616 42.3526 21.6114C43.0248 21.5023 43.6876 21.5857 44.3396 21.6953C44.7866 21.7704 45.1396 22.0545 45.489 22.3358M41.0049 29.0722C40.8581 28.8834 40.7106 28.6937 40.5253 28.5357L40.5244 28.5352C40.7779 28.5657 41.0292 28.5598 41.2791 28.554C41.4405 28.5502 41.6014 28.5465 41.7619 28.5526C41.8701 28.5568 41.9648 28.516 42.0406 28.4519C42.1189 28.3858 42.1718 28.287 42.1142 28.183C42.0556 28.0767 41.9577 28.0776 41.849 28.1146C41.4799 28.2401 41.1052 28.2092 40.7272 28.1549L40.7137 28.153L40.7137 28.153C40.4133 28.1101 40.1149 28.0675 39.8297 27.953C39.7167 27.9076 39.6009 27.8694 39.4851 27.8311L39.485 27.8311L39.485 27.8311L39.485 27.8311L39.485 27.8311L39.485 27.8311L39.485 27.8311L39.4849 27.8311L39.4849 27.8311C39.3774 27.7956 39.2698 27.7601 39.1645 27.7188C39.1492 27.7128 39.1339 27.7062 39.1188 27.6996L39.1187 27.6996L39.1187 27.6996L39.1187 27.6996L39.1186 27.6996L39.1186 27.6996L39.1185 27.6995C39.0317 27.662 38.9482 27.6259 38.8629 27.6996C38.8202 27.7362 38.7692 27.8209 38.7846 27.8551C38.8352 27.9671 38.9252 28.0626 39.0446 28.1029C39.6301 28.3015 40.1342 28.6102 40.5267 29.1015C40.6808 29.294 40.8534 29.4715 41.026 29.6489L41.026 29.6489L41.026 29.6489C41.1079 29.7331 41.1898 29.8172 41.2696 29.9029C41.3974 30.0401 41.4886 30.2019 41.58 30.3642L41.5811 30.3662C41.5872 30.3769 41.5932 30.388 41.5992 30.3993C41.6529 30.4987 41.7121 30.6083 41.8556 30.5376C42.0088 30.4622 41.9573 30.3301 41.8964 30.2154L41.8642 30.1547C41.757 29.9515 41.6509 29.7504 41.4678 29.5924C41.2911 29.4401 41.1484 29.2566 41.0049 29.0722ZM23.4105 31.3873L23.4105 31.3874L23.4105 31.3874C23.408 31.4002 23.4058 31.4118 23.4031 31.4215V31.4219C23.4059 31.5184 23.4279 31.5835 23.5155 31.5938C23.6106 31.6051 23.6907 31.6018 23.7479 31.4931C23.9699 31.0702 24.3296 30.7877 24.7821 30.6842L24.8111 30.6776L24.8112 30.6776C25.2277 30.5822 25.6523 30.485 26.089 30.5175C26.1633 30.5227 26.2384 30.5208 26.3133 30.5188H26.3133L26.3691 30.5175C26.4694 30.5156 26.5378 30.4585 26.542 30.3638C26.5467 30.2538 26.4741 30.1994 26.3626 30.1957C25.5728 30.1695 24.7966 30.2083 24.0846 30.6126C23.8017 30.7732 23.604 31.0112 23.4429 31.2847C23.4242 31.3168 23.4167 31.3555 23.4105 31.3873L23.4105 31.3873ZM25.705 28.9701L25.6051 28.9704V28.9694C25.5511 28.9763 25.4962 28.9826 25.4407 28.9889L25.4404 28.989L25.4403 28.989L25.4401 28.989L25.4401 28.989C25.1341 29.0239 24.8093 29.0609 24.5109 29.2186C24.3905 29.2823 24.2931 29.3732 24.3765 29.5137C24.4528 29.642 24.5788 29.6018 24.6866 29.5427C24.9531 29.3966 25.2407 29.3409 25.54 29.3498C25.6226 29.3524 25.7005 29.3359 25.7784 29.3195C25.8131 29.3121 25.8478 29.3048 25.8829 29.2992C25.9925 29.2819 26.0478 29.2224 26.0323 29.1062C26.0178 28.9957 25.941 28.9722 25.8483 28.9704C25.8033 28.9698 25.7584 28.9699 25.705 28.9701ZM14.0075 38.2879C14.0141 38.2785 14.0211 38.2696 14.0276 38.2603C14.0225 38.2574 14.0173 38.2542 14.0117 38.2514C13.9977 38.2621 13.9963 38.2738 14.0075 38.2874V38.2879ZM44.8067 49.12L44.7935 49.1068L44.7767 49.1153L44.7903 49.1289L44.8067 49.12ZM43.6656 41.5084L43.6656 41.5083C43.8788 41.3401 44.0904 41.1731 44.3158 41.0239C44.3288 41.0153 44.3408 41.0045 44.3527 40.9938L44.3527 40.9938L44.3527 40.9937C44.3583 40.9887 44.3639 40.9837 44.3696 40.9789C44.4699 40.8955 44.5767 40.8515 44.6722 40.9756C44.7734 41.1079 44.6701 41.1878 44.5797 41.2579L44.5734 41.2627C44.4757 41.3384 44.3755 41.4112 44.2754 41.484L44.275 41.4843L44.2749 41.4844L44.2749 41.4844L44.2748 41.4844L44.2748 41.4845L44.2748 41.4845L44.2747 41.4845C44.085 41.6224 43.8954 41.7602 43.7232 41.9171C43.1555 42.4333 42.4772 42.7579 41.7966 43.081C41.5249 43.2099 41.3436 43.4337 41.1675 43.6604C41.1076 43.7376 41.0563 43.8217 41.0051 43.9059L41.0051 43.9059L41.0051 43.9059L41.005 43.9059L41.005 43.9059L41.005 43.9059L41.005 43.906L41.005 43.906C40.9505 43.9954 40.8961 44.0848 40.8312 44.1658C40.6204 44.4281 40.6874 44.6736 40.8485 44.9167C41.0794 45.2647 41.3619 45.5645 41.7319 45.7659C42.0275 45.9265 42.3563 45.9312 42.6824 45.9261C42.7816 45.9245 42.8079 45.8441 42.832 45.7707C42.8371 45.7551 42.8421 45.7398 42.8477 45.7256C43.055 45.1962 43.392 44.7484 43.7283 44.3015C43.769 44.2474 43.8097 44.1933 43.8501 44.1391C44.0006 43.9377 44.2099 43.8043 44.4187 43.6713C44.4934 43.6237 44.5681 43.5762 44.6399 43.5256C44.7252 43.4651 44.8451 43.4623 44.9205 43.5452C44.9901 43.6215 44.9389 43.6813 44.8897 43.7386C44.8763 43.7542 44.8632 43.7696 44.8526 43.785C44.8357 43.8099 44.8099 43.8323 44.7837 43.8478C43.9555 44.3242 43.5321 45.1181 43.1414 45.9373C43.0402 46.1495 43.1194 46.5139 43.2819 46.6727C43.3352 46.7246 43.3958 46.7234 43.4559 46.7222C43.4945 46.7214 43.533 46.7207 43.5691 46.734C43.8352 46.8322 44.1109 46.8263 44.3859 46.8205H44.3861H44.3862H44.3863H44.3864H44.3866H44.3867H44.3868C44.4369 46.8194 44.4869 46.8183 44.5369 46.8179C44.7247 46.816 44.8783 46.7528 44.9678 46.5589C45.051 46.379 45.1947 46.2497 45.3385 46.1204L45.3385 46.1203L45.3386 46.1203C45.4037 46.0617 45.4689 46.003 45.5285 45.9397C45.725 45.7305 45.9204 45.52 46.1158 45.3096L46.116 45.3094L46.1164 45.3089C46.2595 45.1549 46.4025 45.0009 46.5459 44.8474C46.5754 44.8158 46.6076 44.7867 46.64 44.7576L46.64 44.7576L46.64 44.7576L46.64 44.7576C46.6653 44.7349 46.6905 44.7121 46.7145 44.6881C46.7965 44.6061 46.8771 44.5977 46.9511 44.6937C47.0125 44.7734 47.042 44.8497 46.9459 44.9368C46.7156 45.1457 46.5104 45.3793 46.3052 45.6129L46.3052 45.6129C46.0429 45.9114 45.7805 46.21 45.4657 46.4572C45.2134 46.6554 45.2939 46.8842 45.372 47.1064L45.372 47.1065C45.3825 47.1363 45.3929 47.166 45.4025 47.1954C45.4596 47.3717 45.6083 47.3965 45.7657 47.4228C45.7902 47.4269 45.8149 47.431 45.8395 47.4357C46.3583 47.5345 46.6537 47.2059 46.9428 46.8842L46.9511 46.875C47.1784 46.622 47.3922 46.3567 47.6059 46.0914L47.606 46.0914L47.6061 46.0912L47.6061 46.0911L47.6068 46.0903C47.7002 45.9745 47.7935 45.8586 47.8879 45.7439L47.911 45.7156C47.9916 45.6159 48.0722 45.5164 48.2177 45.5087C48.2987 45.5045 48.3784 45.5176 48.4102 45.6033C48.4369 45.6769 48.3934 45.7279 48.3409 45.7841C48.136 46.0031 47.9476 46.2373 47.7599 46.4706L47.7599 46.4707L47.7599 46.4708L47.7598 46.4708C47.628 46.6348 47.4964 46.7984 47.3596 46.9561L47.3543 46.9622C47.0311 47.3348 46.6772 47.7428 46.0967 47.7992C45.6142 47.846 45.2044 47.6469 45.0512 47.1973L45.044 47.1758C45.0205 47.104 45.0123 47.0787 44.9027 47.1125C44.3748 47.276 43.8436 47.1978 43.3241 47.0629C43.0318 46.987 42.8505 46.7706 42.7915 46.4703C42.7606 46.3125 42.718 46.2741 42.5273 46.2858C42.0055 46.3167 41.5071 46.1598 41.1441 45.7799C40.9194 45.5447 40.6669 45.344 40.4147 45.1435C40.1864 44.962 39.9582 44.7806 39.751 44.5738C39.3795 44.2029 39.1027 43.8075 39.1434 43.245C39.1562 43.0658 39.0955 42.8951 39.0347 42.7244C39.0086 42.651 38.9825 42.5776 38.9622 42.5035C38.9365 42.4093 38.8724 42.4124 38.8088 42.4155C38.7889 42.4165 38.7691 42.4175 38.7504 42.4155C38.2872 42.3667 37.8684 42.244 37.6117 41.8023C37.5533 41.7015 37.5403 41.5944 37.5275 41.489L37.5275 41.489C37.5231 41.4525 37.5187 41.4161 37.5124 41.3803C37.4328 40.9316 37.0679 40.5761 36.6102 40.651C35.9961 40.7513 35.4326 41.1826 35.865 41.9204C35.9966 42.1447 36.1484 42.3466 36.3437 42.5185C36.6196 42.7616 36.8683 43.0272 37.0145 43.3738C37.044 43.4441 37.0918 43.511 37.1456 43.5658C37.4829 43.9092 37.5813 44.3335 37.5368 44.7912C37.5049 45.1186 37.5124 45.4455 37.5574 45.764C37.6258 46.2469 37.7354 46.7083 38.2628 46.9551C38.677 47.1485 39.0486 47.4259 39.419 47.7024L39.4489 47.7247C39.9711 48.1144 40.5342 48.4554 41.1872 48.5861C41.3711 48.6228 41.5587 48.64 41.7464 48.6572H41.7465H41.7465C41.8752 48.669 42.0039 48.6809 42.1315 48.699C42.5863 48.7632 43.0442 48.7719 43.5017 48.7806H43.5018C43.881 48.7878 44.26 48.795 44.6366 48.8339C45.2784 48.8999 45.906 48.8465 46.5365 48.7753C46.6308 48.7647 46.7217 48.7272 46.8129 48.6895C46.8948 48.6557 46.977 48.6218 47.0621 48.6072C47.6982 48.4971 48.302 48.2938 48.8655 47.9861C49.1948 47.8062 49.5073 47.5917 49.8141 47.3743C50.0061 47.238 50.0417 46.9153 49.956 46.6544C49.7419 46.0001 49.4576 45.3757 49.1508 44.7626C49.102 44.665 49.0316 44.5813 48.9604 44.4966C48.8785 44.3991 48.7954 44.3003 48.7428 44.1776L48.7269 44.1404C48.5532 43.734 48.3764 43.3202 48.0505 43.0061C47.8082 42.7726 47.6081 42.505 47.4079 42.2374L47.4079 42.2373C47.2126 41.9761 47.0173 41.715 46.7829 41.4857C46.2161 40.9311 45.5819 40.4754 44.8793 40.1091C44.8262 40.0814 44.7722 40.0542 44.718 40.0269L44.7177 40.0268C44.3468 39.8398 43.9646 39.6471 43.7733 39.2683C43.6514 39.0269 43.4638 38.868 43.2769 38.7098C43.1759 38.6242 43.0751 38.5388 42.985 38.4407C42.5681 37.9868 42.0809 38.0936 41.5961 38.28C41.0696 38.4824 40.5843 38.776 40.1679 39.1475C40.0734 39.2318 39.9744 39.3121 39.8752 39.3925L39.8751 39.3926C39.6174 39.6015 39.3584 39.8115 39.1734 40.0969C39.1489 40.1348 39.1097 40.1629 39.0682 40.1927C39.0487 40.2067 39.0287 40.2211 39.0095 40.237C39.0832 40.3244 39.1715 40.3931 39.2593 40.4615L39.2593 40.4615L39.2594 40.4616L39.2594 40.4616C39.3489 40.5313 39.4379 40.6006 39.5107 40.689C39.7796 41.0164 39.7903 41.2346 39.5126 41.5546C39.4161 41.6656 39.3046 41.7639 39.1922 41.8595C39.1125 41.9274 39.0015 41.9377 38.9416 41.8543C38.8839 41.7738 38.8821 41.6613 38.98 41.5836C39.0001 41.5676 39.0208 41.5522 39.0414 41.5368L39.0415 41.5368L39.0415 41.5368L39.0415 41.5368L39.0415 41.5368L39.0415 41.5367L39.0415 41.5367L39.0415 41.5367L39.0415 41.5367C39.077 41.5103 39.1125 41.4839 39.1453 41.4543C39.4329 41.1939 39.425 41.0225 39.1167 40.7812C38.7303 40.4791 38.6216 40.4857 38.1954 40.7189C37.8815 40.8908 37.8469 41.2122 37.8853 41.5311C37.9176 41.7991 38.1373 41.9101 38.3668 41.9827C38.9537 42.1677 39.5158 42.1419 40.0236 41.7532C40.1424 41.6622 40.2659 41.5771 40.3894 41.4921C40.6188 41.3341 40.8481 41.1761 41.0476 40.9803C41.5352 40.5016 42.1123 40.4613 42.7353 40.6112C43.0046 40.6758 43.2431 40.7986 43.4642 40.963C43.5817 41.0501 43.5869 41.1555 43.4876 41.236C43.3619 41.3382 43.3148 41.4782 43.2676 41.6186C43.233 41.7215 43.1983 41.8246 43.1325 41.9133L43.1335 41.9129C43.3174 41.7832 43.492 41.6454 43.6656 41.5084L43.6656 41.5084ZM41.5901 18.5671L41.5905 18.5682V18.5673L41.5901 18.5671ZM41.5901 18.5671C41.4655 18.2019 41.2766 17.9059 41.093 17.6181L41.093 17.6181C41.0072 17.4837 40.9226 17.3512 40.8462 17.2141C40.6052 16.7826 40.319 16.3795 40.0331 15.9767L40.0331 15.9767L40.0331 15.9767L40.0331 15.9766L40.0331 15.9766L40.0331 15.9766L40.0331 15.9766L40.033 15.9766C39.9633 15.8784 39.8936 15.7801 39.8245 15.6815C39.5308 15.2625 39.104 15.0362 38.6751 14.8088C38.5766 14.7566 38.478 14.7043 38.3809 14.6496C37.9649 14.4155 37.5302 14.289 37.0576 14.2731C36.9076 14.2681 36.7577 14.262 36.6078 14.2559L36.6078 14.2559C36.3612 14.2459 36.1146 14.2359 35.8678 14.2309C35.1417 14.2164 34.5197 14.4318 34.0241 15C33.8507 15.1992 33.619 15.3376 33.3884 15.4754C33.3094 15.5226 33.2306 15.5697 33.1542 15.6192C33.0184 15.7073 32.9725 15.7799 33.0676 15.933C33.3041 16.3138 33.425 16.7382 33.4723 17.1813C33.4835 17.2876 33.5149 17.3537 33.6044 17.4038C34.04 17.6478 34.4649 17.9078 34.8377 18.2441C34.9286 18.3261 35.0326 18.3069 35.1441 18.2727C35.2115 18.2518 35.2789 18.2307 35.3463 18.2097L35.3467 18.2095C35.6785 18.1058 36.0105 18.002 36.3479 17.9218C36.6763 17.8441 37.0145 17.8094 37.3527 17.7799C37.6309 17.7556 37.9082 17.7336 38.1869 17.7382C38.9256 17.7518 39.6456 17.8699 40.3581 18.0745C40.7697 18.193 41.1598 18.3522 41.5901 18.5671ZM34.678 23.6207C34.0976 23.3744 33.572 23.0474 33.0605 22.6872C32.4516 22.2582 31.7382 22.1931 31.0168 22.2184C30.2987 22.2432 29.5886 22.3425 28.8794 22.4582C28.2288 22.564 27.6067 22.7364 27.0512 23.1018C26.7591 23.2942 26.5568 23.5725 26.3551 23.8499L26.3003 23.9252C26.2708 23.9659 26.2548 24.0034 26.2881 24.0512C26.3509 24.1421 26.7364 24.2437 26.839 24.1926C27.1912 24.0175 27.5711 23.957 27.9576 23.9172C28.0928 23.9034 28.2277 23.8837 28.3626 23.864C28.5876 23.8313 28.8124 23.7985 29.0382 23.7926C29.2953 23.7861 29.5518 23.7627 29.8082 23.7393C30.2333 23.7004 30.6582 23.6616 31.0857 23.6999C31.4004 23.728 31.7156 23.7335 32.0311 23.7391H32.0311C32.2889 23.7436 32.5469 23.7481 32.8048 23.765C33.2477 23.7941 33.6972 23.743 34.1434 23.6924L34.1437 23.6923C34.2292 23.6826 34.3146 23.6729 34.3997 23.6638C34.4262 23.6611 34.4553 23.6681 34.4853 23.6754C34.5522 23.6915 34.6232 23.7087 34.6775 23.6207H34.678ZM42.7241 23.8779L40.7267 23.7893L40.7262 23.7898C40.7216 23.7706 40.7164 23.7509 40.7113 23.7312C40.8009 23.6804 40.8871 23.6254 40.9731 23.5707L40.9731 23.5707L40.9731 23.5707L40.9731 23.5707L40.9731 23.5706C41.2465 23.3965 41.5172 23.224 41.8861 23.1898C42.6098 23.1228 43.325 23.1064 44.0375 23.2305C44.3134 23.2788 44.601 23.3439 44.7711 23.6301C44.8589 23.7778 44.96 23.9175 45.061 24.0573L45.0611 24.0573L45.0611 24.0573C45.134 24.1582 45.207 24.2591 45.2751 24.3631C45.321 24.4334 45.3794 24.4933 45.4377 24.553C45.515 24.6321 45.592 24.7109 45.6395 24.8137C45.6634 24.8652 45.6793 24.9266 45.639 24.9678C45.5922 25.0163 45.5491 24.9763 45.5137 24.9436L45.5013 24.9322C45.4526 24.8887 45.3946 24.8678 45.3364 24.8467L45.3364 24.8467C45.3218 24.8414 45.3073 24.8362 45.2929 24.8306C45.2432 24.8111 45.1932 24.792 45.1432 24.7728C44.8499 24.6604 44.5545 24.5471 44.3008 24.3683C43.8216 24.0306 43.2927 23.9031 42.7241 23.8779ZM42.0379 40.8618C41.8235 40.8741 41.6368 40.9607 41.472 41.0993C41.0761 41.4324 40.6562 41.7339 40.2362 42.0353L40.2362 42.0353L40.2362 42.0353L40.2362 42.0354L40.1693 42.0834C39.9529 42.2389 39.7149 42.3551 39.4507 42.4024C39.3552 42.4192 39.2985 42.4478 39.3421 42.5494C39.4643 42.8352 39.476 43.1354 39.4751 43.4389L39.4751 43.4494C39.4749 43.5163 39.4746 43.5953 39.5453 43.6216C39.594 43.6399 39.6234 43.6032 39.6522 43.5672C39.6647 43.5515 39.6771 43.536 39.691 43.5251C40.3412 43.0142 40.9249 42.432 41.5083 41.8501L41.5083 41.85C41.6294 41.7293 41.7504 41.6086 41.872 41.4885C41.9633 41.3984 42.0356 41.2884 42.1073 41.1793L42.1074 41.1791L42.1075 41.179C42.1259 41.151 42.1442 41.1231 42.1629 41.0955C42.1742 41.0789 42.1896 41.0626 42.2053 41.0462L42.2053 41.0462C42.2469 41.0024 42.2898 40.9574 42.2584 40.9002C42.2326 40.8536 42.183 40.8584 42.1305 40.8634C42.0992 40.8664 42.0668 40.8695 42.0379 40.8618ZM42.0379 40.8618L42.0383 40.8618H42.0378L42.0379 40.8618ZM33.9479 25.3897C33.9437 25.4608 33.9395 25.532 33.9398 25.603C33.8913 25.4398 33.8985 25.2744 33.9057 25.1091C33.9093 25.0252 33.9129 24.9413 33.9093 24.8578C33.9689 25.0332 33.9584 25.2114 33.9479 25.3897Z" fill="#009A27"></path>
<path d="M46.1248 30.2489C46.063 30.87 45.8569 31.367 45.5763 31.8265C45.2357 32.3852 44.8671 32.923 44.2834 33.2761C43.9045 33.5052 43.4778 33.5492 43.0688 33.6663C42.6725 33.7797 42.2674 33.7342 41.8659 33.7623C41.3141 33.8012 40.7623 33.8373 40.2105 33.8031C39.4587 33.7567 38.7055 33.7122 37.956 33.6457C37.4398 33.5998 36.9245 33.5956 36.4093 33.5647C35.8992 33.5337 35.3919 33.4537 34.8841 33.3867C34.2143 33.2986 33.5397 33.2307 32.8774 33.1014C32.2413 32.9773 31.6051 32.8457 30.9751 32.6822C30.4627 32.5492 29.9319 32.4761 29.4059 32.3909C28.812 32.2948 28.2082 32.2101 27.6606 31.9206C27.5346 31.8541 27.3786 31.8443 27.2357 31.8091C26.6216 31.6597 26.0337 31.4213 25.4061 31.314C24.9934 31.2438 24.836 31.2555 24.6894 31.4986C24.5156 31.7866 24.539 32.2438 24.776 32.4522C25.0707 32.7112 25.3831 32.9515 25.7054 33.1754C26.0225 33.396 26.3635 33.5806 26.7069 33.7604C26.8333 33.827 26.9711 33.8373 27.0957 33.9071C27.7102 34.2499 28.2915 34.657 28.9459 34.9244C29.7886 35.2691 30.5699 35.746 31.4192 36.0734C31.8689 36.2467 32.3513 36.2921 32.8263 36.3689C33.4367 36.4678 34.07 36.4467 34.6546 36.6931C34.7412 36.7296 34.8326 36.7446 34.9286 36.7427C36.2842 36.7123 37.6351 36.8903 38.9912 36.8303C39.647 36.8013 40.3019 36.7638 40.9562 36.7043C41.2691 36.6757 41.5891 36.6893 41.9095 36.7291C42.9278 36.8551 43.8783 36.7179 44.6062 35.8888C44.9458 35.5019 45.3023 35.1253 45.5346 34.6621C45.6456 34.4415 45.6409 34.1989 45.4981 33.9708C45.4156 33.8387 45.3304 33.8153 45.217 33.9136C44.9561 34.1398 44.7031 34.3754 44.439 34.5979C44.1668 34.827 43.8394 34.989 43.4965 35.0129C42.5109 35.0813 41.5244 35.1506 40.5342 35.123C39.9032 35.1052 39.2718 35.1164 38.6408 35.1118C37.9092 35.1061 37.1859 34.9876 36.4575 34.9394C35.598 34.8823 34.7857 34.5951 33.9444 34.449C33.4573 34.3642 32.9664 34.3548 32.4759 34.3731C31.5522 34.4073 30.6608 34.2096 29.7975 33.9366C29.189 33.7441 28.582 33.5286 27.9828 33.2967C27.588 33.144 27.1444 33.1197 26.765 32.9192C26.4394 32.7473 26.0937 32.5932 25.8693 32.2738C25.8178 32.2002 25.7555 32.1323 25.8295 32.048C25.8965 31.9721 25.9907 31.9843 26.067 32.0293C26.2797 32.1539 26.5143 32.2588 26.6891 32.4251C26.9022 32.6274 27.1551 32.7019 27.4175 32.7623C28.3295 32.9721 29.1895 33.3361 30.0603 33.6635C30.3114 33.7581 30.5676 33.7511 30.8168 33.8256C31.1091 33.9127 31.4215 33.9305 31.7218 33.9956C31.8066 34.0139 31.8895 34.0176 31.9729 34.0293C32.3275 34.079 32.6792 34.0003 33.0357 34.0087C33.7838 34.0265 34.4986 34.1825 35.2115 34.3647C35.865 34.5319 36.5315 34.5731 37.1967 34.6378C37.6614 34.6827 38.1251 34.7591 38.594 34.7272C38.8882 34.7071 39.1823 34.6996 39.4765 34.6865C40.055 34.6607 40.6223 34.8097 41.2003 34.7736C41.8762 34.731 42.5507 34.6804 43.2295 34.6743C43.5888 34.6715 43.9462 34.5464 44.2183 34.2658C44.3537 34.1263 44.4872 33.9736 44.6507 33.8757C45.2193 33.5352 45.5032 32.9319 45.9627 32.4939C46.1665 32.2995 46.3412 32.0841 46.4949 31.848C46.6822 31.5599 46.6878 31.277 46.53 30.9721C46.4134 30.7473 46.2916 30.5271 46.1248 30.2508V30.2489Z" fill="#016808"></path>
<path fill-rule="evenodd" clip-rule="evenodd" d="M33.4122 26.9445C33.7373 26.5295 33.8891 26.0855 33.9397 25.603H33.9387C33.9385 25.5321 33.9427 25.4609 33.9468 25.3897C33.9574 25.2115 33.9679 25.0332 33.9083 24.8578C33.9354 24.5407 33.7453 24.3262 33.5476 24.1285C33.9251 24.0541 34.2961 24.0555 34.6676 24.0587C34.7055 24.0587 34.7439 24.0517 34.7809 24.0423C35.3149 23.9088 35.7955 24.1093 36.1028 24.5838C36.3188 24.9173 36.4547 25.2854 36.5907 25.6535L36.5907 25.6536L36.5907 25.6536C36.68 25.8955 36.7693 26.1373 36.8813 26.3693C36.9446 26.4995 36.8893 26.6021 36.7226 26.5862C36.5951 26.574 36.4771 26.6063 36.3628 26.6499C36.29 26.6775 36.2176 26.7059 36.1454 26.7341L36.1451 26.7342C35.7563 26.8864 35.3714 27.0371 34.9341 27.0743C34.4383 27.1158 33.9753 27.0385 33.4841 26.9565L33.4841 26.9565L33.4122 26.9445ZM43.2474 26.7245C43.6848 25.9897 43.9053 25.6192 43.1283 24.2802C43.3311 24.3093 43.4983 24.336 43.6567 24.4208C43.7728 24.4829 43.8873 24.5482 44.0019 24.6135L44.002 24.6136L44.0021 24.6136L44.0022 24.6137L44.0023 24.6138L44.0024 24.6138L44.0026 24.6139L44.0027 24.614L44.0028 24.614C44.2694 24.766 44.5362 24.9181 44.824 25.0311C44.8642 25.0469 44.9046 25.062 44.945 25.0772C45.0868 25.1304 45.2286 25.1837 45.3617 25.2639C45.535 25.3683 45.4924 25.5168 45.4001 25.5847C45.2625 25.6858 45.1565 25.8144 45.0504 25.9432C44.9499 26.0651 44.8494 26.1871 44.7218 26.2859C44.2684 26.6377 43.7817 26.8517 43.1915 26.8185L43.2474 26.7245ZM27.1616 24.4147C27.4072 24.5565 27.6682 24.6467 27.9257 24.7356C28.335 24.8771 28.7355 25.0155 29.0512 25.3534C29.1159 24.8386 29.41 24.485 29.7459 24.1229C28.8821 24.1725 28.0437 24.2554 27.1616 24.4147ZM33.0459 25.5361C32.9204 25.7862 32.7363 25.9351 32.4735 25.885L32.474 25.8846C31.9775 25.885 31.7507 25.5586 31.9405 25.167C32.0524 24.9356 32.4876 24.767 32.7527 24.8527C33.1101 24.9679 33.2122 25.2049 33.0459 25.5361ZM39.7757 24.7654C39.5064 24.986 39.2501 25.215 39.059 25.5031C39.0338 25.5411 39.0077 25.5787 38.9816 25.6163L38.9815 25.6164L38.9814 25.6166C38.8451 25.8129 38.709 26.009 38.689 26.2708C38.6763 26.4385 38.6904 26.5289 38.8688 26.5659C39.01 26.5953 39.1485 26.638 39.2867 26.6807L39.3591 26.703L39.3935 26.7134C39.505 26.7471 39.5401 26.7101 39.505 26.6029C39.3429 26.1115 39.4628 25.6464 39.6356 25.186C39.6539 25.1371 39.6637 25.0853 39.6735 25.0332V25.0332C39.6911 24.9399 39.7089 24.8456 39.7762 24.7654H39.7757ZM42.4354 25.0897C42.7694 25.0902 42.894 25.212 42.894 25.538C42.8935 25.9042 42.7816 26.0256 42.4457 26.0256C42.1829 26.0251 42.0049 25.8462 42.004 25.5811C42.003 25.2663 42.1581 25.0897 42.4354 25.0897ZM30.5314 24.9041C30.731 24.907 30.8575 24.8273 30.8523 24.6418C30.8476 24.4643 30.7287 24.3838 30.5464 24.3852C30.3708 24.3861 30.2584 24.4662 30.2532 24.6362C30.2476 24.8217 30.367 24.9074 30.5314 24.9046V24.9041ZM30.7343 25.3738C30.9095 25.3579 30.9568 25.4731 30.9517 25.6282H30.9521C30.9559 25.7851 30.9062 25.8924 30.7174 25.8853C30.5432 25.8788 30.4378 25.7926 30.4378 25.6235C30.4378 25.4422 30.584 25.3874 30.7343 25.3738ZM40.4863 24.9679C40.4895 24.9813 40.4922 24.9952 40.495 25.0092C40.5127 25.1 40.5316 25.1963 40.6877 25.1861C40.8625 25.1744 40.9627 25.0962 40.9707 24.9262C40.9777 24.7702 40.8751 24.6831 40.7308 24.6723C40.5357 24.6573 40.4887 24.7971 40.4863 24.9679ZM40.4863 24.9679L40.4863 24.9683V24.9679L40.4863 24.9679ZM41.0194 26.0607C41.0133 26.2185 40.9173 26.2687 40.766 26.2598H40.7655C40.6105 26.2841 40.5529 26.1942 40.5529 26.0494C40.5529 25.8921 40.6442 25.8349 40.7913 25.8396C40.9365 25.8443 41.0255 25.9033 41.0194 26.0607Z" fill="white"></path>
</svg>