<svg width="64" height="64" viewBox="0 0 64 64" fill="none" xmlns="http://www.w3.org/2000/svg">
<rect width="64" height="64" fill="#3CEAAA"></rect>
<g clip-path="url(#clip0_91_690)">
<path d="M32 62C48.5685 62 62 48.5685 62 32C62 15.4315 48.5685 2 32 2C15.4315 2 2 15.4315 2 32C2 48.5685 15.4315 62 32 62Z" fill="#3CEAAA"></path>
<path fill-rule="evenodd" clip-rule="evenodd" d="M23.7963 15.5728C25.8331 13.4757 29.1146 13.4757 31.1513 15.5728L36.6959 21.1651L37.6011 20.233C39.6379 18.1359 42.9194 18.1359 44.9562 20.233L50.3876 25.7087C52.5375 27.8058 52.5375 31.301 50.3876 33.5146L35.6775 48.4272C33.6407 50.5243 30.3593 50.5243 28.3225 48.4272L13.6124 33.5146C11.4625 31.4175 11.4625 27.9223 13.6124 25.7087L23.7963 15.5728ZM33.075 25.0097L27.6436 19.534L17.4597 29.6699L22.8911 35.1456L33.075 25.0097ZM26.7383 38.9903L32.1697 44.466L37.6011 38.9903L32.1697 33.5146L26.7383 38.9903ZM35.9038 29.6699L41.3352 35.1456L46.8798 29.6699L41.4484 24.1942L35.9038 29.6699Z" fill="black"></path>
</g>
<defs>
<clipPath id="clip0_91_690">
<rect width="60" height="60" fill="white" transform="translate(2 2)"></rect>
</clipPath>
</defs>
</svg>