<svg width="64" height="64" viewBox="0 0 64 64" fill="none" xmlns="http://www.w3.org/2000/svg">
<rect width="64" height="64" fill="#0F3158"></rect>
<g clip-path="url(#clip0_91_688)">
<path d="M18.9257 40.2454C18.8238 39.9397 18.671 39.8378 18.5182 39.4813C16.7354 40.551 14.9526 41.5697 13.1189 42.6903V42.3847C13.068 42.1809 13.1699 42.13 13.3227 42.0281C14.5961 41.1622 16.0223 40.4491 17.3976 39.6851C22.8987 36.6289 28.3998 33.3689 33.901 30.109C38.8418 27.1547 43.7826 24.3532 48.8762 21.5008L49.6912 21.0424C49.7931 21.0424 49.844 20.9914 49.9968 21.0424C50.2515 21.1952 50.4043 21.348 50.7609 21.4498C50.8628 21.5008 50.9137 21.6027 50.9137 21.6536V22.5195C50.9137 22.6723 50.8627 22.8251 50.7099 22.8761C48.9781 23.8948 47.2972 24.9135 45.4635 25.9323C42.8657 27.3585 40.268 28.8866 37.6703 30.4656C37.6193 30.5165 37.5683 30.5165 37.4665 30.5675L37.0081 29.8034L18.9257 40.2454ZM13.119 39.1757C13.119 39.0738 13.068 38.921 13.119 38.7682L13.2718 38.6154C15.0036 37.6476 16.6845 36.6798 18.3144 35.6611C23.7646 32.2484 29.5204 29.1922 35.1234 25.9832C38.9437 23.7929 42.8657 21.5517 46.635 19.3105C46.8388 19.2596 46.9407 19.2596 47.0425 19.3105C47.6028 19.6671 48.265 20.0746 48.8253 20.3293C48.8762 20.3293 48.8762 20.3802 48.9781 20.4311C45.1579 22.6214 41.3376 24.9135 37.4665 27.1038C37.2627 26.8491 37.1609 26.5944 37.0081 26.3397C30.9976 29.8543 24.9361 33.3689 18.9257 36.7817L18.5182 36.0686C16.7354 37.1382 14.9526 38.157 13.1189 39.1757H13.119ZM13.119 35.763V35.3554C13.119 35.3045 13.2208 35.2536 13.2718 35.2027C15.1054 34.133 16.9391 33.0633 18.8238 31.9427C24.7834 28.4281 30.8448 25.1173 36.8043 21.6026C39.0455 20.2783 41.3376 19.0049 43.6807 17.6296C43.7826 17.5277 43.8845 17.5277 44.1391 17.6296C44.6994 18.0371 45.3616 18.3427 46.0747 18.6993C42.1526 21.0423 38.3324 23.1816 34.5631 25.3719C34.3084 25.1681 34.2066 24.9135 34.0537 24.6588C29.011 27.5622 23.9684 30.5165 18.9257 33.3689C18.8238 33.1142 18.671 32.8596 18.5182 32.6558L13.119 35.763ZM13.119 28.8866V28.4791C13.119 28.4791 13.2208 28.3772 13.2718 28.3772C14.8508 27.4094 16.4298 26.4416 18.0088 25.5247C24.5287 21.7555 31.1504 17.9352 37.7721 14.115H38.0777C38.7908 14.5225 39.4021 14.93 40.0642 15.2866L28.4508 22.0101C28.298 21.8064 28.1961 21.5008 28.0433 21.297C24.9362 23.0289 21.9819 24.7607 18.9257 26.5435L18.5182 25.7794L13.119 28.8866ZM13.119 25.4229C13.119 25.321 13.068 25.1682 13.119 25.0663L13.2718 24.9135C15.1564 23.793 17.092 22.6214 18.9257 21.6027C24.274 18.6484 29.4695 15.5413 34.7669 12.536C34.9197 12.3832 35.0215 12.3832 35.1744 12.536C35.8366 12.8416 36.4478 13.1472 37.059 13.6057C33.1878 15.8468 29.3676 18.0881 25.4964 20.2783C25.3946 20.0746 25.1908 19.7689 25.089 19.5143L18.9257 23.0798C18.8238 22.8251 18.671 22.5705 18.5182 22.3667C16.7354 23.3854 14.9526 24.4042 13.1189 25.4229L13.119 25.4229ZM13.119 22.0611V21.6026C13.119 21.5517 13.2208 21.5007 13.2718 21.4498C14.4433 20.7367 15.7167 20.0236 16.9901 19.3105L31.8126 10.7532C31.9654 10.7023 32.0163 10.7023 32.22 10.7532L33.9009 11.772C33.9519 11.8229 34.0028 11.8229 34.1047 11.9247L22.5422 18.5465C22.4403 18.2918 22.2875 18.139 22.0837 17.8334C21.0141 18.4446 19.9444 19.1068 18.9257 19.6162C18.8238 19.3615 18.671 19.2086 18.5182 18.903C16.7354 20.0236 14.9526 21.0424 13.1189 22.0611H13.119ZM13.1699 32.3502C13.0171 31.9428 13.068 31.8408 13.3736 31.688C19.486 28.1225 25.5983 24.7098 31.7107 21.1442L40.7265 15.8978C40.8793 15.7959 40.9811 15.7959 41.083 15.8978C41.6942 16.2034 42.2546 16.56 42.9167 16.9165C42.9676 16.9165 42.9676 16.9165 42.9676 16.9674C39.1474 19.2596 35.2763 21.4498 31.4561 23.742L30.9976 22.9779C27.0245 25.321 23.0006 27.6132 18.9257 29.9562C18.8238 29.7015 18.671 29.4978 18.5182 29.2431C16.7354 30.2618 14.9526 31.2806 13.1698 32.3502H13.1699ZM15.0545 44.4221C26.9736 37.5457 38.8927 30.6693 50.8628 23.7929C50.9137 23.7929 50.9137 23.8439 50.9137 23.8439V26.0341C50.9137 26.1869 50.8118 26.2888 50.7609 26.2888C47.6028 28.1225 44.5466 29.9053 41.3886 31.6881C40.1152 32.503 38.8927 33.2162 37.5174 33.9292C37.4665 33.9292 37.4665 33.9802 37.3646 34.0311C37.2118 33.7255 37.059 33.5218 36.9571 33.318C30.9466 36.7308 24.8852 40.2453 18.9257 43.76C18.7729 43.4034 18.62 43.1997 18.4672 42.9959C18.4163 43.0469 18.3144 43.0469 18.3144 43.0978C17.3976 43.5053 16.6336 44.0147 15.8186 44.5749C15.462 44.8296 15.2583 44.7278 15.0545 44.4221ZM18.0088 46.1539C28.9601 39.8888 39.8605 33.5218 50.9137 27.2057V29.5997C50.9137 29.5997 50.8118 29.7015 50.7609 29.7015C49.5893 30.3637 48.5197 30.924 47.45 31.6371L37.6193 37.342C37.5683 37.3929 37.4665 37.4439 37.3646 37.4948L36.9571 36.6798C31.9654 39.6341 26.9736 42.4356 21.9309 45.339C21.7272 45.1352 21.6253 44.9315 21.5234 44.7278C21.4725 44.7278 21.4215 44.7787 21.3706 44.8296C20.5047 45.2371 19.5369 45.7465 18.7219 46.2049C18.3144 46.5105 18.3144 46.5105 18.0088 46.1539ZM20.9631 47.9367L50.9137 30.6184V32.8087C50.9137 33.0124 50.8627 33.1143 50.7609 33.2162C48.6215 34.3877 46.4822 35.6102 44.4957 36.7818L37.5684 40.8057C37.5174 40.8566 37.4665 40.8566 37.3646 40.9076C37.2118 40.602 37.1099 40.3982 36.9571 40.1435C32.9841 42.4357 28.9601 44.8296 24.8852 47.1218C24.7324 46.8671 24.6305 46.6124 24.4777 46.3578C24.3249 46.5105 24.1721 46.5615 23.9684 46.6124C23.2553 47.0709 22.4403 47.4783 21.6762 48.0386C21.4725 48.1405 21.1669 48.0896 20.9631 47.9368V47.9367ZM23.9174 49.6686C32.9332 44.4221 41.898 39.2266 50.9137 34.0311V36.4251C50.9137 36.527 50.8118 36.5779 50.7609 36.6289L37.5683 44.1674C37.5174 44.2184 37.4665 44.2693 37.3646 44.3203C37.2118 44.0147 37.059 43.8618 36.9571 43.6071C33.901 45.288 30.8957 47.0708 27.8905 48.8536C27.6867 48.5989 27.5849 48.3442 27.432 48.0896C27.3811 48.0896 27.3811 48.1405 27.3301 48.1405C26.4642 48.7517 25.5474 49.2101 24.6305 49.7195C24.274 49.9232 24.3249 49.9232 23.9174 49.6686ZM26.8717 51.3495C34.9197 46.7143 42.9167 42.13 50.9137 37.4948V39.8888C50.9137 39.9397 50.8118 39.9397 50.7609 39.9907C49.3346 40.9075 47.9594 41.6206 46.4313 42.4357C43.5279 44.1674 40.5227 45.8993 37.5683 47.6821C37.5174 47.6821 37.4665 47.733 37.3646 47.7839C37.2118 47.4783 37.059 47.2236 36.9571 47.0199C34.9197 48.1405 32.8822 49.363 30.8448 50.5854C30.7429 50.2798 30.5901 50.0761 30.4373 49.8214C30.3354 49.8214 30.2845 49.8723 30.1826 49.9233C29.3676 50.4326 28.5017 50.891 27.6358 51.4513C27.3302 51.6042 27.3302 51.6042 26.8717 51.3495ZM29.8261 53.1322C36.9062 49.0064 43.8335 44.9825 50.9137 40.9075C50.9137 41.5697 50.8627 42.3337 50.9137 42.9959C50.9137 43.2506 50.8118 43.4034 50.5062 43.6071L37.6193 51.0948C37.5174 51.0948 37.4665 51.1967 37.3646 51.2476C37.2118 50.891 37.059 50.6873 36.9571 50.4835C35.9384 51.0438 34.8688 51.6551 33.901 52.2663C33.6972 52.0116 33.5953 51.8079 33.3407 51.5023L32.8822 51.8079C32.0672 52.2663 31.3542 52.7247 30.5901 53.1322C30.2335 53.336 30.2335 53.336 29.8261 53.1322Z" fill="white"></path>
</g>
<defs>
<clipPath id="clip0_91_688">
<rect width="43" height="43" fill="white" transform="translate(10.5 10.5)"></rect>
</clipPath>
</defs>
</svg>