<svg width="64" height="64" viewBox="0 0 64 64" fill="none" xmlns="http://www.w3.org/2000/svg">
<rect width="64" height="64" fill="#CF1011"></rect>
<path fill-rule="evenodd" clip-rule="evenodd" d="M32 12C37.3383 12 42.3629 14.0791 46.1372 17.8581H46.1419C49.9208 21.6371 52 26.657 52 32C52 37.343 49.9208 42.3629 46.1419 46.1419C42.3629 49.9208 37.343 52 32 52C26.657 52 21.6371 49.9208 17.8581 46.1419C14.0791 42.3629 12 37.343 12 32C12 28.1321 13.0911 24.4233 15.1609 21.2062C14.5521 20.4664 14.1868 19.5158 14.1868 18.4856C14.1868 16.1161 16.1161 14.1868 18.4856 14.1868C20.8551 14.1868 22.7843 16.1161 22.7843 18.4856C22.7843 20.8551 20.8551 22.7843 18.4856 22.7843C17.7738 22.7843 17.1042 22.6064 16.5095 22.2973C14.6879 25.2007 13.7279 28.5254 13.7279 31.9953C13.7279 36.8748 15.6291 41.4638 19.0803 44.915C22.5315 48.3662 27.1206 50.2674 32 50.2674C36.8794 50.2674 41.4685 48.3662 44.9197 44.915C48.3709 41.4638 50.2721 36.8748 50.2721 31.9953C50.2721 27.1159 48.3709 22.5268 44.9197 19.0756C41.4685 15.6244 36.8794 13.7232 32 13.7232V12ZM21.0611 18.4856C21.0611 17.0667 19.9045 15.9101 18.4856 15.9101C17.0667 15.9101 15.9101 17.0667 15.9101 18.4856C15.9101 19.9045 17.0667 21.0611 18.4856 21.0611C19.9045 21.0611 21.0611 19.9045 21.0611 18.4856ZM41.5667 31.9999C41.5667 37.2821 37.2821 41.5667 31.9999 41.5667C26.7178 41.5667 22.4331 37.2821 22.4331 31.9999C22.4331 26.7178 26.7178 22.4331 31.9999 22.4331C37.2821 22.4331 41.5667 26.7178 41.5667 31.9999Z" fill="white"></path>
</svg>