<svg width="64" height="64" viewBox="0 0 64 64" fill="none" xmlns="http://www.w3.org/2000/svg">
<rect width="64" height="64" fill="black"></rect>
<path fill-rule="evenodd" clip-rule="evenodd" d="M24.3876 16H28.8549C29.0255 16 29.162 16.1396 29.162 16.3102V22.8374C29.162 23.0111 29.3016 23.1476 29.4722 23.1476H35.2083C35.379 23.1476 35.5186 23.0111 35.5186 22.8374V16.3102C35.5186 16.1396 35.6551 16 35.8288 16H40.293C40.4636 16 40.6032 16.1396 40.6032 16.3102V22.8374C40.6032 23.0111 40.7397 23.1476 40.9134 23.1476H46.3734C46.5472 23.1476 46.6837 23.2873 46.6837 23.4579V27.9127C46.6837 28.0865 46.5472 28.223 46.3734 28.223H40.9134C40.7397 28.223 40.6032 28.3626 40.6032 28.5332V35.4668C40.6032 35.6374 40.7397 35.777 40.9134 35.777H46.3734C46.5472 35.777 46.6837 35.9135 46.6837 36.0872V40.5421C46.6837 40.7127 46.5472 40.8524 46.3734 40.8524H40.9134C40.7397 40.8524 40.6032 40.992 40.6032 41.1626V47.6898C40.6032 47.8604 40.4636 48 40.293 48H35.8288C35.6551 48 35.5186 47.8604 35.5186 47.6898V41.1626C35.5186 40.9889 35.379 40.8524 35.2083 40.8524H29.4753C29.3047 40.8524 29.1651 40.992 29.1651 41.1626V47.6898C29.1651 47.8604 29.0286 48 28.858 48H24.3907C24.2201 48 24.0805 47.8604 24.0805 47.6898V41.1626C24.0805 40.9889 23.944 40.8524 23.7702 40.8524H18.3102C18.1365 40.8524 18 40.7127 18 40.5421V36.0872C18 35.9135 18.1365 35.777 18.3102 35.777H23.7702C23.944 35.777 24.0805 35.6374 24.0805 35.4668V28.5332C24.0805 28.3626 23.944 28.223 23.7702 28.223H18.3102C18.1365 28.223 18 28.0865 18 27.9127V23.4579C18 23.2873 18.1365 23.1476 18.3102 23.1476H23.7702C23.944 23.1476 24.0805 23.0111 24.0805 22.8374V16.3102C24.0743 16.1396 24.217 16 24.3876 16ZM35.5217 35.4699V28.5332C35.5217 28.3626 35.3821 28.223 35.2114 28.223H29.4753C29.3047 28.223 29.1651 28.3626 29.1651 28.5332V35.4668C29.1651 35.6374 29.3047 35.777 29.4753 35.777H35.2114C35.3821 35.7801 35.5217 35.6374 35.5217 35.4699Z" fill="white"></path>
</svg>