<svg width="64" height="64" viewBox="0 0 64 64" fill="none" xmlns="http://www.w3.org/2000/svg">
<rect width="64" height="64" fill="#13B5EC"></rect>
<g clip-path="url(#clip0_90_97)">
<path d="M31.9145 10.9438H44.1856C44.5218 10.9438 44.5779 11.0558 44.6899 11.1679C45.9787 12.4567 47.3235 13.6894 48.5002 15.0342C48.6122 15.0901 48.7243 15.2583 48.7243 15.3704V23.3269C48.7243 23.551 48.7243 23.551 48.3321 23.551H36.3411C36.1169 23.551 36.1169 23.551 36.1169 23.3269V19.6289C36.1169 19.4048 36.1169 19.4048 35.8368 19.4048H28.0482C27.7681 19.4048 27.7681 19.4048 27.7681 19.6289V27.4174C27.7681 27.7536 27.7681 27.7536 28.1043 27.7536H44.0736C44.2977 27.7536 44.5218 27.7536 44.5779 27.9217C45.8106 29.2104 47.0994 30.4432 48.3321 31.6758C48.5002 31.844 48.5002 31.956 48.5002 32.1802V48.4296C48.5002 48.5977 48.5002 48.7098 48.3321 48.8218C47.0994 50.1106 45.8106 51.3993 44.5218 52.6321C44.4098 52.7441 44.2977 52.8002 44.0736 52.8002H19.6433C19.4753 52.8002 19.3632 52.7441 19.3072 52.6321C17.9624 51.3993 16.6736 50.1106 15.3288 48.8218C15.2729 48.7098 15.2729 48.5977 15.2729 48.4857V40.473C15.2729 40.2488 15.2729 40.2488 15.4971 40.2488H27.488C27.7122 40.2488 27.7682 40.3047 27.7682 40.473V44.1151C27.7682 44.4513 27.7682 44.4513 28.0484 44.4513H35.7248C35.9489 44.4513 36.0049 44.3954 36.0049 44.1151V36.3266C36.0049 36.0464 36.0049 36.0464 35.7248 36.0464C30.4017 36.0464 25.0225 36.0464 19.6994 36.1023C19.4753 36.1023 19.3072 35.9903 19.1952 35.9903C17.9918 34.6188 16.7003 33.3273 15.3289 32.124C15.273 31.9559 15.273 31.8439 15.273 31.6757V15.5385C15.273 15.3704 15.273 15.2583 15.3289 15.2023C16.6737 13.8575 17.9624 12.5688 19.1952 11.3921C19.3072 11.224 19.3072 11.1119 19.4193 11.0558C19.4193 10.9438 19.4752 10.9438 19.5874 10.9438H31.9145Z" fill="white"></path>
</g>
<defs>
<clipPath id="clip0_90_97">
<rect width="43" height="43" fill="white" transform="translate(10.5 10.5)"></rect>
</clipPath>
</defs>
</svg>