<svg width="64" height="64" viewBox="0 0 64 64" fill="none" xmlns="http://www.w3.org/2000/svg">
<g clip-path="url(#clip0_90_94)">
<rect width="64" height="64" fill="#F00500"></rect>
<path d="M44.6586 32.8916C44.6367 33.0071 44.2933 33.3538 43.9499 33.6066C42.9417 34.3361 41.1371 35.0151 39.3033 35.3401C38.2585 35.5279 37.2137 35.5568 36.8996 35.4051C36.695 35.304 36.6658 35.2245 36.7388 34.9645C36.8923 34.4228 37.3891 33.8305 38.1635 33.2744C38.558 32.9927 40.1581 32.0321 40.9033 31.6276C42.1307 30.9631 43.1243 30.5659 43.7965 30.472C44.0083 30.4431 44.2641 30.4358 44.3444 30.472C44.4759 30.5225 44.622 30.9053 44.6805 31.3676C44.7097 31.6132 44.6951 32.6966 44.6586 32.8916Z" fill="black"></path>
<path d="M27.4456 35.2823C27.4017 35.369 27.1826 35.4629 26.9342 35.499C26.6857 35.5351 25.9259 35.5134 25.4949 35.4629C23.946 35.2606 22.3021 34.7912 21.1039 34.2133C20.4318 33.8883 19.9496 33.5633 19.5916 33.2094L19.387 32.9999L19.3651 32.7255C19.3286 32.2488 19.3359 31.4976 19.3943 31.2303C19.4309 31.0064 19.5112 30.7898 19.6208 30.5947C19.6598 30.5466 19.7669 30.5225 19.9423 30.5225C20.2637 30.5225 20.5341 30.5731 20.9724 30.7103C21.8711 30.9848 23.2081 31.6493 24.8373 32.6171C26.1816 33.4116 26.6857 33.8016 27.073 34.3361C27.336 34.6684 27.5113 35.1378 27.4456 35.2823Z" fill="black"></path>
<path d="M37.791 45.3363C37.791 45.358 37.7033 45.7047 37.5937 46.1164C37.4841 46.5281 37.3964 46.8603 37.3964 46.8748C37.3161 46.882 37.243 46.8892 37.1626 46.882H36.9288L36.6074 47.6332C36.432 48.0449 36.2713 48.4277 36.2494 48.4855L36.2055 48.5866L36.0521 48.341L35.8987 48.0954V46.0947L35.8402 46.1092C35.716 46.1381 34.832 46.2536 34.4448 46.2897C32.8448 46.4486 31.2374 46.4125 29.6447 46.1886C29.389 46.1525 29.1698 46.1236 29.1625 46.1308C29.1552 46.1381 29.1625 46.6003 29.1771 47.1709L29.1991 48.1966L29.0749 48.3843C29.0091 48.4855 28.9433 48.5721 28.9433 48.5794C28.9214 48.601 28.8484 48.4855 28.6803 48.1532C28.4977 47.8065 28.3662 47.4382 28.2712 47.0554L28.2201 46.8459L27.9936 46.8603L27.7671 46.882L27.7086 46.6148C27.6794 46.4703 27.6429 46.2464 27.6283 46.1236L27.6063 45.8925L27.4164 45.7264C27.3068 45.6325 27.1972 45.5386 27.1753 45.5241C27.1388 45.4952 27.1241 45.4447 27.1241 45.4014V45.3147L28.0374 45.3219L28.9507 45.3291L28.9799 45.423L29.0091 45.5169L29.3233 45.5314C29.4986 45.5386 30.0539 45.553 30.5507 45.5675L31.4639 45.5891L31.6977 45.228L31.9388 44.8669H32.2457L32.2384 44.1157L32.2311 43.3645L31.8292 43.1912C30.5361 42.6278 29.7762 41.985 29.4913 41.2049C29.4329 41.046 29.4329 40.9883 29.4182 40.266C29.4109 39.5509 29.4109 39.4859 29.4621 39.327C29.5644 38.9659 29.8493 38.6842 30.2146 38.5903C30.3388 38.5542 30.6676 38.5542 32.3918 38.5542L34.4229 38.5614L34.6494 38.6698C34.9197 38.7998 35.0439 38.8937 35.1973 39.0959C35.3727 39.327 35.4238 39.5076 35.4238 39.9482C35.4238 40.5766 35.38 41.1183 35.3142 41.335C35.2192 41.6311 35.0731 41.9128 34.8905 42.1656C34.5252 42.6278 33.8603 43.0901 33.2539 43.2995L33.0786 43.3645L33.0859 44.1229L33.0932 44.8813L33.2539 44.8958L33.4146 44.9102L33.6338 45.2352L33.8457 45.5603H34.8247C35.3654 45.5603 35.8402 45.5675 35.8841 45.5747C35.9571 45.5891 35.9718 45.5819 36.0448 45.4591L36.1325 45.3291H36.9727C37.601 45.3002 37.791 45.3147 37.791 45.3363Z" fill="black"></path>
<path d="M33.9333 47.4093C33.7945 47.4887 33.6995 47.5248 33.6776 47.5104C33.6557 47.5032 33.5534 47.4165 33.4438 47.3371L33.2466 47.1782L33.042 47.3948C32.5963 47.8715 32.5817 47.8932 32.4502 47.9004C32.2456 47.9221 32.2018 47.886 31.9534 47.5176C31.8219 47.3298 31.7196 47.1709 31.7196 47.1709C31.7196 47.1709 31.6246 47.1565 31.515 47.1493L31.3105 47.1276L31.2155 47.3226L31.1205 47.5176L30.9525 47.4671C30.821 47.4237 30.6895 47.3732 30.5653 47.3154L30.3461 47.207V46.7953L32.2895 46.8026L34.2329 46.8098L34.2402 47.0048C34.2475 47.2359 34.2548 47.2287 33.9333 47.4093Z" fill="black"></path>
<path d="M52.1984 38.5975C52.1911 38.5686 52.1911 38.5181 52.1838 38.4386C50.4304 38.2508 45.4257 38.1353 40.7791 41.9272C40.7791 41.9272 39.2813 35.1378 32.2676 35.1378C25.2538 35.1378 22.6528 41.9272 22.6528 41.9272C18.7222 37.7452 13.4618 38.0486 11.5623 38.323C11.5623 38.3664 11.5549 38.4169 11.5549 38.4603C11.4965 39.5076 11.5257 40.0059 11.7011 40.6632C12.249 42.7217 13.9367 44.9896 16.5815 47.2142C20.914 50.8545 26.788 53.4836 31.2374 53.7869C35.8767 54.0975 42.7225 51.4179 47.2815 47.5031C47.9974 46.8748 48.6696 46.2103 49.2979 45.5024C49.7509 44.9824 50.423 44.0868 50.3719 44.0868C50.3573 44.0868 50.3719 44.0723 50.4011 44.0579C50.423 44.0435 50.445 44.0218 50.4304 44.0073C50.423 44.0001 50.4377 43.9784 50.4596 43.9712C50.4815 43.964 50.4961 43.9496 50.4888 43.9351C50.4815 43.9207 50.4888 43.9062 50.518 43.899C50.5399 43.8918 50.5472 43.8701 50.5399 43.8557C50.5326 43.8412 50.5399 43.8268 50.5546 43.8268C50.5692 43.8268 50.5838 43.8051 50.5838 43.7907C50.5838 43.7762 50.5984 43.7545 50.613 43.7545C50.6276 43.7545 50.6422 43.7401 50.6422 43.7256C50.6641 43.6679 50.7007 43.6101 50.7372 43.5595C50.8468 43.3934 51.2852 42.6206 51.3436 42.4906C51.76 41.5588 52.0231 40.7282 52.1473 39.8976C52.1911 39.5003 52.2276 38.7709 52.1984 38.5975ZM33.9333 47.4092C33.7945 47.4887 33.6995 47.5248 33.6776 47.5104C33.6557 47.5031 33.5534 47.4165 33.4438 47.337L33.2466 47.1781L33.042 47.3948C32.5963 47.8715 32.5817 47.8932 32.4502 47.9004C32.2456 47.9221 32.2018 47.8859 31.9534 47.5176C31.8219 47.3298 31.7196 47.1709 31.7196 47.1709C31.7196 47.1709 31.6246 47.1565 31.515 47.1492L31.3105 47.1276L31.2155 47.3226L31.1205 47.5176L30.9525 47.467C30.821 47.4237 30.6894 47.3731 30.5652 47.3154L30.3461 47.207V46.7953L32.2895 46.8025L34.2329 46.8098L34.2402 47.0048C34.2475 47.2359 34.2548 47.2287 33.9333 47.4092ZM37.5863 46.1092C37.4768 46.5208 37.3891 46.8531 37.3891 46.8675C37.3087 46.8748 37.2357 46.882 37.1553 46.8748H36.9215L36.6073 47.6331C36.432 48.0448 36.2713 48.4277 36.2493 48.4854L36.2055 48.5866L36.0521 48.341L35.8986 48.0954V46.0947L35.8402 46.1092C35.716 46.138 34.832 46.2536 34.4447 46.2897C32.8447 46.4486 31.2374 46.4125 29.6447 46.1886C29.389 46.1525 29.1698 46.1236 29.1625 46.1308C29.1552 46.138 29.1625 46.6003 29.1771 47.1709L29.199 48.1965L29.0748 48.3843C29.0091 48.4854 28.9433 48.5721 28.9433 48.5793C28.9214 48.601 28.8483 48.4854 28.6803 48.1532C28.4976 47.8065 28.3661 47.4381 28.2711 47.0553L28.22 46.8459L27.9935 46.8603L27.767 46.882L27.7086 46.6147C27.6794 46.4703 27.6428 46.2464 27.6282 46.1236L27.6063 45.8925L27.4163 45.7263C27.3068 45.6325 27.1972 45.5386 27.1752 45.5241C27.1387 45.4952 27.1241 45.4447 27.1241 45.4013V45.3147L28.0374 45.3219L28.9506 45.3291L28.9798 45.423L29.0091 45.5169L29.3232 45.5313C29.4986 45.5386 30.0538 45.553 30.5506 45.5674L31.4639 45.5891L31.6977 45.228L31.9388 44.8668H32.2456L32.2383 44.1157L32.231 43.3645L31.8292 43.1912C30.536 42.6278 29.7762 41.985 29.4913 41.2049C29.4328 41.046 29.4328 40.9882 29.4182 40.266C29.4109 39.5509 29.4109 39.4859 29.462 39.327C29.5643 38.9659 29.8493 38.6842 30.2146 38.5903C30.3388 38.5542 30.6675 38.5542 32.3918 38.5542L34.4228 38.5614L34.6493 38.6697C34.9196 38.7997 35.0438 38.8936 35.1973 39.0959C35.3726 39.327 35.4238 39.5076 35.4238 39.9482C35.4238 40.5765 35.3799 41.1182 35.3142 41.3349C35.2192 41.6311 35.0731 41.9127 34.8904 42.1655C34.5251 42.6278 33.8603 43.09 33.2539 43.2995L33.0785 43.3645L33.0858 44.1229L33.0931 44.8813L33.2539 44.8957L33.4146 44.9102L33.6338 45.2352L33.8457 45.5602H34.8247C35.3653 45.5602 35.8402 45.5674 35.884 45.5747C35.9571 45.5891 35.9717 45.5819 36.0448 45.4591L36.1324 45.3291H36.9726C37.6229 45.3291 37.8128 45.3363 37.8128 45.358C37.7909 45.3508 37.6959 45.7047 37.5863 46.1092Z" fill="white"></path>
<path d="M52.1399 37.8608C52.1253 37.5358 52.0961 37.0807 52.0742 36.8568C51.76 33.5777 50.9125 30.8981 49.3052 28.0595C49.2394 27.9512 49.181 27.8429 49.1445 27.7562C49.1298 27.7345 49.1225 27.7129 49.1152 27.6984C49.3417 27.0267 50.2696 24.217 51.0075 21.0029C52.0084 16.6404 52.644 11.5411 50.7006 10.0099C50.7006 10.0099 47.3399 9.76435 42.8393 14.1269C41.6192 15.3331 40.5014 16.6404 39.5078 18.0344L39.1936 17.9333C37.3817 17.3482 35.5041 16.9871 33.6118 16.8643C33.042 16.821 30.9159 16.821 30.2218 16.8643C28.125 17.0015 26.5177 17.3121 24.6912 17.9405C24.6181 17.9694 24.5523 17.991 24.4866 18.0127C23.4564 16.626 22.3094 15.3259 21.0455 14.1341C16.3623 9.74991 12.8773 10.0027 12.8773 10.0027C10.817 11.5845 11.5184 16.9149 12.5851 21.4218C13.2864 24.4048 14.1486 27.0267 14.47 27.9729C14.4481 28.0234 14.4189 28.0812 14.3897 28.1318C12.6873 31.5409 11.7668 34.8272 11.5476 38.323C13.4545 38.0486 18.7075 37.738 22.6455 41.9272C22.6455 41.9272 25.2464 35.1378 32.2602 35.1378C39.274 35.1378 40.7717 41.9272 40.7717 41.9272C45.4184 38.1353 50.423 38.258 52.1765 38.4386C52.1692 38.2942 52.1545 38.0775 52.1399 37.8608ZM15.8509 25.2499C15.8509 25.2499 13.1184 18.4966 13.8198 14.6397C13.9367 13.9897 14.1559 13.4191 14.4992 12.9857C14.4992 12.9857 17.597 13.289 22.5943 18.7783C22.5943 18.7783 21.6445 19.2334 20.3733 20.2012C20.3733 20.2012 20.366 20.2084 20.3587 20.2084C18.9778 21.2557 17.2098 22.917 15.8509 25.2499ZM27.4455 35.2823C27.4017 35.3689 27.1825 35.4628 26.9341 35.499C26.6857 35.5351 25.9259 35.5134 25.4948 35.4628C23.9459 35.2606 22.3021 34.7911 21.1039 34.2133C20.4317 33.8883 19.9495 33.5633 19.5916 33.2094L19.387 32.9999L19.3651 32.7254C19.3285 32.2487 19.3358 31.4976 19.3943 31.2303C19.4308 31.0064 19.5112 30.7897 19.6208 30.5947C19.6597 30.5466 19.7669 30.5225 19.9422 30.5225C20.2637 30.5225 20.534 30.5731 20.9724 30.7103C21.871 30.9847 23.208 31.6492 24.8373 32.6171C26.1816 33.4116 26.6857 33.8016 27.0729 34.3361C27.3359 34.6683 27.5113 35.1378 27.4455 35.2823ZM44.6586 32.8916C44.6366 33.0071 44.2932 33.3538 43.9499 33.6066C42.9416 34.3361 41.137 35.015 39.3032 35.3401C38.2585 35.5278 37.2137 35.5567 36.8995 35.4051C36.695 35.3039 36.6657 35.2245 36.7388 34.9645C36.8922 34.4228 37.389 33.8305 38.1635 33.2744C38.558 32.9927 40.158 32.032 40.9032 31.6276C42.1307 30.9631 43.1243 30.5658 43.7964 30.4719C44.0083 30.443 44.264 30.4358 44.3444 30.4719C44.4759 30.5225 44.622 30.9053 44.6805 31.3676C44.7097 31.6131 44.6951 32.6965 44.6586 32.8916ZM43.4457 20.2012L43.4311 20.194C42.2037 19.2261 41.2832 18.7711 41.2832 18.7711C46.1124 13.2818 49.1006 12.9785 49.1006 12.9785C49.4294 13.4191 49.6413 13.9824 49.7582 14.6325C50.4376 18.4894 47.8001 25.2499 47.8001 25.2499C46.6969 23.307 45.2138 21.588 43.4457 20.2012Z" fill="#FFA409"></path>
<path d="M49.7655 14.6325C49.1956 14.5602 46.4997 14.5458 43.4458 20.2012L43.4312 20.194C42.2038 19.2261 41.2832 18.7711 41.2832 18.7711C46.1125 13.2818 49.1007 12.9785 49.1007 12.9785C49.4367 13.419 49.6486 13.9824 49.7655 14.6325Z" fill="#FF9300"></path>
<path d="M47.8075 25.2499C46.697 23.2997 45.2212 21.5879 43.4458 20.2012C46.4997 14.5458 49.1883 14.5602 49.7655 14.6325C50.445 18.4966 47.8075 25.2499 47.8075 25.2499Z" fill="#FF8300"></path>
<path d="M49.8751 14.6542C49.8386 14.647 49.802 14.6397 49.7655 14.6325L49.8751 14.6542Z" fill="#FF8300"></path>
<path d="M22.5944 18.7711C22.5944 18.7711 21.6446 19.2261 20.3733 20.194C20.3733 20.194 20.366 20.2012 20.3587 20.2012C17.1952 14.5386 14.4116 14.5602 13.8125 14.6325C13.9294 13.9824 14.1486 13.4118 14.492 12.9785C14.4993 12.9785 17.597 13.2818 22.5944 18.7711Z" fill="#FF9300"></path>
<path d="M20.366 20.2012C18.9779 21.2557 17.2098 22.9097 15.8509 25.2499C15.8509 25.2499 13.1185 18.4966 13.8198 14.6325C14.4116 14.5602 17.2025 14.5458 20.366 20.2012Z" fill="#FF8300"></path>
<path d="M13.8198 14.6325C13.7832 14.6397 13.7394 14.647 13.7029 14.6542L13.8198 14.6325Z" fill="#FF8300"></path>
<path d="M40.4137 28.9985C40.4137 28.9985 38.0758 29.143 38.3681 27.3373C38.6603 25.5316 40.4868 25.3149 40.9982 25.3871C41.5096 25.4594 43.5553 26.1816 43.19 27.6984C42.8247 29.2152 42.3133 28.9263 42.0211 28.9985C41.7288 29.0707 40.4137 28.9985 40.4137 28.9985Z" fill="white"></path>
<path d="M23.1714 28.9985C23.1714 28.9985 20.8335 29.143 21.1257 27.3373C21.418 25.5316 23.2445 25.3149 23.7559 25.3871C24.2673 25.4594 26.313 26.1816 25.9477 27.6984C25.5824 29.2152 25.071 28.9263 24.7788 28.9985C24.4865 29.0707 23.1714 28.9985 23.1714 28.9985Z" fill="white"></path>
</g>
<defs>
<clipPath id="clip0_90_94">
<rect width="64" height="64" fill="white"></rect>
</clipPath>
</defs>
</svg>