<svg width="64" height="64" viewBox="0 0 64 64" fill="none" xmlns="http://www.w3.org/2000/svg">
<rect width="64" height="64" fill="#170659"></rect>
<path d="M22.9749 25.4298C22.7681 25.173 22.4542 25.0303 22.1189 25.0303H15.2069C15.1498 25.0303 15.0999 25.0089 15.0571 24.9732C15.0214 24.9376 15 24.8948 15 24.8448V20.1868C15 20.1369 15.0214 20.0941 15.0571 20.0584C15.0999 20.0156 15.1498 19.9942 15.2069 20.0014H22.5113C24.3516 20.0014 25.9423 20.7575 27.2834 22.2626L29.0596 24.4311L25.5999 28.6468L22.9749 25.4298ZM35.7434 22.2412C37.0773 20.7504 38.6751 20.0014 40.5369 20.0014H47.8199C47.8698 19.9942 47.9198 20.0156 47.9554 20.0442C47.9911 20.0798 48.0053 20.1298 47.9982 20.1868V24.8448C47.9982 24.8948 47.984 24.9376 47.9554 24.9732C47.9198 25.016 47.8698 25.0374 47.8199 25.0303H40.9078C40.5797 25.0232 40.2658 25.173 40.0518 25.4298L34.9587 31.6285L40.0732 37.8701C40.2801 38.1055 40.5868 38.2481 40.9007 38.241H47.8128C47.8627 38.2339 47.9198 38.2624 47.9483 38.2981C47.9768 38.3409 47.9982 38.3979 47.9911 38.4479V43.1058C47.9911 43.1558 47.9768 43.1986 47.9483 43.2342C47.9126 43.277 47.8627 43.2984 47.8128 43.2913H40.5369C38.6751 43.2913 37.0915 42.5352 35.7648 41.0301L31.5276 35.8585L27.2905 41.0301C25.9566 42.5352 24.3588 43.2913 22.497 43.2913H15.2069C15.1569 43.2984 15.0999 43.2699 15.0713 43.2342C15.0357 43.1914 15.0214 43.1344 15.0285 43.0844V38.4265C15.0285 38.3765 15.0428 38.3337 15.0713 38.2981C15.107 38.2553 15.1569 38.2339 15.2069 38.241H22.1189C22.4471 38.241 22.7609 38.0912 22.9749 37.8415L27.9753 31.7355L35.7434 22.2412Z" fill="#00D1FF"></path>
</svg>