<svg width="64" height="64" viewBox="0 0 64 64" fill="none" xmlns="http://www.w3.org/2000/svg">
<rect width="64" height="64" fill="white"></rect>
<path d="M27.0331 17.5546C33.7969 24.086 42.3089 28.4054 51.6448 30.0431C50.5195 20.3604 42.0155 12.8278 31.683 12.8278C28.9541 12.8278 26.3539 13.3556 23.9788 14.3064C24.9433 15.4318 25.9721 16.5262 27.0331 17.5546Z" fill="black"></path>
<path d="M11.6488 33.6795C11.9502 37.603 13.4533 41.2005 15.8124 44.1267L15.9209 44.0219C18.3442 41.705 21.4991 39.5977 25.3049 37.7621C28.6407 36.1516 32.4706 34.77 36.5981 33.6795H11.6488Z" fill="black"></path>
<path d="M35.7233 36.9414L35.73 36.9395L35.734 36.9356L35.7233 36.9414Z" fill="black"></path>
<path d="M35.7233 36.9414C31.7808 39.0905 28.1193 41.7661 24.9192 44.8564C23.7256 46.009 22.5802 47.2315 21.5112 48.4966L21.2459 48.811C20.0121 48.0852 18.8707 47.2315 17.8299 46.2768L18.0027 46.1099C21.9159 42.3505 28.1668 39.1418 35.7233 36.9414Z" fill="black"></path>
<path d="M18.0027 18.3541C21.9171 22.1186 28.1705 25.3241 35.73 27.5284C31.7834 25.3746 28.1182 22.7007 24.9152 19.6076C23.7256 18.4589 22.5802 17.2364 21.5071 15.9674L21.2419 15.653C20.0081 16.3787 18.8667 17.2325 17.8299 18.1872L18.0027 18.3541Z" fill="black"></path>
<path d="M27.0331 46.9093C25.9681 47.9377 24.9393 49.0321 23.9788 50.1575C26.3499 51.1083 28.9541 51.6361 31.683 51.6361C42.0155 51.6361 50.5195 44.1034 51.6488 34.4168C42.3129 36.0546 33.8009 40.3739 27.0372 46.9054L27.0331 46.9093Z" fill="black"></path>
<path d="M25.3049 26.7017C21.4991 24.8661 18.3442 22.7588 15.9209 20.4419L15.8124 20.3371C13.4533 23.2633 11.9502 26.8608 11.6488 30.7844H36.594C32.4666 29.6938 28.6407 28.3123 25.3009 26.6978L25.3049 26.7017Z" fill="black"></path>
</svg>