<svg width="64" height="64" viewBox="0 0 64 64" fill="none" xmlns="http://www.w3.org/2000/svg">
<rect width="64" height="64" fill="#13B5EC"></rect>
<g clip-path="url(#clip0_90_90)">
<path d="M19.2018 14.6196V49.3806C19.2018 52.2006 20.3406 53.2852 23.1063 53.2852H40.7309C43.5508 53.2852 44.7981 52.2006 44.7981 49.3806V14.6196C44.7981 11.7996 43.5508 10.715 40.7309 10.715H23.1063C20.3406 10.715 19.2018 11.7996 19.2018 14.6196ZM23.4317 48.7841V15.1076H40.5682V48.7841H23.4317ZM25.7093 37.9382C27.1735 37.9382 28.4208 38.1552 29.885 38.1552C29.885 39.7278 30.0477 41.1378 30.2104 42.602H33.9522C33.9522 41.1378 34.1149 39.7279 34.1149 38.1552C35.5791 38.1552 36.7179 37.9382 38.1821 37.7756V34.0337H25.7093V37.9382ZM25.7093 30.1292H38.1821V26.2247C36.718 26.2247 35.4164 26.062 33.9522 26.062V21.3982H30.0478C30.0478 23.0252 29.885 24.5978 29.885 26.062C28.3124 26.062 27.0109 26.2247 25.7094 26.2247L25.7093 30.1292Z" fill="white"></path>
</g>
<defs>
<clipPath id="clip0_90_90">
<rect width="43" height="43" fill="white" transform="translate(10.5 10.5)"></rect>
</clipPath>
</defs>
</svg>