<svg width="64" height="64" viewBox="0 0 64 64" fill="none" xmlns="http://www.w3.org/2000/svg">
<rect width="64" height="64" fill="#0098EA"></rect>
<path d="M44.1549 15.9995H19.8427C15.3725 15.9995 12.5392 20.8215 14.7881 24.7196L29.7928 50.7268C30.7719 52.425 33.2257 52.425 34.2048 50.7268L49.2125 24.7196C51.4584 20.8277 48.6251 15.9995 44.158 15.9995H44.1549ZM29.7806 42.9276L26.5128 36.6033L18.628 22.5013C18.1079 21.5987 18.7504 20.4421 19.8396 20.4421H29.7775V42.9307L29.7806 42.9276ZM45.3634 22.4983L37.4817 36.6064L34.214 42.9276V20.439H44.1519C45.2411 20.439 45.8836 21.5957 45.3634 22.4983Z" fill="white"></path>
</svg>