<svg width="64" height="64" viewBox="0 0 64 64" fill="none" xmlns="http://www.w3.org/2000/svg">
<rect width="64" height="64" fill="#EC0927"></rect>
<g clip-path="url(#clip0_91_683)">
<path d="M13.7192 12.3641L26.6368 48.6433C27.0765 49.8526 27.5712 51.0618 28.011 52.2712C28.1209 52.601 28.2858 52.8758 28.5057 53.0957C29.2203 53.4805 30.1548 53.2606 30.5395 52.601V52.6559L50.1083 24.0174C50.658 23.1929 50.2732 22.2584 49.6136 21.8187C49.2838 21.4339 48.2394 20.7742 47.9646 20.5544C46.8102 19.6199 45.4909 18.7404 44.1717 17.9708C43.8969 17.751 43.5671 17.641 43.2373 17.5311L33.8376 15.2225C32.1336 14.7827 30.4296 14.3979 28.7256 14.0131C26.1971 13.4635 23.6685 12.8588 21.14 12.1442C20.5353 11.9793 19.9856 11.8694 19.4359 11.7594C19.4359 11.7594 15.4232 10.715 15.0384 10.715C14.5438 10.715 14.3239 10.825 13.9391 11.2097C13.6093 11.6495 13.5543 11.7594 13.7192 12.3641ZM17.4571 16.5417L22.0744 22.0935C24.1632 24.622 26.307 27.1506 28.3408 29.6791C28.6156 30.0639 28.8355 30.3388 29.1104 30.6136C29.5501 31.0533 29.825 31.4381 30.2097 31.9329L30.0448 33.5269C29.9899 34.0766 29.8799 35.2859 29.0554 42.7616C28.7805 45.2902 28.5607 48.0386 28.5057 48.0936C26.6368 42.157 24.548 36.3853 22.5142 30.6136C20.8651 25.8863 19.1061 21.214 17.4571 16.5417ZM18.5015 14.3429C25.9222 16.1569 33.3979 18.0258 40.9286 19.7848L31.4741 29.954C30.4296 28.6897 29.3303 27.3705 28.2859 26.1062C25.0427 22.1485 21.7996 18.3007 18.5015 14.3429ZM30.8144 47.379C31.3091 42.4868 31.8588 37.5396 32.4085 32.6474L45.8208 25.5565C40.8736 32.8123 35.8715 40.1781 30.8144 47.379ZM36.0914 28.25C38.455 25.6115 40.8186 23.1379 43.1823 20.6643L46.2605 22.863L36.0914 28.25Z" fill="white"></path>
</g>
<defs>
<clipPath id="clip0_91_683">
<rect width="43" height="43" fill="white" transform="translate(10.5 10.5)"></rect>
</clipPath>
</defs>
</svg>