<svg width="64" height="64" viewBox="0 0 64 64" fill="none" xmlns="http://www.w3.org/2000/svg">
<rect width="64" height="64" fill="#FF007A"></rect>
<path d="M23.0203 13.3718C22.4788 13.2945 22.453 13.2687 22.7109 13.2429C23.2008 13.1655 24.3354 13.2687 25.1348 13.4492C26.9914 13.8876 28.6676 15.0222 30.4468 17.0077L30.911 17.5492L31.5814 17.4461C34.4437 16.9819 37.3834 17.343 39.8331 18.4776C40.5036 18.787 41.5608 19.4059 41.6897 19.5606C41.7413 19.6122 41.8187 19.9474 41.8702 20.2826C42.0507 21.4946 41.9734 22.3971 41.5866 23.0933C41.3803 23.4801 41.3803 23.5833 41.5092 23.9185C41.6124 24.1764 41.9218 24.3569 42.2055 24.3569C42.8243 24.3569 43.469 23.377 43.7784 22.0103L43.9074 21.4688L44.1394 21.7267C45.4546 23.1965 46.486 25.2336 46.6407 26.6777L46.6923 27.0645L46.4602 26.7292C46.0734 26.1361 45.7124 25.7494 45.2225 25.4141C44.3457 24.821 43.4174 24.6405 40.9677 24.5116C38.7501 24.3827 37.4865 24.2022 36.2488 23.7896C34.1343 23.0933 33.0513 22.1908 30.55 18.8644C29.4411 17.3945 28.7449 16.5951 28.0487 15.9247C26.5273 14.4549 25.0059 13.6813 23.0203 13.3718Z" fill="white"></path>
<path d="M42.2318 16.6467C42.2834 15.6668 42.4123 15.0222 42.696 14.4291C42.7991 14.197 42.9023 13.9907 42.9281 13.9907C42.9538 13.9907 42.9023 14.1712 42.8249 14.3775C42.6186 14.9448 42.5928 15.7442 42.7218 16.6467C42.9023 17.8071 42.9796 17.9618 44.2174 19.2254C44.7847 19.8185 45.4551 20.5663 45.713 20.8757L46.1514 21.443L45.713 21.0304C45.1715 20.5147 43.9337 19.5348 43.6501 19.4059C43.4696 19.3027 43.4438 19.3027 43.3149 19.4317C43.2117 19.5348 43.1859 19.6895 43.1859 20.4373C43.1601 21.5977 43.0054 22.3198 42.6186 23.0676C42.4123 23.4544 42.3865 23.377 42.567 22.9386C42.696 22.6034 42.7218 22.4487 42.7218 21.3399C42.7218 19.0964 42.4639 18.5549 40.8909 17.6524C40.5041 17.4203 39.8337 17.0851 39.4469 16.9046C39.0343 16.7241 38.7249 16.5694 38.7506 16.5694C38.8022 16.5178 40.3236 16.9562 40.9167 17.214C41.8192 17.575 41.974 17.6008 42.0771 17.575C42.1545 17.4977 42.206 17.2914 42.2318 16.6467Z" fill="white"></path>
<path d="M24.0773 20.4889C22.9943 18.9933 22.298 16.6725 22.4527 14.9448L22.5043 14.4033L22.7622 14.4548C23.2263 14.5322 24.0257 14.8416 24.4125 15.0737C25.444 15.6926 25.9081 16.5435 26.3465 18.658C26.4754 19.2769 26.6559 19.9989 26.7333 20.231C26.8622 20.6178 27.3522 21.5203 27.7648 22.0876C28.0484 22.5002 27.8679 22.7065 27.2232 22.6549C26.2433 22.5518 24.9282 21.6493 24.0773 20.4889Z" fill="white"></path>
<path d="M40.9155 31.706C35.8098 29.6431 34.0048 27.8638 34.0048 24.8468C34.0048 24.4084 34.0305 24.0474 34.0305 24.0474C34.0563 24.0474 34.2368 24.2021 34.4689 24.3826C35.5004 25.2078 36.6608 25.5688 39.8841 26.033C41.7665 26.3166 42.8495 26.5229 43.8294 26.8582C46.9496 27.8896 48.8836 30.0041 49.3477 32.8664C49.4767 33.6916 49.3993 35.2645 49.193 36.0897C49.0125 36.7344 48.4968 37.9205 48.3678 37.9463C48.342 37.9463 48.2905 37.8174 48.2905 37.6111C48.2389 36.5281 47.6974 35.4966 46.7949 34.6972C45.7118 33.7689 44.3194 33.0727 40.9155 31.706Z" fill="white"></path>
<path d="M37.3057 32.557C37.2542 32.1702 37.1252 31.6802 37.0479 31.474L36.9189 31.0872L37.151 31.3708C37.4862 31.7576 37.7441 32.2218 37.9762 32.8664C38.1567 33.3564 38.1567 33.5111 38.1567 34.3105C38.1567 35.0841 38.1309 35.2646 37.9762 35.7029C37.7183 36.3992 37.4089 36.8891 36.8932 37.4306C35.9648 38.3847 34.7529 38.9005 33.0252 39.1325C32.7158 39.1583 31.839 39.2357 31.0654 39.2873C29.1314 39.3904 27.8421 39.5967 26.6817 40.0093C26.527 40.0609 26.3723 40.1124 26.3465 40.0866C26.2949 40.0351 27.0943 39.5709 27.739 39.2615C28.6415 38.8231 29.5698 38.591 31.6069 38.23C32.6126 38.0753 33.6441 37.869 33.9019 37.7659C36.4548 36.9665 37.7183 34.9809 37.3057 32.557Z" fill="white"></path>
<path d="M39.6531 36.7087C38.9826 35.2388 38.8279 33.8464 39.1889 32.5312C39.2405 32.4023 39.2921 32.2734 39.3436 32.2734C39.3952 32.2734 39.5499 32.3507 39.7046 32.4539C40.0141 32.6602 40.6588 33.0212 42.3091 33.9237C44.3978 35.0583 45.584 35.9351 46.4091 36.9407C47.1312 37.8175 47.5695 38.8231 47.7758 40.0609C47.9048 40.7571 47.8274 42.4333 47.6469 43.1295C47.0796 45.3213 45.7903 47.0748 43.9078 48.0805C43.6242 48.2352 43.3921 48.3384 43.3663 48.3384C43.3405 48.3384 43.4437 48.0805 43.5984 47.7711C44.2173 46.4559 44.2946 45.1924 43.8305 43.7741C43.5468 42.8974 42.9537 41.8402 41.7676 40.0609C40.3493 37.998 40.0141 37.4565 39.6531 36.7087Z" fill="white"></path>
<path d="M20.4411 44.5993C22.3493 43.0006 24.6958 41.866 26.8619 41.5049C27.7902 41.3502 29.3374 41.4018 30.1883 41.6339C31.555 41.9949 32.7928 42.7685 33.4374 43.7226C34.0563 44.6509 34.34 45.4503 34.6236 47.2295C34.7268 47.9258 34.8557 48.6478 34.8815 48.8025C35.0878 49.7308 35.5004 50.4529 36.0161 50.8397C36.8155 51.4327 38.2079 51.4585 39.5746 50.9428C39.8067 50.8654 40.013 50.7881 40.013 50.8139C40.0646 50.8654 39.3683 51.3296 38.9042 51.5617C38.2595 51.8969 37.7438 52 37.0475 52C35.8098 52 34.7525 51.3554 33.9016 50.0661C33.7211 49.8082 33.3601 49.0604 33.0506 48.3642C32.1481 46.2754 31.684 45.6566 30.6267 44.9603C29.6984 44.3672 28.5122 44.2383 27.6097 44.6767C26.4235 45.244 26.1141 46.7654 26.9392 47.6937C27.2745 48.0805 27.8933 48.3899 28.4091 48.4673C29.3632 48.5962 30.1883 47.8484 30.1883 46.8943C30.1883 46.2754 29.9563 45.9144 29.3374 45.6308C28.5122 45.2698 27.6097 45.6824 27.6355 46.4817C27.6355 46.817 27.7902 47.0233 28.1254 47.178C28.3317 47.2811 28.3317 47.2811 28.177 47.2553C27.4292 47.1006 27.2487 46.1723 27.8418 45.5792C28.5638 44.8572 30.0852 45.1666 30.6009 46.1723C30.8072 46.5849 30.833 47.4101 30.6525 47.9258C30.2141 49.0604 28.9764 49.6535 27.7128 49.3182C26.8619 49.0862 26.5009 48.8541 25.4694 47.7968C23.6644 45.9402 22.9681 45.5792 20.3895 45.1924L19.8995 45.1151L20.4411 44.5993Z" fill="white"></path>
<path fill-rule="evenodd" clip-rule="evenodd" d="M6.87789 3.10882C12.8861 10.4064 22.1435 21.7524 22.6076 22.3713C22.9944 22.8871 22.8397 23.377 22.1951 23.738C21.834 23.9443 21.0862 24.1506 20.7252 24.1506C20.3126 24.1506 19.8227 23.9443 19.4875 23.6091C19.2554 23.377 18.2497 21.9072 15.9805 18.3744C14.2528 15.6668 12.783 13.4234 12.7572 13.3976C12.6541 13.3461 12.6541 13.3461 15.8 18.9675C17.7856 22.5003 18.4302 23.7638 18.4302 23.9185C18.4302 24.2537 18.3271 24.4342 17.9145 24.8984C17.2183 25.672 16.9088 26.5487 16.6768 28.3796C16.4189 30.4167 15.7227 31.8608 13.7371 34.3105C12.5767 35.7545 12.3962 36.0124 12.1125 36.6055C11.7515 37.3275 11.6484 37.7401 11.5968 38.6684C11.5452 39.6483 11.6484 40.2671 11.932 41.1955C12.1899 42.0206 12.4736 42.5621 13.1698 43.6194C13.7629 44.5477 14.1239 45.2439 14.1239 45.5018C14.1239 45.7081 14.1755 45.7081 15.1038 45.5018C17.3214 44.9861 19.1523 44.1093 20.1579 43.0263C20.7768 42.3559 20.9315 41.9948 20.9315 41.0665C20.9315 40.4734 20.9057 40.3445 20.751 39.9835C20.4932 39.4162 20.0032 38.952 18.946 38.23C17.5535 37.2759 16.9604 36.5023 16.8057 35.4709C16.6768 34.5941 16.8315 34.001 17.6051 32.3765C18.4044 30.7004 18.6107 30.0041 18.7397 28.3022C18.817 27.2192 18.946 26.7808 19.2554 26.4456C19.5906 26.0846 19.8743 25.9556 20.6737 25.8525C21.9888 25.672 22.8397 25.3368 23.5102 24.6921C24.1033 24.1506 24.3611 23.6091 24.3869 22.8097L24.4127 22.2166L24.0775 21.8556C22.8655 20.4631 6.07851 2 6.00115 2C5.97536 2 6.38794 2.48994 6.87789 3.10882ZM14.7943 39.7772C15.078 39.2873 14.9233 38.6684 14.4591 38.3589C14.0207 38.0753 13.3503 38.2042 13.3503 38.591C13.3503 38.6942 13.4019 38.7973 13.5566 38.8489C13.7887 38.9778 13.8145 39.1068 13.6339 39.3904C13.4534 39.6741 13.4534 39.9319 13.6855 40.1124C14.0465 40.3961 14.5365 40.2414 14.7943 39.7772Z" fill="white"></path>
<path fill-rule="evenodd" clip-rule="evenodd" d="M25.2376 26.2135C24.6188 26.394 24.0257 27.0644 23.8452 27.7349C23.742 28.1475 23.7936 28.8953 23.9741 29.1274C24.2578 29.4884 24.5156 29.5915 25.2376 29.5915C26.6559 29.5915 27.8679 28.9726 27.9968 28.2248C28.1257 27.606 27.5842 26.755 26.8364 26.3682C26.4496 26.1619 25.6502 26.0846 25.2376 26.2135ZM26.888 27.5028C27.0943 27.1934 27.0169 26.8581 26.6301 26.6261C25.9339 26.1877 24.8766 26.5487 24.8766 27.2192C24.8766 27.5544 25.4181 27.9154 25.9339 27.9154C26.2691 27.9154 26.7333 27.7091 26.888 27.5028Z" fill="white"></path>
</svg>