<svg width="64" height="64" viewBox="0 0 64 64" fill="none" xmlns="http://www.w3.org/2000/svg">
<rect width="64" height="64" fill="#3BB18E"></rect>
<path d="M35.8624 26.2344V21.5775H46.5115V14.482H17.5135V21.5775H28.1639V26.2306C19.5082 26.6282 13 28.3424 13 30.396C13 32.4496 19.5114 34.1638 28.1639 34.5639V49.4805H35.8649V34.5626C44.5049 34.1638 51 32.4508 51 30.3991C51 28.3474 44.5049 26.6344 35.8649 26.2356M35.8649 33.2992V33.2954C35.6476 33.3092 34.5313 33.3762 32.0457 33.3762C30.0585 33.3762 28.6604 33.3198 28.1677 33.2942V33.3004C20.5206 32.9617 14.8125 31.63 14.8125 30.0366C14.8125 28.4432 20.5212 27.1134 28.1677 26.7741V31.9737C28.6686 32.0082 30.1011 32.0927 32.0783 32.0927C34.453 32.0927 35.647 31.9938 35.8661 31.9737V26.7741C43.4982 27.114 49.1931 28.447 49.1931 30.0347C49.1931 31.6225 43.4957 32.9561 35.8661 33.296" fill="white"></path>
</svg>