<svg width="64" height="64" viewBox="0 0 64 64" fill="none" xmlns="http://www.w3.org/2000/svg">
<rect width="64" height="64" fill="black"></rect>
<path d="M48.7098 25.3148C48.2315 24.1195 47.6261 22.988 46.9091 21.9202C43.6737 17.1396 38.1914 14 31.9921 14C22.0478 14 14 22.0635 14 31.9919C14 41.9202 22.0636 50 31.9921 50C38.2072 50 43.6737 46.8604 46.9087 42.0798C47.6257 41.0278 48.2157 39.8963 48.7093 38.7015C49.538 36.6296 50 34.3666 50 32.0081C49.9842 29.6497 49.538 27.3866 48.7093 25.3148H48.7098ZM46.3034 30.1754H25.6974C26.0161 29.0597 26.6056 28.072 27.4026 27.2908C28.6137 26.0797 30.2873 25.3306 32.1358 25.3306H44.7894C45.5701 26.8125 46.0801 28.4382 46.3034 30.1754ZM31.8967 17.49C35.9925 17.49 39.7054 19.1952 42.3509 21.9361H32.582C29.7932 21.9361 27.2751 23.0676 25.4583 24.8844C24.0401 26.3026 23.0519 28.1194 22.6852 30.1754H17.5058C18.3987 23.0201 24.5021 17.49 31.8967 17.49ZM31.8967 46.5417C24.5021 46.5417 18.3987 41.012 17.49 33.8562H22.6694C23.5302 38.5414 27.6418 42.0951 32.582 42.0951H42.3509C39.7212 44.836 36.0083 46.5412 31.8967 46.5412V46.5417ZM32.1358 38.7168C29.0762 38.7168 26.4944 36.6613 25.6974 33.8562H46.3034C46.0801 35.5931 45.5543 37.2187 44.7894 38.7168H32.1358Z" fill="white"></path>
</svg>